%TF.GenerationSoftware,KiCad,Pcbnew,8.0.4*%
%TF.CreationDate,2024-11-26T00:51:47-06:00*%
%TF.ProjectId,bitaxeUltra,62697461-7865-4556-9c74-72612e6b6963,rev?*%
%TF.SameCoordinates,Original*%
%TF.FileFunction,Drillmap*%
%TF.FilePolarity,Positive*%
%FSLAX45Y45*%
G04 Gerber Fmt 4.5, Leading zero omitted, Abs format (unit mm)*
G04 Created by KiCad (PCBNEW 8.0.4) date 2024-11-26 00:51:47*
%MOMM*%
%LPD*%
G01*
G04 APERTURE LIST*
%ADD10C,0.100000*%
%ADD11C,0.200000*%
%ADD12C,0.106680*%
%ADD13C,0.300000*%
G04 APERTURE END LIST*
D10*
X7972900Y-4752200D02*
X13119200Y-4752200D01*
X13373200Y-14474400D02*
G75*
G02*
X13119200Y-14728400I-254000J0D01*
G01*
X13119200Y-4752200D02*
G75*
G02*
X13373200Y-5006200I0J-254000D01*
G01*
X7718900Y-5006200D02*
G75*
G02*
X7972900Y-4752200I254000J0D01*
G01*
X13119200Y-14728400D02*
X7972900Y-14728400D01*
X13373200Y-5006200D02*
X13373200Y-14474400D01*
X7972900Y-14728400D02*
G75*
G02*
X7718900Y-14474400I0J254000D01*
G01*
X7718900Y-14474400D02*
X7718900Y-5006200D01*
D11*
D10*
X9710169Y-6927220D02*
X9740169Y-6957220D01*
X9740169Y-6927220D02*
X9710169Y-6957220D01*
X9805169Y-6869720D02*
X9835169Y-6899720D01*
X9835169Y-6869720D02*
X9805169Y-6899720D01*
X9805169Y-6984720D02*
X9835169Y-7014720D01*
X9835169Y-6984720D02*
X9805169Y-7014720D01*
X9900169Y-6927220D02*
X9930169Y-6957220D01*
X9930169Y-6927220D02*
X9900169Y-6957220D01*
X11577200Y-9861500D02*
X11607200Y-9891500D01*
X11607200Y-9861500D02*
X11577200Y-9891500D01*
X11577200Y-9961500D02*
X11607200Y-9991500D01*
X11607200Y-9961500D02*
X11577200Y-9991500D01*
X11677200Y-9861500D02*
X11707200Y-9891500D01*
X11707200Y-9861500D02*
X11677200Y-9891500D01*
X11677200Y-9961500D02*
X11707200Y-9991500D01*
X11707200Y-9961500D02*
X11677200Y-9991500D01*
X7829000Y-8206000D02*
G75*
G02*
X7789000Y-8206000I-20000J0D01*
G01*
X7789000Y-8206000D02*
G75*
G02*
X7829000Y-8206000I20000J0D01*
G01*
X8086000Y-8776000D02*
G75*
G02*
X8046000Y-8776000I-20000J0D01*
G01*
X8046000Y-8776000D02*
G75*
G02*
X8086000Y-8776000I20000J0D01*
G01*
X8319000Y-8509000D02*
G75*
G02*
X8279000Y-8509000I-20000J0D01*
G01*
X8279000Y-8509000D02*
G75*
G02*
X8319000Y-8509000I20000J0D01*
G01*
X8390000Y-8775000D02*
G75*
G02*
X8350000Y-8775000I-20000J0D01*
G01*
X8350000Y-8775000D02*
G75*
G02*
X8390000Y-8775000I20000J0D01*
G01*
X8483095Y-8794864D02*
G75*
G02*
X8443095Y-8794864I-20000J0D01*
G01*
X8443095Y-8794864D02*
G75*
G02*
X8483095Y-8794864I20000J0D01*
G01*
X8496579Y-8685368D02*
G75*
G02*
X8456579Y-8685368I-20000J0D01*
G01*
X8456579Y-8685368D02*
G75*
G02*
X8496579Y-8685368I20000J0D01*
G01*
X8761479Y-8163637D02*
G75*
G02*
X8721479Y-8163637I-20000J0D01*
G01*
X8721479Y-8163637D02*
G75*
G02*
X8761479Y-8163637I20000J0D01*
G01*
X8887000Y-9634000D02*
G75*
G02*
X8847000Y-9634000I-20000J0D01*
G01*
X8847000Y-9634000D02*
G75*
G02*
X8887000Y-9634000I20000J0D01*
G01*
X8908300Y-13116800D02*
G75*
G02*
X8868300Y-13116800I-20000J0D01*
G01*
X8868300Y-13116800D02*
G75*
G02*
X8908300Y-13116800I20000J0D01*
G01*
X9005000Y-9626000D02*
G75*
G02*
X8965000Y-9626000I-20000J0D01*
G01*
X8965000Y-9626000D02*
G75*
G02*
X9005000Y-9626000I20000J0D01*
G01*
X9056006Y-10124995D02*
G75*
G02*
X9016006Y-10124995I-20000J0D01*
G01*
X9016006Y-10124995D02*
G75*
G02*
X9056006Y-10124995I20000J0D01*
G01*
X9108100Y-13118200D02*
G75*
G02*
X9068100Y-13118200I-20000J0D01*
G01*
X9068100Y-13118200D02*
G75*
G02*
X9108100Y-13118200I20000J0D01*
G01*
X9109700Y-12930900D02*
G75*
G02*
X9069700Y-12930900I-20000J0D01*
G01*
X9069700Y-12930900D02*
G75*
G02*
X9109700Y-12930900I20000J0D01*
G01*
X9122000Y-5956000D02*
G75*
G02*
X9082000Y-5956000I-20000J0D01*
G01*
X9082000Y-5956000D02*
G75*
G02*
X9122000Y-5956000I20000J0D01*
G01*
X9168065Y-12109704D02*
G75*
G02*
X9128065Y-12109704I-20000J0D01*
G01*
X9128065Y-12109704D02*
G75*
G02*
X9168065Y-12109704I20000J0D01*
G01*
X9263060Y-11879580D02*
G75*
G02*
X9223060Y-11879580I-20000J0D01*
G01*
X9223060Y-11879580D02*
G75*
G02*
X9263060Y-11879580I20000J0D01*
G01*
X9311000Y-10299000D02*
G75*
G02*
X9271000Y-10299000I-20000J0D01*
G01*
X9271000Y-10299000D02*
G75*
G02*
X9311000Y-10299000I20000J0D01*
G01*
X9359900Y-7258200D02*
G75*
G02*
X9319900Y-7258200I-20000J0D01*
G01*
X9319900Y-7258200D02*
G75*
G02*
X9359900Y-7258200I20000J0D01*
G01*
X9402000Y-5293000D02*
G75*
G02*
X9362000Y-5293000I-20000J0D01*
G01*
X9362000Y-5293000D02*
G75*
G02*
X9402000Y-5293000I20000J0D01*
G01*
X9430000Y-9719000D02*
G75*
G02*
X9390000Y-9719000I-20000J0D01*
G01*
X9390000Y-9719000D02*
G75*
G02*
X9430000Y-9719000I20000J0D01*
G01*
X9435500Y-7162600D02*
G75*
G02*
X9395500Y-7162600I-20000J0D01*
G01*
X9395500Y-7162600D02*
G75*
G02*
X9435500Y-7162600I20000J0D01*
G01*
X9461100Y-6940100D02*
G75*
G02*
X9421100Y-6940100I-20000J0D01*
G01*
X9421100Y-6940100D02*
G75*
G02*
X9461100Y-6940100I20000J0D01*
G01*
X9478000Y-13739000D02*
G75*
G02*
X9438000Y-13739000I-20000J0D01*
G01*
X9438000Y-13739000D02*
G75*
G02*
X9478000Y-13739000I20000J0D01*
G01*
X9497200Y-7427080D02*
G75*
G02*
X9457200Y-7427080I-20000J0D01*
G01*
X9457200Y-7427080D02*
G75*
G02*
X9497200Y-7427080I20000J0D01*
G01*
X9509000Y-6247000D02*
G75*
G02*
X9469000Y-6247000I-20000J0D01*
G01*
X9469000Y-6247000D02*
G75*
G02*
X9509000Y-6247000I20000J0D01*
G01*
X9519600Y-11755120D02*
G75*
G02*
X9479600Y-11755120I-20000J0D01*
G01*
X9479600Y-11755120D02*
G75*
G02*
X9519600Y-11755120I20000J0D01*
G01*
X9526700Y-7047100D02*
G75*
G02*
X9486700Y-7047100I-20000J0D01*
G01*
X9486700Y-7047100D02*
G75*
G02*
X9526700Y-7047100I20000J0D01*
G01*
X9546000Y-13263000D02*
G75*
G02*
X9506000Y-13263000I-20000J0D01*
G01*
X9506000Y-13263000D02*
G75*
G02*
X9546000Y-13263000I20000J0D01*
G01*
X9595800Y-6943140D02*
G75*
G02*
X9555800Y-6943140I-20000J0D01*
G01*
X9555800Y-6943140D02*
G75*
G02*
X9595800Y-6943140I20000J0D01*
G01*
X9630900Y-11212400D02*
G75*
G02*
X9590900Y-11212400I-20000J0D01*
G01*
X9590900Y-11212400D02*
G75*
G02*
X9630900Y-11212400I20000J0D01*
G01*
X9633000Y-11092000D02*
G75*
G02*
X9593000Y-11092000I-20000J0D01*
G01*
X9593000Y-11092000D02*
G75*
G02*
X9633000Y-11092000I20000J0D01*
G01*
X9646600Y-11615420D02*
G75*
G02*
X9606600Y-11615420I-20000J0D01*
G01*
X9606600Y-11615420D02*
G75*
G02*
X9646600Y-11615420I20000J0D01*
G01*
X9685600Y-12065900D02*
G75*
G02*
X9645600Y-12065900I-20000J0D01*
G01*
X9645600Y-12065900D02*
G75*
G02*
X9685600Y-12065900I20000J0D01*
G01*
X9697400Y-11490960D02*
G75*
G02*
X9657400Y-11490960I-20000J0D01*
G01*
X9657400Y-11490960D02*
G75*
G02*
X9697400Y-11490960I20000J0D01*
G01*
X9704000Y-9814000D02*
G75*
G02*
X9664000Y-9814000I-20000J0D01*
G01*
X9664000Y-9814000D02*
G75*
G02*
X9704000Y-9814000I20000J0D01*
G01*
X9716705Y-11283695D02*
G75*
G02*
X9676705Y-11283695I-20000J0D01*
G01*
X9676705Y-11283695D02*
G75*
G02*
X9716705Y-11283695I20000J0D01*
G01*
X9717000Y-9946000D02*
G75*
G02*
X9677000Y-9946000I-20000J0D01*
G01*
X9677000Y-9946000D02*
G75*
G02*
X9717000Y-9946000I20000J0D01*
G01*
X9719564Y-11382566D02*
G75*
G02*
X9679564Y-11382566I-20000J0D01*
G01*
X9679564Y-11382566D02*
G75*
G02*
X9719564Y-11382566I20000J0D01*
G01*
X9722800Y-9550400D02*
G75*
G02*
X9682800Y-9550400I-20000J0D01*
G01*
X9682800Y-9550400D02*
G75*
G02*
X9722800Y-9550400I20000J0D01*
G01*
X9760900Y-10896600D02*
G75*
G02*
X9720900Y-10896600I-20000J0D01*
G01*
X9720900Y-10896600D02*
G75*
G02*
X9760900Y-10896600I20000J0D01*
G01*
X9775100Y-12274700D02*
G75*
G02*
X9735100Y-12274700I-20000J0D01*
G01*
X9735100Y-12274700D02*
G75*
G02*
X9775100Y-12274700I20000J0D01*
G01*
X9791380Y-12067540D02*
G75*
G02*
X9751380Y-12067540I-20000J0D01*
G01*
X9751380Y-12067540D02*
G75*
G02*
X9791380Y-12067540I20000J0D01*
G01*
X9824400Y-9550400D02*
G75*
G02*
X9784400Y-9550400I-20000J0D01*
G01*
X9784400Y-9550400D02*
G75*
G02*
X9824400Y-9550400I20000J0D01*
G01*
X9865000Y-13120000D02*
G75*
G02*
X9825000Y-13120000I-20000J0D01*
G01*
X9825000Y-13120000D02*
G75*
G02*
X9865000Y-13120000I20000J0D01*
G01*
X9880280Y-10721340D02*
G75*
G02*
X9840280Y-10721340I-20000J0D01*
G01*
X9840280Y-10721340D02*
G75*
G02*
X9880280Y-10721340I20000J0D01*
G01*
X9886200Y-13791410D02*
G75*
G02*
X9846200Y-13791410I-20000J0D01*
G01*
X9846200Y-13791410D02*
G75*
G02*
X9886200Y-13791410I20000J0D01*
G01*
X9888200Y-13651600D02*
G75*
G02*
X9848200Y-13651600I-20000J0D01*
G01*
X9848200Y-13651600D02*
G75*
G02*
X9888200Y-13651600I20000J0D01*
G01*
X9926000Y-9550400D02*
G75*
G02*
X9886000Y-9550400I-20000J0D01*
G01*
X9886000Y-9550400D02*
G75*
G02*
X9926000Y-9550400I20000J0D01*
G01*
X9926000Y-9652000D02*
G75*
G02*
X9886000Y-9652000I-20000J0D01*
G01*
X9886000Y-9652000D02*
G75*
G02*
X9926000Y-9652000I20000J0D01*
G01*
X9926000Y-9753600D02*
G75*
G02*
X9886000Y-9753600I-20000J0D01*
G01*
X9886000Y-9753600D02*
G75*
G02*
X9926000Y-9753600I20000J0D01*
G01*
X9926000Y-9855200D02*
G75*
G02*
X9886000Y-9855200I-20000J0D01*
G01*
X9886000Y-9855200D02*
G75*
G02*
X9926000Y-9855200I20000J0D01*
G01*
X9959300Y-12272700D02*
G75*
G02*
X9919300Y-12272700I-20000J0D01*
G01*
X9919300Y-12272700D02*
G75*
G02*
X9959300Y-12272700I20000J0D01*
G01*
X10027600Y-9550400D02*
G75*
G02*
X9987600Y-9550400I-20000J0D01*
G01*
X9987600Y-9550400D02*
G75*
G02*
X10027600Y-9550400I20000J0D01*
G01*
X10027600Y-9652000D02*
G75*
G02*
X9987600Y-9652000I-20000J0D01*
G01*
X9987600Y-9652000D02*
G75*
G02*
X10027600Y-9652000I20000J0D01*
G01*
X10027600Y-9753600D02*
G75*
G02*
X9987600Y-9753600I-20000J0D01*
G01*
X9987600Y-9753600D02*
G75*
G02*
X10027600Y-9753600I20000J0D01*
G01*
X10027600Y-9855200D02*
G75*
G02*
X9987600Y-9855200I-20000J0D01*
G01*
X9987600Y-9855200D02*
G75*
G02*
X10027600Y-9855200I20000J0D01*
G01*
X10035500Y-12366100D02*
G75*
G02*
X9995500Y-12366100I-20000J0D01*
G01*
X9995500Y-12366100D02*
G75*
G02*
X10035500Y-12366100I20000J0D01*
G01*
X10067000Y-6677000D02*
G75*
G02*
X10027000Y-6677000I-20000J0D01*
G01*
X10027000Y-6677000D02*
G75*
G02*
X10067000Y-6677000I20000J0D01*
G01*
X10100100Y-7057800D02*
G75*
G02*
X10060100Y-7057800I-20000J0D01*
G01*
X10060100Y-7057800D02*
G75*
G02*
X10100100Y-7057800I20000J0D01*
G01*
X10105060Y-7313140D02*
G75*
G02*
X10065060Y-7313140I-20000J0D01*
G01*
X10065060Y-7313140D02*
G75*
G02*
X10105060Y-7313140I20000J0D01*
G01*
X10121500Y-12177500D02*
G75*
G02*
X10081500Y-12177500I-20000J0D01*
G01*
X10081500Y-12177500D02*
G75*
G02*
X10121500Y-12177500I20000J0D01*
G01*
X10129200Y-9550400D02*
G75*
G02*
X10089200Y-9550400I-20000J0D01*
G01*
X10089200Y-9550400D02*
G75*
G02*
X10129200Y-9550400I20000J0D01*
G01*
X10129200Y-9652000D02*
G75*
G02*
X10089200Y-9652000I-20000J0D01*
G01*
X10089200Y-9652000D02*
G75*
G02*
X10129200Y-9652000I20000J0D01*
G01*
X10129200Y-9753600D02*
G75*
G02*
X10089200Y-9753600I-20000J0D01*
G01*
X10089200Y-9753600D02*
G75*
G02*
X10129200Y-9753600I20000J0D01*
G01*
X10129200Y-9855200D02*
G75*
G02*
X10089200Y-9855200I-20000J0D01*
G01*
X10089200Y-9855200D02*
G75*
G02*
X10129200Y-9855200I20000J0D01*
G01*
X10129200Y-10901680D02*
G75*
G02*
X10089200Y-10901680I-20000J0D01*
G01*
X10089200Y-10901680D02*
G75*
G02*
X10129200Y-10901680I20000J0D01*
G01*
X10191060Y-8281140D02*
G75*
G02*
X10151060Y-8281140I-20000J0D01*
G01*
X10151060Y-8281140D02*
G75*
G02*
X10191060Y-8281140I20000J0D01*
G01*
X10197900Y-7140200D02*
G75*
G02*
X10157900Y-7140200I-20000J0D01*
G01*
X10157900Y-7140200D02*
G75*
G02*
X10197900Y-7140200I20000J0D01*
G01*
X10228260Y-10906760D02*
G75*
G02*
X10188260Y-10906760I-20000J0D01*
G01*
X10188260Y-10906760D02*
G75*
G02*
X10228260Y-10906760I20000J0D01*
G01*
X10264000Y-6088000D02*
G75*
G02*
X10224000Y-6088000I-20000J0D01*
G01*
X10224000Y-6088000D02*
G75*
G02*
X10264000Y-6088000I20000J0D01*
G01*
X10282500Y-7056700D02*
G75*
G02*
X10242500Y-7056700I-20000J0D01*
G01*
X10242500Y-7056700D02*
G75*
G02*
X10282500Y-7056700I20000J0D01*
G01*
X10283000Y-7462000D02*
G75*
G02*
X10243000Y-7462000I-20000J0D01*
G01*
X10243000Y-7462000D02*
G75*
G02*
X10283000Y-7462000I20000J0D01*
G01*
X10320000Y-10424000D02*
G75*
G02*
X10280000Y-10424000I-20000J0D01*
G01*
X10280000Y-10424000D02*
G75*
G02*
X10320000Y-10424000I20000J0D01*
G01*
X10373000Y-12749000D02*
G75*
G02*
X10333000Y-12749000I-20000J0D01*
G01*
X10333000Y-12749000D02*
G75*
G02*
X10373000Y-12749000I20000J0D01*
G01*
X10378400Y-7141000D02*
G75*
G02*
X10338400Y-7141000I-20000J0D01*
G01*
X10338400Y-7141000D02*
G75*
G02*
X10378400Y-7141000I20000J0D01*
G01*
X10383000Y-6750000D02*
G75*
G02*
X10343000Y-6750000I-20000J0D01*
G01*
X10343000Y-6750000D02*
G75*
G02*
X10383000Y-6750000I20000J0D01*
G01*
X10428200Y-11543600D02*
G75*
G02*
X10388200Y-11543600I-20000J0D01*
G01*
X10388200Y-11543600D02*
G75*
G02*
X10428200Y-11543600I20000J0D01*
G01*
X10432600Y-11311000D02*
G75*
G02*
X10392600Y-11311000I-20000J0D01*
G01*
X10392600Y-11311000D02*
G75*
G02*
X10432600Y-11311000I20000J0D01*
G01*
X10433200Y-11747200D02*
G75*
G02*
X10393200Y-11747200I-20000J0D01*
G01*
X10393200Y-11747200D02*
G75*
G02*
X10433200Y-11747200I20000J0D01*
G01*
X10450000Y-5810000D02*
G75*
G02*
X10410000Y-5810000I-20000J0D01*
G01*
X10410000Y-5810000D02*
G75*
G02*
X10450000Y-5810000I20000J0D01*
G01*
X10463000Y-13024000D02*
G75*
G02*
X10423000Y-13024000I-20000J0D01*
G01*
X10423000Y-13024000D02*
G75*
G02*
X10463000Y-13024000I20000J0D01*
G01*
X10470000Y-6268000D02*
G75*
G02*
X10430000Y-6268000I-20000J0D01*
G01*
X10430000Y-6268000D02*
G75*
G02*
X10470000Y-6268000I20000J0D01*
G01*
X10503000Y-7139800D02*
G75*
G02*
X10463000Y-7139800I-20000J0D01*
G01*
X10463000Y-7139800D02*
G75*
G02*
X10503000Y-7139800I20000J0D01*
G01*
X10505500Y-11856300D02*
G75*
G02*
X10465500Y-11856300I-20000J0D01*
G01*
X10465500Y-11856300D02*
G75*
G02*
X10505500Y-11856300I20000J0D01*
G01*
X10506700Y-11638100D02*
G75*
G02*
X10466700Y-11638100I-20000J0D01*
G01*
X10466700Y-11638100D02*
G75*
G02*
X10506700Y-11638100I20000J0D01*
G01*
X10510200Y-6069000D02*
G75*
G02*
X10470200Y-6069000I-20000J0D01*
G01*
X10470200Y-6069000D02*
G75*
G02*
X10510200Y-6069000I20000J0D01*
G01*
X10514000Y-7354000D02*
G75*
G02*
X10474000Y-7354000I-20000J0D01*
G01*
X10474000Y-7354000D02*
G75*
G02*
X10514000Y-7354000I20000J0D01*
G01*
X10535200Y-11389000D02*
G75*
G02*
X10495200Y-11389000I-20000J0D01*
G01*
X10495200Y-11389000D02*
G75*
G02*
X10535200Y-11389000I20000J0D01*
G01*
X10553000Y-13232000D02*
G75*
G02*
X10513000Y-13232000I-20000J0D01*
G01*
X10513000Y-13232000D02*
G75*
G02*
X10553000Y-13232000I20000J0D01*
G01*
X10582300Y-11540600D02*
G75*
G02*
X10542300Y-11540600I-20000J0D01*
G01*
X10542300Y-11540600D02*
G75*
G02*
X10582300Y-11540600I20000J0D01*
G01*
X10587300Y-11744200D02*
G75*
G02*
X10547300Y-11744200I-20000J0D01*
G01*
X10547300Y-11744200D02*
G75*
G02*
X10587300Y-11744200I20000J0D01*
G01*
X10637800Y-11311000D02*
G75*
G02*
X10597800Y-11311000I-20000J0D01*
G01*
X10597800Y-11311000D02*
G75*
G02*
X10637800Y-11311000I20000J0D01*
G01*
X10659600Y-11853300D02*
G75*
G02*
X10619600Y-11853300I-20000J0D01*
G01*
X10619600Y-11853300D02*
G75*
G02*
X10659600Y-11853300I20000J0D01*
G01*
X10660800Y-11635100D02*
G75*
G02*
X10620800Y-11635100I-20000J0D01*
G01*
X10620800Y-11635100D02*
G75*
G02*
X10660800Y-11635100I20000J0D01*
G01*
X10729400Y-11540600D02*
G75*
G02*
X10689400Y-11540600I-20000J0D01*
G01*
X10689400Y-11540600D02*
G75*
G02*
X10729400Y-11540600I20000J0D01*
G01*
X10734400Y-11744200D02*
G75*
G02*
X10694400Y-11744200I-20000J0D01*
G01*
X10694400Y-11744200D02*
G75*
G02*
X10734400Y-11744200I20000J0D01*
G01*
X10740400Y-11392000D02*
G75*
G02*
X10700400Y-11392000I-20000J0D01*
G01*
X10700400Y-11392000D02*
G75*
G02*
X10740400Y-11392000I20000J0D01*
G01*
X10853000Y-10427000D02*
G75*
G02*
X10813000Y-10427000I-20000J0D01*
G01*
X10813000Y-10427000D02*
G75*
G02*
X10853000Y-10427000I20000J0D01*
G01*
X10866800Y-12493900D02*
G75*
G02*
X10826800Y-12493900I-20000J0D01*
G01*
X10826800Y-12493900D02*
G75*
G02*
X10866800Y-12493900I20000J0D01*
G01*
X10965800Y-12272300D02*
G75*
G02*
X10925800Y-12272300I-20000J0D01*
G01*
X10925800Y-12272300D02*
G75*
G02*
X10965800Y-12272300I20000J0D01*
G01*
X11070000Y-7305000D02*
G75*
G02*
X11030000Y-7305000I-20000J0D01*
G01*
X11030000Y-7305000D02*
G75*
G02*
X11070000Y-7305000I20000J0D01*
G01*
X11106200Y-12183200D02*
G75*
G02*
X11066200Y-12183200I-20000J0D01*
G01*
X11066200Y-12183200D02*
G75*
G02*
X11106200Y-12183200I20000J0D01*
G01*
X11119000Y-7566000D02*
G75*
G02*
X11079000Y-7566000I-20000J0D01*
G01*
X11079000Y-7566000D02*
G75*
G02*
X11119000Y-7566000I20000J0D01*
G01*
X11145000Y-10601000D02*
G75*
G02*
X11105000Y-10601000I-20000J0D01*
G01*
X11105000Y-10601000D02*
G75*
G02*
X11145000Y-10601000I20000J0D01*
G01*
X11209200Y-7919000D02*
G75*
G02*
X11169200Y-7919000I-20000J0D01*
G01*
X11169200Y-7919000D02*
G75*
G02*
X11209200Y-7919000I20000J0D01*
G01*
X11214800Y-10205300D02*
G75*
G02*
X11174800Y-10205300I-20000J0D01*
G01*
X11174800Y-10205300D02*
G75*
G02*
X11214800Y-10205300I20000J0D01*
G01*
X11233000Y-12739000D02*
G75*
G02*
X11193000Y-12739000I-20000J0D01*
G01*
X11193000Y-12739000D02*
G75*
G02*
X11233000Y-12739000I20000J0D01*
G01*
X11251800Y-9532500D02*
G75*
G02*
X11211800Y-9532500I-20000J0D01*
G01*
X11211800Y-9532500D02*
G75*
G02*
X11251800Y-9532500I20000J0D01*
G01*
X11266000Y-6935000D02*
G75*
G02*
X11226000Y-6935000I-20000J0D01*
G01*
X11226000Y-6935000D02*
G75*
G02*
X11266000Y-6935000I20000J0D01*
G01*
X11271200Y-6125000D02*
G75*
G02*
X11231200Y-6125000I-20000J0D01*
G01*
X11231200Y-6125000D02*
G75*
G02*
X11271200Y-6125000I20000J0D01*
G01*
X11273000Y-10780000D02*
G75*
G02*
X11233000Y-10780000I-20000J0D01*
G01*
X11233000Y-10780000D02*
G75*
G02*
X11273000Y-10780000I20000J0D01*
G01*
X11312250Y-10203700D02*
G75*
G02*
X11272250Y-10203700I-20000J0D01*
G01*
X11272250Y-10203700D02*
G75*
G02*
X11312250Y-10203700I20000J0D01*
G01*
X11316200Y-9764500D02*
G75*
G02*
X11276200Y-9764500I-20000J0D01*
G01*
X11276200Y-9764500D02*
G75*
G02*
X11316200Y-9764500I20000J0D01*
G01*
X11318000Y-13126000D02*
G75*
G02*
X11278000Y-13126000I-20000J0D01*
G01*
X11278000Y-13126000D02*
G75*
G02*
X11318000Y-13126000I20000J0D01*
G01*
X11347260Y-9886930D02*
G75*
G02*
X11307260Y-9886930I-20000J0D01*
G01*
X11307260Y-9886930D02*
G75*
G02*
X11347260Y-9886930I20000J0D01*
G01*
X11395000Y-6881000D02*
G75*
G02*
X11355000Y-6881000I-20000J0D01*
G01*
X11355000Y-6881000D02*
G75*
G02*
X11395000Y-6881000I20000J0D01*
G01*
X11400000Y-7199000D02*
G75*
G02*
X11360000Y-7199000I-20000J0D01*
G01*
X11360000Y-7199000D02*
G75*
G02*
X11400000Y-7199000I20000J0D01*
G01*
X11421000Y-9517600D02*
G75*
G02*
X11381000Y-9517600I-20000J0D01*
G01*
X11381000Y-9517600D02*
G75*
G02*
X11421000Y-9517600I20000J0D01*
G01*
X11504400Y-11649590D02*
G75*
G02*
X11464400Y-11649590I-20000J0D01*
G01*
X11464400Y-11649590D02*
G75*
G02*
X11504400Y-11649590I20000J0D01*
G01*
X11527000Y-11116000D02*
G75*
G02*
X11487000Y-11116000I-20000J0D01*
G01*
X11487000Y-11116000D02*
G75*
G02*
X11527000Y-11116000I20000J0D01*
G01*
X11529964Y-11255064D02*
G75*
G02*
X11489964Y-11255064I-20000J0D01*
G01*
X11489964Y-11255064D02*
G75*
G02*
X11529964Y-11255064I20000J0D01*
G01*
X11565700Y-6241300D02*
G75*
G02*
X11525700Y-6241300I-20000J0D01*
G01*
X11525700Y-6241300D02*
G75*
G02*
X11565700Y-6241300I20000J0D01*
G01*
X11568257Y-7284454D02*
G75*
G02*
X11528257Y-7284454I-20000J0D01*
G01*
X11528257Y-7284454D02*
G75*
G02*
X11568257Y-7284454I20000J0D01*
G01*
X11574000Y-11478000D02*
G75*
G02*
X11534000Y-11478000I-20000J0D01*
G01*
X11534000Y-11478000D02*
G75*
G02*
X11574000Y-11478000I20000J0D01*
G01*
X11577370Y-10218800D02*
G75*
G02*
X11537370Y-10218800I-20000J0D01*
G01*
X11537370Y-10218800D02*
G75*
G02*
X11577370Y-10218800I20000J0D01*
G01*
X11593736Y-9638565D02*
G75*
G02*
X11553736Y-9638565I-20000J0D01*
G01*
X11553736Y-9638565D02*
G75*
G02*
X11593736Y-9638565I20000J0D01*
G01*
X11653485Y-11717530D02*
G75*
G02*
X11613485Y-11717530I-20000J0D01*
G01*
X11613485Y-11717530D02*
G75*
G02*
X11653485Y-11717530I20000J0D01*
G01*
X11662800Y-11581700D02*
G75*
G02*
X11622800Y-11581700I-20000J0D01*
G01*
X11622800Y-11581700D02*
G75*
G02*
X11662800Y-11581700I20000J0D01*
G01*
X11711000Y-12899000D02*
G75*
G02*
X11671000Y-12899000I-20000J0D01*
G01*
X11671000Y-12899000D02*
G75*
G02*
X11711000Y-12899000I20000J0D01*
G01*
X11734887Y-11407113D02*
G75*
G02*
X11694887Y-11407113I-20000J0D01*
G01*
X11694887Y-11407113D02*
G75*
G02*
X11734887Y-11407113I20000J0D01*
G01*
X11737200Y-9643400D02*
G75*
G02*
X11697200Y-9643400I-20000J0D01*
G01*
X11697200Y-9643400D02*
G75*
G02*
X11737200Y-9643400I20000J0D01*
G01*
X11737200Y-10217300D02*
G75*
G02*
X11697200Y-10217300I-20000J0D01*
G01*
X11697200Y-10217300D02*
G75*
G02*
X11737200Y-10217300I20000J0D01*
G01*
X11780200Y-12390300D02*
G75*
G02*
X11740200Y-12390300I-20000J0D01*
G01*
X11740200Y-12390300D02*
G75*
G02*
X11780200Y-12390300I20000J0D01*
G01*
X11931000Y-11826000D02*
G75*
G02*
X11891000Y-11826000I-20000J0D01*
G01*
X11891000Y-11826000D02*
G75*
G02*
X11931000Y-11826000I20000J0D01*
G01*
X11986000Y-7836000D02*
G75*
G02*
X11946000Y-7836000I-20000J0D01*
G01*
X11946000Y-7836000D02*
G75*
G02*
X11986000Y-7836000I20000J0D01*
G01*
X12016000Y-12186000D02*
G75*
G02*
X11976000Y-12186000I-20000J0D01*
G01*
X11976000Y-12186000D02*
G75*
G02*
X12016000Y-12186000I20000J0D01*
G01*
X12051000Y-10000000D02*
G75*
G02*
X12011000Y-10000000I-20000J0D01*
G01*
X12011000Y-10000000D02*
G75*
G02*
X12051000Y-10000000I20000J0D01*
G01*
X12134990Y-6617000D02*
G75*
G02*
X12094990Y-6617000I-20000J0D01*
G01*
X12094990Y-6617000D02*
G75*
G02*
X12134990Y-6617000I20000J0D01*
G01*
X12141000Y-7454700D02*
G75*
G02*
X12101000Y-7454700I-20000J0D01*
G01*
X12101000Y-7454700D02*
G75*
G02*
X12141000Y-7454700I20000J0D01*
G01*
X12163700Y-7003790D02*
G75*
G02*
X12123700Y-7003790I-20000J0D01*
G01*
X12123700Y-7003790D02*
G75*
G02*
X12163700Y-7003790I20000J0D01*
G01*
X12202880Y-6753000D02*
G75*
G02*
X12162880Y-6753000I-20000J0D01*
G01*
X12162880Y-6753000D02*
G75*
G02*
X12202880Y-6753000I20000J0D01*
G01*
X12230130Y-7090500D02*
G75*
G02*
X12190130Y-7090500I-20000J0D01*
G01*
X12190130Y-7090500D02*
G75*
G02*
X12230130Y-7090500I20000J0D01*
G01*
X12287000Y-7840000D02*
G75*
G02*
X12247000Y-7840000I-20000J0D01*
G01*
X12247000Y-7840000D02*
G75*
G02*
X12287000Y-7840000I20000J0D01*
G01*
X12324000Y-5973000D02*
G75*
G02*
X12284000Y-5973000I-20000J0D01*
G01*
X12284000Y-5973000D02*
G75*
G02*
X12324000Y-5973000I20000J0D01*
G01*
X12359400Y-8626000D02*
G75*
G02*
X12319400Y-8626000I-20000J0D01*
G01*
X12319400Y-8626000D02*
G75*
G02*
X12359400Y-8626000I20000J0D01*
G01*
X12391900Y-9836200D02*
G75*
G02*
X12351900Y-9836200I-20000J0D01*
G01*
X12351900Y-9836200D02*
G75*
G02*
X12391900Y-9836200I20000J0D01*
G01*
X12430900Y-11553900D02*
G75*
G02*
X12390900Y-11553900I-20000J0D01*
G01*
X12390900Y-11553900D02*
G75*
G02*
X12430900Y-11553900I20000J0D01*
G01*
X12435400Y-9396300D02*
G75*
G02*
X12395400Y-9396300I-20000J0D01*
G01*
X12395400Y-9396300D02*
G75*
G02*
X12435400Y-9396300I20000J0D01*
G01*
X12435900Y-9094300D02*
G75*
G02*
X12395900Y-9094300I-20000J0D01*
G01*
X12395900Y-9094300D02*
G75*
G02*
X12435900Y-9094300I20000J0D01*
G01*
X12503000Y-5510000D02*
G75*
G02*
X12463000Y-5510000I-20000J0D01*
G01*
X12463000Y-5510000D02*
G75*
G02*
X12503000Y-5510000I20000J0D01*
G01*
X12566655Y-6003344D02*
G75*
G02*
X12526655Y-6003344I-20000J0D01*
G01*
X12526655Y-6003344D02*
G75*
G02*
X12566655Y-6003344I20000J0D01*
G01*
X12580000Y-6594000D02*
G75*
G02*
X12540000Y-6594000I-20000J0D01*
G01*
X12540000Y-6594000D02*
G75*
G02*
X12580000Y-6594000I20000J0D01*
G01*
X12585000Y-6776000D02*
G75*
G02*
X12545000Y-6776000I-20000J0D01*
G01*
X12545000Y-6776000D02*
G75*
G02*
X12585000Y-6776000I20000J0D01*
G01*
X12649300Y-10417800D02*
G75*
G02*
X12609300Y-10417800I-20000J0D01*
G01*
X12609300Y-10417800D02*
G75*
G02*
X12649300Y-10417800I20000J0D01*
G01*
X12796600Y-10052100D02*
G75*
G02*
X12756600Y-10052100I-20000J0D01*
G01*
X12756600Y-10052100D02*
G75*
G02*
X12796600Y-10052100I20000J0D01*
G01*
X12832000Y-5555000D02*
G75*
G02*
X12792000Y-5555000I-20000J0D01*
G01*
X12792000Y-5555000D02*
G75*
G02*
X12832000Y-5555000I20000J0D01*
G01*
X12981000Y-5549000D02*
G75*
G02*
X12941000Y-5549000I-20000J0D01*
G01*
X12941000Y-5549000D02*
G75*
G02*
X12981000Y-5549000I20000J0D01*
G01*
X12986000Y-11156000D02*
G75*
G02*
X12946000Y-11156000I-20000J0D01*
G01*
X12946000Y-11156000D02*
G75*
G02*
X12986000Y-11156000I20000J0D01*
G01*
X12987000Y-11400000D02*
G75*
G02*
X12947000Y-11400000I-20000J0D01*
G01*
X12947000Y-11400000D02*
G75*
G02*
X12987000Y-11400000I20000J0D01*
G01*
X12990000Y-10329000D02*
G75*
G02*
X12950000Y-10329000I-20000J0D01*
G01*
X12950000Y-10329000D02*
G75*
G02*
X12990000Y-10329000I20000J0D01*
G01*
X12990000Y-10572000D02*
G75*
G02*
X12950000Y-10572000I-20000J0D01*
G01*
X12950000Y-10572000D02*
G75*
G02*
X12990000Y-10572000I20000J0D01*
G01*
X7845501Y-14358099D02*
X7845501Y-14408099D01*
X7820501Y-14383099D02*
X7870501Y-14383099D01*
X7855800Y-5080400D02*
X7855800Y-5130400D01*
X7830800Y-5105400D02*
X7880800Y-5105400D01*
X7911402Y-14199000D02*
X7911402Y-14249000D01*
X7886402Y-14224000D02*
X7936402Y-14224000D01*
X7911402Y-14517198D02*
X7911402Y-14567198D01*
X7886402Y-14542198D02*
X7936402Y-14542198D01*
X7921701Y-4921301D02*
X7921701Y-4971301D01*
X7896701Y-4946301D02*
X7946701Y-4946301D01*
X7921701Y-5239499D02*
X7921701Y-5289499D01*
X7896701Y-5264499D02*
X7946701Y-5264499D01*
X8070501Y-14133099D02*
X8070501Y-14183099D01*
X8045501Y-14158099D02*
X8095501Y-14158099D01*
X8070501Y-14583099D02*
X8070501Y-14633099D01*
X8045501Y-14608099D02*
X8095501Y-14608099D01*
X8080800Y-4855400D02*
X8080800Y-4905400D01*
X8055800Y-4880400D02*
X8105800Y-4880400D01*
X8080800Y-5305400D02*
X8080800Y-5355400D01*
X8055800Y-5330400D02*
X8105800Y-5330400D01*
X8229600Y-14199000D02*
X8229600Y-14249000D01*
X8204600Y-14224000D02*
X8254600Y-14224000D01*
X8229600Y-14517198D02*
X8229600Y-14567198D01*
X8204600Y-14542198D02*
X8254600Y-14542198D01*
X8239899Y-4921301D02*
X8239899Y-4971301D01*
X8214899Y-4946301D02*
X8264899Y-4946301D01*
X8239899Y-5239499D02*
X8239899Y-5289499D01*
X8214899Y-5264499D02*
X8264899Y-5264499D01*
X8295501Y-14358099D02*
X8295501Y-14408099D01*
X8270501Y-14383099D02*
X8320501Y-14383099D01*
X8305800Y-5080400D02*
X8305800Y-5130400D01*
X8280800Y-5105400D02*
X8330800Y-5105400D01*
X12798501Y-5087099D02*
X12798501Y-5137099D01*
X12773501Y-5112099D02*
X12823501Y-5112099D01*
X12805200Y-14347800D02*
X12805200Y-14397800D01*
X12780200Y-14372800D02*
X12830200Y-14372800D01*
X12864402Y-4928000D02*
X12864402Y-4978000D01*
X12839402Y-4953000D02*
X12889402Y-4953000D01*
X12864402Y-5246198D02*
X12864402Y-5296198D01*
X12839402Y-5271198D02*
X12889402Y-5271198D01*
X12871101Y-14188701D02*
X12871101Y-14238701D01*
X12846101Y-14213701D02*
X12896101Y-14213701D01*
X12871101Y-14506899D02*
X12871101Y-14556899D01*
X12846101Y-14531899D02*
X12896101Y-14531899D01*
X13023501Y-4862099D02*
X13023501Y-4912099D01*
X12998501Y-4887099D02*
X13048501Y-4887099D01*
X13023501Y-5312099D02*
X13023501Y-5362099D01*
X12998501Y-5337099D02*
X13048501Y-5337099D01*
X13030200Y-14122800D02*
X13030200Y-14172800D01*
X13005200Y-14147800D02*
X13055200Y-14147800D01*
X13030200Y-14572800D02*
X13030200Y-14622800D01*
X13005200Y-14597800D02*
X13055200Y-14597800D01*
X13182600Y-4928000D02*
X13182600Y-4978000D01*
X13157600Y-4953000D02*
X13207600Y-4953000D01*
X13182600Y-5246198D02*
X13182600Y-5296198D01*
X13157600Y-5271198D02*
X13207600Y-5271198D01*
X13189299Y-14188701D02*
X13189299Y-14238701D01*
X13164299Y-14213701D02*
X13214299Y-14213701D01*
X13189299Y-14506899D02*
X13189299Y-14556899D01*
X13164299Y-14531899D02*
X13214299Y-14531899D01*
X13248501Y-5087099D02*
X13248501Y-5137099D01*
X13223501Y-5112099D02*
X13273501Y-5112099D01*
X13255200Y-14347800D02*
X13255200Y-14397800D01*
X13230200Y-14372800D02*
X13280200Y-14372800D01*
X10097713Y-14610213D02*
X10097713Y-14567787D01*
X10055287Y-14567787D01*
X10055287Y-14610213D01*
X10097713Y-14610213D01*
X11675213Y-7113213D02*
X11675213Y-7070787D01*
X11632787Y-7070787D01*
X11632787Y-7113213D01*
X11675213Y-7113213D01*
X11792213Y-8570213D02*
X11792213Y-8527787D01*
X11749787Y-8527787D01*
X11749787Y-8570213D01*
X11792213Y-8570213D01*
X11812213Y-7116213D02*
X11812213Y-7073787D01*
X11769787Y-7073787D01*
X11769787Y-7116213D01*
X11812213Y-7116213D01*
X11966637Y-7112637D02*
X11966637Y-7070210D01*
X11924210Y-7070210D01*
X11924210Y-7112637D01*
X11966637Y-7112637D01*
X12187813Y-9114413D02*
X12187813Y-9071987D01*
X12145387Y-9071987D01*
X12145387Y-9114413D01*
X12187813Y-9114413D01*
X12187813Y-9470013D02*
X12187813Y-9427587D01*
X12145387Y-9427587D01*
X12145387Y-9470013D01*
X12187813Y-9470013D01*
X12621213Y-8471213D02*
X12621213Y-8428787D01*
X12578787Y-8428787D01*
X12578787Y-8471213D01*
X12621213Y-8471213D01*
X12659213Y-8332213D02*
X12659213Y-8289787D01*
X12616787Y-8289787D01*
X12616787Y-8332213D01*
X12659213Y-8332213D01*
X12694300Y-8843600D02*
X12724300Y-8813600D01*
X12694300Y-8783600D01*
X12664300Y-8813600D01*
X12694300Y-8843600D01*
X12749300Y-8783600D02*
X12639300Y-8783600D01*
X12639300Y-8843600D02*
G75*
G02*
X12639300Y-8783600I0J30000D01*
G01*
X12639300Y-8843600D02*
X12749300Y-8843600D01*
X12749300Y-8843600D02*
G75*
G03*
X12749300Y-8783600I0J30000D01*
G01*
X12694300Y-9707600D02*
X12724300Y-9677600D01*
X12694300Y-9647600D01*
X12664300Y-9677600D01*
X12694300Y-9707600D01*
X12749300Y-9647600D02*
X12639300Y-9647600D01*
X12639300Y-9707600D02*
G75*
G02*
X12639300Y-9647600I0J30000D01*
G01*
X12639300Y-9707600D02*
X12749300Y-9707600D01*
X12749300Y-9707600D02*
G75*
G03*
X12749300Y-9647600I0J30000D01*
G01*
X13112300Y-8843600D02*
X13142300Y-8813600D01*
X13112300Y-8783600D01*
X13082300Y-8813600D01*
X13112300Y-8843600D01*
X13152300Y-8783600D02*
X13072300Y-8783600D01*
X13072300Y-8843600D02*
G75*
G02*
X13072300Y-8783600I0J30000D01*
G01*
X13072300Y-8843600D02*
X13152300Y-8843600D01*
X13152300Y-8843600D02*
G75*
G03*
X13152300Y-8783600I0J30000D01*
G01*
X13112300Y-9707600D02*
X13142300Y-9677600D01*
X13112300Y-9647600D01*
X13082300Y-9677600D01*
X13112300Y-9707600D01*
X13152300Y-9647600D02*
X13072300Y-9647600D01*
X13072300Y-9707600D02*
G75*
G02*
X13072300Y-9647600I0J30000D01*
G01*
X13072300Y-9707600D02*
X13152300Y-9707600D01*
X13152300Y-9707600D02*
G75*
G03*
X13152300Y-9647600I0J30000D01*
G01*
X7841000Y-7307000D02*
X7921000Y-7387000D01*
X7921000Y-7307000D02*
X7841000Y-7387000D01*
X7921000Y-7347000D02*
G75*
G02*
X7841000Y-7347000I-40000J0D01*
G01*
X7841000Y-7347000D02*
G75*
G02*
X7921000Y-7347000I40000J0D01*
G01*
X7852000Y-7704000D02*
X7932000Y-7784000D01*
X7932000Y-7704000D02*
X7852000Y-7784000D01*
X7932000Y-7744000D02*
G75*
G02*
X7852000Y-7744000I-40000J0D01*
G01*
X7852000Y-7744000D02*
G75*
G02*
X7932000Y-7744000I40000J0D01*
G01*
X7856000Y-6090000D02*
X7936000Y-6170000D01*
X7936000Y-6090000D02*
X7856000Y-6170000D01*
X7936000Y-6130000D02*
G75*
G02*
X7856000Y-6130000I-40000J0D01*
G01*
X7856000Y-6130000D02*
G75*
G02*
X7936000Y-6130000I40000J0D01*
G01*
X7856000Y-6272750D02*
X7936000Y-6352750D01*
X7936000Y-6272750D02*
X7856000Y-6352750D01*
X7936000Y-6312750D02*
G75*
G02*
X7856000Y-6312750I-40000J0D01*
G01*
X7856000Y-6312750D02*
G75*
G02*
X7936000Y-6312750I40000J0D01*
G01*
X7856000Y-6455500D02*
X7936000Y-6535500D01*
X7936000Y-6455500D02*
X7856000Y-6535500D01*
X7936000Y-6495500D02*
G75*
G02*
X7856000Y-6495500I-40000J0D01*
G01*
X7856000Y-6495500D02*
G75*
G02*
X7936000Y-6495500I40000J0D01*
G01*
X7856000Y-6638250D02*
X7936000Y-6718250D01*
X7936000Y-6638250D02*
X7856000Y-6718250D01*
X7936000Y-6678250D02*
G75*
G02*
X7856000Y-6678250I-40000J0D01*
G01*
X7856000Y-6678250D02*
G75*
G02*
X7936000Y-6678250I40000J0D01*
G01*
X7856000Y-6821000D02*
X7936000Y-6901000D01*
X7936000Y-6821000D02*
X7856000Y-6901000D01*
X7936000Y-6861000D02*
G75*
G02*
X7856000Y-6861000I-40000J0D01*
G01*
X7856000Y-6861000D02*
G75*
G02*
X7936000Y-6861000I40000J0D01*
G01*
X7858000Y-7153000D02*
X7938000Y-7233000D01*
X7938000Y-7153000D02*
X7858000Y-7233000D01*
X7938000Y-7193000D02*
G75*
G02*
X7858000Y-7193000I-40000J0D01*
G01*
X7858000Y-7193000D02*
G75*
G02*
X7938000Y-7193000I40000J0D01*
G01*
X8002000Y-7706000D02*
X8082000Y-7786000D01*
X8082000Y-7706000D02*
X8002000Y-7786000D01*
X8082000Y-7746000D02*
G75*
G02*
X8002000Y-7746000I-40000J0D01*
G01*
X8002000Y-7746000D02*
G75*
G02*
X8082000Y-7746000I40000J0D01*
G01*
X8018000Y-7151000D02*
X8098000Y-7231000D01*
X8098000Y-7151000D02*
X8018000Y-7231000D01*
X8098000Y-7191000D02*
G75*
G02*
X8018000Y-7191000I-40000J0D01*
G01*
X8018000Y-7191000D02*
G75*
G02*
X8098000Y-7191000I40000J0D01*
G01*
X8024000Y-6089750D02*
X8104000Y-6169750D01*
X8104000Y-6089750D02*
X8024000Y-6169750D01*
X8104000Y-6129750D02*
G75*
G02*
X8024000Y-6129750I-40000J0D01*
G01*
X8024000Y-6129750D02*
G75*
G02*
X8104000Y-6129750I40000J0D01*
G01*
X8024000Y-6272500D02*
X8104000Y-6352500D01*
X8104000Y-6272500D02*
X8024000Y-6352500D01*
X8104000Y-6312500D02*
G75*
G02*
X8024000Y-6312500I-40000J0D01*
G01*
X8024000Y-6312500D02*
G75*
G02*
X8104000Y-6312500I40000J0D01*
G01*
X8024000Y-6455250D02*
X8104000Y-6535250D01*
X8104000Y-6455250D02*
X8024000Y-6535250D01*
X8104000Y-6495250D02*
G75*
G02*
X8024000Y-6495250I-40000J0D01*
G01*
X8024000Y-6495250D02*
G75*
G02*
X8104000Y-6495250I40000J0D01*
G01*
X8024000Y-6638000D02*
X8104000Y-6718000D01*
X8104000Y-6638000D02*
X8024000Y-6718000D01*
X8104000Y-6678000D02*
G75*
G02*
X8024000Y-6678000I-40000J0D01*
G01*
X8024000Y-6678000D02*
G75*
G02*
X8104000Y-6678000I40000J0D01*
G01*
X8024000Y-6820750D02*
X8104000Y-6900750D01*
X8104000Y-6820750D02*
X8024000Y-6900750D01*
X8104000Y-6860750D02*
G75*
G02*
X8024000Y-6860750I-40000J0D01*
G01*
X8024000Y-6860750D02*
G75*
G02*
X8104000Y-6860750I40000J0D01*
G01*
X8028000Y-7295000D02*
X8108000Y-7375000D01*
X8108000Y-7295000D02*
X8028000Y-7375000D01*
X8108000Y-7335000D02*
G75*
G02*
X8028000Y-7335000I-40000J0D01*
G01*
X8028000Y-7335000D02*
G75*
G02*
X8108000Y-7335000I40000J0D01*
G01*
X8108000Y-7833000D02*
X8188000Y-7913000D01*
X8188000Y-7833000D02*
X8108000Y-7913000D01*
X8188000Y-7873000D02*
G75*
G02*
X8108000Y-7873000I-40000J0D01*
G01*
X8108000Y-7873000D02*
G75*
G02*
X8188000Y-7873000I40000J0D01*
G01*
X8203000Y-6457000D02*
X8283000Y-6537000D01*
X8283000Y-6457000D02*
X8203000Y-6537000D01*
X8283000Y-6497000D02*
G75*
G02*
X8203000Y-6497000I-40000J0D01*
G01*
X8203000Y-6497000D02*
G75*
G02*
X8283000Y-6497000I40000J0D01*
G01*
X8249000Y-7835000D02*
X8329000Y-7915000D01*
X8329000Y-7835000D02*
X8249000Y-7915000D01*
X8329000Y-7875000D02*
G75*
G02*
X8249000Y-7875000I-40000J0D01*
G01*
X8249000Y-7875000D02*
G75*
G02*
X8329000Y-7875000I40000J0D01*
G01*
X8371000Y-6456750D02*
X8451000Y-6536750D01*
X8451000Y-6456750D02*
X8371000Y-6536750D01*
X8451000Y-6496750D02*
G75*
G02*
X8371000Y-6496750I-40000J0D01*
G01*
X8371000Y-6496750D02*
G75*
G02*
X8451000Y-6496750I40000J0D01*
G01*
X8470000Y-7175000D02*
X8550000Y-7255000D01*
X8550000Y-7175000D02*
X8470000Y-7255000D01*
X8550000Y-7215000D02*
G75*
G02*
X8470000Y-7215000I-40000J0D01*
G01*
X8470000Y-7215000D02*
G75*
G02*
X8550000Y-7215000I40000J0D01*
G01*
X8470000Y-7326000D02*
X8550000Y-7406000D01*
X8550000Y-7326000D02*
X8470000Y-7406000D01*
X8550000Y-7366000D02*
G75*
G02*
X8470000Y-7366000I-40000J0D01*
G01*
X8470000Y-7366000D02*
G75*
G02*
X8550000Y-7366000I40000J0D01*
G01*
X8635000Y-7175000D02*
X8715000Y-7255000D01*
X8715000Y-7175000D02*
X8635000Y-7255000D01*
X8715000Y-7215000D02*
G75*
G02*
X8635000Y-7215000I-40000J0D01*
G01*
X8635000Y-7215000D02*
G75*
G02*
X8715000Y-7215000I40000J0D01*
G01*
X8635000Y-7326000D02*
X8715000Y-7406000D01*
X8715000Y-7326000D02*
X8635000Y-7406000D01*
X8715000Y-7366000D02*
G75*
G02*
X8635000Y-7366000I-40000J0D01*
G01*
X8635000Y-7366000D02*
G75*
G02*
X8715000Y-7366000I40000J0D01*
G01*
X10429500Y-10073500D02*
X10509500Y-10153500D01*
X10509500Y-10073500D02*
X10429500Y-10153500D01*
X10509500Y-10113500D02*
G75*
G02*
X10429500Y-10113500I-40000J0D01*
G01*
X10429500Y-10113500D02*
G75*
G02*
X10509500Y-10113500I40000J0D01*
G01*
X10429500Y-10277500D02*
X10509500Y-10357500D01*
X10509500Y-10277500D02*
X10429500Y-10357500D01*
X10509500Y-10317500D02*
G75*
G02*
X10429500Y-10317500I-40000J0D01*
G01*
X10429500Y-10317500D02*
G75*
G02*
X10509500Y-10317500I40000J0D01*
G01*
X10431500Y-10488500D02*
X10511500Y-10568500D01*
X10511500Y-10488500D02*
X10431500Y-10568500D01*
X10511500Y-10528500D02*
G75*
G02*
X10431500Y-10528500I-40000J0D01*
G01*
X10431500Y-10528500D02*
G75*
G02*
X10511500Y-10528500I40000J0D01*
G01*
X10434500Y-10690500D02*
X10514500Y-10770500D01*
X10514500Y-10690500D02*
X10434500Y-10770500D01*
X10514500Y-10730500D02*
G75*
G02*
X10434500Y-10730500I-40000J0D01*
G01*
X10434500Y-10730500D02*
G75*
G02*
X10514500Y-10730500I40000J0D01*
G01*
X10626500Y-10075500D02*
X10706500Y-10155500D01*
X10706500Y-10075500D02*
X10626500Y-10155500D01*
X10706500Y-10115500D02*
G75*
G02*
X10626500Y-10115500I-40000J0D01*
G01*
X10626500Y-10115500D02*
G75*
G02*
X10706500Y-10115500I40000J0D01*
G01*
X10628500Y-10277500D02*
X10708500Y-10357500D01*
X10708500Y-10277500D02*
X10628500Y-10357500D01*
X10708500Y-10317500D02*
G75*
G02*
X10628500Y-10317500I-40000J0D01*
G01*
X10628500Y-10317500D02*
G75*
G02*
X10708500Y-10317500I40000J0D01*
G01*
X10632500Y-10490500D02*
X10712500Y-10570500D01*
X10712500Y-10490500D02*
X10632500Y-10570500D01*
X10712500Y-10530500D02*
G75*
G02*
X10632500Y-10530500I-40000J0D01*
G01*
X10632500Y-10530500D02*
G75*
G02*
X10712500Y-10530500I40000J0D01*
G01*
X10632500Y-10687500D02*
X10712500Y-10767500D01*
X10712500Y-10687500D02*
X10632500Y-10767500D01*
X10712500Y-10727500D02*
G75*
G02*
X10632500Y-10727500I-40000J0D01*
G01*
X10632500Y-10727500D02*
G75*
G02*
X10712500Y-10727500I40000J0D01*
G01*
X10781485Y-6078515D02*
X10861485Y-6158515D01*
X10861485Y-6078515D02*
X10781485Y-6158515D01*
X10861485Y-6118515D02*
G75*
G02*
X10781485Y-6118515I-40000J0D01*
G01*
X10781485Y-6118515D02*
G75*
G02*
X10861485Y-6118515I40000J0D01*
G01*
X7997000Y-12864000D02*
X8097000Y-12964000D01*
X8097000Y-12864000D02*
X7997000Y-12964000D01*
X8047000Y-12864000D02*
X8047000Y-12964000D01*
X7997000Y-12914000D02*
X8097000Y-12914000D01*
X7997000Y-13114000D02*
X8097000Y-13214000D01*
X8097000Y-13114000D02*
X7997000Y-13214000D01*
X8047000Y-13114000D02*
X8047000Y-13214000D01*
X7997000Y-13164000D02*
X8097000Y-13164000D01*
X8250000Y-7604000D02*
X8350000Y-7704000D01*
X8350000Y-7604000D02*
X8250000Y-7704000D01*
X8300000Y-7604000D02*
X8300000Y-7704000D01*
X8250000Y-7654000D02*
X8350000Y-7654000D01*
X8504000Y-7604000D02*
X8604000Y-7704000D01*
X8604000Y-7604000D02*
X8504000Y-7704000D01*
X8554000Y-7604000D02*
X8554000Y-7704000D01*
X8504000Y-7654000D02*
X8604000Y-7654000D01*
X8684000Y-4977000D02*
X8784000Y-5077000D01*
X8784000Y-4977000D02*
X8684000Y-5077000D01*
X8734000Y-4977000D02*
X8734000Y-5077000D01*
X8684000Y-5027000D02*
X8784000Y-5027000D01*
X8684000Y-5231000D02*
X8784000Y-5331000D01*
X8784000Y-5231000D02*
X8684000Y-5331000D01*
X8734000Y-5231000D02*
X8734000Y-5331000D01*
X8684000Y-5281000D02*
X8784000Y-5281000D01*
X8684000Y-5485000D02*
X8784000Y-5585000D01*
X8784000Y-5485000D02*
X8684000Y-5585000D01*
X8734000Y-5485000D02*
X8734000Y-5585000D01*
X8684000Y-5535000D02*
X8784000Y-5535000D01*
X8684000Y-5739000D02*
X8784000Y-5839000D01*
X8784000Y-5739000D02*
X8684000Y-5839000D01*
X8734000Y-5739000D02*
X8734000Y-5839000D01*
X8684000Y-5789000D02*
X8784000Y-5789000D01*
X9042000Y-4978000D02*
X9142000Y-5078000D01*
X9142000Y-4978000D02*
X9042000Y-5078000D01*
X9092000Y-4978000D02*
X9092000Y-5078000D01*
X9042000Y-5028000D02*
X9142000Y-5028000D01*
X9042000Y-5232000D02*
X9142000Y-5332000D01*
X9142000Y-5232000D02*
X9042000Y-5332000D01*
X9092000Y-5232000D02*
X9092000Y-5332000D01*
X9042000Y-5282000D02*
X9142000Y-5282000D01*
X9042000Y-5486000D02*
X9142000Y-5586000D01*
X9142000Y-5486000D02*
X9042000Y-5586000D01*
X9092000Y-5486000D02*
X9092000Y-5586000D01*
X9042000Y-5536000D02*
X9142000Y-5536000D01*
X9042000Y-5740000D02*
X9142000Y-5840000D01*
X9142000Y-5740000D02*
X9042000Y-5840000D01*
X9092000Y-5740000D02*
X9092000Y-5840000D01*
X9042000Y-5790000D02*
X9142000Y-5790000D01*
X10885000Y-14308000D02*
X10985000Y-14408000D01*
X10985000Y-14308000D02*
X10885000Y-14408000D01*
X10935000Y-14308000D02*
X10935000Y-14408000D01*
X10885000Y-14358000D02*
X10985000Y-14358000D01*
X11139000Y-14308000D02*
X11239000Y-14408000D01*
X11239000Y-14308000D02*
X11139000Y-14408000D01*
X11189000Y-14308000D02*
X11189000Y-14408000D01*
X11139000Y-14358000D02*
X11239000Y-14358000D01*
X11393000Y-14308000D02*
X11493000Y-14408000D01*
X11493000Y-14308000D02*
X11393000Y-14408000D01*
X11443000Y-14308000D02*
X11443000Y-14408000D01*
X11393000Y-14358000D02*
X11493000Y-14358000D01*
X11647000Y-14308000D02*
X11747000Y-14408000D01*
X11747000Y-14308000D02*
X11647000Y-14408000D01*
X11697000Y-14308000D02*
X11697000Y-14408000D01*
X11647000Y-14358000D02*
X11747000Y-14358000D01*
X11881000Y-4891000D02*
X11981000Y-4991000D01*
X11981000Y-4891000D02*
X11881000Y-4991000D01*
X11931000Y-4891000D02*
X11931000Y-4991000D01*
X11881000Y-4941000D02*
X11981000Y-4941000D01*
X11901000Y-14308000D02*
X12001000Y-14408000D01*
X12001000Y-14308000D02*
X11901000Y-14408000D01*
X11951000Y-14308000D02*
X11951000Y-14408000D01*
X11901000Y-14358000D02*
X12001000Y-14358000D01*
X12135000Y-4891000D02*
X12235000Y-4991000D01*
X12235000Y-4891000D02*
X12135000Y-4991000D01*
X12185000Y-4891000D02*
X12185000Y-4991000D01*
X12135000Y-4941000D02*
X12235000Y-4941000D01*
D12*
X8908760Y-14308860D02*
X9015440Y-14415540D01*
X9015440Y-14308860D02*
X8908760Y-14415540D01*
X8999817Y-14399917D02*
X8999817Y-14324483D01*
X8924383Y-14324483D01*
X8924383Y-14399917D01*
X8999817Y-14399917D01*
X9162760Y-14308860D02*
X9269440Y-14415540D01*
X9269440Y-14308860D02*
X9162760Y-14415540D01*
X9253817Y-14399917D02*
X9253817Y-14324483D01*
X9178383Y-14324483D01*
X9178383Y-14399917D01*
X9253817Y-14399917D01*
X9416760Y-14308860D02*
X9523440Y-14415540D01*
X9523440Y-14308860D02*
X9416760Y-14415540D01*
X9507817Y-14399917D02*
X9507817Y-14324483D01*
X9432383Y-14324483D01*
X9432383Y-14399917D01*
X9507817Y-14399917D01*
X9670760Y-14308860D02*
X9777440Y-14415540D01*
X9777440Y-14308860D02*
X9670760Y-14415540D01*
X9761817Y-14399917D02*
X9761817Y-14324483D01*
X9686383Y-14324483D01*
X9686383Y-14399917D01*
X9761817Y-14399917D01*
D13*
X7920501Y-14233099D02*
X8220501Y-14533099D01*
X8220501Y-14233099D02*
X7920501Y-14533099D01*
X8070501Y-14533099D02*
X8220501Y-14383099D01*
X8070501Y-14233099D01*
X7920501Y-14383099D01*
X8070501Y-14533099D01*
X7930800Y-4955400D02*
X8230800Y-5255400D01*
X8230800Y-4955400D02*
X7930800Y-5255400D01*
X8080800Y-5255400D02*
X8230800Y-5105400D01*
X8080800Y-4955400D01*
X7930800Y-5105400D01*
X8080800Y-5255400D01*
X12873501Y-4962099D02*
X13173501Y-5262099D01*
X13173501Y-4962099D02*
X12873501Y-5262099D01*
X13023501Y-5262099D02*
X13173501Y-5112099D01*
X13023501Y-4962099D01*
X12873501Y-5112099D01*
X13023501Y-5262099D01*
X12880200Y-14222800D02*
X13180200Y-14522800D01*
X13180200Y-14222800D02*
X12880200Y-14522800D01*
X13030200Y-14522800D02*
X13180200Y-14372800D01*
X13030200Y-14222800D01*
X12880200Y-14372800D01*
X13030200Y-14522800D01*
D11*
X7974677Y-15044884D02*
X7974677Y-14844884D01*
X7974677Y-14844884D02*
X8022296Y-14844884D01*
X8022296Y-14844884D02*
X8050867Y-14854408D01*
X8050867Y-14854408D02*
X8069915Y-14873455D01*
X8069915Y-14873455D02*
X8079439Y-14892503D01*
X8079439Y-14892503D02*
X8088962Y-14930598D01*
X8088962Y-14930598D02*
X8088962Y-14959169D01*
X8088962Y-14959169D02*
X8079439Y-14997265D01*
X8079439Y-14997265D02*
X8069915Y-15016312D01*
X8069915Y-15016312D02*
X8050867Y-15035360D01*
X8050867Y-15035360D02*
X8022296Y-15044884D01*
X8022296Y-15044884D02*
X7974677Y-15044884D01*
X8174677Y-15044884D02*
X8174677Y-14911550D01*
X8174677Y-14949646D02*
X8184201Y-14930598D01*
X8184201Y-14930598D02*
X8193724Y-14921074D01*
X8193724Y-14921074D02*
X8212772Y-14911550D01*
X8212772Y-14911550D02*
X8231820Y-14911550D01*
X8298486Y-15044884D02*
X8298486Y-14911550D01*
X8298486Y-14844884D02*
X8288962Y-14854408D01*
X8288962Y-14854408D02*
X8298486Y-14863931D01*
X8298486Y-14863931D02*
X8308010Y-14854408D01*
X8308010Y-14854408D02*
X8298486Y-14844884D01*
X8298486Y-14844884D02*
X8298486Y-14863931D01*
X8422296Y-15044884D02*
X8403248Y-15035360D01*
X8403248Y-15035360D02*
X8393724Y-15016312D01*
X8393724Y-15016312D02*
X8393724Y-14844884D01*
X8527058Y-15044884D02*
X8508010Y-15035360D01*
X8508010Y-15035360D02*
X8498486Y-15016312D01*
X8498486Y-15016312D02*
X8498486Y-14844884D01*
X8755629Y-15044884D02*
X8755629Y-14844884D01*
X8755629Y-14844884D02*
X8822296Y-14987741D01*
X8822296Y-14987741D02*
X8888963Y-14844884D01*
X8888963Y-14844884D02*
X8888963Y-15044884D01*
X9069915Y-15044884D02*
X9069915Y-14940122D01*
X9069915Y-14940122D02*
X9060391Y-14921074D01*
X9060391Y-14921074D02*
X9041344Y-14911550D01*
X9041344Y-14911550D02*
X9003248Y-14911550D01*
X9003248Y-14911550D02*
X8984201Y-14921074D01*
X9069915Y-15035360D02*
X9050867Y-15044884D01*
X9050867Y-15044884D02*
X9003248Y-15044884D01*
X9003248Y-15044884D02*
X8984201Y-15035360D01*
X8984201Y-15035360D02*
X8974677Y-15016312D01*
X8974677Y-15016312D02*
X8974677Y-14997265D01*
X8974677Y-14997265D02*
X8984201Y-14978217D01*
X8984201Y-14978217D02*
X9003248Y-14968693D01*
X9003248Y-14968693D02*
X9050867Y-14968693D01*
X9050867Y-14968693D02*
X9069915Y-14959169D01*
X9165153Y-14911550D02*
X9165153Y-15111550D01*
X9165153Y-14921074D02*
X9184201Y-14911550D01*
X9184201Y-14911550D02*
X9222296Y-14911550D01*
X9222296Y-14911550D02*
X9241344Y-14921074D01*
X9241344Y-14921074D02*
X9250867Y-14930598D01*
X9250867Y-14930598D02*
X9260391Y-14949646D01*
X9260391Y-14949646D02*
X9260391Y-15006788D01*
X9260391Y-15006788D02*
X9250867Y-15025836D01*
X9250867Y-15025836D02*
X9241344Y-15035360D01*
X9241344Y-15035360D02*
X9222296Y-15044884D01*
X9222296Y-15044884D02*
X9184201Y-15044884D01*
X9184201Y-15044884D02*
X9165153Y-15035360D01*
X9346105Y-15025836D02*
X9355629Y-15035360D01*
X9355629Y-15035360D02*
X9346105Y-15044884D01*
X9346105Y-15044884D02*
X9336582Y-15035360D01*
X9336582Y-15035360D02*
X9346105Y-15025836D01*
X9346105Y-15025836D02*
X9346105Y-15044884D01*
X9346105Y-14921074D02*
X9355629Y-14930598D01*
X9355629Y-14930598D02*
X9346105Y-14940122D01*
X9346105Y-14940122D02*
X9336582Y-14930598D01*
X9336582Y-14930598D02*
X9346105Y-14921074D01*
X9346105Y-14921074D02*
X9346105Y-14940122D01*
D10*
X7683900Y-15358400D02*
X7713900Y-15388400D01*
X7713900Y-15358400D02*
X7683900Y-15388400D01*
D11*
X8012772Y-15264884D02*
X8031820Y-15264884D01*
X8031820Y-15264884D02*
X8050867Y-15274408D01*
X8050867Y-15274408D02*
X8060391Y-15283931D01*
X8060391Y-15283931D02*
X8069915Y-15302979D01*
X8069915Y-15302979D02*
X8079439Y-15341074D01*
X8079439Y-15341074D02*
X8079439Y-15388693D01*
X8079439Y-15388693D02*
X8069915Y-15426788D01*
X8069915Y-15426788D02*
X8060391Y-15445836D01*
X8060391Y-15445836D02*
X8050867Y-15455360D01*
X8050867Y-15455360D02*
X8031820Y-15464884D01*
X8031820Y-15464884D02*
X8012772Y-15464884D01*
X8012772Y-15464884D02*
X7993724Y-15455360D01*
X7993724Y-15455360D02*
X7984201Y-15445836D01*
X7984201Y-15445836D02*
X7974677Y-15426788D01*
X7974677Y-15426788D02*
X7965153Y-15388693D01*
X7965153Y-15388693D02*
X7965153Y-15341074D01*
X7965153Y-15341074D02*
X7974677Y-15302979D01*
X7974677Y-15302979D02*
X7984201Y-15283931D01*
X7984201Y-15283931D02*
X7993724Y-15274408D01*
X7993724Y-15274408D02*
X8012772Y-15264884D01*
X8165153Y-15445836D02*
X8174677Y-15455360D01*
X8174677Y-15455360D02*
X8165153Y-15464884D01*
X8165153Y-15464884D02*
X8155629Y-15455360D01*
X8155629Y-15455360D02*
X8165153Y-15445836D01*
X8165153Y-15445836D02*
X8165153Y-15464884D01*
X8241343Y-15264884D02*
X8365153Y-15264884D01*
X8365153Y-15264884D02*
X8298486Y-15341074D01*
X8298486Y-15341074D02*
X8327058Y-15341074D01*
X8327058Y-15341074D02*
X8346105Y-15350598D01*
X8346105Y-15350598D02*
X8355629Y-15360122D01*
X8355629Y-15360122D02*
X8365153Y-15379169D01*
X8365153Y-15379169D02*
X8365153Y-15426788D01*
X8365153Y-15426788D02*
X8355629Y-15445836D01*
X8355629Y-15445836D02*
X8346105Y-15455360D01*
X8346105Y-15455360D02*
X8327058Y-15464884D01*
X8327058Y-15464884D02*
X8269915Y-15464884D01*
X8269915Y-15464884D02*
X8250867Y-15455360D01*
X8250867Y-15455360D02*
X8241343Y-15445836D01*
X8488963Y-15264884D02*
X8508010Y-15264884D01*
X8508010Y-15264884D02*
X8527058Y-15274408D01*
X8527058Y-15274408D02*
X8536582Y-15283931D01*
X8536582Y-15283931D02*
X8546105Y-15302979D01*
X8546105Y-15302979D02*
X8555629Y-15341074D01*
X8555629Y-15341074D02*
X8555629Y-15388693D01*
X8555629Y-15388693D02*
X8546105Y-15426788D01*
X8546105Y-15426788D02*
X8536582Y-15445836D01*
X8536582Y-15445836D02*
X8527058Y-15455360D01*
X8527058Y-15455360D02*
X8508010Y-15464884D01*
X8508010Y-15464884D02*
X8488963Y-15464884D01*
X8488963Y-15464884D02*
X8469915Y-15455360D01*
X8469915Y-15455360D02*
X8460391Y-15445836D01*
X8460391Y-15445836D02*
X8450867Y-15426788D01*
X8450867Y-15426788D02*
X8441344Y-15388693D01*
X8441344Y-15388693D02*
X8441344Y-15341074D01*
X8441344Y-15341074D02*
X8450867Y-15302979D01*
X8450867Y-15302979D02*
X8460391Y-15283931D01*
X8460391Y-15283931D02*
X8469915Y-15274408D01*
X8469915Y-15274408D02*
X8488963Y-15264884D01*
X8679439Y-15264884D02*
X8698486Y-15264884D01*
X8698486Y-15264884D02*
X8717534Y-15274408D01*
X8717534Y-15274408D02*
X8727058Y-15283931D01*
X8727058Y-15283931D02*
X8736582Y-15302979D01*
X8736582Y-15302979D02*
X8746105Y-15341074D01*
X8746105Y-15341074D02*
X8746105Y-15388693D01*
X8746105Y-15388693D02*
X8736582Y-15426788D01*
X8736582Y-15426788D02*
X8727058Y-15445836D01*
X8727058Y-15445836D02*
X8717534Y-15455360D01*
X8717534Y-15455360D02*
X8698486Y-15464884D01*
X8698486Y-15464884D02*
X8679439Y-15464884D01*
X8679439Y-15464884D02*
X8660391Y-15455360D01*
X8660391Y-15455360D02*
X8650867Y-15445836D01*
X8650867Y-15445836D02*
X8641344Y-15426788D01*
X8641344Y-15426788D02*
X8631820Y-15388693D01*
X8631820Y-15388693D02*
X8631820Y-15341074D01*
X8631820Y-15341074D02*
X8641344Y-15302979D01*
X8641344Y-15302979D02*
X8650867Y-15283931D01*
X8650867Y-15283931D02*
X8660391Y-15274408D01*
X8660391Y-15274408D02*
X8679439Y-15264884D01*
X8831820Y-15464884D02*
X8831820Y-15331550D01*
X8831820Y-15350598D02*
X8841344Y-15341074D01*
X8841344Y-15341074D02*
X8860391Y-15331550D01*
X8860391Y-15331550D02*
X8888963Y-15331550D01*
X8888963Y-15331550D02*
X8908010Y-15341074D01*
X8908010Y-15341074D02*
X8917534Y-15360122D01*
X8917534Y-15360122D02*
X8917534Y-15464884D01*
X8917534Y-15360122D02*
X8927058Y-15341074D01*
X8927058Y-15341074D02*
X8946105Y-15331550D01*
X8946105Y-15331550D02*
X8974677Y-15331550D01*
X8974677Y-15331550D02*
X8993725Y-15341074D01*
X8993725Y-15341074D02*
X9003248Y-15360122D01*
X9003248Y-15360122D02*
X9003248Y-15464884D01*
X9098486Y-15464884D02*
X9098486Y-15331550D01*
X9098486Y-15350598D02*
X9108010Y-15341074D01*
X9108010Y-15341074D02*
X9127058Y-15331550D01*
X9127058Y-15331550D02*
X9155629Y-15331550D01*
X9155629Y-15331550D02*
X9174677Y-15341074D01*
X9174677Y-15341074D02*
X9184201Y-15360122D01*
X9184201Y-15360122D02*
X9184201Y-15464884D01*
X9184201Y-15360122D02*
X9193725Y-15341074D01*
X9193725Y-15341074D02*
X9212772Y-15331550D01*
X9212772Y-15331550D02*
X9241344Y-15331550D01*
X9241344Y-15331550D02*
X9260391Y-15341074D01*
X9260391Y-15341074D02*
X9269915Y-15360122D01*
X9269915Y-15360122D02*
X9269915Y-15464884D01*
X9660391Y-15255360D02*
X9488963Y-15512503D01*
X9917534Y-15264884D02*
X9936582Y-15264884D01*
X9936582Y-15264884D02*
X9955629Y-15274408D01*
X9955629Y-15274408D02*
X9965153Y-15283931D01*
X9965153Y-15283931D02*
X9974677Y-15302979D01*
X9974677Y-15302979D02*
X9984201Y-15341074D01*
X9984201Y-15341074D02*
X9984201Y-15388693D01*
X9984201Y-15388693D02*
X9974677Y-15426788D01*
X9974677Y-15426788D02*
X9965153Y-15445836D01*
X9965153Y-15445836D02*
X9955629Y-15455360D01*
X9955629Y-15455360D02*
X9936582Y-15464884D01*
X9936582Y-15464884D02*
X9917534Y-15464884D01*
X9917534Y-15464884D02*
X9898487Y-15455360D01*
X9898487Y-15455360D02*
X9888963Y-15445836D01*
X9888963Y-15445836D02*
X9879439Y-15426788D01*
X9879439Y-15426788D02*
X9869915Y-15388693D01*
X9869915Y-15388693D02*
X9869915Y-15341074D01*
X9869915Y-15341074D02*
X9879439Y-15302979D01*
X9879439Y-15302979D02*
X9888963Y-15283931D01*
X9888963Y-15283931D02*
X9898487Y-15274408D01*
X9898487Y-15274408D02*
X9917534Y-15264884D01*
X10069915Y-15445836D02*
X10079439Y-15455360D01*
X10079439Y-15455360D02*
X10069915Y-15464884D01*
X10069915Y-15464884D02*
X10060391Y-15455360D01*
X10060391Y-15455360D02*
X10069915Y-15445836D01*
X10069915Y-15445836D02*
X10069915Y-15464884D01*
X10203248Y-15264884D02*
X10222296Y-15264884D01*
X10222296Y-15264884D02*
X10241344Y-15274408D01*
X10241344Y-15274408D02*
X10250868Y-15283931D01*
X10250868Y-15283931D02*
X10260391Y-15302979D01*
X10260391Y-15302979D02*
X10269915Y-15341074D01*
X10269915Y-15341074D02*
X10269915Y-15388693D01*
X10269915Y-15388693D02*
X10260391Y-15426788D01*
X10260391Y-15426788D02*
X10250868Y-15445836D01*
X10250868Y-15445836D02*
X10241344Y-15455360D01*
X10241344Y-15455360D02*
X10222296Y-15464884D01*
X10222296Y-15464884D02*
X10203248Y-15464884D01*
X10203248Y-15464884D02*
X10184201Y-15455360D01*
X10184201Y-15455360D02*
X10174677Y-15445836D01*
X10174677Y-15445836D02*
X10165153Y-15426788D01*
X10165153Y-15426788D02*
X10155629Y-15388693D01*
X10155629Y-15388693D02*
X10155629Y-15341074D01*
X10155629Y-15341074D02*
X10165153Y-15302979D01*
X10165153Y-15302979D02*
X10174677Y-15283931D01*
X10174677Y-15283931D02*
X10184201Y-15274408D01*
X10184201Y-15274408D02*
X10203248Y-15264884D01*
X10460391Y-15464884D02*
X10346106Y-15464884D01*
X10403248Y-15464884D02*
X10403248Y-15264884D01*
X10403248Y-15264884D02*
X10384201Y-15293455D01*
X10384201Y-15293455D02*
X10365153Y-15312503D01*
X10365153Y-15312503D02*
X10346106Y-15322027D01*
X10650868Y-15464884D02*
X10536582Y-15464884D01*
X10593725Y-15464884D02*
X10593725Y-15264884D01*
X10593725Y-15264884D02*
X10574677Y-15293455D01*
X10574677Y-15293455D02*
X10555629Y-15312503D01*
X10555629Y-15312503D02*
X10536582Y-15322027D01*
X10765153Y-15350598D02*
X10746106Y-15341074D01*
X10746106Y-15341074D02*
X10736582Y-15331550D01*
X10736582Y-15331550D02*
X10727058Y-15312503D01*
X10727058Y-15312503D02*
X10727058Y-15302979D01*
X10727058Y-15302979D02*
X10736582Y-15283931D01*
X10736582Y-15283931D02*
X10746106Y-15274408D01*
X10746106Y-15274408D02*
X10765153Y-15264884D01*
X10765153Y-15264884D02*
X10803249Y-15264884D01*
X10803249Y-15264884D02*
X10822296Y-15274408D01*
X10822296Y-15274408D02*
X10831820Y-15283931D01*
X10831820Y-15283931D02*
X10841344Y-15302979D01*
X10841344Y-15302979D02*
X10841344Y-15312503D01*
X10841344Y-15312503D02*
X10831820Y-15331550D01*
X10831820Y-15331550D02*
X10822296Y-15341074D01*
X10822296Y-15341074D02*
X10803249Y-15350598D01*
X10803249Y-15350598D02*
X10765153Y-15350598D01*
X10765153Y-15350598D02*
X10746106Y-15360122D01*
X10746106Y-15360122D02*
X10736582Y-15369646D01*
X10736582Y-15369646D02*
X10727058Y-15388693D01*
X10727058Y-15388693D02*
X10727058Y-15426788D01*
X10727058Y-15426788D02*
X10736582Y-15445836D01*
X10736582Y-15445836D02*
X10746106Y-15455360D01*
X10746106Y-15455360D02*
X10765153Y-15464884D01*
X10765153Y-15464884D02*
X10803249Y-15464884D01*
X10803249Y-15464884D02*
X10822296Y-15455360D01*
X10822296Y-15455360D02*
X10831820Y-15445836D01*
X10831820Y-15445836D02*
X10841344Y-15426788D01*
X10841344Y-15426788D02*
X10841344Y-15388693D01*
X10841344Y-15388693D02*
X10831820Y-15369646D01*
X10831820Y-15369646D02*
X10822296Y-15360122D01*
X10822296Y-15360122D02*
X10803249Y-15350598D01*
X10917534Y-15264884D02*
X10917534Y-15302979D01*
X10993725Y-15264884D02*
X10993725Y-15302979D01*
X11288963Y-15541074D02*
X11279439Y-15531550D01*
X11279439Y-15531550D02*
X11260391Y-15502979D01*
X11260391Y-15502979D02*
X11250868Y-15483931D01*
X11250868Y-15483931D02*
X11241344Y-15455360D01*
X11241344Y-15455360D02*
X11231820Y-15407741D01*
X11231820Y-15407741D02*
X11231820Y-15369646D01*
X11231820Y-15369646D02*
X11241344Y-15322027D01*
X11241344Y-15322027D02*
X11250868Y-15293455D01*
X11250868Y-15293455D02*
X11260391Y-15274408D01*
X11260391Y-15274408D02*
X11279439Y-15245836D01*
X11279439Y-15245836D02*
X11288963Y-15236312D01*
X11393725Y-15350598D02*
X11374677Y-15341074D01*
X11374677Y-15341074D02*
X11365153Y-15331550D01*
X11365153Y-15331550D02*
X11355629Y-15312503D01*
X11355629Y-15312503D02*
X11355629Y-15302979D01*
X11355629Y-15302979D02*
X11365153Y-15283931D01*
X11365153Y-15283931D02*
X11374677Y-15274408D01*
X11374677Y-15274408D02*
X11393725Y-15264884D01*
X11393725Y-15264884D02*
X11431820Y-15264884D01*
X11431820Y-15264884D02*
X11450868Y-15274408D01*
X11450868Y-15274408D02*
X11460391Y-15283931D01*
X11460391Y-15283931D02*
X11469915Y-15302979D01*
X11469915Y-15302979D02*
X11469915Y-15312503D01*
X11469915Y-15312503D02*
X11460391Y-15331550D01*
X11460391Y-15331550D02*
X11450868Y-15341074D01*
X11450868Y-15341074D02*
X11431820Y-15350598D01*
X11431820Y-15350598D02*
X11393725Y-15350598D01*
X11393725Y-15350598D02*
X11374677Y-15360122D01*
X11374677Y-15360122D02*
X11365153Y-15369646D01*
X11365153Y-15369646D02*
X11355629Y-15388693D01*
X11355629Y-15388693D02*
X11355629Y-15426788D01*
X11355629Y-15426788D02*
X11365153Y-15445836D01*
X11365153Y-15445836D02*
X11374677Y-15455360D01*
X11374677Y-15455360D02*
X11393725Y-15464884D01*
X11393725Y-15464884D02*
X11431820Y-15464884D01*
X11431820Y-15464884D02*
X11450868Y-15455360D01*
X11450868Y-15455360D02*
X11460391Y-15445836D01*
X11460391Y-15445836D02*
X11469915Y-15426788D01*
X11469915Y-15426788D02*
X11469915Y-15388693D01*
X11469915Y-15388693D02*
X11460391Y-15369646D01*
X11460391Y-15369646D02*
X11450868Y-15360122D01*
X11450868Y-15360122D02*
X11431820Y-15350598D01*
X11708010Y-15464884D02*
X11708010Y-15264884D01*
X11793725Y-15464884D02*
X11793725Y-15360122D01*
X11793725Y-15360122D02*
X11784201Y-15341074D01*
X11784201Y-15341074D02*
X11765153Y-15331550D01*
X11765153Y-15331550D02*
X11736582Y-15331550D01*
X11736582Y-15331550D02*
X11717534Y-15341074D01*
X11717534Y-15341074D02*
X11708010Y-15350598D01*
X11917534Y-15464884D02*
X11898487Y-15455360D01*
X11898487Y-15455360D02*
X11888963Y-15445836D01*
X11888963Y-15445836D02*
X11879439Y-15426788D01*
X11879439Y-15426788D02*
X11879439Y-15369646D01*
X11879439Y-15369646D02*
X11888963Y-15350598D01*
X11888963Y-15350598D02*
X11898487Y-15341074D01*
X11898487Y-15341074D02*
X11917534Y-15331550D01*
X11917534Y-15331550D02*
X11946106Y-15331550D01*
X11946106Y-15331550D02*
X11965153Y-15341074D01*
X11965153Y-15341074D02*
X11974677Y-15350598D01*
X11974677Y-15350598D02*
X11984201Y-15369646D01*
X11984201Y-15369646D02*
X11984201Y-15426788D01*
X11984201Y-15426788D02*
X11974677Y-15445836D01*
X11974677Y-15445836D02*
X11965153Y-15455360D01*
X11965153Y-15455360D02*
X11946106Y-15464884D01*
X11946106Y-15464884D02*
X11917534Y-15464884D01*
X12098487Y-15464884D02*
X12079439Y-15455360D01*
X12079439Y-15455360D02*
X12069915Y-15436312D01*
X12069915Y-15436312D02*
X12069915Y-15264884D01*
X12250868Y-15455360D02*
X12231820Y-15464884D01*
X12231820Y-15464884D02*
X12193725Y-15464884D01*
X12193725Y-15464884D02*
X12174677Y-15455360D01*
X12174677Y-15455360D02*
X12165153Y-15436312D01*
X12165153Y-15436312D02*
X12165153Y-15360122D01*
X12165153Y-15360122D02*
X12174677Y-15341074D01*
X12174677Y-15341074D02*
X12193725Y-15331550D01*
X12193725Y-15331550D02*
X12231820Y-15331550D01*
X12231820Y-15331550D02*
X12250868Y-15341074D01*
X12250868Y-15341074D02*
X12260391Y-15360122D01*
X12260391Y-15360122D02*
X12260391Y-15379169D01*
X12260391Y-15379169D02*
X12165153Y-15398217D01*
X12336582Y-15455360D02*
X12355630Y-15464884D01*
X12355630Y-15464884D02*
X12393725Y-15464884D01*
X12393725Y-15464884D02*
X12412772Y-15455360D01*
X12412772Y-15455360D02*
X12422296Y-15436312D01*
X12422296Y-15436312D02*
X12422296Y-15426788D01*
X12422296Y-15426788D02*
X12412772Y-15407741D01*
X12412772Y-15407741D02*
X12393725Y-15398217D01*
X12393725Y-15398217D02*
X12365153Y-15398217D01*
X12365153Y-15398217D02*
X12346106Y-15388693D01*
X12346106Y-15388693D02*
X12336582Y-15369646D01*
X12336582Y-15369646D02*
X12336582Y-15360122D01*
X12336582Y-15360122D02*
X12346106Y-15341074D01*
X12346106Y-15341074D02*
X12365153Y-15331550D01*
X12365153Y-15331550D02*
X12393725Y-15331550D01*
X12393725Y-15331550D02*
X12412772Y-15341074D01*
X12488963Y-15541074D02*
X12498487Y-15531550D01*
X12498487Y-15531550D02*
X12517534Y-15502979D01*
X12517534Y-15502979D02*
X12527058Y-15483931D01*
X12527058Y-15483931D02*
X12536582Y-15455360D01*
X12536582Y-15455360D02*
X12546106Y-15407741D01*
X12546106Y-15407741D02*
X12546106Y-15369646D01*
X12546106Y-15369646D02*
X12536582Y-15322027D01*
X12536582Y-15322027D02*
X12527058Y-15293455D01*
X12527058Y-15293455D02*
X12517534Y-15274408D01*
X12517534Y-15274408D02*
X12498487Y-15245836D01*
X12498487Y-15245836D02*
X12488963Y-15236312D01*
D10*
X7713900Y-15637400D02*
G75*
G02*
X7673900Y-15637400I-20000J0D01*
G01*
X7673900Y-15637400D02*
G75*
G02*
X7713900Y-15637400I20000J0D01*
G01*
D11*
X8012772Y-15528884D02*
X8031820Y-15528884D01*
X8031820Y-15528884D02*
X8050867Y-15538408D01*
X8050867Y-15538408D02*
X8060391Y-15547931D01*
X8060391Y-15547931D02*
X8069915Y-15566979D01*
X8069915Y-15566979D02*
X8079439Y-15605074D01*
X8079439Y-15605074D02*
X8079439Y-15652693D01*
X8079439Y-15652693D02*
X8069915Y-15690788D01*
X8069915Y-15690788D02*
X8060391Y-15709836D01*
X8060391Y-15709836D02*
X8050867Y-15719360D01*
X8050867Y-15719360D02*
X8031820Y-15728884D01*
X8031820Y-15728884D02*
X8012772Y-15728884D01*
X8012772Y-15728884D02*
X7993724Y-15719360D01*
X7993724Y-15719360D02*
X7984201Y-15709836D01*
X7984201Y-15709836D02*
X7974677Y-15690788D01*
X7974677Y-15690788D02*
X7965153Y-15652693D01*
X7965153Y-15652693D02*
X7965153Y-15605074D01*
X7965153Y-15605074D02*
X7974677Y-15566979D01*
X7974677Y-15566979D02*
X7984201Y-15547931D01*
X7984201Y-15547931D02*
X7993724Y-15538408D01*
X7993724Y-15538408D02*
X8012772Y-15528884D01*
X8165153Y-15709836D02*
X8174677Y-15719360D01*
X8174677Y-15719360D02*
X8165153Y-15728884D01*
X8165153Y-15728884D02*
X8155629Y-15719360D01*
X8155629Y-15719360D02*
X8165153Y-15709836D01*
X8165153Y-15709836D02*
X8165153Y-15728884D01*
X8346105Y-15595550D02*
X8346105Y-15728884D01*
X8298486Y-15519360D02*
X8250867Y-15662217D01*
X8250867Y-15662217D02*
X8374677Y-15662217D01*
X8488963Y-15528884D02*
X8508010Y-15528884D01*
X8508010Y-15528884D02*
X8527058Y-15538408D01*
X8527058Y-15538408D02*
X8536582Y-15547931D01*
X8536582Y-15547931D02*
X8546105Y-15566979D01*
X8546105Y-15566979D02*
X8555629Y-15605074D01*
X8555629Y-15605074D02*
X8555629Y-15652693D01*
X8555629Y-15652693D02*
X8546105Y-15690788D01*
X8546105Y-15690788D02*
X8536582Y-15709836D01*
X8536582Y-15709836D02*
X8527058Y-15719360D01*
X8527058Y-15719360D02*
X8508010Y-15728884D01*
X8508010Y-15728884D02*
X8488963Y-15728884D01*
X8488963Y-15728884D02*
X8469915Y-15719360D01*
X8469915Y-15719360D02*
X8460391Y-15709836D01*
X8460391Y-15709836D02*
X8450867Y-15690788D01*
X8450867Y-15690788D02*
X8441344Y-15652693D01*
X8441344Y-15652693D02*
X8441344Y-15605074D01*
X8441344Y-15605074D02*
X8450867Y-15566979D01*
X8450867Y-15566979D02*
X8460391Y-15547931D01*
X8460391Y-15547931D02*
X8469915Y-15538408D01*
X8469915Y-15538408D02*
X8488963Y-15528884D01*
X8679439Y-15528884D02*
X8698486Y-15528884D01*
X8698486Y-15528884D02*
X8717534Y-15538408D01*
X8717534Y-15538408D02*
X8727058Y-15547931D01*
X8727058Y-15547931D02*
X8736582Y-15566979D01*
X8736582Y-15566979D02*
X8746105Y-15605074D01*
X8746105Y-15605074D02*
X8746105Y-15652693D01*
X8746105Y-15652693D02*
X8736582Y-15690788D01*
X8736582Y-15690788D02*
X8727058Y-15709836D01*
X8727058Y-15709836D02*
X8717534Y-15719360D01*
X8717534Y-15719360D02*
X8698486Y-15728884D01*
X8698486Y-15728884D02*
X8679439Y-15728884D01*
X8679439Y-15728884D02*
X8660391Y-15719360D01*
X8660391Y-15719360D02*
X8650867Y-15709836D01*
X8650867Y-15709836D02*
X8641344Y-15690788D01*
X8641344Y-15690788D02*
X8631820Y-15652693D01*
X8631820Y-15652693D02*
X8631820Y-15605074D01*
X8631820Y-15605074D02*
X8641344Y-15566979D01*
X8641344Y-15566979D02*
X8650867Y-15547931D01*
X8650867Y-15547931D02*
X8660391Y-15538408D01*
X8660391Y-15538408D02*
X8679439Y-15528884D01*
X8831820Y-15728884D02*
X8831820Y-15595550D01*
X8831820Y-15614598D02*
X8841344Y-15605074D01*
X8841344Y-15605074D02*
X8860391Y-15595550D01*
X8860391Y-15595550D02*
X8888963Y-15595550D01*
X8888963Y-15595550D02*
X8908010Y-15605074D01*
X8908010Y-15605074D02*
X8917534Y-15624122D01*
X8917534Y-15624122D02*
X8917534Y-15728884D01*
X8917534Y-15624122D02*
X8927058Y-15605074D01*
X8927058Y-15605074D02*
X8946105Y-15595550D01*
X8946105Y-15595550D02*
X8974677Y-15595550D01*
X8974677Y-15595550D02*
X8993725Y-15605074D01*
X8993725Y-15605074D02*
X9003248Y-15624122D01*
X9003248Y-15624122D02*
X9003248Y-15728884D01*
X9098486Y-15728884D02*
X9098486Y-15595550D01*
X9098486Y-15614598D02*
X9108010Y-15605074D01*
X9108010Y-15605074D02*
X9127058Y-15595550D01*
X9127058Y-15595550D02*
X9155629Y-15595550D01*
X9155629Y-15595550D02*
X9174677Y-15605074D01*
X9174677Y-15605074D02*
X9184201Y-15624122D01*
X9184201Y-15624122D02*
X9184201Y-15728884D01*
X9184201Y-15624122D02*
X9193725Y-15605074D01*
X9193725Y-15605074D02*
X9212772Y-15595550D01*
X9212772Y-15595550D02*
X9241344Y-15595550D01*
X9241344Y-15595550D02*
X9260391Y-15605074D01*
X9260391Y-15605074D02*
X9269915Y-15624122D01*
X9269915Y-15624122D02*
X9269915Y-15728884D01*
X9660391Y-15519360D02*
X9488963Y-15776503D01*
X9917534Y-15528884D02*
X9936582Y-15528884D01*
X9936582Y-15528884D02*
X9955629Y-15538408D01*
X9955629Y-15538408D02*
X9965153Y-15547931D01*
X9965153Y-15547931D02*
X9974677Y-15566979D01*
X9974677Y-15566979D02*
X9984201Y-15605074D01*
X9984201Y-15605074D02*
X9984201Y-15652693D01*
X9984201Y-15652693D02*
X9974677Y-15690788D01*
X9974677Y-15690788D02*
X9965153Y-15709836D01*
X9965153Y-15709836D02*
X9955629Y-15719360D01*
X9955629Y-15719360D02*
X9936582Y-15728884D01*
X9936582Y-15728884D02*
X9917534Y-15728884D01*
X9917534Y-15728884D02*
X9898487Y-15719360D01*
X9898487Y-15719360D02*
X9888963Y-15709836D01*
X9888963Y-15709836D02*
X9879439Y-15690788D01*
X9879439Y-15690788D02*
X9869915Y-15652693D01*
X9869915Y-15652693D02*
X9869915Y-15605074D01*
X9869915Y-15605074D02*
X9879439Y-15566979D01*
X9879439Y-15566979D02*
X9888963Y-15547931D01*
X9888963Y-15547931D02*
X9898487Y-15538408D01*
X9898487Y-15538408D02*
X9917534Y-15528884D01*
X10069915Y-15709836D02*
X10079439Y-15719360D01*
X10079439Y-15719360D02*
X10069915Y-15728884D01*
X10069915Y-15728884D02*
X10060391Y-15719360D01*
X10060391Y-15719360D02*
X10069915Y-15709836D01*
X10069915Y-15709836D02*
X10069915Y-15728884D01*
X10203248Y-15528884D02*
X10222296Y-15528884D01*
X10222296Y-15528884D02*
X10241344Y-15538408D01*
X10241344Y-15538408D02*
X10250868Y-15547931D01*
X10250868Y-15547931D02*
X10260391Y-15566979D01*
X10260391Y-15566979D02*
X10269915Y-15605074D01*
X10269915Y-15605074D02*
X10269915Y-15652693D01*
X10269915Y-15652693D02*
X10260391Y-15690788D01*
X10260391Y-15690788D02*
X10250868Y-15709836D01*
X10250868Y-15709836D02*
X10241344Y-15719360D01*
X10241344Y-15719360D02*
X10222296Y-15728884D01*
X10222296Y-15728884D02*
X10203248Y-15728884D01*
X10203248Y-15728884D02*
X10184201Y-15719360D01*
X10184201Y-15719360D02*
X10174677Y-15709836D01*
X10174677Y-15709836D02*
X10165153Y-15690788D01*
X10165153Y-15690788D02*
X10155629Y-15652693D01*
X10155629Y-15652693D02*
X10155629Y-15605074D01*
X10155629Y-15605074D02*
X10165153Y-15566979D01*
X10165153Y-15566979D02*
X10174677Y-15547931D01*
X10174677Y-15547931D02*
X10184201Y-15538408D01*
X10184201Y-15538408D02*
X10203248Y-15528884D01*
X10460391Y-15728884D02*
X10346106Y-15728884D01*
X10403248Y-15728884D02*
X10403248Y-15528884D01*
X10403248Y-15528884D02*
X10384201Y-15557455D01*
X10384201Y-15557455D02*
X10365153Y-15576503D01*
X10365153Y-15576503D02*
X10346106Y-15586027D01*
X10641344Y-15528884D02*
X10546106Y-15528884D01*
X10546106Y-15528884D02*
X10536582Y-15624122D01*
X10536582Y-15624122D02*
X10546106Y-15614598D01*
X10546106Y-15614598D02*
X10565153Y-15605074D01*
X10565153Y-15605074D02*
X10612772Y-15605074D01*
X10612772Y-15605074D02*
X10631820Y-15614598D01*
X10631820Y-15614598D02*
X10641344Y-15624122D01*
X10641344Y-15624122D02*
X10650868Y-15643169D01*
X10650868Y-15643169D02*
X10650868Y-15690788D01*
X10650868Y-15690788D02*
X10641344Y-15709836D01*
X10641344Y-15709836D02*
X10631820Y-15719360D01*
X10631820Y-15719360D02*
X10612772Y-15728884D01*
X10612772Y-15728884D02*
X10565153Y-15728884D01*
X10565153Y-15728884D02*
X10546106Y-15719360D01*
X10546106Y-15719360D02*
X10536582Y-15709836D01*
X10717534Y-15528884D02*
X10850868Y-15528884D01*
X10850868Y-15528884D02*
X10765153Y-15728884D01*
X10917534Y-15528884D02*
X10917534Y-15566979D01*
X10993725Y-15528884D02*
X10993725Y-15566979D01*
X11288963Y-15805074D02*
X11279439Y-15795550D01*
X11279439Y-15795550D02*
X11260391Y-15766979D01*
X11260391Y-15766979D02*
X11250868Y-15747931D01*
X11250868Y-15747931D02*
X11241344Y-15719360D01*
X11241344Y-15719360D02*
X11231820Y-15671741D01*
X11231820Y-15671741D02*
X11231820Y-15633646D01*
X11231820Y-15633646D02*
X11241344Y-15586027D01*
X11241344Y-15586027D02*
X11250868Y-15557455D01*
X11250868Y-15557455D02*
X11260391Y-15538408D01*
X11260391Y-15538408D02*
X11279439Y-15509836D01*
X11279439Y-15509836D02*
X11288963Y-15500312D01*
X11469915Y-15728884D02*
X11355629Y-15728884D01*
X11412772Y-15728884D02*
X11412772Y-15528884D01*
X11412772Y-15528884D02*
X11393725Y-15557455D01*
X11393725Y-15557455D02*
X11374677Y-15576503D01*
X11374677Y-15576503D02*
X11355629Y-15586027D01*
X11641344Y-15528884D02*
X11603248Y-15528884D01*
X11603248Y-15528884D02*
X11584201Y-15538408D01*
X11584201Y-15538408D02*
X11574677Y-15547931D01*
X11574677Y-15547931D02*
X11555629Y-15576503D01*
X11555629Y-15576503D02*
X11546106Y-15614598D01*
X11546106Y-15614598D02*
X11546106Y-15690788D01*
X11546106Y-15690788D02*
X11555629Y-15709836D01*
X11555629Y-15709836D02*
X11565153Y-15719360D01*
X11565153Y-15719360D02*
X11584201Y-15728884D01*
X11584201Y-15728884D02*
X11622296Y-15728884D01*
X11622296Y-15728884D02*
X11641344Y-15719360D01*
X11641344Y-15719360D02*
X11650868Y-15709836D01*
X11650868Y-15709836D02*
X11660391Y-15690788D01*
X11660391Y-15690788D02*
X11660391Y-15643169D01*
X11660391Y-15643169D02*
X11650868Y-15624122D01*
X11650868Y-15624122D02*
X11641344Y-15614598D01*
X11641344Y-15614598D02*
X11622296Y-15605074D01*
X11622296Y-15605074D02*
X11584201Y-15605074D01*
X11584201Y-15605074D02*
X11565153Y-15614598D01*
X11565153Y-15614598D02*
X11555629Y-15624122D01*
X11555629Y-15624122D02*
X11546106Y-15643169D01*
X11850868Y-15728884D02*
X11736582Y-15728884D01*
X11793725Y-15728884D02*
X11793725Y-15528884D01*
X11793725Y-15528884D02*
X11774677Y-15557455D01*
X11774677Y-15557455D02*
X11755629Y-15576503D01*
X11755629Y-15576503D02*
X11736582Y-15586027D01*
X12088963Y-15728884D02*
X12088963Y-15528884D01*
X12174677Y-15728884D02*
X12174677Y-15624122D01*
X12174677Y-15624122D02*
X12165153Y-15605074D01*
X12165153Y-15605074D02*
X12146106Y-15595550D01*
X12146106Y-15595550D02*
X12117534Y-15595550D01*
X12117534Y-15595550D02*
X12098487Y-15605074D01*
X12098487Y-15605074D02*
X12088963Y-15614598D01*
X12298487Y-15728884D02*
X12279439Y-15719360D01*
X12279439Y-15719360D02*
X12269915Y-15709836D01*
X12269915Y-15709836D02*
X12260391Y-15690788D01*
X12260391Y-15690788D02*
X12260391Y-15633646D01*
X12260391Y-15633646D02*
X12269915Y-15614598D01*
X12269915Y-15614598D02*
X12279439Y-15605074D01*
X12279439Y-15605074D02*
X12298487Y-15595550D01*
X12298487Y-15595550D02*
X12327058Y-15595550D01*
X12327058Y-15595550D02*
X12346106Y-15605074D01*
X12346106Y-15605074D02*
X12355630Y-15614598D01*
X12355630Y-15614598D02*
X12365153Y-15633646D01*
X12365153Y-15633646D02*
X12365153Y-15690788D01*
X12365153Y-15690788D02*
X12355630Y-15709836D01*
X12355630Y-15709836D02*
X12346106Y-15719360D01*
X12346106Y-15719360D02*
X12327058Y-15728884D01*
X12327058Y-15728884D02*
X12298487Y-15728884D01*
X12479439Y-15728884D02*
X12460391Y-15719360D01*
X12460391Y-15719360D02*
X12450868Y-15700312D01*
X12450868Y-15700312D02*
X12450868Y-15528884D01*
X12631820Y-15719360D02*
X12612772Y-15728884D01*
X12612772Y-15728884D02*
X12574677Y-15728884D01*
X12574677Y-15728884D02*
X12555630Y-15719360D01*
X12555630Y-15719360D02*
X12546106Y-15700312D01*
X12546106Y-15700312D02*
X12546106Y-15624122D01*
X12546106Y-15624122D02*
X12555630Y-15605074D01*
X12555630Y-15605074D02*
X12574677Y-15595550D01*
X12574677Y-15595550D02*
X12612772Y-15595550D01*
X12612772Y-15595550D02*
X12631820Y-15605074D01*
X12631820Y-15605074D02*
X12641344Y-15624122D01*
X12641344Y-15624122D02*
X12641344Y-15643169D01*
X12641344Y-15643169D02*
X12546106Y-15662217D01*
X12717534Y-15719360D02*
X12736582Y-15728884D01*
X12736582Y-15728884D02*
X12774677Y-15728884D01*
X12774677Y-15728884D02*
X12793725Y-15719360D01*
X12793725Y-15719360D02*
X12803249Y-15700312D01*
X12803249Y-15700312D02*
X12803249Y-15690788D01*
X12803249Y-15690788D02*
X12793725Y-15671741D01*
X12793725Y-15671741D02*
X12774677Y-15662217D01*
X12774677Y-15662217D02*
X12746106Y-15662217D01*
X12746106Y-15662217D02*
X12727058Y-15652693D01*
X12727058Y-15652693D02*
X12717534Y-15633646D01*
X12717534Y-15633646D02*
X12717534Y-15624122D01*
X12717534Y-15624122D02*
X12727058Y-15605074D01*
X12727058Y-15605074D02*
X12746106Y-15595550D01*
X12746106Y-15595550D02*
X12774677Y-15595550D01*
X12774677Y-15595550D02*
X12793725Y-15605074D01*
X12869915Y-15805074D02*
X12879439Y-15795550D01*
X12879439Y-15795550D02*
X12898487Y-15766979D01*
X12898487Y-15766979D02*
X12908011Y-15747931D01*
X12908011Y-15747931D02*
X12917534Y-15719360D01*
X12917534Y-15719360D02*
X12927058Y-15671741D01*
X12927058Y-15671741D02*
X12927058Y-15633646D01*
X12927058Y-15633646D02*
X12917534Y-15586027D01*
X12917534Y-15586027D02*
X12908011Y-15557455D01*
X12908011Y-15557455D02*
X12898487Y-15538408D01*
X12898487Y-15538408D02*
X12879439Y-15509836D01*
X12879439Y-15509836D02*
X12869915Y-15500312D01*
D10*
X7688900Y-15876400D02*
X7688900Y-15926400D01*
X7663900Y-15901400D02*
X7713900Y-15901400D01*
D11*
X8012772Y-15792884D02*
X8031820Y-15792884D01*
X8031820Y-15792884D02*
X8050867Y-15802408D01*
X8050867Y-15802408D02*
X8060391Y-15811931D01*
X8060391Y-15811931D02*
X8069915Y-15830979D01*
X8069915Y-15830979D02*
X8079439Y-15869074D01*
X8079439Y-15869074D02*
X8079439Y-15916693D01*
X8079439Y-15916693D02*
X8069915Y-15954788D01*
X8069915Y-15954788D02*
X8060391Y-15973836D01*
X8060391Y-15973836D02*
X8050867Y-15983360D01*
X8050867Y-15983360D02*
X8031820Y-15992884D01*
X8031820Y-15992884D02*
X8012772Y-15992884D01*
X8012772Y-15992884D02*
X7993724Y-15983360D01*
X7993724Y-15983360D02*
X7984201Y-15973836D01*
X7984201Y-15973836D02*
X7974677Y-15954788D01*
X7974677Y-15954788D02*
X7965153Y-15916693D01*
X7965153Y-15916693D02*
X7965153Y-15869074D01*
X7965153Y-15869074D02*
X7974677Y-15830979D01*
X7974677Y-15830979D02*
X7984201Y-15811931D01*
X7984201Y-15811931D02*
X7993724Y-15802408D01*
X7993724Y-15802408D02*
X8012772Y-15792884D01*
X8165153Y-15973836D02*
X8174677Y-15983360D01*
X8174677Y-15983360D02*
X8165153Y-15992884D01*
X8165153Y-15992884D02*
X8155629Y-15983360D01*
X8155629Y-15983360D02*
X8165153Y-15973836D01*
X8165153Y-15973836D02*
X8165153Y-15992884D01*
X8355629Y-15792884D02*
X8260391Y-15792884D01*
X8260391Y-15792884D02*
X8250867Y-15888122D01*
X8250867Y-15888122D02*
X8260391Y-15878598D01*
X8260391Y-15878598D02*
X8279439Y-15869074D01*
X8279439Y-15869074D02*
X8327058Y-15869074D01*
X8327058Y-15869074D02*
X8346105Y-15878598D01*
X8346105Y-15878598D02*
X8355629Y-15888122D01*
X8355629Y-15888122D02*
X8365153Y-15907169D01*
X8365153Y-15907169D02*
X8365153Y-15954788D01*
X8365153Y-15954788D02*
X8355629Y-15973836D01*
X8355629Y-15973836D02*
X8346105Y-15983360D01*
X8346105Y-15983360D02*
X8327058Y-15992884D01*
X8327058Y-15992884D02*
X8279439Y-15992884D01*
X8279439Y-15992884D02*
X8260391Y-15983360D01*
X8260391Y-15983360D02*
X8250867Y-15973836D01*
X8488963Y-15792884D02*
X8508010Y-15792884D01*
X8508010Y-15792884D02*
X8527058Y-15802408D01*
X8527058Y-15802408D02*
X8536582Y-15811931D01*
X8536582Y-15811931D02*
X8546105Y-15830979D01*
X8546105Y-15830979D02*
X8555629Y-15869074D01*
X8555629Y-15869074D02*
X8555629Y-15916693D01*
X8555629Y-15916693D02*
X8546105Y-15954788D01*
X8546105Y-15954788D02*
X8536582Y-15973836D01*
X8536582Y-15973836D02*
X8527058Y-15983360D01*
X8527058Y-15983360D02*
X8508010Y-15992884D01*
X8508010Y-15992884D02*
X8488963Y-15992884D01*
X8488963Y-15992884D02*
X8469915Y-15983360D01*
X8469915Y-15983360D02*
X8460391Y-15973836D01*
X8460391Y-15973836D02*
X8450867Y-15954788D01*
X8450867Y-15954788D02*
X8441344Y-15916693D01*
X8441344Y-15916693D02*
X8441344Y-15869074D01*
X8441344Y-15869074D02*
X8450867Y-15830979D01*
X8450867Y-15830979D02*
X8460391Y-15811931D01*
X8460391Y-15811931D02*
X8469915Y-15802408D01*
X8469915Y-15802408D02*
X8488963Y-15792884D01*
X8679439Y-15792884D02*
X8698486Y-15792884D01*
X8698486Y-15792884D02*
X8717534Y-15802408D01*
X8717534Y-15802408D02*
X8727058Y-15811931D01*
X8727058Y-15811931D02*
X8736582Y-15830979D01*
X8736582Y-15830979D02*
X8746105Y-15869074D01*
X8746105Y-15869074D02*
X8746105Y-15916693D01*
X8746105Y-15916693D02*
X8736582Y-15954788D01*
X8736582Y-15954788D02*
X8727058Y-15973836D01*
X8727058Y-15973836D02*
X8717534Y-15983360D01*
X8717534Y-15983360D02*
X8698486Y-15992884D01*
X8698486Y-15992884D02*
X8679439Y-15992884D01*
X8679439Y-15992884D02*
X8660391Y-15983360D01*
X8660391Y-15983360D02*
X8650867Y-15973836D01*
X8650867Y-15973836D02*
X8641344Y-15954788D01*
X8641344Y-15954788D02*
X8631820Y-15916693D01*
X8631820Y-15916693D02*
X8631820Y-15869074D01*
X8631820Y-15869074D02*
X8641344Y-15830979D01*
X8641344Y-15830979D02*
X8650867Y-15811931D01*
X8650867Y-15811931D02*
X8660391Y-15802408D01*
X8660391Y-15802408D02*
X8679439Y-15792884D01*
X8831820Y-15992884D02*
X8831820Y-15859550D01*
X8831820Y-15878598D02*
X8841344Y-15869074D01*
X8841344Y-15869074D02*
X8860391Y-15859550D01*
X8860391Y-15859550D02*
X8888963Y-15859550D01*
X8888963Y-15859550D02*
X8908010Y-15869074D01*
X8908010Y-15869074D02*
X8917534Y-15888122D01*
X8917534Y-15888122D02*
X8917534Y-15992884D01*
X8917534Y-15888122D02*
X8927058Y-15869074D01*
X8927058Y-15869074D02*
X8946105Y-15859550D01*
X8946105Y-15859550D02*
X8974677Y-15859550D01*
X8974677Y-15859550D02*
X8993725Y-15869074D01*
X8993725Y-15869074D02*
X9003248Y-15888122D01*
X9003248Y-15888122D02*
X9003248Y-15992884D01*
X9098486Y-15992884D02*
X9098486Y-15859550D01*
X9098486Y-15878598D02*
X9108010Y-15869074D01*
X9108010Y-15869074D02*
X9127058Y-15859550D01*
X9127058Y-15859550D02*
X9155629Y-15859550D01*
X9155629Y-15859550D02*
X9174677Y-15869074D01*
X9174677Y-15869074D02*
X9184201Y-15888122D01*
X9184201Y-15888122D02*
X9184201Y-15992884D01*
X9184201Y-15888122D02*
X9193725Y-15869074D01*
X9193725Y-15869074D02*
X9212772Y-15859550D01*
X9212772Y-15859550D02*
X9241344Y-15859550D01*
X9241344Y-15859550D02*
X9260391Y-15869074D01*
X9260391Y-15869074D02*
X9269915Y-15888122D01*
X9269915Y-15888122D02*
X9269915Y-15992884D01*
X9660391Y-15783360D02*
X9488963Y-16040503D01*
X9917534Y-15792884D02*
X9936582Y-15792884D01*
X9936582Y-15792884D02*
X9955629Y-15802408D01*
X9955629Y-15802408D02*
X9965153Y-15811931D01*
X9965153Y-15811931D02*
X9974677Y-15830979D01*
X9974677Y-15830979D02*
X9984201Y-15869074D01*
X9984201Y-15869074D02*
X9984201Y-15916693D01*
X9984201Y-15916693D02*
X9974677Y-15954788D01*
X9974677Y-15954788D02*
X9965153Y-15973836D01*
X9965153Y-15973836D02*
X9955629Y-15983360D01*
X9955629Y-15983360D02*
X9936582Y-15992884D01*
X9936582Y-15992884D02*
X9917534Y-15992884D01*
X9917534Y-15992884D02*
X9898487Y-15983360D01*
X9898487Y-15983360D02*
X9888963Y-15973836D01*
X9888963Y-15973836D02*
X9879439Y-15954788D01*
X9879439Y-15954788D02*
X9869915Y-15916693D01*
X9869915Y-15916693D02*
X9869915Y-15869074D01*
X9869915Y-15869074D02*
X9879439Y-15830979D01*
X9879439Y-15830979D02*
X9888963Y-15811931D01*
X9888963Y-15811931D02*
X9898487Y-15802408D01*
X9898487Y-15802408D02*
X9917534Y-15792884D01*
X10069915Y-15973836D02*
X10079439Y-15983360D01*
X10079439Y-15983360D02*
X10069915Y-15992884D01*
X10069915Y-15992884D02*
X10060391Y-15983360D01*
X10060391Y-15983360D02*
X10069915Y-15973836D01*
X10069915Y-15973836D02*
X10069915Y-15992884D01*
X10203248Y-15792884D02*
X10222296Y-15792884D01*
X10222296Y-15792884D02*
X10241344Y-15802408D01*
X10241344Y-15802408D02*
X10250868Y-15811931D01*
X10250868Y-15811931D02*
X10260391Y-15830979D01*
X10260391Y-15830979D02*
X10269915Y-15869074D01*
X10269915Y-15869074D02*
X10269915Y-15916693D01*
X10269915Y-15916693D02*
X10260391Y-15954788D01*
X10260391Y-15954788D02*
X10250868Y-15973836D01*
X10250868Y-15973836D02*
X10241344Y-15983360D01*
X10241344Y-15983360D02*
X10222296Y-15992884D01*
X10222296Y-15992884D02*
X10203248Y-15992884D01*
X10203248Y-15992884D02*
X10184201Y-15983360D01*
X10184201Y-15983360D02*
X10174677Y-15973836D01*
X10174677Y-15973836D02*
X10165153Y-15954788D01*
X10165153Y-15954788D02*
X10155629Y-15916693D01*
X10155629Y-15916693D02*
X10155629Y-15869074D01*
X10155629Y-15869074D02*
X10165153Y-15830979D01*
X10165153Y-15830979D02*
X10174677Y-15811931D01*
X10174677Y-15811931D02*
X10184201Y-15802408D01*
X10184201Y-15802408D02*
X10203248Y-15792884D01*
X10460391Y-15992884D02*
X10346106Y-15992884D01*
X10403248Y-15992884D02*
X10403248Y-15792884D01*
X10403248Y-15792884D02*
X10384201Y-15821455D01*
X10384201Y-15821455D02*
X10365153Y-15840503D01*
X10365153Y-15840503D02*
X10346106Y-15850027D01*
X10555629Y-15992884D02*
X10593725Y-15992884D01*
X10593725Y-15992884D02*
X10612772Y-15983360D01*
X10612772Y-15983360D02*
X10622296Y-15973836D01*
X10622296Y-15973836D02*
X10641344Y-15945265D01*
X10641344Y-15945265D02*
X10650868Y-15907169D01*
X10650868Y-15907169D02*
X10650868Y-15830979D01*
X10650868Y-15830979D02*
X10641344Y-15811931D01*
X10641344Y-15811931D02*
X10631820Y-15802408D01*
X10631820Y-15802408D02*
X10612772Y-15792884D01*
X10612772Y-15792884D02*
X10574677Y-15792884D01*
X10574677Y-15792884D02*
X10555629Y-15802408D01*
X10555629Y-15802408D02*
X10546106Y-15811931D01*
X10546106Y-15811931D02*
X10536582Y-15830979D01*
X10536582Y-15830979D02*
X10536582Y-15878598D01*
X10536582Y-15878598D02*
X10546106Y-15897646D01*
X10546106Y-15897646D02*
X10555629Y-15907169D01*
X10555629Y-15907169D02*
X10574677Y-15916693D01*
X10574677Y-15916693D02*
X10612772Y-15916693D01*
X10612772Y-15916693D02*
X10631820Y-15907169D01*
X10631820Y-15907169D02*
X10641344Y-15897646D01*
X10641344Y-15897646D02*
X10650868Y-15878598D01*
X10717534Y-15792884D02*
X10850868Y-15792884D01*
X10850868Y-15792884D02*
X10765153Y-15992884D01*
X10917534Y-15792884D02*
X10917534Y-15830979D01*
X10993725Y-15792884D02*
X10993725Y-15830979D01*
X11288963Y-16069074D02*
X11279439Y-16059550D01*
X11279439Y-16059550D02*
X11260391Y-16030979D01*
X11260391Y-16030979D02*
X11250868Y-16011931D01*
X11250868Y-16011931D02*
X11241344Y-15983360D01*
X11241344Y-15983360D02*
X11231820Y-15935741D01*
X11231820Y-15935741D02*
X11231820Y-15897646D01*
X11231820Y-15897646D02*
X11241344Y-15850027D01*
X11241344Y-15850027D02*
X11250868Y-15821455D01*
X11250868Y-15821455D02*
X11260391Y-15802408D01*
X11260391Y-15802408D02*
X11279439Y-15773836D01*
X11279439Y-15773836D02*
X11288963Y-15764312D01*
X11346106Y-15792884D02*
X11469915Y-15792884D01*
X11469915Y-15792884D02*
X11403248Y-15869074D01*
X11403248Y-15869074D02*
X11431820Y-15869074D01*
X11431820Y-15869074D02*
X11450868Y-15878598D01*
X11450868Y-15878598D02*
X11460391Y-15888122D01*
X11460391Y-15888122D02*
X11469915Y-15907169D01*
X11469915Y-15907169D02*
X11469915Y-15954788D01*
X11469915Y-15954788D02*
X11460391Y-15973836D01*
X11460391Y-15973836D02*
X11450868Y-15983360D01*
X11450868Y-15983360D02*
X11431820Y-15992884D01*
X11431820Y-15992884D02*
X11374677Y-15992884D01*
X11374677Y-15992884D02*
X11355629Y-15983360D01*
X11355629Y-15983360D02*
X11346106Y-15973836D01*
X11546106Y-15811931D02*
X11555629Y-15802408D01*
X11555629Y-15802408D02*
X11574677Y-15792884D01*
X11574677Y-15792884D02*
X11622296Y-15792884D01*
X11622296Y-15792884D02*
X11641344Y-15802408D01*
X11641344Y-15802408D02*
X11650868Y-15811931D01*
X11650868Y-15811931D02*
X11660391Y-15830979D01*
X11660391Y-15830979D02*
X11660391Y-15850027D01*
X11660391Y-15850027D02*
X11650868Y-15878598D01*
X11650868Y-15878598D02*
X11536582Y-15992884D01*
X11536582Y-15992884D02*
X11660391Y-15992884D01*
X11898487Y-15992884D02*
X11898487Y-15792884D01*
X11984201Y-15992884D02*
X11984201Y-15888122D01*
X11984201Y-15888122D02*
X11974677Y-15869074D01*
X11974677Y-15869074D02*
X11955630Y-15859550D01*
X11955630Y-15859550D02*
X11927058Y-15859550D01*
X11927058Y-15859550D02*
X11908010Y-15869074D01*
X11908010Y-15869074D02*
X11898487Y-15878598D01*
X12108010Y-15992884D02*
X12088963Y-15983360D01*
X12088963Y-15983360D02*
X12079439Y-15973836D01*
X12079439Y-15973836D02*
X12069915Y-15954788D01*
X12069915Y-15954788D02*
X12069915Y-15897646D01*
X12069915Y-15897646D02*
X12079439Y-15878598D01*
X12079439Y-15878598D02*
X12088963Y-15869074D01*
X12088963Y-15869074D02*
X12108010Y-15859550D01*
X12108010Y-15859550D02*
X12136582Y-15859550D01*
X12136582Y-15859550D02*
X12155630Y-15869074D01*
X12155630Y-15869074D02*
X12165153Y-15878598D01*
X12165153Y-15878598D02*
X12174677Y-15897646D01*
X12174677Y-15897646D02*
X12174677Y-15954788D01*
X12174677Y-15954788D02*
X12165153Y-15973836D01*
X12165153Y-15973836D02*
X12155630Y-15983360D01*
X12155630Y-15983360D02*
X12136582Y-15992884D01*
X12136582Y-15992884D02*
X12108010Y-15992884D01*
X12288963Y-15992884D02*
X12269915Y-15983360D01*
X12269915Y-15983360D02*
X12260391Y-15964312D01*
X12260391Y-15964312D02*
X12260391Y-15792884D01*
X12441344Y-15983360D02*
X12422296Y-15992884D01*
X12422296Y-15992884D02*
X12384201Y-15992884D01*
X12384201Y-15992884D02*
X12365153Y-15983360D01*
X12365153Y-15983360D02*
X12355630Y-15964312D01*
X12355630Y-15964312D02*
X12355630Y-15888122D01*
X12355630Y-15888122D02*
X12365153Y-15869074D01*
X12365153Y-15869074D02*
X12384201Y-15859550D01*
X12384201Y-15859550D02*
X12422296Y-15859550D01*
X12422296Y-15859550D02*
X12441344Y-15869074D01*
X12441344Y-15869074D02*
X12450868Y-15888122D01*
X12450868Y-15888122D02*
X12450868Y-15907169D01*
X12450868Y-15907169D02*
X12355630Y-15926217D01*
X12527058Y-15983360D02*
X12546106Y-15992884D01*
X12546106Y-15992884D02*
X12584201Y-15992884D01*
X12584201Y-15992884D02*
X12603249Y-15983360D01*
X12603249Y-15983360D02*
X12612772Y-15964312D01*
X12612772Y-15964312D02*
X12612772Y-15954788D01*
X12612772Y-15954788D02*
X12603249Y-15935741D01*
X12603249Y-15935741D02*
X12584201Y-15926217D01*
X12584201Y-15926217D02*
X12555630Y-15926217D01*
X12555630Y-15926217D02*
X12536582Y-15916693D01*
X12536582Y-15916693D02*
X12527058Y-15897646D01*
X12527058Y-15897646D02*
X12527058Y-15888122D01*
X12527058Y-15888122D02*
X12536582Y-15869074D01*
X12536582Y-15869074D02*
X12555630Y-15859550D01*
X12555630Y-15859550D02*
X12584201Y-15859550D01*
X12584201Y-15859550D02*
X12603249Y-15869074D01*
X12679439Y-16069074D02*
X12688963Y-16059550D01*
X12688963Y-16059550D02*
X12708011Y-16030979D01*
X12708011Y-16030979D02*
X12717534Y-16011931D01*
X12717534Y-16011931D02*
X12727058Y-15983360D01*
X12727058Y-15983360D02*
X12736582Y-15935741D01*
X12736582Y-15935741D02*
X12736582Y-15897646D01*
X12736582Y-15897646D02*
X12727058Y-15850027D01*
X12727058Y-15850027D02*
X12717534Y-15821455D01*
X12717534Y-15821455D02*
X12708011Y-15802408D01*
X12708011Y-15802408D02*
X12688963Y-15773836D01*
X12688963Y-15773836D02*
X12679439Y-15764312D01*
D10*
X7705113Y-16186613D02*
X7705113Y-16144187D01*
X7662687Y-16144187D01*
X7662687Y-16186613D01*
X7705113Y-16186613D01*
D11*
X8012772Y-16056884D02*
X8031820Y-16056884D01*
X8031820Y-16056884D02*
X8050867Y-16066408D01*
X8050867Y-16066408D02*
X8060391Y-16075931D01*
X8060391Y-16075931D02*
X8069915Y-16094979D01*
X8069915Y-16094979D02*
X8079439Y-16133074D01*
X8079439Y-16133074D02*
X8079439Y-16180693D01*
X8079439Y-16180693D02*
X8069915Y-16218788D01*
X8069915Y-16218788D02*
X8060391Y-16237836D01*
X8060391Y-16237836D02*
X8050867Y-16247360D01*
X8050867Y-16247360D02*
X8031820Y-16256884D01*
X8031820Y-16256884D02*
X8012772Y-16256884D01*
X8012772Y-16256884D02*
X7993724Y-16247360D01*
X7993724Y-16247360D02*
X7984201Y-16237836D01*
X7984201Y-16237836D02*
X7974677Y-16218788D01*
X7974677Y-16218788D02*
X7965153Y-16180693D01*
X7965153Y-16180693D02*
X7965153Y-16133074D01*
X7965153Y-16133074D02*
X7974677Y-16094979D01*
X7974677Y-16094979D02*
X7984201Y-16075931D01*
X7984201Y-16075931D02*
X7993724Y-16066408D01*
X7993724Y-16066408D02*
X8012772Y-16056884D01*
X8165153Y-16237836D02*
X8174677Y-16247360D01*
X8174677Y-16247360D02*
X8165153Y-16256884D01*
X8165153Y-16256884D02*
X8155629Y-16247360D01*
X8155629Y-16247360D02*
X8165153Y-16237836D01*
X8165153Y-16237836D02*
X8165153Y-16256884D01*
X8346105Y-16056884D02*
X8308010Y-16056884D01*
X8308010Y-16056884D02*
X8288962Y-16066408D01*
X8288962Y-16066408D02*
X8279439Y-16075931D01*
X8279439Y-16075931D02*
X8260391Y-16104503D01*
X8260391Y-16104503D02*
X8250867Y-16142598D01*
X8250867Y-16142598D02*
X8250867Y-16218788D01*
X8250867Y-16218788D02*
X8260391Y-16237836D01*
X8260391Y-16237836D02*
X8269915Y-16247360D01*
X8269915Y-16247360D02*
X8288962Y-16256884D01*
X8288962Y-16256884D02*
X8327058Y-16256884D01*
X8327058Y-16256884D02*
X8346105Y-16247360D01*
X8346105Y-16247360D02*
X8355629Y-16237836D01*
X8355629Y-16237836D02*
X8365153Y-16218788D01*
X8365153Y-16218788D02*
X8365153Y-16171169D01*
X8365153Y-16171169D02*
X8355629Y-16152122D01*
X8355629Y-16152122D02*
X8346105Y-16142598D01*
X8346105Y-16142598D02*
X8327058Y-16133074D01*
X8327058Y-16133074D02*
X8288962Y-16133074D01*
X8288962Y-16133074D02*
X8269915Y-16142598D01*
X8269915Y-16142598D02*
X8260391Y-16152122D01*
X8260391Y-16152122D02*
X8250867Y-16171169D01*
X8488963Y-16056884D02*
X8508010Y-16056884D01*
X8508010Y-16056884D02*
X8527058Y-16066408D01*
X8527058Y-16066408D02*
X8536582Y-16075931D01*
X8536582Y-16075931D02*
X8546105Y-16094979D01*
X8546105Y-16094979D02*
X8555629Y-16133074D01*
X8555629Y-16133074D02*
X8555629Y-16180693D01*
X8555629Y-16180693D02*
X8546105Y-16218788D01*
X8546105Y-16218788D02*
X8536582Y-16237836D01*
X8536582Y-16237836D02*
X8527058Y-16247360D01*
X8527058Y-16247360D02*
X8508010Y-16256884D01*
X8508010Y-16256884D02*
X8488963Y-16256884D01*
X8488963Y-16256884D02*
X8469915Y-16247360D01*
X8469915Y-16247360D02*
X8460391Y-16237836D01*
X8460391Y-16237836D02*
X8450867Y-16218788D01*
X8450867Y-16218788D02*
X8441344Y-16180693D01*
X8441344Y-16180693D02*
X8441344Y-16133074D01*
X8441344Y-16133074D02*
X8450867Y-16094979D01*
X8450867Y-16094979D02*
X8460391Y-16075931D01*
X8460391Y-16075931D02*
X8469915Y-16066408D01*
X8469915Y-16066408D02*
X8488963Y-16056884D01*
X8679439Y-16056884D02*
X8698486Y-16056884D01*
X8698486Y-16056884D02*
X8717534Y-16066408D01*
X8717534Y-16066408D02*
X8727058Y-16075931D01*
X8727058Y-16075931D02*
X8736582Y-16094979D01*
X8736582Y-16094979D02*
X8746105Y-16133074D01*
X8746105Y-16133074D02*
X8746105Y-16180693D01*
X8746105Y-16180693D02*
X8736582Y-16218788D01*
X8736582Y-16218788D02*
X8727058Y-16237836D01*
X8727058Y-16237836D02*
X8717534Y-16247360D01*
X8717534Y-16247360D02*
X8698486Y-16256884D01*
X8698486Y-16256884D02*
X8679439Y-16256884D01*
X8679439Y-16256884D02*
X8660391Y-16247360D01*
X8660391Y-16247360D02*
X8650867Y-16237836D01*
X8650867Y-16237836D02*
X8641344Y-16218788D01*
X8641344Y-16218788D02*
X8631820Y-16180693D01*
X8631820Y-16180693D02*
X8631820Y-16133074D01*
X8631820Y-16133074D02*
X8641344Y-16094979D01*
X8641344Y-16094979D02*
X8650867Y-16075931D01*
X8650867Y-16075931D02*
X8660391Y-16066408D01*
X8660391Y-16066408D02*
X8679439Y-16056884D01*
X8831820Y-16256884D02*
X8831820Y-16123550D01*
X8831820Y-16142598D02*
X8841344Y-16133074D01*
X8841344Y-16133074D02*
X8860391Y-16123550D01*
X8860391Y-16123550D02*
X8888963Y-16123550D01*
X8888963Y-16123550D02*
X8908010Y-16133074D01*
X8908010Y-16133074D02*
X8917534Y-16152122D01*
X8917534Y-16152122D02*
X8917534Y-16256884D01*
X8917534Y-16152122D02*
X8927058Y-16133074D01*
X8927058Y-16133074D02*
X8946105Y-16123550D01*
X8946105Y-16123550D02*
X8974677Y-16123550D01*
X8974677Y-16123550D02*
X8993725Y-16133074D01*
X8993725Y-16133074D02*
X9003248Y-16152122D01*
X9003248Y-16152122D02*
X9003248Y-16256884D01*
X9098486Y-16256884D02*
X9098486Y-16123550D01*
X9098486Y-16142598D02*
X9108010Y-16133074D01*
X9108010Y-16133074D02*
X9127058Y-16123550D01*
X9127058Y-16123550D02*
X9155629Y-16123550D01*
X9155629Y-16123550D02*
X9174677Y-16133074D01*
X9174677Y-16133074D02*
X9184201Y-16152122D01*
X9184201Y-16152122D02*
X9184201Y-16256884D01*
X9184201Y-16152122D02*
X9193725Y-16133074D01*
X9193725Y-16133074D02*
X9212772Y-16123550D01*
X9212772Y-16123550D02*
X9241344Y-16123550D01*
X9241344Y-16123550D02*
X9260391Y-16133074D01*
X9260391Y-16133074D02*
X9269915Y-16152122D01*
X9269915Y-16152122D02*
X9269915Y-16256884D01*
X9660391Y-16047360D02*
X9488963Y-16304503D01*
X9917534Y-16056884D02*
X9936582Y-16056884D01*
X9936582Y-16056884D02*
X9955629Y-16066408D01*
X9955629Y-16066408D02*
X9965153Y-16075931D01*
X9965153Y-16075931D02*
X9974677Y-16094979D01*
X9974677Y-16094979D02*
X9984201Y-16133074D01*
X9984201Y-16133074D02*
X9984201Y-16180693D01*
X9984201Y-16180693D02*
X9974677Y-16218788D01*
X9974677Y-16218788D02*
X9965153Y-16237836D01*
X9965153Y-16237836D02*
X9955629Y-16247360D01*
X9955629Y-16247360D02*
X9936582Y-16256884D01*
X9936582Y-16256884D02*
X9917534Y-16256884D01*
X9917534Y-16256884D02*
X9898487Y-16247360D01*
X9898487Y-16247360D02*
X9888963Y-16237836D01*
X9888963Y-16237836D02*
X9879439Y-16218788D01*
X9879439Y-16218788D02*
X9869915Y-16180693D01*
X9869915Y-16180693D02*
X9869915Y-16133074D01*
X9869915Y-16133074D02*
X9879439Y-16094979D01*
X9879439Y-16094979D02*
X9888963Y-16075931D01*
X9888963Y-16075931D02*
X9898487Y-16066408D01*
X9898487Y-16066408D02*
X9917534Y-16056884D01*
X10069915Y-16237836D02*
X10079439Y-16247360D01*
X10079439Y-16247360D02*
X10069915Y-16256884D01*
X10069915Y-16256884D02*
X10060391Y-16247360D01*
X10060391Y-16247360D02*
X10069915Y-16237836D01*
X10069915Y-16237836D02*
X10069915Y-16256884D01*
X10203248Y-16056884D02*
X10222296Y-16056884D01*
X10222296Y-16056884D02*
X10241344Y-16066408D01*
X10241344Y-16066408D02*
X10250868Y-16075931D01*
X10250868Y-16075931D02*
X10260391Y-16094979D01*
X10260391Y-16094979D02*
X10269915Y-16133074D01*
X10269915Y-16133074D02*
X10269915Y-16180693D01*
X10269915Y-16180693D02*
X10260391Y-16218788D01*
X10260391Y-16218788D02*
X10250868Y-16237836D01*
X10250868Y-16237836D02*
X10241344Y-16247360D01*
X10241344Y-16247360D02*
X10222296Y-16256884D01*
X10222296Y-16256884D02*
X10203248Y-16256884D01*
X10203248Y-16256884D02*
X10184201Y-16247360D01*
X10184201Y-16247360D02*
X10174677Y-16237836D01*
X10174677Y-16237836D02*
X10165153Y-16218788D01*
X10165153Y-16218788D02*
X10155629Y-16180693D01*
X10155629Y-16180693D02*
X10155629Y-16133074D01*
X10155629Y-16133074D02*
X10165153Y-16094979D01*
X10165153Y-16094979D02*
X10174677Y-16075931D01*
X10174677Y-16075931D02*
X10184201Y-16066408D01*
X10184201Y-16066408D02*
X10203248Y-16056884D01*
X10346106Y-16075931D02*
X10355629Y-16066408D01*
X10355629Y-16066408D02*
X10374677Y-16056884D01*
X10374677Y-16056884D02*
X10422296Y-16056884D01*
X10422296Y-16056884D02*
X10441344Y-16066408D01*
X10441344Y-16066408D02*
X10450868Y-16075931D01*
X10450868Y-16075931D02*
X10460391Y-16094979D01*
X10460391Y-16094979D02*
X10460391Y-16114027D01*
X10460391Y-16114027D02*
X10450868Y-16142598D01*
X10450868Y-16142598D02*
X10336582Y-16256884D01*
X10336582Y-16256884D02*
X10460391Y-16256884D01*
X10527058Y-16056884D02*
X10650868Y-16056884D01*
X10650868Y-16056884D02*
X10584201Y-16133074D01*
X10584201Y-16133074D02*
X10612772Y-16133074D01*
X10612772Y-16133074D02*
X10631820Y-16142598D01*
X10631820Y-16142598D02*
X10641344Y-16152122D01*
X10641344Y-16152122D02*
X10650868Y-16171169D01*
X10650868Y-16171169D02*
X10650868Y-16218788D01*
X10650868Y-16218788D02*
X10641344Y-16237836D01*
X10641344Y-16237836D02*
X10631820Y-16247360D01*
X10631820Y-16247360D02*
X10612772Y-16256884D01*
X10612772Y-16256884D02*
X10555629Y-16256884D01*
X10555629Y-16256884D02*
X10536582Y-16247360D01*
X10536582Y-16247360D02*
X10527058Y-16237836D01*
X10822296Y-16056884D02*
X10784201Y-16056884D01*
X10784201Y-16056884D02*
X10765153Y-16066408D01*
X10765153Y-16066408D02*
X10755629Y-16075931D01*
X10755629Y-16075931D02*
X10736582Y-16104503D01*
X10736582Y-16104503D02*
X10727058Y-16142598D01*
X10727058Y-16142598D02*
X10727058Y-16218788D01*
X10727058Y-16218788D02*
X10736582Y-16237836D01*
X10736582Y-16237836D02*
X10746106Y-16247360D01*
X10746106Y-16247360D02*
X10765153Y-16256884D01*
X10765153Y-16256884D02*
X10803249Y-16256884D01*
X10803249Y-16256884D02*
X10822296Y-16247360D01*
X10822296Y-16247360D02*
X10831820Y-16237836D01*
X10831820Y-16237836D02*
X10841344Y-16218788D01*
X10841344Y-16218788D02*
X10841344Y-16171169D01*
X10841344Y-16171169D02*
X10831820Y-16152122D01*
X10831820Y-16152122D02*
X10822296Y-16142598D01*
X10822296Y-16142598D02*
X10803249Y-16133074D01*
X10803249Y-16133074D02*
X10765153Y-16133074D01*
X10765153Y-16133074D02*
X10746106Y-16142598D01*
X10746106Y-16142598D02*
X10736582Y-16152122D01*
X10736582Y-16152122D02*
X10727058Y-16171169D01*
X10917534Y-16056884D02*
X10917534Y-16094979D01*
X10993725Y-16056884D02*
X10993725Y-16094979D01*
X11288963Y-16333074D02*
X11279439Y-16323550D01*
X11279439Y-16323550D02*
X11260391Y-16294979D01*
X11260391Y-16294979D02*
X11250868Y-16275931D01*
X11250868Y-16275931D02*
X11241344Y-16247360D01*
X11241344Y-16247360D02*
X11231820Y-16199741D01*
X11231820Y-16199741D02*
X11231820Y-16161646D01*
X11231820Y-16161646D02*
X11241344Y-16114027D01*
X11241344Y-16114027D02*
X11250868Y-16085455D01*
X11250868Y-16085455D02*
X11260391Y-16066408D01*
X11260391Y-16066408D02*
X11279439Y-16037836D01*
X11279439Y-16037836D02*
X11288963Y-16028312D01*
X11374677Y-16256884D02*
X11412772Y-16256884D01*
X11412772Y-16256884D02*
X11431820Y-16247360D01*
X11431820Y-16247360D02*
X11441344Y-16237836D01*
X11441344Y-16237836D02*
X11460391Y-16209265D01*
X11460391Y-16209265D02*
X11469915Y-16171169D01*
X11469915Y-16171169D02*
X11469915Y-16094979D01*
X11469915Y-16094979D02*
X11460391Y-16075931D01*
X11460391Y-16075931D02*
X11450868Y-16066408D01*
X11450868Y-16066408D02*
X11431820Y-16056884D01*
X11431820Y-16056884D02*
X11393725Y-16056884D01*
X11393725Y-16056884D02*
X11374677Y-16066408D01*
X11374677Y-16066408D02*
X11365153Y-16075931D01*
X11365153Y-16075931D02*
X11355629Y-16094979D01*
X11355629Y-16094979D02*
X11355629Y-16142598D01*
X11355629Y-16142598D02*
X11365153Y-16161646D01*
X11365153Y-16161646D02*
X11374677Y-16171169D01*
X11374677Y-16171169D02*
X11393725Y-16180693D01*
X11393725Y-16180693D02*
X11431820Y-16180693D01*
X11431820Y-16180693D02*
X11450868Y-16171169D01*
X11450868Y-16171169D02*
X11460391Y-16161646D01*
X11460391Y-16161646D02*
X11469915Y-16142598D01*
X11708010Y-16256884D02*
X11708010Y-16056884D01*
X11793725Y-16256884D02*
X11793725Y-16152122D01*
X11793725Y-16152122D02*
X11784201Y-16133074D01*
X11784201Y-16133074D02*
X11765153Y-16123550D01*
X11765153Y-16123550D02*
X11736582Y-16123550D01*
X11736582Y-16123550D02*
X11717534Y-16133074D01*
X11717534Y-16133074D02*
X11708010Y-16142598D01*
X11917534Y-16256884D02*
X11898487Y-16247360D01*
X11898487Y-16247360D02*
X11888963Y-16237836D01*
X11888963Y-16237836D02*
X11879439Y-16218788D01*
X11879439Y-16218788D02*
X11879439Y-16161646D01*
X11879439Y-16161646D02*
X11888963Y-16142598D01*
X11888963Y-16142598D02*
X11898487Y-16133074D01*
X11898487Y-16133074D02*
X11917534Y-16123550D01*
X11917534Y-16123550D02*
X11946106Y-16123550D01*
X11946106Y-16123550D02*
X11965153Y-16133074D01*
X11965153Y-16133074D02*
X11974677Y-16142598D01*
X11974677Y-16142598D02*
X11984201Y-16161646D01*
X11984201Y-16161646D02*
X11984201Y-16218788D01*
X11984201Y-16218788D02*
X11974677Y-16237836D01*
X11974677Y-16237836D02*
X11965153Y-16247360D01*
X11965153Y-16247360D02*
X11946106Y-16256884D01*
X11946106Y-16256884D02*
X11917534Y-16256884D01*
X12098487Y-16256884D02*
X12079439Y-16247360D01*
X12079439Y-16247360D02*
X12069915Y-16228312D01*
X12069915Y-16228312D02*
X12069915Y-16056884D01*
X12250868Y-16247360D02*
X12231820Y-16256884D01*
X12231820Y-16256884D02*
X12193725Y-16256884D01*
X12193725Y-16256884D02*
X12174677Y-16247360D01*
X12174677Y-16247360D02*
X12165153Y-16228312D01*
X12165153Y-16228312D02*
X12165153Y-16152122D01*
X12165153Y-16152122D02*
X12174677Y-16133074D01*
X12174677Y-16133074D02*
X12193725Y-16123550D01*
X12193725Y-16123550D02*
X12231820Y-16123550D01*
X12231820Y-16123550D02*
X12250868Y-16133074D01*
X12250868Y-16133074D02*
X12260391Y-16152122D01*
X12260391Y-16152122D02*
X12260391Y-16171169D01*
X12260391Y-16171169D02*
X12165153Y-16190217D01*
X12336582Y-16247360D02*
X12355630Y-16256884D01*
X12355630Y-16256884D02*
X12393725Y-16256884D01*
X12393725Y-16256884D02*
X12412772Y-16247360D01*
X12412772Y-16247360D02*
X12422296Y-16228312D01*
X12422296Y-16228312D02*
X12422296Y-16218788D01*
X12422296Y-16218788D02*
X12412772Y-16199741D01*
X12412772Y-16199741D02*
X12393725Y-16190217D01*
X12393725Y-16190217D02*
X12365153Y-16190217D01*
X12365153Y-16190217D02*
X12346106Y-16180693D01*
X12346106Y-16180693D02*
X12336582Y-16161646D01*
X12336582Y-16161646D02*
X12336582Y-16152122D01*
X12336582Y-16152122D02*
X12346106Y-16133074D01*
X12346106Y-16133074D02*
X12365153Y-16123550D01*
X12365153Y-16123550D02*
X12393725Y-16123550D01*
X12393725Y-16123550D02*
X12412772Y-16133074D01*
X12488963Y-16333074D02*
X12498487Y-16323550D01*
X12498487Y-16323550D02*
X12517534Y-16294979D01*
X12517534Y-16294979D02*
X12527058Y-16275931D01*
X12527058Y-16275931D02*
X12536582Y-16247360D01*
X12536582Y-16247360D02*
X12546106Y-16199741D01*
X12546106Y-16199741D02*
X12546106Y-16161646D01*
X12546106Y-16161646D02*
X12536582Y-16114027D01*
X12536582Y-16114027D02*
X12527058Y-16085455D01*
X12527058Y-16085455D02*
X12517534Y-16066408D01*
X12517534Y-16066408D02*
X12498487Y-16037836D01*
X12498487Y-16037836D02*
X12488963Y-16028312D01*
D10*
X7683900Y-16459400D02*
X7713900Y-16429400D01*
X7683900Y-16399400D01*
X7653900Y-16429400D01*
X7683900Y-16459400D01*
D11*
X8012772Y-16320884D02*
X8031820Y-16320884D01*
X8031820Y-16320884D02*
X8050867Y-16330408D01*
X8050867Y-16330408D02*
X8060391Y-16339931D01*
X8060391Y-16339931D02*
X8069915Y-16358979D01*
X8069915Y-16358979D02*
X8079439Y-16397074D01*
X8079439Y-16397074D02*
X8079439Y-16444693D01*
X8079439Y-16444693D02*
X8069915Y-16482788D01*
X8069915Y-16482788D02*
X8060391Y-16501836D01*
X8060391Y-16501836D02*
X8050867Y-16511360D01*
X8050867Y-16511360D02*
X8031820Y-16520884D01*
X8031820Y-16520884D02*
X8012772Y-16520884D01*
X8012772Y-16520884D02*
X7993724Y-16511360D01*
X7993724Y-16511360D02*
X7984201Y-16501836D01*
X7984201Y-16501836D02*
X7974677Y-16482788D01*
X7974677Y-16482788D02*
X7965153Y-16444693D01*
X7965153Y-16444693D02*
X7965153Y-16397074D01*
X7965153Y-16397074D02*
X7974677Y-16358979D01*
X7974677Y-16358979D02*
X7984201Y-16339931D01*
X7984201Y-16339931D02*
X7993724Y-16330408D01*
X7993724Y-16330408D02*
X8012772Y-16320884D01*
X8165153Y-16501836D02*
X8174677Y-16511360D01*
X8174677Y-16511360D02*
X8165153Y-16520884D01*
X8165153Y-16520884D02*
X8155629Y-16511360D01*
X8155629Y-16511360D02*
X8165153Y-16501836D01*
X8165153Y-16501836D02*
X8165153Y-16520884D01*
X8346105Y-16320884D02*
X8308010Y-16320884D01*
X8308010Y-16320884D02*
X8288962Y-16330408D01*
X8288962Y-16330408D02*
X8279439Y-16339931D01*
X8279439Y-16339931D02*
X8260391Y-16368503D01*
X8260391Y-16368503D02*
X8250867Y-16406598D01*
X8250867Y-16406598D02*
X8250867Y-16482788D01*
X8250867Y-16482788D02*
X8260391Y-16501836D01*
X8260391Y-16501836D02*
X8269915Y-16511360D01*
X8269915Y-16511360D02*
X8288962Y-16520884D01*
X8288962Y-16520884D02*
X8327058Y-16520884D01*
X8327058Y-16520884D02*
X8346105Y-16511360D01*
X8346105Y-16511360D02*
X8355629Y-16501836D01*
X8355629Y-16501836D02*
X8365153Y-16482788D01*
X8365153Y-16482788D02*
X8365153Y-16435169D01*
X8365153Y-16435169D02*
X8355629Y-16416122D01*
X8355629Y-16416122D02*
X8346105Y-16406598D01*
X8346105Y-16406598D02*
X8327058Y-16397074D01*
X8327058Y-16397074D02*
X8288962Y-16397074D01*
X8288962Y-16397074D02*
X8269915Y-16406598D01*
X8269915Y-16406598D02*
X8260391Y-16416122D01*
X8260391Y-16416122D02*
X8250867Y-16435169D01*
X8488963Y-16320884D02*
X8508010Y-16320884D01*
X8508010Y-16320884D02*
X8527058Y-16330408D01*
X8527058Y-16330408D02*
X8536582Y-16339931D01*
X8536582Y-16339931D02*
X8546105Y-16358979D01*
X8546105Y-16358979D02*
X8555629Y-16397074D01*
X8555629Y-16397074D02*
X8555629Y-16444693D01*
X8555629Y-16444693D02*
X8546105Y-16482788D01*
X8546105Y-16482788D02*
X8536582Y-16501836D01*
X8536582Y-16501836D02*
X8527058Y-16511360D01*
X8527058Y-16511360D02*
X8508010Y-16520884D01*
X8508010Y-16520884D02*
X8488963Y-16520884D01*
X8488963Y-16520884D02*
X8469915Y-16511360D01*
X8469915Y-16511360D02*
X8460391Y-16501836D01*
X8460391Y-16501836D02*
X8450867Y-16482788D01*
X8450867Y-16482788D02*
X8441344Y-16444693D01*
X8441344Y-16444693D02*
X8441344Y-16397074D01*
X8441344Y-16397074D02*
X8450867Y-16358979D01*
X8450867Y-16358979D02*
X8460391Y-16339931D01*
X8460391Y-16339931D02*
X8469915Y-16330408D01*
X8469915Y-16330408D02*
X8488963Y-16320884D01*
X8679439Y-16320884D02*
X8698486Y-16320884D01*
X8698486Y-16320884D02*
X8717534Y-16330408D01*
X8717534Y-16330408D02*
X8727058Y-16339931D01*
X8727058Y-16339931D02*
X8736582Y-16358979D01*
X8736582Y-16358979D02*
X8746105Y-16397074D01*
X8746105Y-16397074D02*
X8746105Y-16444693D01*
X8746105Y-16444693D02*
X8736582Y-16482788D01*
X8736582Y-16482788D02*
X8727058Y-16501836D01*
X8727058Y-16501836D02*
X8717534Y-16511360D01*
X8717534Y-16511360D02*
X8698486Y-16520884D01*
X8698486Y-16520884D02*
X8679439Y-16520884D01*
X8679439Y-16520884D02*
X8660391Y-16511360D01*
X8660391Y-16511360D02*
X8650867Y-16501836D01*
X8650867Y-16501836D02*
X8641344Y-16482788D01*
X8641344Y-16482788D02*
X8631820Y-16444693D01*
X8631820Y-16444693D02*
X8631820Y-16397074D01*
X8631820Y-16397074D02*
X8641344Y-16358979D01*
X8641344Y-16358979D02*
X8650867Y-16339931D01*
X8650867Y-16339931D02*
X8660391Y-16330408D01*
X8660391Y-16330408D02*
X8679439Y-16320884D01*
X8831820Y-16520884D02*
X8831820Y-16387550D01*
X8831820Y-16406598D02*
X8841344Y-16397074D01*
X8841344Y-16397074D02*
X8860391Y-16387550D01*
X8860391Y-16387550D02*
X8888963Y-16387550D01*
X8888963Y-16387550D02*
X8908010Y-16397074D01*
X8908010Y-16397074D02*
X8917534Y-16416122D01*
X8917534Y-16416122D02*
X8917534Y-16520884D01*
X8917534Y-16416122D02*
X8927058Y-16397074D01*
X8927058Y-16397074D02*
X8946105Y-16387550D01*
X8946105Y-16387550D02*
X8974677Y-16387550D01*
X8974677Y-16387550D02*
X8993725Y-16397074D01*
X8993725Y-16397074D02*
X9003248Y-16416122D01*
X9003248Y-16416122D02*
X9003248Y-16520884D01*
X9098486Y-16520884D02*
X9098486Y-16387550D01*
X9098486Y-16406598D02*
X9108010Y-16397074D01*
X9108010Y-16397074D02*
X9127058Y-16387550D01*
X9127058Y-16387550D02*
X9155629Y-16387550D01*
X9155629Y-16387550D02*
X9174677Y-16397074D01*
X9174677Y-16397074D02*
X9184201Y-16416122D01*
X9184201Y-16416122D02*
X9184201Y-16520884D01*
X9184201Y-16416122D02*
X9193725Y-16397074D01*
X9193725Y-16397074D02*
X9212772Y-16387550D01*
X9212772Y-16387550D02*
X9241344Y-16387550D01*
X9241344Y-16387550D02*
X9260391Y-16397074D01*
X9260391Y-16397074D02*
X9269915Y-16416122D01*
X9269915Y-16416122D02*
X9269915Y-16520884D01*
X9660391Y-16311360D02*
X9488963Y-16568503D01*
X9917534Y-16320884D02*
X9936582Y-16320884D01*
X9936582Y-16320884D02*
X9955629Y-16330408D01*
X9955629Y-16330408D02*
X9965153Y-16339931D01*
X9965153Y-16339931D02*
X9974677Y-16358979D01*
X9974677Y-16358979D02*
X9984201Y-16397074D01*
X9984201Y-16397074D02*
X9984201Y-16444693D01*
X9984201Y-16444693D02*
X9974677Y-16482788D01*
X9974677Y-16482788D02*
X9965153Y-16501836D01*
X9965153Y-16501836D02*
X9955629Y-16511360D01*
X9955629Y-16511360D02*
X9936582Y-16520884D01*
X9936582Y-16520884D02*
X9917534Y-16520884D01*
X9917534Y-16520884D02*
X9898487Y-16511360D01*
X9898487Y-16511360D02*
X9888963Y-16501836D01*
X9888963Y-16501836D02*
X9879439Y-16482788D01*
X9879439Y-16482788D02*
X9869915Y-16444693D01*
X9869915Y-16444693D02*
X9869915Y-16397074D01*
X9869915Y-16397074D02*
X9879439Y-16358979D01*
X9879439Y-16358979D02*
X9888963Y-16339931D01*
X9888963Y-16339931D02*
X9898487Y-16330408D01*
X9898487Y-16330408D02*
X9917534Y-16320884D01*
X10069915Y-16501836D02*
X10079439Y-16511360D01*
X10079439Y-16511360D02*
X10069915Y-16520884D01*
X10069915Y-16520884D02*
X10060391Y-16511360D01*
X10060391Y-16511360D02*
X10069915Y-16501836D01*
X10069915Y-16501836D02*
X10069915Y-16520884D01*
X10203248Y-16320884D02*
X10222296Y-16320884D01*
X10222296Y-16320884D02*
X10241344Y-16330408D01*
X10241344Y-16330408D02*
X10250868Y-16339931D01*
X10250868Y-16339931D02*
X10260391Y-16358979D01*
X10260391Y-16358979D02*
X10269915Y-16397074D01*
X10269915Y-16397074D02*
X10269915Y-16444693D01*
X10269915Y-16444693D02*
X10260391Y-16482788D01*
X10260391Y-16482788D02*
X10250868Y-16501836D01*
X10250868Y-16501836D02*
X10241344Y-16511360D01*
X10241344Y-16511360D02*
X10222296Y-16520884D01*
X10222296Y-16520884D02*
X10203248Y-16520884D01*
X10203248Y-16520884D02*
X10184201Y-16511360D01*
X10184201Y-16511360D02*
X10174677Y-16501836D01*
X10174677Y-16501836D02*
X10165153Y-16482788D01*
X10165153Y-16482788D02*
X10155629Y-16444693D01*
X10155629Y-16444693D02*
X10155629Y-16397074D01*
X10155629Y-16397074D02*
X10165153Y-16358979D01*
X10165153Y-16358979D02*
X10174677Y-16339931D01*
X10174677Y-16339931D02*
X10184201Y-16330408D01*
X10184201Y-16330408D02*
X10203248Y-16320884D01*
X10346106Y-16339931D02*
X10355629Y-16330408D01*
X10355629Y-16330408D02*
X10374677Y-16320884D01*
X10374677Y-16320884D02*
X10422296Y-16320884D01*
X10422296Y-16320884D02*
X10441344Y-16330408D01*
X10441344Y-16330408D02*
X10450868Y-16339931D01*
X10450868Y-16339931D02*
X10460391Y-16358979D01*
X10460391Y-16358979D02*
X10460391Y-16378027D01*
X10460391Y-16378027D02*
X10450868Y-16406598D01*
X10450868Y-16406598D02*
X10336582Y-16520884D01*
X10336582Y-16520884D02*
X10460391Y-16520884D01*
X10527058Y-16320884D02*
X10650868Y-16320884D01*
X10650868Y-16320884D02*
X10584201Y-16397074D01*
X10584201Y-16397074D02*
X10612772Y-16397074D01*
X10612772Y-16397074D02*
X10631820Y-16406598D01*
X10631820Y-16406598D02*
X10641344Y-16416122D01*
X10641344Y-16416122D02*
X10650868Y-16435169D01*
X10650868Y-16435169D02*
X10650868Y-16482788D01*
X10650868Y-16482788D02*
X10641344Y-16501836D01*
X10641344Y-16501836D02*
X10631820Y-16511360D01*
X10631820Y-16511360D02*
X10612772Y-16520884D01*
X10612772Y-16520884D02*
X10555629Y-16520884D01*
X10555629Y-16520884D02*
X10536582Y-16511360D01*
X10536582Y-16511360D02*
X10527058Y-16501836D01*
X10822296Y-16320884D02*
X10784201Y-16320884D01*
X10784201Y-16320884D02*
X10765153Y-16330408D01*
X10765153Y-16330408D02*
X10755629Y-16339931D01*
X10755629Y-16339931D02*
X10736582Y-16368503D01*
X10736582Y-16368503D02*
X10727058Y-16406598D01*
X10727058Y-16406598D02*
X10727058Y-16482788D01*
X10727058Y-16482788D02*
X10736582Y-16501836D01*
X10736582Y-16501836D02*
X10746106Y-16511360D01*
X10746106Y-16511360D02*
X10765153Y-16520884D01*
X10765153Y-16520884D02*
X10803249Y-16520884D01*
X10803249Y-16520884D02*
X10822296Y-16511360D01*
X10822296Y-16511360D02*
X10831820Y-16501836D01*
X10831820Y-16501836D02*
X10841344Y-16482788D01*
X10841344Y-16482788D02*
X10841344Y-16435169D01*
X10841344Y-16435169D02*
X10831820Y-16416122D01*
X10831820Y-16416122D02*
X10822296Y-16406598D01*
X10822296Y-16406598D02*
X10803249Y-16397074D01*
X10803249Y-16397074D02*
X10765153Y-16397074D01*
X10765153Y-16397074D02*
X10746106Y-16406598D01*
X10746106Y-16406598D02*
X10736582Y-16416122D01*
X10736582Y-16416122D02*
X10727058Y-16435169D01*
X10917534Y-16320884D02*
X10917534Y-16358979D01*
X10993725Y-16320884D02*
X10993725Y-16358979D01*
X11288963Y-16597074D02*
X11279439Y-16587550D01*
X11279439Y-16587550D02*
X11260391Y-16558979D01*
X11260391Y-16558979D02*
X11250868Y-16539931D01*
X11250868Y-16539931D02*
X11241344Y-16511360D01*
X11241344Y-16511360D02*
X11231820Y-16463741D01*
X11231820Y-16463741D02*
X11231820Y-16425646D01*
X11231820Y-16425646D02*
X11241344Y-16378027D01*
X11241344Y-16378027D02*
X11250868Y-16349455D01*
X11250868Y-16349455D02*
X11260391Y-16330408D01*
X11260391Y-16330408D02*
X11279439Y-16301836D01*
X11279439Y-16301836D02*
X11288963Y-16292312D01*
X11403248Y-16320884D02*
X11422296Y-16320884D01*
X11422296Y-16320884D02*
X11441344Y-16330408D01*
X11441344Y-16330408D02*
X11450868Y-16339931D01*
X11450868Y-16339931D02*
X11460391Y-16358979D01*
X11460391Y-16358979D02*
X11469915Y-16397074D01*
X11469915Y-16397074D02*
X11469915Y-16444693D01*
X11469915Y-16444693D02*
X11460391Y-16482788D01*
X11460391Y-16482788D02*
X11450868Y-16501836D01*
X11450868Y-16501836D02*
X11441344Y-16511360D01*
X11441344Y-16511360D02*
X11422296Y-16520884D01*
X11422296Y-16520884D02*
X11403248Y-16520884D01*
X11403248Y-16520884D02*
X11384201Y-16511360D01*
X11384201Y-16511360D02*
X11374677Y-16501836D01*
X11374677Y-16501836D02*
X11365153Y-16482788D01*
X11365153Y-16482788D02*
X11355629Y-16444693D01*
X11355629Y-16444693D02*
X11355629Y-16397074D01*
X11355629Y-16397074D02*
X11365153Y-16358979D01*
X11365153Y-16358979D02*
X11374677Y-16339931D01*
X11374677Y-16339931D02*
X11384201Y-16330408D01*
X11384201Y-16330408D02*
X11403248Y-16320884D01*
X11708010Y-16520884D02*
X11708010Y-16320884D01*
X11793725Y-16520884D02*
X11793725Y-16416122D01*
X11793725Y-16416122D02*
X11784201Y-16397074D01*
X11784201Y-16397074D02*
X11765153Y-16387550D01*
X11765153Y-16387550D02*
X11736582Y-16387550D01*
X11736582Y-16387550D02*
X11717534Y-16397074D01*
X11717534Y-16397074D02*
X11708010Y-16406598D01*
X11917534Y-16520884D02*
X11898487Y-16511360D01*
X11898487Y-16511360D02*
X11888963Y-16501836D01*
X11888963Y-16501836D02*
X11879439Y-16482788D01*
X11879439Y-16482788D02*
X11879439Y-16425646D01*
X11879439Y-16425646D02*
X11888963Y-16406598D01*
X11888963Y-16406598D02*
X11898487Y-16397074D01*
X11898487Y-16397074D02*
X11917534Y-16387550D01*
X11917534Y-16387550D02*
X11946106Y-16387550D01*
X11946106Y-16387550D02*
X11965153Y-16397074D01*
X11965153Y-16397074D02*
X11974677Y-16406598D01*
X11974677Y-16406598D02*
X11984201Y-16425646D01*
X11984201Y-16425646D02*
X11984201Y-16482788D01*
X11984201Y-16482788D02*
X11974677Y-16501836D01*
X11974677Y-16501836D02*
X11965153Y-16511360D01*
X11965153Y-16511360D02*
X11946106Y-16520884D01*
X11946106Y-16520884D02*
X11917534Y-16520884D01*
X12098487Y-16520884D02*
X12079439Y-16511360D01*
X12079439Y-16511360D02*
X12069915Y-16492312D01*
X12069915Y-16492312D02*
X12069915Y-16320884D01*
X12250868Y-16511360D02*
X12231820Y-16520884D01*
X12231820Y-16520884D02*
X12193725Y-16520884D01*
X12193725Y-16520884D02*
X12174677Y-16511360D01*
X12174677Y-16511360D02*
X12165153Y-16492312D01*
X12165153Y-16492312D02*
X12165153Y-16416122D01*
X12165153Y-16416122D02*
X12174677Y-16397074D01*
X12174677Y-16397074D02*
X12193725Y-16387550D01*
X12193725Y-16387550D02*
X12231820Y-16387550D01*
X12231820Y-16387550D02*
X12250868Y-16397074D01*
X12250868Y-16397074D02*
X12260391Y-16416122D01*
X12260391Y-16416122D02*
X12260391Y-16435169D01*
X12260391Y-16435169D02*
X12165153Y-16454217D01*
X12336582Y-16511360D02*
X12355630Y-16520884D01*
X12355630Y-16520884D02*
X12393725Y-16520884D01*
X12393725Y-16520884D02*
X12412772Y-16511360D01*
X12412772Y-16511360D02*
X12422296Y-16492312D01*
X12422296Y-16492312D02*
X12422296Y-16482788D01*
X12422296Y-16482788D02*
X12412772Y-16463741D01*
X12412772Y-16463741D02*
X12393725Y-16454217D01*
X12393725Y-16454217D02*
X12365153Y-16454217D01*
X12365153Y-16454217D02*
X12346106Y-16444693D01*
X12346106Y-16444693D02*
X12336582Y-16425646D01*
X12336582Y-16425646D02*
X12336582Y-16416122D01*
X12336582Y-16416122D02*
X12346106Y-16397074D01*
X12346106Y-16397074D02*
X12365153Y-16387550D01*
X12365153Y-16387550D02*
X12393725Y-16387550D01*
X12393725Y-16387550D02*
X12412772Y-16397074D01*
X12660392Y-16444693D02*
X12812773Y-16444693D01*
X12736582Y-16520884D02*
X12736582Y-16368503D01*
X13146106Y-16387550D02*
X13146106Y-16520884D01*
X13098487Y-16311360D02*
X13050868Y-16454217D01*
X13050868Y-16454217D02*
X13174677Y-16454217D01*
X13393725Y-16511360D02*
X13412773Y-16520884D01*
X13412773Y-16520884D02*
X13450868Y-16520884D01*
X13450868Y-16520884D02*
X13469915Y-16511360D01*
X13469915Y-16511360D02*
X13479439Y-16492312D01*
X13479439Y-16492312D02*
X13479439Y-16482788D01*
X13479439Y-16482788D02*
X13469915Y-16463741D01*
X13469915Y-16463741D02*
X13450868Y-16454217D01*
X13450868Y-16454217D02*
X13422296Y-16454217D01*
X13422296Y-16454217D02*
X13403249Y-16444693D01*
X13403249Y-16444693D02*
X13393725Y-16425646D01*
X13393725Y-16425646D02*
X13393725Y-16416122D01*
X13393725Y-16416122D02*
X13403249Y-16397074D01*
X13403249Y-16397074D02*
X13422296Y-16387550D01*
X13422296Y-16387550D02*
X13450868Y-16387550D01*
X13450868Y-16387550D02*
X13469915Y-16397074D01*
X13593725Y-16520884D02*
X13574677Y-16511360D01*
X13574677Y-16511360D02*
X13565154Y-16492312D01*
X13565154Y-16492312D02*
X13565154Y-16320884D01*
X13698487Y-16520884D02*
X13679439Y-16511360D01*
X13679439Y-16511360D02*
X13669915Y-16501836D01*
X13669915Y-16501836D02*
X13660392Y-16482788D01*
X13660392Y-16482788D02*
X13660392Y-16425646D01*
X13660392Y-16425646D02*
X13669915Y-16406598D01*
X13669915Y-16406598D02*
X13679439Y-16397074D01*
X13679439Y-16397074D02*
X13698487Y-16387550D01*
X13698487Y-16387550D02*
X13727058Y-16387550D01*
X13727058Y-16387550D02*
X13746106Y-16397074D01*
X13746106Y-16397074D02*
X13755630Y-16406598D01*
X13755630Y-16406598D02*
X13765154Y-16425646D01*
X13765154Y-16425646D02*
X13765154Y-16482788D01*
X13765154Y-16482788D02*
X13755630Y-16501836D01*
X13755630Y-16501836D02*
X13746106Y-16511360D01*
X13746106Y-16511360D02*
X13727058Y-16520884D01*
X13727058Y-16520884D02*
X13698487Y-16520884D01*
X13822296Y-16387550D02*
X13898487Y-16387550D01*
X13850868Y-16320884D02*
X13850868Y-16492312D01*
X13850868Y-16492312D02*
X13860392Y-16511360D01*
X13860392Y-16511360D02*
X13879439Y-16520884D01*
X13879439Y-16520884D02*
X13898487Y-16520884D01*
X13955630Y-16511360D02*
X13974677Y-16520884D01*
X13974677Y-16520884D02*
X14012773Y-16520884D01*
X14012773Y-16520884D02*
X14031820Y-16511360D01*
X14031820Y-16511360D02*
X14041344Y-16492312D01*
X14041344Y-16492312D02*
X14041344Y-16482788D01*
X14041344Y-16482788D02*
X14031820Y-16463741D01*
X14031820Y-16463741D02*
X14012773Y-16454217D01*
X14012773Y-16454217D02*
X13984201Y-16454217D01*
X13984201Y-16454217D02*
X13965154Y-16444693D01*
X13965154Y-16444693D02*
X13955630Y-16425646D01*
X13955630Y-16425646D02*
X13955630Y-16416122D01*
X13955630Y-16416122D02*
X13965154Y-16397074D01*
X13965154Y-16397074D02*
X13984201Y-16387550D01*
X13984201Y-16387550D02*
X14012773Y-16387550D01*
X14012773Y-16387550D02*
X14031820Y-16397074D01*
X14108011Y-16597074D02*
X14117535Y-16587550D01*
X14117535Y-16587550D02*
X14136582Y-16558979D01*
X14136582Y-16558979D02*
X14146106Y-16539931D01*
X14146106Y-16539931D02*
X14155630Y-16511360D01*
X14155630Y-16511360D02*
X14165154Y-16463741D01*
X14165154Y-16463741D02*
X14165154Y-16425646D01*
X14165154Y-16425646D02*
X14155630Y-16378027D01*
X14155630Y-16378027D02*
X14146106Y-16349455D01*
X14146106Y-16349455D02*
X14136582Y-16330408D01*
X14136582Y-16330408D02*
X14117535Y-16301836D01*
X14117535Y-16301836D02*
X14108011Y-16292312D01*
D10*
X7633900Y-16653400D02*
X7713900Y-16733400D01*
X7713900Y-16653400D02*
X7633900Y-16733400D01*
X7713900Y-16693400D02*
G75*
G02*
X7633900Y-16693400I-40000J0D01*
G01*
X7633900Y-16693400D02*
G75*
G02*
X7713900Y-16693400I40000J0D01*
G01*
D11*
X8012772Y-16584884D02*
X8031820Y-16584884D01*
X8031820Y-16584884D02*
X8050867Y-16594408D01*
X8050867Y-16594408D02*
X8060391Y-16603931D01*
X8060391Y-16603931D02*
X8069915Y-16622979D01*
X8069915Y-16622979D02*
X8079439Y-16661074D01*
X8079439Y-16661074D02*
X8079439Y-16708693D01*
X8079439Y-16708693D02*
X8069915Y-16746788D01*
X8069915Y-16746788D02*
X8060391Y-16765836D01*
X8060391Y-16765836D02*
X8050867Y-16775360D01*
X8050867Y-16775360D02*
X8031820Y-16784884D01*
X8031820Y-16784884D02*
X8012772Y-16784884D01*
X8012772Y-16784884D02*
X7993724Y-16775360D01*
X7993724Y-16775360D02*
X7984201Y-16765836D01*
X7984201Y-16765836D02*
X7974677Y-16746788D01*
X7974677Y-16746788D02*
X7965153Y-16708693D01*
X7965153Y-16708693D02*
X7965153Y-16661074D01*
X7965153Y-16661074D02*
X7974677Y-16622979D01*
X7974677Y-16622979D02*
X7984201Y-16603931D01*
X7984201Y-16603931D02*
X7993724Y-16594408D01*
X7993724Y-16594408D02*
X8012772Y-16584884D01*
X8165153Y-16765836D02*
X8174677Y-16775360D01*
X8174677Y-16775360D02*
X8165153Y-16784884D01*
X8165153Y-16784884D02*
X8155629Y-16775360D01*
X8155629Y-16775360D02*
X8165153Y-16765836D01*
X8165153Y-16765836D02*
X8165153Y-16784884D01*
X8288962Y-16670598D02*
X8269915Y-16661074D01*
X8269915Y-16661074D02*
X8260391Y-16651550D01*
X8260391Y-16651550D02*
X8250867Y-16632503D01*
X8250867Y-16632503D02*
X8250867Y-16622979D01*
X8250867Y-16622979D02*
X8260391Y-16603931D01*
X8260391Y-16603931D02*
X8269915Y-16594408D01*
X8269915Y-16594408D02*
X8288962Y-16584884D01*
X8288962Y-16584884D02*
X8327058Y-16584884D01*
X8327058Y-16584884D02*
X8346105Y-16594408D01*
X8346105Y-16594408D02*
X8355629Y-16603931D01*
X8355629Y-16603931D02*
X8365153Y-16622979D01*
X8365153Y-16622979D02*
X8365153Y-16632503D01*
X8365153Y-16632503D02*
X8355629Y-16651550D01*
X8355629Y-16651550D02*
X8346105Y-16661074D01*
X8346105Y-16661074D02*
X8327058Y-16670598D01*
X8327058Y-16670598D02*
X8288962Y-16670598D01*
X8288962Y-16670598D02*
X8269915Y-16680122D01*
X8269915Y-16680122D02*
X8260391Y-16689646D01*
X8260391Y-16689646D02*
X8250867Y-16708693D01*
X8250867Y-16708693D02*
X8250867Y-16746788D01*
X8250867Y-16746788D02*
X8260391Y-16765836D01*
X8260391Y-16765836D02*
X8269915Y-16775360D01*
X8269915Y-16775360D02*
X8288962Y-16784884D01*
X8288962Y-16784884D02*
X8327058Y-16784884D01*
X8327058Y-16784884D02*
X8346105Y-16775360D01*
X8346105Y-16775360D02*
X8355629Y-16765836D01*
X8355629Y-16765836D02*
X8365153Y-16746788D01*
X8365153Y-16746788D02*
X8365153Y-16708693D01*
X8365153Y-16708693D02*
X8355629Y-16689646D01*
X8355629Y-16689646D02*
X8346105Y-16680122D01*
X8346105Y-16680122D02*
X8327058Y-16670598D01*
X8488963Y-16584884D02*
X8508010Y-16584884D01*
X8508010Y-16584884D02*
X8527058Y-16594408D01*
X8527058Y-16594408D02*
X8536582Y-16603931D01*
X8536582Y-16603931D02*
X8546105Y-16622979D01*
X8546105Y-16622979D02*
X8555629Y-16661074D01*
X8555629Y-16661074D02*
X8555629Y-16708693D01*
X8555629Y-16708693D02*
X8546105Y-16746788D01*
X8546105Y-16746788D02*
X8536582Y-16765836D01*
X8536582Y-16765836D02*
X8527058Y-16775360D01*
X8527058Y-16775360D02*
X8508010Y-16784884D01*
X8508010Y-16784884D02*
X8488963Y-16784884D01*
X8488963Y-16784884D02*
X8469915Y-16775360D01*
X8469915Y-16775360D02*
X8460391Y-16765836D01*
X8460391Y-16765836D02*
X8450867Y-16746788D01*
X8450867Y-16746788D02*
X8441344Y-16708693D01*
X8441344Y-16708693D02*
X8441344Y-16661074D01*
X8441344Y-16661074D02*
X8450867Y-16622979D01*
X8450867Y-16622979D02*
X8460391Y-16603931D01*
X8460391Y-16603931D02*
X8469915Y-16594408D01*
X8469915Y-16594408D02*
X8488963Y-16584884D01*
X8679439Y-16584884D02*
X8698486Y-16584884D01*
X8698486Y-16584884D02*
X8717534Y-16594408D01*
X8717534Y-16594408D02*
X8727058Y-16603931D01*
X8727058Y-16603931D02*
X8736582Y-16622979D01*
X8736582Y-16622979D02*
X8746105Y-16661074D01*
X8746105Y-16661074D02*
X8746105Y-16708693D01*
X8746105Y-16708693D02*
X8736582Y-16746788D01*
X8736582Y-16746788D02*
X8727058Y-16765836D01*
X8727058Y-16765836D02*
X8717534Y-16775360D01*
X8717534Y-16775360D02*
X8698486Y-16784884D01*
X8698486Y-16784884D02*
X8679439Y-16784884D01*
X8679439Y-16784884D02*
X8660391Y-16775360D01*
X8660391Y-16775360D02*
X8650867Y-16765836D01*
X8650867Y-16765836D02*
X8641344Y-16746788D01*
X8641344Y-16746788D02*
X8631820Y-16708693D01*
X8631820Y-16708693D02*
X8631820Y-16661074D01*
X8631820Y-16661074D02*
X8641344Y-16622979D01*
X8641344Y-16622979D02*
X8650867Y-16603931D01*
X8650867Y-16603931D02*
X8660391Y-16594408D01*
X8660391Y-16594408D02*
X8679439Y-16584884D01*
X8831820Y-16784884D02*
X8831820Y-16651550D01*
X8831820Y-16670598D02*
X8841344Y-16661074D01*
X8841344Y-16661074D02*
X8860391Y-16651550D01*
X8860391Y-16651550D02*
X8888963Y-16651550D01*
X8888963Y-16651550D02*
X8908010Y-16661074D01*
X8908010Y-16661074D02*
X8917534Y-16680122D01*
X8917534Y-16680122D02*
X8917534Y-16784884D01*
X8917534Y-16680122D02*
X8927058Y-16661074D01*
X8927058Y-16661074D02*
X8946105Y-16651550D01*
X8946105Y-16651550D02*
X8974677Y-16651550D01*
X8974677Y-16651550D02*
X8993725Y-16661074D01*
X8993725Y-16661074D02*
X9003248Y-16680122D01*
X9003248Y-16680122D02*
X9003248Y-16784884D01*
X9098486Y-16784884D02*
X9098486Y-16651550D01*
X9098486Y-16670598D02*
X9108010Y-16661074D01*
X9108010Y-16661074D02*
X9127058Y-16651550D01*
X9127058Y-16651550D02*
X9155629Y-16651550D01*
X9155629Y-16651550D02*
X9174677Y-16661074D01*
X9174677Y-16661074D02*
X9184201Y-16680122D01*
X9184201Y-16680122D02*
X9184201Y-16784884D01*
X9184201Y-16680122D02*
X9193725Y-16661074D01*
X9193725Y-16661074D02*
X9212772Y-16651550D01*
X9212772Y-16651550D02*
X9241344Y-16651550D01*
X9241344Y-16651550D02*
X9260391Y-16661074D01*
X9260391Y-16661074D02*
X9269915Y-16680122D01*
X9269915Y-16680122D02*
X9269915Y-16784884D01*
X9660391Y-16575360D02*
X9488963Y-16832503D01*
X9917534Y-16584884D02*
X9936582Y-16584884D01*
X9936582Y-16584884D02*
X9955629Y-16594408D01*
X9955629Y-16594408D02*
X9965153Y-16603931D01*
X9965153Y-16603931D02*
X9974677Y-16622979D01*
X9974677Y-16622979D02*
X9984201Y-16661074D01*
X9984201Y-16661074D02*
X9984201Y-16708693D01*
X9984201Y-16708693D02*
X9974677Y-16746788D01*
X9974677Y-16746788D02*
X9965153Y-16765836D01*
X9965153Y-16765836D02*
X9955629Y-16775360D01*
X9955629Y-16775360D02*
X9936582Y-16784884D01*
X9936582Y-16784884D02*
X9917534Y-16784884D01*
X9917534Y-16784884D02*
X9898487Y-16775360D01*
X9898487Y-16775360D02*
X9888963Y-16765836D01*
X9888963Y-16765836D02*
X9879439Y-16746788D01*
X9879439Y-16746788D02*
X9869915Y-16708693D01*
X9869915Y-16708693D02*
X9869915Y-16661074D01*
X9869915Y-16661074D02*
X9879439Y-16622979D01*
X9879439Y-16622979D02*
X9888963Y-16603931D01*
X9888963Y-16603931D02*
X9898487Y-16594408D01*
X9898487Y-16594408D02*
X9917534Y-16584884D01*
X10069915Y-16765836D02*
X10079439Y-16775360D01*
X10079439Y-16775360D02*
X10069915Y-16784884D01*
X10069915Y-16784884D02*
X10060391Y-16775360D01*
X10060391Y-16775360D02*
X10069915Y-16765836D01*
X10069915Y-16765836D02*
X10069915Y-16784884D01*
X10203248Y-16584884D02*
X10222296Y-16584884D01*
X10222296Y-16584884D02*
X10241344Y-16594408D01*
X10241344Y-16594408D02*
X10250868Y-16603931D01*
X10250868Y-16603931D02*
X10260391Y-16622979D01*
X10260391Y-16622979D02*
X10269915Y-16661074D01*
X10269915Y-16661074D02*
X10269915Y-16708693D01*
X10269915Y-16708693D02*
X10260391Y-16746788D01*
X10260391Y-16746788D02*
X10250868Y-16765836D01*
X10250868Y-16765836D02*
X10241344Y-16775360D01*
X10241344Y-16775360D02*
X10222296Y-16784884D01*
X10222296Y-16784884D02*
X10203248Y-16784884D01*
X10203248Y-16784884D02*
X10184201Y-16775360D01*
X10184201Y-16775360D02*
X10174677Y-16765836D01*
X10174677Y-16765836D02*
X10165153Y-16746788D01*
X10165153Y-16746788D02*
X10155629Y-16708693D01*
X10155629Y-16708693D02*
X10155629Y-16661074D01*
X10155629Y-16661074D02*
X10165153Y-16622979D01*
X10165153Y-16622979D02*
X10174677Y-16603931D01*
X10174677Y-16603931D02*
X10184201Y-16594408D01*
X10184201Y-16594408D02*
X10203248Y-16584884D01*
X10336582Y-16584884D02*
X10460391Y-16584884D01*
X10460391Y-16584884D02*
X10393725Y-16661074D01*
X10393725Y-16661074D02*
X10422296Y-16661074D01*
X10422296Y-16661074D02*
X10441344Y-16670598D01*
X10441344Y-16670598D02*
X10450868Y-16680122D01*
X10450868Y-16680122D02*
X10460391Y-16699169D01*
X10460391Y-16699169D02*
X10460391Y-16746788D01*
X10460391Y-16746788D02*
X10450868Y-16765836D01*
X10450868Y-16765836D02*
X10441344Y-16775360D01*
X10441344Y-16775360D02*
X10422296Y-16784884D01*
X10422296Y-16784884D02*
X10365153Y-16784884D01*
X10365153Y-16784884D02*
X10346106Y-16775360D01*
X10346106Y-16775360D02*
X10336582Y-16765836D01*
X10650868Y-16784884D02*
X10536582Y-16784884D01*
X10593725Y-16784884D02*
X10593725Y-16584884D01*
X10593725Y-16584884D02*
X10574677Y-16613455D01*
X10574677Y-16613455D02*
X10555629Y-16632503D01*
X10555629Y-16632503D02*
X10536582Y-16642027D01*
X10831820Y-16584884D02*
X10736582Y-16584884D01*
X10736582Y-16584884D02*
X10727058Y-16680122D01*
X10727058Y-16680122D02*
X10736582Y-16670598D01*
X10736582Y-16670598D02*
X10755629Y-16661074D01*
X10755629Y-16661074D02*
X10803249Y-16661074D01*
X10803249Y-16661074D02*
X10822296Y-16670598D01*
X10822296Y-16670598D02*
X10831820Y-16680122D01*
X10831820Y-16680122D02*
X10841344Y-16699169D01*
X10841344Y-16699169D02*
X10841344Y-16746788D01*
X10841344Y-16746788D02*
X10831820Y-16765836D01*
X10831820Y-16765836D02*
X10822296Y-16775360D01*
X10822296Y-16775360D02*
X10803249Y-16784884D01*
X10803249Y-16784884D02*
X10755629Y-16784884D01*
X10755629Y-16784884D02*
X10736582Y-16775360D01*
X10736582Y-16775360D02*
X10727058Y-16765836D01*
X10917534Y-16584884D02*
X10917534Y-16622979D01*
X10993725Y-16584884D02*
X10993725Y-16622979D01*
X11288963Y-16861074D02*
X11279439Y-16851550D01*
X11279439Y-16851550D02*
X11260391Y-16822979D01*
X11260391Y-16822979D02*
X11250868Y-16803931D01*
X11250868Y-16803931D02*
X11241344Y-16775360D01*
X11241344Y-16775360D02*
X11231820Y-16727741D01*
X11231820Y-16727741D02*
X11231820Y-16689646D01*
X11231820Y-16689646D02*
X11241344Y-16642027D01*
X11241344Y-16642027D02*
X11250868Y-16613455D01*
X11250868Y-16613455D02*
X11260391Y-16594408D01*
X11260391Y-16594408D02*
X11279439Y-16565836D01*
X11279439Y-16565836D02*
X11288963Y-16556312D01*
X11346106Y-16584884D02*
X11469915Y-16584884D01*
X11469915Y-16584884D02*
X11403248Y-16661074D01*
X11403248Y-16661074D02*
X11431820Y-16661074D01*
X11431820Y-16661074D02*
X11450868Y-16670598D01*
X11450868Y-16670598D02*
X11460391Y-16680122D01*
X11460391Y-16680122D02*
X11469915Y-16699169D01*
X11469915Y-16699169D02*
X11469915Y-16746788D01*
X11469915Y-16746788D02*
X11460391Y-16765836D01*
X11460391Y-16765836D02*
X11450868Y-16775360D01*
X11450868Y-16775360D02*
X11431820Y-16784884D01*
X11431820Y-16784884D02*
X11374677Y-16784884D01*
X11374677Y-16784884D02*
X11355629Y-16775360D01*
X11355629Y-16775360D02*
X11346106Y-16765836D01*
X11536582Y-16584884D02*
X11660391Y-16584884D01*
X11660391Y-16584884D02*
X11593725Y-16661074D01*
X11593725Y-16661074D02*
X11622296Y-16661074D01*
X11622296Y-16661074D02*
X11641344Y-16670598D01*
X11641344Y-16670598D02*
X11650868Y-16680122D01*
X11650868Y-16680122D02*
X11660391Y-16699169D01*
X11660391Y-16699169D02*
X11660391Y-16746788D01*
X11660391Y-16746788D02*
X11650868Y-16765836D01*
X11650868Y-16765836D02*
X11641344Y-16775360D01*
X11641344Y-16775360D02*
X11622296Y-16784884D01*
X11622296Y-16784884D02*
X11565153Y-16784884D01*
X11565153Y-16784884D02*
X11546106Y-16775360D01*
X11546106Y-16775360D02*
X11536582Y-16765836D01*
X11898487Y-16784884D02*
X11898487Y-16584884D01*
X11984201Y-16784884D02*
X11984201Y-16680122D01*
X11984201Y-16680122D02*
X11974677Y-16661074D01*
X11974677Y-16661074D02*
X11955630Y-16651550D01*
X11955630Y-16651550D02*
X11927058Y-16651550D01*
X11927058Y-16651550D02*
X11908010Y-16661074D01*
X11908010Y-16661074D02*
X11898487Y-16670598D01*
X12108010Y-16784884D02*
X12088963Y-16775360D01*
X12088963Y-16775360D02*
X12079439Y-16765836D01*
X12079439Y-16765836D02*
X12069915Y-16746788D01*
X12069915Y-16746788D02*
X12069915Y-16689646D01*
X12069915Y-16689646D02*
X12079439Y-16670598D01*
X12079439Y-16670598D02*
X12088963Y-16661074D01*
X12088963Y-16661074D02*
X12108010Y-16651550D01*
X12108010Y-16651550D02*
X12136582Y-16651550D01*
X12136582Y-16651550D02*
X12155630Y-16661074D01*
X12155630Y-16661074D02*
X12165153Y-16670598D01*
X12165153Y-16670598D02*
X12174677Y-16689646D01*
X12174677Y-16689646D02*
X12174677Y-16746788D01*
X12174677Y-16746788D02*
X12165153Y-16765836D01*
X12165153Y-16765836D02*
X12155630Y-16775360D01*
X12155630Y-16775360D02*
X12136582Y-16784884D01*
X12136582Y-16784884D02*
X12108010Y-16784884D01*
X12288963Y-16784884D02*
X12269915Y-16775360D01*
X12269915Y-16775360D02*
X12260391Y-16756312D01*
X12260391Y-16756312D02*
X12260391Y-16584884D01*
X12441344Y-16775360D02*
X12422296Y-16784884D01*
X12422296Y-16784884D02*
X12384201Y-16784884D01*
X12384201Y-16784884D02*
X12365153Y-16775360D01*
X12365153Y-16775360D02*
X12355630Y-16756312D01*
X12355630Y-16756312D02*
X12355630Y-16680122D01*
X12355630Y-16680122D02*
X12365153Y-16661074D01*
X12365153Y-16661074D02*
X12384201Y-16651550D01*
X12384201Y-16651550D02*
X12422296Y-16651550D01*
X12422296Y-16651550D02*
X12441344Y-16661074D01*
X12441344Y-16661074D02*
X12450868Y-16680122D01*
X12450868Y-16680122D02*
X12450868Y-16699169D01*
X12450868Y-16699169D02*
X12355630Y-16718217D01*
X12527058Y-16775360D02*
X12546106Y-16784884D01*
X12546106Y-16784884D02*
X12584201Y-16784884D01*
X12584201Y-16784884D02*
X12603249Y-16775360D01*
X12603249Y-16775360D02*
X12612772Y-16756312D01*
X12612772Y-16756312D02*
X12612772Y-16746788D01*
X12612772Y-16746788D02*
X12603249Y-16727741D01*
X12603249Y-16727741D02*
X12584201Y-16718217D01*
X12584201Y-16718217D02*
X12555630Y-16718217D01*
X12555630Y-16718217D02*
X12536582Y-16708693D01*
X12536582Y-16708693D02*
X12527058Y-16689646D01*
X12527058Y-16689646D02*
X12527058Y-16680122D01*
X12527058Y-16680122D02*
X12536582Y-16661074D01*
X12536582Y-16661074D02*
X12555630Y-16651550D01*
X12555630Y-16651550D02*
X12584201Y-16651550D01*
X12584201Y-16651550D02*
X12603249Y-16661074D01*
X12679439Y-16861074D02*
X12688963Y-16851550D01*
X12688963Y-16851550D02*
X12708011Y-16822979D01*
X12708011Y-16822979D02*
X12717534Y-16803931D01*
X12717534Y-16803931D02*
X12727058Y-16775360D01*
X12727058Y-16775360D02*
X12736582Y-16727741D01*
X12736582Y-16727741D02*
X12736582Y-16689646D01*
X12736582Y-16689646D02*
X12727058Y-16642027D01*
X12727058Y-16642027D02*
X12717534Y-16613455D01*
X12717534Y-16613455D02*
X12708011Y-16594408D01*
X12708011Y-16594408D02*
X12688963Y-16565836D01*
X12688963Y-16565836D02*
X12679439Y-16556312D01*
D10*
X7613900Y-16907400D02*
X7713900Y-17007400D01*
X7713900Y-16907400D02*
X7613900Y-17007400D01*
X7663900Y-16907400D02*
X7663900Y-17007400D01*
X7613900Y-16957400D02*
X7713900Y-16957400D01*
D11*
X8079439Y-17048884D02*
X7965153Y-17048884D01*
X8022296Y-17048884D02*
X8022296Y-16848884D01*
X8022296Y-16848884D02*
X8003248Y-16877455D01*
X8003248Y-16877455D02*
X7984201Y-16896503D01*
X7984201Y-16896503D02*
X7965153Y-16906027D01*
X8165153Y-17029836D02*
X8174677Y-17039360D01*
X8174677Y-17039360D02*
X8165153Y-17048884D01*
X8165153Y-17048884D02*
X8155629Y-17039360D01*
X8155629Y-17039360D02*
X8165153Y-17029836D01*
X8165153Y-17029836D02*
X8165153Y-17048884D01*
X8298486Y-16848884D02*
X8317534Y-16848884D01*
X8317534Y-16848884D02*
X8336582Y-16858408D01*
X8336582Y-16858408D02*
X8346105Y-16867931D01*
X8346105Y-16867931D02*
X8355629Y-16886979D01*
X8355629Y-16886979D02*
X8365153Y-16925074D01*
X8365153Y-16925074D02*
X8365153Y-16972693D01*
X8365153Y-16972693D02*
X8355629Y-17010789D01*
X8355629Y-17010789D02*
X8346105Y-17029836D01*
X8346105Y-17029836D02*
X8336582Y-17039360D01*
X8336582Y-17039360D02*
X8317534Y-17048884D01*
X8317534Y-17048884D02*
X8298486Y-17048884D01*
X8298486Y-17048884D02*
X8279439Y-17039360D01*
X8279439Y-17039360D02*
X8269915Y-17029836D01*
X8269915Y-17029836D02*
X8260391Y-17010789D01*
X8260391Y-17010789D02*
X8250867Y-16972693D01*
X8250867Y-16972693D02*
X8250867Y-16925074D01*
X8250867Y-16925074D02*
X8260391Y-16886979D01*
X8260391Y-16886979D02*
X8269915Y-16867931D01*
X8269915Y-16867931D02*
X8279439Y-16858408D01*
X8279439Y-16858408D02*
X8298486Y-16848884D01*
X8488963Y-16848884D02*
X8508010Y-16848884D01*
X8508010Y-16848884D02*
X8527058Y-16858408D01*
X8527058Y-16858408D02*
X8536582Y-16867931D01*
X8536582Y-16867931D02*
X8546105Y-16886979D01*
X8546105Y-16886979D02*
X8555629Y-16925074D01*
X8555629Y-16925074D02*
X8555629Y-16972693D01*
X8555629Y-16972693D02*
X8546105Y-17010789D01*
X8546105Y-17010789D02*
X8536582Y-17029836D01*
X8536582Y-17029836D02*
X8527058Y-17039360D01*
X8527058Y-17039360D02*
X8508010Y-17048884D01*
X8508010Y-17048884D02*
X8488963Y-17048884D01*
X8488963Y-17048884D02*
X8469915Y-17039360D01*
X8469915Y-17039360D02*
X8460391Y-17029836D01*
X8460391Y-17029836D02*
X8450867Y-17010789D01*
X8450867Y-17010789D02*
X8441344Y-16972693D01*
X8441344Y-16972693D02*
X8441344Y-16925074D01*
X8441344Y-16925074D02*
X8450867Y-16886979D01*
X8450867Y-16886979D02*
X8460391Y-16867931D01*
X8460391Y-16867931D02*
X8469915Y-16858408D01*
X8469915Y-16858408D02*
X8488963Y-16848884D01*
X8679439Y-16848884D02*
X8698486Y-16848884D01*
X8698486Y-16848884D02*
X8717534Y-16858408D01*
X8717534Y-16858408D02*
X8727058Y-16867931D01*
X8727058Y-16867931D02*
X8736582Y-16886979D01*
X8736582Y-16886979D02*
X8746105Y-16925074D01*
X8746105Y-16925074D02*
X8746105Y-16972693D01*
X8746105Y-16972693D02*
X8736582Y-17010789D01*
X8736582Y-17010789D02*
X8727058Y-17029836D01*
X8727058Y-17029836D02*
X8717534Y-17039360D01*
X8717534Y-17039360D02*
X8698486Y-17048884D01*
X8698486Y-17048884D02*
X8679439Y-17048884D01*
X8679439Y-17048884D02*
X8660391Y-17039360D01*
X8660391Y-17039360D02*
X8650867Y-17029836D01*
X8650867Y-17029836D02*
X8641344Y-17010789D01*
X8641344Y-17010789D02*
X8631820Y-16972693D01*
X8631820Y-16972693D02*
X8631820Y-16925074D01*
X8631820Y-16925074D02*
X8641344Y-16886979D01*
X8641344Y-16886979D02*
X8650867Y-16867931D01*
X8650867Y-16867931D02*
X8660391Y-16858408D01*
X8660391Y-16858408D02*
X8679439Y-16848884D01*
X8831820Y-17048884D02*
X8831820Y-16915550D01*
X8831820Y-16934598D02*
X8841344Y-16925074D01*
X8841344Y-16925074D02*
X8860391Y-16915550D01*
X8860391Y-16915550D02*
X8888963Y-16915550D01*
X8888963Y-16915550D02*
X8908010Y-16925074D01*
X8908010Y-16925074D02*
X8917534Y-16944122D01*
X8917534Y-16944122D02*
X8917534Y-17048884D01*
X8917534Y-16944122D02*
X8927058Y-16925074D01*
X8927058Y-16925074D02*
X8946105Y-16915550D01*
X8946105Y-16915550D02*
X8974677Y-16915550D01*
X8974677Y-16915550D02*
X8993725Y-16925074D01*
X8993725Y-16925074D02*
X9003248Y-16944122D01*
X9003248Y-16944122D02*
X9003248Y-17048884D01*
X9098486Y-17048884D02*
X9098486Y-16915550D01*
X9098486Y-16934598D02*
X9108010Y-16925074D01*
X9108010Y-16925074D02*
X9127058Y-16915550D01*
X9127058Y-16915550D02*
X9155629Y-16915550D01*
X9155629Y-16915550D02*
X9174677Y-16925074D01*
X9174677Y-16925074D02*
X9184201Y-16944122D01*
X9184201Y-16944122D02*
X9184201Y-17048884D01*
X9184201Y-16944122D02*
X9193725Y-16925074D01*
X9193725Y-16925074D02*
X9212772Y-16915550D01*
X9212772Y-16915550D02*
X9241344Y-16915550D01*
X9241344Y-16915550D02*
X9260391Y-16925074D01*
X9260391Y-16925074D02*
X9269915Y-16944122D01*
X9269915Y-16944122D02*
X9269915Y-17048884D01*
X9660391Y-16839360D02*
X9488963Y-17096503D01*
X9917534Y-16848884D02*
X9936582Y-16848884D01*
X9936582Y-16848884D02*
X9955629Y-16858408D01*
X9955629Y-16858408D02*
X9965153Y-16867931D01*
X9965153Y-16867931D02*
X9974677Y-16886979D01*
X9974677Y-16886979D02*
X9984201Y-16925074D01*
X9984201Y-16925074D02*
X9984201Y-16972693D01*
X9984201Y-16972693D02*
X9974677Y-17010789D01*
X9974677Y-17010789D02*
X9965153Y-17029836D01*
X9965153Y-17029836D02*
X9955629Y-17039360D01*
X9955629Y-17039360D02*
X9936582Y-17048884D01*
X9936582Y-17048884D02*
X9917534Y-17048884D01*
X9917534Y-17048884D02*
X9898487Y-17039360D01*
X9898487Y-17039360D02*
X9888963Y-17029836D01*
X9888963Y-17029836D02*
X9879439Y-17010789D01*
X9879439Y-17010789D02*
X9869915Y-16972693D01*
X9869915Y-16972693D02*
X9869915Y-16925074D01*
X9869915Y-16925074D02*
X9879439Y-16886979D01*
X9879439Y-16886979D02*
X9888963Y-16867931D01*
X9888963Y-16867931D02*
X9898487Y-16858408D01*
X9898487Y-16858408D02*
X9917534Y-16848884D01*
X10069915Y-17029836D02*
X10079439Y-17039360D01*
X10079439Y-17039360D02*
X10069915Y-17048884D01*
X10069915Y-17048884D02*
X10060391Y-17039360D01*
X10060391Y-17039360D02*
X10069915Y-17029836D01*
X10069915Y-17029836D02*
X10069915Y-17048884D01*
X10203248Y-16848884D02*
X10222296Y-16848884D01*
X10222296Y-16848884D02*
X10241344Y-16858408D01*
X10241344Y-16858408D02*
X10250868Y-16867931D01*
X10250868Y-16867931D02*
X10260391Y-16886979D01*
X10260391Y-16886979D02*
X10269915Y-16925074D01*
X10269915Y-16925074D02*
X10269915Y-16972693D01*
X10269915Y-16972693D02*
X10260391Y-17010789D01*
X10260391Y-17010789D02*
X10250868Y-17029836D01*
X10250868Y-17029836D02*
X10241344Y-17039360D01*
X10241344Y-17039360D02*
X10222296Y-17048884D01*
X10222296Y-17048884D02*
X10203248Y-17048884D01*
X10203248Y-17048884D02*
X10184201Y-17039360D01*
X10184201Y-17039360D02*
X10174677Y-17029836D01*
X10174677Y-17029836D02*
X10165153Y-17010789D01*
X10165153Y-17010789D02*
X10155629Y-16972693D01*
X10155629Y-16972693D02*
X10155629Y-16925074D01*
X10155629Y-16925074D02*
X10165153Y-16886979D01*
X10165153Y-16886979D02*
X10174677Y-16867931D01*
X10174677Y-16867931D02*
X10184201Y-16858408D01*
X10184201Y-16858408D02*
X10203248Y-16848884D01*
X10336582Y-16848884D02*
X10460391Y-16848884D01*
X10460391Y-16848884D02*
X10393725Y-16925074D01*
X10393725Y-16925074D02*
X10422296Y-16925074D01*
X10422296Y-16925074D02*
X10441344Y-16934598D01*
X10441344Y-16934598D02*
X10450868Y-16944122D01*
X10450868Y-16944122D02*
X10460391Y-16963170D01*
X10460391Y-16963170D02*
X10460391Y-17010789D01*
X10460391Y-17010789D02*
X10450868Y-17029836D01*
X10450868Y-17029836D02*
X10441344Y-17039360D01*
X10441344Y-17039360D02*
X10422296Y-17048884D01*
X10422296Y-17048884D02*
X10365153Y-17048884D01*
X10365153Y-17048884D02*
X10346106Y-17039360D01*
X10346106Y-17039360D02*
X10336582Y-17029836D01*
X10555629Y-17048884D02*
X10593725Y-17048884D01*
X10593725Y-17048884D02*
X10612772Y-17039360D01*
X10612772Y-17039360D02*
X10622296Y-17029836D01*
X10622296Y-17029836D02*
X10641344Y-17001265D01*
X10641344Y-17001265D02*
X10650868Y-16963170D01*
X10650868Y-16963170D02*
X10650868Y-16886979D01*
X10650868Y-16886979D02*
X10641344Y-16867931D01*
X10641344Y-16867931D02*
X10631820Y-16858408D01*
X10631820Y-16858408D02*
X10612772Y-16848884D01*
X10612772Y-16848884D02*
X10574677Y-16848884D01*
X10574677Y-16848884D02*
X10555629Y-16858408D01*
X10555629Y-16858408D02*
X10546106Y-16867931D01*
X10546106Y-16867931D02*
X10536582Y-16886979D01*
X10536582Y-16886979D02*
X10536582Y-16934598D01*
X10536582Y-16934598D02*
X10546106Y-16953646D01*
X10546106Y-16953646D02*
X10555629Y-16963170D01*
X10555629Y-16963170D02*
X10574677Y-16972693D01*
X10574677Y-16972693D02*
X10612772Y-16972693D01*
X10612772Y-16972693D02*
X10631820Y-16963170D01*
X10631820Y-16963170D02*
X10641344Y-16953646D01*
X10641344Y-16953646D02*
X10650868Y-16934598D01*
X10822296Y-16915550D02*
X10822296Y-17048884D01*
X10774677Y-16839360D02*
X10727058Y-16982217D01*
X10727058Y-16982217D02*
X10850868Y-16982217D01*
X10917534Y-16848884D02*
X10917534Y-16886979D01*
X10993725Y-16848884D02*
X10993725Y-16886979D01*
X11288963Y-17125074D02*
X11279439Y-17115550D01*
X11279439Y-17115550D02*
X11260391Y-17086979D01*
X11260391Y-17086979D02*
X11250868Y-17067931D01*
X11250868Y-17067931D02*
X11241344Y-17039360D01*
X11241344Y-17039360D02*
X11231820Y-16991741D01*
X11231820Y-16991741D02*
X11231820Y-16953646D01*
X11231820Y-16953646D02*
X11241344Y-16906027D01*
X11241344Y-16906027D02*
X11250868Y-16877455D01*
X11250868Y-16877455D02*
X11260391Y-16858408D01*
X11260391Y-16858408D02*
X11279439Y-16829836D01*
X11279439Y-16829836D02*
X11288963Y-16820312D01*
X11469915Y-17048884D02*
X11355629Y-17048884D01*
X11412772Y-17048884D02*
X11412772Y-16848884D01*
X11412772Y-16848884D02*
X11393725Y-16877455D01*
X11393725Y-16877455D02*
X11374677Y-16896503D01*
X11374677Y-16896503D02*
X11355629Y-16906027D01*
X11565153Y-17048884D02*
X11603248Y-17048884D01*
X11603248Y-17048884D02*
X11622296Y-17039360D01*
X11622296Y-17039360D02*
X11631820Y-17029836D01*
X11631820Y-17029836D02*
X11650868Y-17001265D01*
X11650868Y-17001265D02*
X11660391Y-16963170D01*
X11660391Y-16963170D02*
X11660391Y-16886979D01*
X11660391Y-16886979D02*
X11650868Y-16867931D01*
X11650868Y-16867931D02*
X11641344Y-16858408D01*
X11641344Y-16858408D02*
X11622296Y-16848884D01*
X11622296Y-16848884D02*
X11584201Y-16848884D01*
X11584201Y-16848884D02*
X11565153Y-16858408D01*
X11565153Y-16858408D02*
X11555629Y-16867931D01*
X11555629Y-16867931D02*
X11546106Y-16886979D01*
X11546106Y-16886979D02*
X11546106Y-16934598D01*
X11546106Y-16934598D02*
X11555629Y-16953646D01*
X11555629Y-16953646D02*
X11565153Y-16963170D01*
X11565153Y-16963170D02*
X11584201Y-16972693D01*
X11584201Y-16972693D02*
X11622296Y-16972693D01*
X11622296Y-16972693D02*
X11641344Y-16963170D01*
X11641344Y-16963170D02*
X11650868Y-16953646D01*
X11650868Y-16953646D02*
X11660391Y-16934598D01*
X11898487Y-17048884D02*
X11898487Y-16848884D01*
X11984201Y-17048884D02*
X11984201Y-16944122D01*
X11984201Y-16944122D02*
X11974677Y-16925074D01*
X11974677Y-16925074D02*
X11955630Y-16915550D01*
X11955630Y-16915550D02*
X11927058Y-16915550D01*
X11927058Y-16915550D02*
X11908010Y-16925074D01*
X11908010Y-16925074D02*
X11898487Y-16934598D01*
X12108010Y-17048884D02*
X12088963Y-17039360D01*
X12088963Y-17039360D02*
X12079439Y-17029836D01*
X12079439Y-17029836D02*
X12069915Y-17010789D01*
X12069915Y-17010789D02*
X12069915Y-16953646D01*
X12069915Y-16953646D02*
X12079439Y-16934598D01*
X12079439Y-16934598D02*
X12088963Y-16925074D01*
X12088963Y-16925074D02*
X12108010Y-16915550D01*
X12108010Y-16915550D02*
X12136582Y-16915550D01*
X12136582Y-16915550D02*
X12155630Y-16925074D01*
X12155630Y-16925074D02*
X12165153Y-16934598D01*
X12165153Y-16934598D02*
X12174677Y-16953646D01*
X12174677Y-16953646D02*
X12174677Y-17010789D01*
X12174677Y-17010789D02*
X12165153Y-17029836D01*
X12165153Y-17029836D02*
X12155630Y-17039360D01*
X12155630Y-17039360D02*
X12136582Y-17048884D01*
X12136582Y-17048884D02*
X12108010Y-17048884D01*
X12288963Y-17048884D02*
X12269915Y-17039360D01*
X12269915Y-17039360D02*
X12260391Y-17020312D01*
X12260391Y-17020312D02*
X12260391Y-16848884D01*
X12441344Y-17039360D02*
X12422296Y-17048884D01*
X12422296Y-17048884D02*
X12384201Y-17048884D01*
X12384201Y-17048884D02*
X12365153Y-17039360D01*
X12365153Y-17039360D02*
X12355630Y-17020312D01*
X12355630Y-17020312D02*
X12355630Y-16944122D01*
X12355630Y-16944122D02*
X12365153Y-16925074D01*
X12365153Y-16925074D02*
X12384201Y-16915550D01*
X12384201Y-16915550D02*
X12422296Y-16915550D01*
X12422296Y-16915550D02*
X12441344Y-16925074D01*
X12441344Y-16925074D02*
X12450868Y-16944122D01*
X12450868Y-16944122D02*
X12450868Y-16963170D01*
X12450868Y-16963170D02*
X12355630Y-16982217D01*
X12527058Y-17039360D02*
X12546106Y-17048884D01*
X12546106Y-17048884D02*
X12584201Y-17048884D01*
X12584201Y-17048884D02*
X12603249Y-17039360D01*
X12603249Y-17039360D02*
X12612772Y-17020312D01*
X12612772Y-17020312D02*
X12612772Y-17010789D01*
X12612772Y-17010789D02*
X12603249Y-16991741D01*
X12603249Y-16991741D02*
X12584201Y-16982217D01*
X12584201Y-16982217D02*
X12555630Y-16982217D01*
X12555630Y-16982217D02*
X12536582Y-16972693D01*
X12536582Y-16972693D02*
X12527058Y-16953646D01*
X12527058Y-16953646D02*
X12527058Y-16944122D01*
X12527058Y-16944122D02*
X12536582Y-16925074D01*
X12536582Y-16925074D02*
X12555630Y-16915550D01*
X12555630Y-16915550D02*
X12584201Y-16915550D01*
X12584201Y-16915550D02*
X12603249Y-16925074D01*
X12679439Y-17125074D02*
X12688963Y-17115550D01*
X12688963Y-17115550D02*
X12708011Y-17086979D01*
X12708011Y-17086979D02*
X12717534Y-17067931D01*
X12717534Y-17067931D02*
X12727058Y-17039360D01*
X12727058Y-17039360D02*
X12736582Y-16991741D01*
X12736582Y-16991741D02*
X12736582Y-16953646D01*
X12736582Y-16953646D02*
X12727058Y-16906027D01*
X12727058Y-16906027D02*
X12717534Y-16877455D01*
X12717534Y-16877455D02*
X12708011Y-16858408D01*
X12708011Y-16858408D02*
X12688963Y-16829836D01*
X12688963Y-16829836D02*
X12679439Y-16820312D01*
D12*
X7607220Y-17168060D02*
X7713900Y-17274740D01*
X7713900Y-17168060D02*
X7607220Y-17274740D01*
X7698277Y-17259117D02*
X7698277Y-17183683D01*
X7622843Y-17183683D01*
X7622843Y-17259117D01*
X7698277Y-17259117D01*
D11*
X8079439Y-17312884D02*
X7965153Y-17312884D01*
X8022296Y-17312884D02*
X8022296Y-17112884D01*
X8022296Y-17112884D02*
X8003248Y-17141455D01*
X8003248Y-17141455D02*
X7984201Y-17160503D01*
X7984201Y-17160503D02*
X7965153Y-17170027D01*
X8165153Y-17293836D02*
X8174677Y-17303360D01*
X8174677Y-17303360D02*
X8165153Y-17312884D01*
X8165153Y-17312884D02*
X8155629Y-17303360D01*
X8155629Y-17303360D02*
X8165153Y-17293836D01*
X8165153Y-17293836D02*
X8165153Y-17312884D01*
X8298486Y-17112884D02*
X8317534Y-17112884D01*
X8317534Y-17112884D02*
X8336582Y-17122408D01*
X8336582Y-17122408D02*
X8346105Y-17131931D01*
X8346105Y-17131931D02*
X8355629Y-17150979D01*
X8355629Y-17150979D02*
X8365153Y-17189074D01*
X8365153Y-17189074D02*
X8365153Y-17236693D01*
X8365153Y-17236693D02*
X8355629Y-17274789D01*
X8355629Y-17274789D02*
X8346105Y-17293836D01*
X8346105Y-17293836D02*
X8336582Y-17303360D01*
X8336582Y-17303360D02*
X8317534Y-17312884D01*
X8317534Y-17312884D02*
X8298486Y-17312884D01*
X8298486Y-17312884D02*
X8279439Y-17303360D01*
X8279439Y-17303360D02*
X8269915Y-17293836D01*
X8269915Y-17293836D02*
X8260391Y-17274789D01*
X8260391Y-17274789D02*
X8250867Y-17236693D01*
X8250867Y-17236693D02*
X8250867Y-17189074D01*
X8250867Y-17189074D02*
X8260391Y-17150979D01*
X8260391Y-17150979D02*
X8269915Y-17131931D01*
X8269915Y-17131931D02*
X8279439Y-17122408D01*
X8279439Y-17122408D02*
X8298486Y-17112884D01*
X8536582Y-17112884D02*
X8498486Y-17112884D01*
X8498486Y-17112884D02*
X8479439Y-17122408D01*
X8479439Y-17122408D02*
X8469915Y-17131931D01*
X8469915Y-17131931D02*
X8450867Y-17160503D01*
X8450867Y-17160503D02*
X8441344Y-17198598D01*
X8441344Y-17198598D02*
X8441344Y-17274789D01*
X8441344Y-17274789D02*
X8450867Y-17293836D01*
X8450867Y-17293836D02*
X8460391Y-17303360D01*
X8460391Y-17303360D02*
X8479439Y-17312884D01*
X8479439Y-17312884D02*
X8517534Y-17312884D01*
X8517534Y-17312884D02*
X8536582Y-17303360D01*
X8536582Y-17303360D02*
X8546105Y-17293836D01*
X8546105Y-17293836D02*
X8555629Y-17274789D01*
X8555629Y-17274789D02*
X8555629Y-17227170D01*
X8555629Y-17227170D02*
X8546105Y-17208122D01*
X8546105Y-17208122D02*
X8536582Y-17198598D01*
X8536582Y-17198598D02*
X8517534Y-17189074D01*
X8517534Y-17189074D02*
X8479439Y-17189074D01*
X8479439Y-17189074D02*
X8460391Y-17198598D01*
X8460391Y-17198598D02*
X8450867Y-17208122D01*
X8450867Y-17208122D02*
X8441344Y-17227170D01*
X8622296Y-17112884D02*
X8755629Y-17112884D01*
X8755629Y-17112884D02*
X8669915Y-17312884D01*
X8831820Y-17312884D02*
X8831820Y-17179550D01*
X8831820Y-17198598D02*
X8841344Y-17189074D01*
X8841344Y-17189074D02*
X8860391Y-17179550D01*
X8860391Y-17179550D02*
X8888963Y-17179550D01*
X8888963Y-17179550D02*
X8908010Y-17189074D01*
X8908010Y-17189074D02*
X8917534Y-17208122D01*
X8917534Y-17208122D02*
X8917534Y-17312884D01*
X8917534Y-17208122D02*
X8927058Y-17189074D01*
X8927058Y-17189074D02*
X8946105Y-17179550D01*
X8946105Y-17179550D02*
X8974677Y-17179550D01*
X8974677Y-17179550D02*
X8993725Y-17189074D01*
X8993725Y-17189074D02*
X9003248Y-17208122D01*
X9003248Y-17208122D02*
X9003248Y-17312884D01*
X9098486Y-17312884D02*
X9098486Y-17179550D01*
X9098486Y-17198598D02*
X9108010Y-17189074D01*
X9108010Y-17189074D02*
X9127058Y-17179550D01*
X9127058Y-17179550D02*
X9155629Y-17179550D01*
X9155629Y-17179550D02*
X9174677Y-17189074D01*
X9174677Y-17189074D02*
X9184201Y-17208122D01*
X9184201Y-17208122D02*
X9184201Y-17312884D01*
X9184201Y-17208122D02*
X9193725Y-17189074D01*
X9193725Y-17189074D02*
X9212772Y-17179550D01*
X9212772Y-17179550D02*
X9241344Y-17179550D01*
X9241344Y-17179550D02*
X9260391Y-17189074D01*
X9260391Y-17189074D02*
X9269915Y-17208122D01*
X9269915Y-17208122D02*
X9269915Y-17312884D01*
X9660391Y-17103360D02*
X9488963Y-17360503D01*
X9917534Y-17112884D02*
X9936582Y-17112884D01*
X9936582Y-17112884D02*
X9955629Y-17122408D01*
X9955629Y-17122408D02*
X9965153Y-17131931D01*
X9965153Y-17131931D02*
X9974677Y-17150979D01*
X9974677Y-17150979D02*
X9984201Y-17189074D01*
X9984201Y-17189074D02*
X9984201Y-17236693D01*
X9984201Y-17236693D02*
X9974677Y-17274789D01*
X9974677Y-17274789D02*
X9965153Y-17293836D01*
X9965153Y-17293836D02*
X9955629Y-17303360D01*
X9955629Y-17303360D02*
X9936582Y-17312884D01*
X9936582Y-17312884D02*
X9917534Y-17312884D01*
X9917534Y-17312884D02*
X9898487Y-17303360D01*
X9898487Y-17303360D02*
X9888963Y-17293836D01*
X9888963Y-17293836D02*
X9879439Y-17274789D01*
X9879439Y-17274789D02*
X9869915Y-17236693D01*
X9869915Y-17236693D02*
X9869915Y-17189074D01*
X9869915Y-17189074D02*
X9879439Y-17150979D01*
X9879439Y-17150979D02*
X9888963Y-17131931D01*
X9888963Y-17131931D02*
X9898487Y-17122408D01*
X9898487Y-17122408D02*
X9917534Y-17112884D01*
X10069915Y-17293836D02*
X10079439Y-17303360D01*
X10079439Y-17303360D02*
X10069915Y-17312884D01*
X10069915Y-17312884D02*
X10060391Y-17303360D01*
X10060391Y-17303360D02*
X10069915Y-17293836D01*
X10069915Y-17293836D02*
X10069915Y-17312884D01*
X10203248Y-17112884D02*
X10222296Y-17112884D01*
X10222296Y-17112884D02*
X10241344Y-17122408D01*
X10241344Y-17122408D02*
X10250868Y-17131931D01*
X10250868Y-17131931D02*
X10260391Y-17150979D01*
X10260391Y-17150979D02*
X10269915Y-17189074D01*
X10269915Y-17189074D02*
X10269915Y-17236693D01*
X10269915Y-17236693D02*
X10260391Y-17274789D01*
X10260391Y-17274789D02*
X10250868Y-17293836D01*
X10250868Y-17293836D02*
X10241344Y-17303360D01*
X10241344Y-17303360D02*
X10222296Y-17312884D01*
X10222296Y-17312884D02*
X10203248Y-17312884D01*
X10203248Y-17312884D02*
X10184201Y-17303360D01*
X10184201Y-17303360D02*
X10174677Y-17293836D01*
X10174677Y-17293836D02*
X10165153Y-17274789D01*
X10165153Y-17274789D02*
X10155629Y-17236693D01*
X10155629Y-17236693D02*
X10155629Y-17189074D01*
X10155629Y-17189074D02*
X10165153Y-17150979D01*
X10165153Y-17150979D02*
X10174677Y-17131931D01*
X10174677Y-17131931D02*
X10184201Y-17122408D01*
X10184201Y-17122408D02*
X10203248Y-17112884D01*
X10441344Y-17179550D02*
X10441344Y-17312884D01*
X10393725Y-17103360D02*
X10346106Y-17246217D01*
X10346106Y-17246217D02*
X10469915Y-17246217D01*
X10536582Y-17131931D02*
X10546106Y-17122408D01*
X10546106Y-17122408D02*
X10565153Y-17112884D01*
X10565153Y-17112884D02*
X10612772Y-17112884D01*
X10612772Y-17112884D02*
X10631820Y-17122408D01*
X10631820Y-17122408D02*
X10641344Y-17131931D01*
X10641344Y-17131931D02*
X10650868Y-17150979D01*
X10650868Y-17150979D02*
X10650868Y-17170027D01*
X10650868Y-17170027D02*
X10641344Y-17198598D01*
X10641344Y-17198598D02*
X10527058Y-17312884D01*
X10527058Y-17312884D02*
X10650868Y-17312884D01*
X10774677Y-17112884D02*
X10793725Y-17112884D01*
X10793725Y-17112884D02*
X10812772Y-17122408D01*
X10812772Y-17122408D02*
X10822296Y-17131931D01*
X10822296Y-17131931D02*
X10831820Y-17150979D01*
X10831820Y-17150979D02*
X10841344Y-17189074D01*
X10841344Y-17189074D02*
X10841344Y-17236693D01*
X10841344Y-17236693D02*
X10831820Y-17274789D01*
X10831820Y-17274789D02*
X10822296Y-17293836D01*
X10822296Y-17293836D02*
X10812772Y-17303360D01*
X10812772Y-17303360D02*
X10793725Y-17312884D01*
X10793725Y-17312884D02*
X10774677Y-17312884D01*
X10774677Y-17312884D02*
X10755629Y-17303360D01*
X10755629Y-17303360D02*
X10746106Y-17293836D01*
X10746106Y-17293836D02*
X10736582Y-17274789D01*
X10736582Y-17274789D02*
X10727058Y-17236693D01*
X10727058Y-17236693D02*
X10727058Y-17189074D01*
X10727058Y-17189074D02*
X10736582Y-17150979D01*
X10736582Y-17150979D02*
X10746106Y-17131931D01*
X10746106Y-17131931D02*
X10755629Y-17122408D01*
X10755629Y-17122408D02*
X10774677Y-17112884D01*
X10917534Y-17112884D02*
X10917534Y-17150979D01*
X10993725Y-17112884D02*
X10993725Y-17150979D01*
X11288963Y-17389074D02*
X11279439Y-17379550D01*
X11279439Y-17379550D02*
X11260391Y-17350979D01*
X11260391Y-17350979D02*
X11250868Y-17331931D01*
X11250868Y-17331931D02*
X11241344Y-17303360D01*
X11241344Y-17303360D02*
X11231820Y-17255741D01*
X11231820Y-17255741D02*
X11231820Y-17217646D01*
X11231820Y-17217646D02*
X11241344Y-17170027D01*
X11241344Y-17170027D02*
X11250868Y-17141455D01*
X11250868Y-17141455D02*
X11260391Y-17122408D01*
X11260391Y-17122408D02*
X11279439Y-17093836D01*
X11279439Y-17093836D02*
X11288963Y-17084312D01*
X11450868Y-17179550D02*
X11450868Y-17312884D01*
X11403248Y-17103360D02*
X11355629Y-17246217D01*
X11355629Y-17246217D02*
X11479439Y-17246217D01*
X11708010Y-17312884D02*
X11708010Y-17112884D01*
X11793725Y-17312884D02*
X11793725Y-17208122D01*
X11793725Y-17208122D02*
X11784201Y-17189074D01*
X11784201Y-17189074D02*
X11765153Y-17179550D01*
X11765153Y-17179550D02*
X11736582Y-17179550D01*
X11736582Y-17179550D02*
X11717534Y-17189074D01*
X11717534Y-17189074D02*
X11708010Y-17198598D01*
X11917534Y-17312884D02*
X11898487Y-17303360D01*
X11898487Y-17303360D02*
X11888963Y-17293836D01*
X11888963Y-17293836D02*
X11879439Y-17274789D01*
X11879439Y-17274789D02*
X11879439Y-17217646D01*
X11879439Y-17217646D02*
X11888963Y-17198598D01*
X11888963Y-17198598D02*
X11898487Y-17189074D01*
X11898487Y-17189074D02*
X11917534Y-17179550D01*
X11917534Y-17179550D02*
X11946106Y-17179550D01*
X11946106Y-17179550D02*
X11965153Y-17189074D01*
X11965153Y-17189074D02*
X11974677Y-17198598D01*
X11974677Y-17198598D02*
X11984201Y-17217646D01*
X11984201Y-17217646D02*
X11984201Y-17274789D01*
X11984201Y-17274789D02*
X11974677Y-17293836D01*
X11974677Y-17293836D02*
X11965153Y-17303360D01*
X11965153Y-17303360D02*
X11946106Y-17312884D01*
X11946106Y-17312884D02*
X11917534Y-17312884D01*
X12098487Y-17312884D02*
X12079439Y-17303360D01*
X12079439Y-17303360D02*
X12069915Y-17284312D01*
X12069915Y-17284312D02*
X12069915Y-17112884D01*
X12250868Y-17303360D02*
X12231820Y-17312884D01*
X12231820Y-17312884D02*
X12193725Y-17312884D01*
X12193725Y-17312884D02*
X12174677Y-17303360D01*
X12174677Y-17303360D02*
X12165153Y-17284312D01*
X12165153Y-17284312D02*
X12165153Y-17208122D01*
X12165153Y-17208122D02*
X12174677Y-17189074D01*
X12174677Y-17189074D02*
X12193725Y-17179550D01*
X12193725Y-17179550D02*
X12231820Y-17179550D01*
X12231820Y-17179550D02*
X12250868Y-17189074D01*
X12250868Y-17189074D02*
X12260391Y-17208122D01*
X12260391Y-17208122D02*
X12260391Y-17227170D01*
X12260391Y-17227170D02*
X12165153Y-17246217D01*
X12336582Y-17303360D02*
X12355630Y-17312884D01*
X12355630Y-17312884D02*
X12393725Y-17312884D01*
X12393725Y-17312884D02*
X12412772Y-17303360D01*
X12412772Y-17303360D02*
X12422296Y-17284312D01*
X12422296Y-17284312D02*
X12422296Y-17274789D01*
X12422296Y-17274789D02*
X12412772Y-17255741D01*
X12412772Y-17255741D02*
X12393725Y-17246217D01*
X12393725Y-17246217D02*
X12365153Y-17246217D01*
X12365153Y-17246217D02*
X12346106Y-17236693D01*
X12346106Y-17236693D02*
X12336582Y-17217646D01*
X12336582Y-17217646D02*
X12336582Y-17208122D01*
X12336582Y-17208122D02*
X12346106Y-17189074D01*
X12346106Y-17189074D02*
X12365153Y-17179550D01*
X12365153Y-17179550D02*
X12393725Y-17179550D01*
X12393725Y-17179550D02*
X12412772Y-17189074D01*
X12488963Y-17389074D02*
X12498487Y-17379550D01*
X12498487Y-17379550D02*
X12517534Y-17350979D01*
X12517534Y-17350979D02*
X12527058Y-17331931D01*
X12527058Y-17331931D02*
X12536582Y-17303360D01*
X12536582Y-17303360D02*
X12546106Y-17255741D01*
X12546106Y-17255741D02*
X12546106Y-17217646D01*
X12546106Y-17217646D02*
X12536582Y-17170027D01*
X12536582Y-17170027D02*
X12527058Y-17141455D01*
X12527058Y-17141455D02*
X12517534Y-17122408D01*
X12517534Y-17122408D02*
X12498487Y-17093836D01*
X12498487Y-17093836D02*
X12488963Y-17084312D01*
X7513900Y-17385400D02*
X7713900Y-17585400D01*
X7713900Y-17385400D02*
X7513900Y-17585400D01*
X7613900Y-17585400D02*
X7713900Y-17485400D01*
X7613900Y-17385400D01*
X7513900Y-17485400D01*
X7613900Y-17585400D01*
X7955629Y-17376884D02*
X8079439Y-17376884D01*
X8079439Y-17376884D02*
X8012772Y-17453074D01*
X8012772Y-17453074D02*
X8041343Y-17453074D01*
X8041343Y-17453074D02*
X8060391Y-17462598D01*
X8060391Y-17462598D02*
X8069915Y-17472122D01*
X8069915Y-17472122D02*
X8079439Y-17491170D01*
X8079439Y-17491170D02*
X8079439Y-17538789D01*
X8079439Y-17538789D02*
X8069915Y-17557836D01*
X8069915Y-17557836D02*
X8060391Y-17567360D01*
X8060391Y-17567360D02*
X8041343Y-17576884D01*
X8041343Y-17576884D02*
X7984201Y-17576884D01*
X7984201Y-17576884D02*
X7965153Y-17567360D01*
X7965153Y-17567360D02*
X7955629Y-17557836D01*
X8165153Y-17557836D02*
X8174677Y-17567360D01*
X8174677Y-17567360D02*
X8165153Y-17576884D01*
X8165153Y-17576884D02*
X8155629Y-17567360D01*
X8155629Y-17567360D02*
X8165153Y-17557836D01*
X8165153Y-17557836D02*
X8165153Y-17576884D01*
X8298486Y-17376884D02*
X8317534Y-17376884D01*
X8317534Y-17376884D02*
X8336582Y-17386408D01*
X8336582Y-17386408D02*
X8346105Y-17395931D01*
X8346105Y-17395931D02*
X8355629Y-17414979D01*
X8355629Y-17414979D02*
X8365153Y-17453074D01*
X8365153Y-17453074D02*
X8365153Y-17500693D01*
X8365153Y-17500693D02*
X8355629Y-17538789D01*
X8355629Y-17538789D02*
X8346105Y-17557836D01*
X8346105Y-17557836D02*
X8336582Y-17567360D01*
X8336582Y-17567360D02*
X8317534Y-17576884D01*
X8317534Y-17576884D02*
X8298486Y-17576884D01*
X8298486Y-17576884D02*
X8279439Y-17567360D01*
X8279439Y-17567360D02*
X8269915Y-17557836D01*
X8269915Y-17557836D02*
X8260391Y-17538789D01*
X8260391Y-17538789D02*
X8250867Y-17500693D01*
X8250867Y-17500693D02*
X8250867Y-17453074D01*
X8250867Y-17453074D02*
X8260391Y-17414979D01*
X8260391Y-17414979D02*
X8269915Y-17395931D01*
X8269915Y-17395931D02*
X8279439Y-17386408D01*
X8279439Y-17386408D02*
X8298486Y-17376884D01*
X8488963Y-17376884D02*
X8508010Y-17376884D01*
X8508010Y-17376884D02*
X8527058Y-17386408D01*
X8527058Y-17386408D02*
X8536582Y-17395931D01*
X8536582Y-17395931D02*
X8546105Y-17414979D01*
X8546105Y-17414979D02*
X8555629Y-17453074D01*
X8555629Y-17453074D02*
X8555629Y-17500693D01*
X8555629Y-17500693D02*
X8546105Y-17538789D01*
X8546105Y-17538789D02*
X8536582Y-17557836D01*
X8536582Y-17557836D02*
X8527058Y-17567360D01*
X8527058Y-17567360D02*
X8508010Y-17576884D01*
X8508010Y-17576884D02*
X8488963Y-17576884D01*
X8488963Y-17576884D02*
X8469915Y-17567360D01*
X8469915Y-17567360D02*
X8460391Y-17557836D01*
X8460391Y-17557836D02*
X8450867Y-17538789D01*
X8450867Y-17538789D02*
X8441344Y-17500693D01*
X8441344Y-17500693D02*
X8441344Y-17453074D01*
X8441344Y-17453074D02*
X8450867Y-17414979D01*
X8450867Y-17414979D02*
X8460391Y-17395931D01*
X8460391Y-17395931D02*
X8469915Y-17386408D01*
X8469915Y-17386408D02*
X8488963Y-17376884D01*
X8679439Y-17376884D02*
X8698486Y-17376884D01*
X8698486Y-17376884D02*
X8717534Y-17386408D01*
X8717534Y-17386408D02*
X8727058Y-17395931D01*
X8727058Y-17395931D02*
X8736582Y-17414979D01*
X8736582Y-17414979D02*
X8746105Y-17453074D01*
X8746105Y-17453074D02*
X8746105Y-17500693D01*
X8746105Y-17500693D02*
X8736582Y-17538789D01*
X8736582Y-17538789D02*
X8727058Y-17557836D01*
X8727058Y-17557836D02*
X8717534Y-17567360D01*
X8717534Y-17567360D02*
X8698486Y-17576884D01*
X8698486Y-17576884D02*
X8679439Y-17576884D01*
X8679439Y-17576884D02*
X8660391Y-17567360D01*
X8660391Y-17567360D02*
X8650867Y-17557836D01*
X8650867Y-17557836D02*
X8641344Y-17538789D01*
X8641344Y-17538789D02*
X8631820Y-17500693D01*
X8631820Y-17500693D02*
X8631820Y-17453074D01*
X8631820Y-17453074D02*
X8641344Y-17414979D01*
X8641344Y-17414979D02*
X8650867Y-17395931D01*
X8650867Y-17395931D02*
X8660391Y-17386408D01*
X8660391Y-17386408D02*
X8679439Y-17376884D01*
X8831820Y-17576884D02*
X8831820Y-17443550D01*
X8831820Y-17462598D02*
X8841344Y-17453074D01*
X8841344Y-17453074D02*
X8860391Y-17443550D01*
X8860391Y-17443550D02*
X8888963Y-17443550D01*
X8888963Y-17443550D02*
X8908010Y-17453074D01*
X8908010Y-17453074D02*
X8917534Y-17472122D01*
X8917534Y-17472122D02*
X8917534Y-17576884D01*
X8917534Y-17472122D02*
X8927058Y-17453074D01*
X8927058Y-17453074D02*
X8946105Y-17443550D01*
X8946105Y-17443550D02*
X8974677Y-17443550D01*
X8974677Y-17443550D02*
X8993725Y-17453074D01*
X8993725Y-17453074D02*
X9003248Y-17472122D01*
X9003248Y-17472122D02*
X9003248Y-17576884D01*
X9098486Y-17576884D02*
X9098486Y-17443550D01*
X9098486Y-17462598D02*
X9108010Y-17453074D01*
X9108010Y-17453074D02*
X9127058Y-17443550D01*
X9127058Y-17443550D02*
X9155629Y-17443550D01*
X9155629Y-17443550D02*
X9174677Y-17453074D01*
X9174677Y-17453074D02*
X9184201Y-17472122D01*
X9184201Y-17472122D02*
X9184201Y-17576884D01*
X9184201Y-17472122D02*
X9193725Y-17453074D01*
X9193725Y-17453074D02*
X9212772Y-17443550D01*
X9212772Y-17443550D02*
X9241344Y-17443550D01*
X9241344Y-17443550D02*
X9260391Y-17453074D01*
X9260391Y-17453074D02*
X9269915Y-17472122D01*
X9269915Y-17472122D02*
X9269915Y-17576884D01*
X9660391Y-17367360D02*
X9488963Y-17624503D01*
X9917534Y-17376884D02*
X9936582Y-17376884D01*
X9936582Y-17376884D02*
X9955629Y-17386408D01*
X9955629Y-17386408D02*
X9965153Y-17395931D01*
X9965153Y-17395931D02*
X9974677Y-17414979D01*
X9974677Y-17414979D02*
X9984201Y-17453074D01*
X9984201Y-17453074D02*
X9984201Y-17500693D01*
X9984201Y-17500693D02*
X9974677Y-17538789D01*
X9974677Y-17538789D02*
X9965153Y-17557836D01*
X9965153Y-17557836D02*
X9955629Y-17567360D01*
X9955629Y-17567360D02*
X9936582Y-17576884D01*
X9936582Y-17576884D02*
X9917534Y-17576884D01*
X9917534Y-17576884D02*
X9898487Y-17567360D01*
X9898487Y-17567360D02*
X9888963Y-17557836D01*
X9888963Y-17557836D02*
X9879439Y-17538789D01*
X9879439Y-17538789D02*
X9869915Y-17500693D01*
X9869915Y-17500693D02*
X9869915Y-17453074D01*
X9869915Y-17453074D02*
X9879439Y-17414979D01*
X9879439Y-17414979D02*
X9888963Y-17395931D01*
X9888963Y-17395931D02*
X9898487Y-17386408D01*
X9898487Y-17386408D02*
X9917534Y-17376884D01*
X10069915Y-17557836D02*
X10079439Y-17567360D01*
X10079439Y-17567360D02*
X10069915Y-17576884D01*
X10069915Y-17576884D02*
X10060391Y-17567360D01*
X10060391Y-17567360D02*
X10069915Y-17557836D01*
X10069915Y-17557836D02*
X10069915Y-17576884D01*
X10269915Y-17576884D02*
X10155629Y-17576884D01*
X10212772Y-17576884D02*
X10212772Y-17376884D01*
X10212772Y-17376884D02*
X10193725Y-17405455D01*
X10193725Y-17405455D02*
X10174677Y-17424503D01*
X10174677Y-17424503D02*
X10155629Y-17434027D01*
X10460391Y-17576884D02*
X10346106Y-17576884D01*
X10403248Y-17576884D02*
X10403248Y-17376884D01*
X10403248Y-17376884D02*
X10384201Y-17405455D01*
X10384201Y-17405455D02*
X10365153Y-17424503D01*
X10365153Y-17424503D02*
X10346106Y-17434027D01*
X10574677Y-17462598D02*
X10555629Y-17453074D01*
X10555629Y-17453074D02*
X10546106Y-17443550D01*
X10546106Y-17443550D02*
X10536582Y-17424503D01*
X10536582Y-17424503D02*
X10536582Y-17414979D01*
X10536582Y-17414979D02*
X10546106Y-17395931D01*
X10546106Y-17395931D02*
X10555629Y-17386408D01*
X10555629Y-17386408D02*
X10574677Y-17376884D01*
X10574677Y-17376884D02*
X10612772Y-17376884D01*
X10612772Y-17376884D02*
X10631820Y-17386408D01*
X10631820Y-17386408D02*
X10641344Y-17395931D01*
X10641344Y-17395931D02*
X10650868Y-17414979D01*
X10650868Y-17414979D02*
X10650868Y-17424503D01*
X10650868Y-17424503D02*
X10641344Y-17443550D01*
X10641344Y-17443550D02*
X10631820Y-17453074D01*
X10631820Y-17453074D02*
X10612772Y-17462598D01*
X10612772Y-17462598D02*
X10574677Y-17462598D01*
X10574677Y-17462598D02*
X10555629Y-17472122D01*
X10555629Y-17472122D02*
X10546106Y-17481646D01*
X10546106Y-17481646D02*
X10536582Y-17500693D01*
X10536582Y-17500693D02*
X10536582Y-17538789D01*
X10536582Y-17538789D02*
X10546106Y-17557836D01*
X10546106Y-17557836D02*
X10555629Y-17567360D01*
X10555629Y-17567360D02*
X10574677Y-17576884D01*
X10574677Y-17576884D02*
X10612772Y-17576884D01*
X10612772Y-17576884D02*
X10631820Y-17567360D01*
X10631820Y-17567360D02*
X10641344Y-17557836D01*
X10641344Y-17557836D02*
X10650868Y-17538789D01*
X10650868Y-17538789D02*
X10650868Y-17500693D01*
X10650868Y-17500693D02*
X10641344Y-17481646D01*
X10641344Y-17481646D02*
X10631820Y-17472122D01*
X10631820Y-17472122D02*
X10612772Y-17462598D01*
X10841344Y-17576884D02*
X10727058Y-17576884D01*
X10784201Y-17576884D02*
X10784201Y-17376884D01*
X10784201Y-17376884D02*
X10765153Y-17405455D01*
X10765153Y-17405455D02*
X10746106Y-17424503D01*
X10746106Y-17424503D02*
X10727058Y-17434027D01*
X10917534Y-17376884D02*
X10917534Y-17414979D01*
X10993725Y-17376884D02*
X10993725Y-17414979D01*
X11288963Y-17653074D02*
X11279439Y-17643550D01*
X11279439Y-17643550D02*
X11260391Y-17614979D01*
X11260391Y-17614979D02*
X11250868Y-17595931D01*
X11250868Y-17595931D02*
X11241344Y-17567360D01*
X11241344Y-17567360D02*
X11231820Y-17519741D01*
X11231820Y-17519741D02*
X11231820Y-17481646D01*
X11231820Y-17481646D02*
X11241344Y-17434027D01*
X11241344Y-17434027D02*
X11250868Y-17405455D01*
X11250868Y-17405455D02*
X11260391Y-17386408D01*
X11260391Y-17386408D02*
X11279439Y-17357836D01*
X11279439Y-17357836D02*
X11288963Y-17348312D01*
X11450868Y-17443550D02*
X11450868Y-17576884D01*
X11403248Y-17367360D02*
X11355629Y-17510217D01*
X11355629Y-17510217D02*
X11479439Y-17510217D01*
X11708010Y-17576884D02*
X11708010Y-17376884D01*
X11793725Y-17576884D02*
X11793725Y-17472122D01*
X11793725Y-17472122D02*
X11784201Y-17453074D01*
X11784201Y-17453074D02*
X11765153Y-17443550D01*
X11765153Y-17443550D02*
X11736582Y-17443550D01*
X11736582Y-17443550D02*
X11717534Y-17453074D01*
X11717534Y-17453074D02*
X11708010Y-17462598D01*
X11917534Y-17576884D02*
X11898487Y-17567360D01*
X11898487Y-17567360D02*
X11888963Y-17557836D01*
X11888963Y-17557836D02*
X11879439Y-17538789D01*
X11879439Y-17538789D02*
X11879439Y-17481646D01*
X11879439Y-17481646D02*
X11888963Y-17462598D01*
X11888963Y-17462598D02*
X11898487Y-17453074D01*
X11898487Y-17453074D02*
X11917534Y-17443550D01*
X11917534Y-17443550D02*
X11946106Y-17443550D01*
X11946106Y-17443550D02*
X11965153Y-17453074D01*
X11965153Y-17453074D02*
X11974677Y-17462598D01*
X11974677Y-17462598D02*
X11984201Y-17481646D01*
X11984201Y-17481646D02*
X11984201Y-17538789D01*
X11984201Y-17538789D02*
X11974677Y-17557836D01*
X11974677Y-17557836D02*
X11965153Y-17567360D01*
X11965153Y-17567360D02*
X11946106Y-17576884D01*
X11946106Y-17576884D02*
X11917534Y-17576884D01*
X12098487Y-17576884D02*
X12079439Y-17567360D01*
X12079439Y-17567360D02*
X12069915Y-17548312D01*
X12069915Y-17548312D02*
X12069915Y-17376884D01*
X12250868Y-17567360D02*
X12231820Y-17576884D01*
X12231820Y-17576884D02*
X12193725Y-17576884D01*
X12193725Y-17576884D02*
X12174677Y-17567360D01*
X12174677Y-17567360D02*
X12165153Y-17548312D01*
X12165153Y-17548312D02*
X12165153Y-17472122D01*
X12165153Y-17472122D02*
X12174677Y-17453074D01*
X12174677Y-17453074D02*
X12193725Y-17443550D01*
X12193725Y-17443550D02*
X12231820Y-17443550D01*
X12231820Y-17443550D02*
X12250868Y-17453074D01*
X12250868Y-17453074D02*
X12260391Y-17472122D01*
X12260391Y-17472122D02*
X12260391Y-17491170D01*
X12260391Y-17491170D02*
X12165153Y-17510217D01*
X12336582Y-17567360D02*
X12355630Y-17576884D01*
X12355630Y-17576884D02*
X12393725Y-17576884D01*
X12393725Y-17576884D02*
X12412772Y-17567360D01*
X12412772Y-17567360D02*
X12422296Y-17548312D01*
X12422296Y-17548312D02*
X12422296Y-17538789D01*
X12422296Y-17538789D02*
X12412772Y-17519741D01*
X12412772Y-17519741D02*
X12393725Y-17510217D01*
X12393725Y-17510217D02*
X12365153Y-17510217D01*
X12365153Y-17510217D02*
X12346106Y-17500693D01*
X12346106Y-17500693D02*
X12336582Y-17481646D01*
X12336582Y-17481646D02*
X12336582Y-17472122D01*
X12336582Y-17472122D02*
X12346106Y-17453074D01*
X12346106Y-17453074D02*
X12365153Y-17443550D01*
X12365153Y-17443550D02*
X12393725Y-17443550D01*
X12393725Y-17443550D02*
X12412772Y-17453074D01*
X12488963Y-17653074D02*
X12498487Y-17643550D01*
X12498487Y-17643550D02*
X12517534Y-17614979D01*
X12517534Y-17614979D02*
X12527058Y-17595931D01*
X12527058Y-17595931D02*
X12536582Y-17567360D01*
X12536582Y-17567360D02*
X12546106Y-17519741D01*
X12546106Y-17519741D02*
X12546106Y-17481646D01*
X12546106Y-17481646D02*
X12536582Y-17434027D01*
X12536582Y-17434027D02*
X12527058Y-17405455D01*
X12527058Y-17405455D02*
X12517534Y-17386408D01*
X12517534Y-17386408D02*
X12498487Y-17357836D01*
X12498487Y-17357836D02*
X12488963Y-17348312D01*
M02*
