M48
; DRILL file {KiCad 8.0.4} date 2024-11-26T00:51:41-0600
; FORMAT={-:-/ absolute / metric / decimal}
; #@! TF.CreationDate,2024-11-26T00:51:41-06:00
; #@! TF.GenerationSoftware,Kicad,Pcbnew,8.0.4
; #@! TF.FileFunction,Plated,1,4,PTH
FMAT,2
METRIC
; #@! TA.AperFunction,Plated,PTH,ComponentDrill
T1C0.300
; #@! TA.AperFunction,Plated,PTH,ViaDrill
T2C0.400
; #@! TA.AperFunction,Plated,PTH,ComponentDrill
T3C0.500
; #@! TA.AperFunction,Plated,PTH,ViaDrill
T4C0.600
; #@! TA.AperFunction,Plated,PTH,ComponentDrill
T5C0.600
; #@! TA.AperFunction,Plated,PTH,ViaDrill
T6C0.800
; #@! TA.AperFunction,Plated,PTH,ComponentDrill
T7C1.000
; #@! TA.AperFunction,Plated,PTH,ComponentDrill
T8C1.067
; #@! TA.AperFunction,Plated,PTH,ComponentDrill
T9C3.000
%
G90
G05
T1
X97.252Y-69.422
X98.202Y-68.847
X98.202Y-69.997
X99.152Y-69.422
X115.922Y-98.765
X115.922Y-99.765
X116.922Y-98.765
X116.922Y-99.765
T2
X78.09Y-82.06
X80.66Y-87.76
X82.99Y-85.09
X83.7Y-87.75
X84.631Y-87.949
X84.766Y-86.854
X87.415Y-81.636
X88.67Y-96.34
X88.883Y-131.168
X89.85Y-96.26
X90.36Y-101.25
X90.881Y-131.182
X90.897Y-129.309
X91.02Y-59.56
X91.481Y-121.097
X92.431Y-118.796
X92.91Y-102.99
X93.399Y-72.582
X93.82Y-52.93
X94.1Y-97.19
X94.155Y-71.626
X94.411Y-69.401
X94.58Y-137.39
X94.772Y-74.271
X94.89Y-62.47
X94.996Y-117.551
X95.067Y-70.471
X95.26Y-132.63
X95.758Y-69.431
X96.109Y-112.124
X96.13Y-110.92
X96.266Y-116.154
X96.656Y-120.659
X96.774Y-114.91
X96.84Y-98.14
X96.967Y-112.837
X96.97Y-99.46
X96.996Y-113.826
X97.028Y-95.504
X97.409Y-108.966
X97.551Y-122.747
X97.714Y-120.675
X98.044Y-95.504
X98.45Y-131.2
X98.603Y-107.213
X98.662Y-137.914
X98.682Y-136.516
X99.06Y-95.504
X99.06Y-96.52
X99.06Y-97.536
X99.06Y-98.552
X99.393Y-122.727
X100.076Y-95.504
X100.076Y-96.52
X100.076Y-97.536
X100.076Y-98.552
X100.155Y-123.661
X100.47Y-66.77
X100.801Y-70.578
X100.851Y-73.131
X101.015Y-121.775
X101.092Y-95.504
X101.092Y-96.52
X101.092Y-97.536
X101.092Y-98.552
X101.092Y-109.017
X101.711Y-82.811
X101.779Y-71.402
X102.083Y-109.068
X102.44Y-60.88
X102.625Y-70.567
X102.63Y-74.62
X103.0Y-104.24
X103.53Y-127.49
X103.584Y-71.41
X103.63Y-67.5
X104.082Y-115.436
X104.126Y-113.11
X104.132Y-117.472
X104.3Y-58.1
X104.43Y-130.24
X104.5Y-62.68
X104.83Y-71.398
X104.855Y-118.563
X104.867Y-116.381
X104.902Y-60.69
X104.94Y-73.54
X105.152Y-113.89
X105.33Y-132.32
X105.623Y-115.406
X105.673Y-117.442
X106.178Y-113.11
X106.396Y-118.533
X106.408Y-116.351
X107.094Y-115.406
X107.144Y-117.442
X107.204Y-113.92
X108.33Y-104.27
X108.468Y-124.939
X109.458Y-122.723
X110.5Y-73.05
X110.862Y-121.832
X110.99Y-75.66
X111.25Y-106.01
X111.892Y-79.19
X111.948Y-102.053
X112.13Y-127.39
X112.318Y-95.325
X112.46Y-69.35
X112.512Y-61.25
X112.53Y-107.8
X112.922Y-102.037
X112.962Y-97.645
X112.98Y-131.26
X113.273Y-98.869
X113.75Y-68.81
X113.8Y-71.99
X114.01Y-95.176
X114.844Y-116.496
X115.07Y-111.16
X115.1Y-112.551
X115.457Y-62.413
X115.483Y-72.845
X115.54Y-114.78
X115.574Y-102.188
X115.737Y-96.386
X116.335Y-117.175
X116.428Y-115.817
X116.91Y-128.99
X117.149Y-114.071
X117.172Y-96.434
X117.172Y-102.173
X117.602Y-123.903
X119.11Y-118.26
X119.66Y-78.36
X119.96Y-121.86
X120.31Y-100.0
X121.15Y-66.17
X121.21Y-74.547
X121.437Y-70.038
X121.829Y-67.53
X122.101Y-70.905
X122.67Y-78.4
X123.04Y-59.73
X123.394Y-86.26
X123.719Y-98.362
X124.109Y-115.539
X124.154Y-93.963
X124.159Y-90.943
X124.83Y-55.1
X125.467Y-60.033
X125.6Y-65.94
X125.65Y-67.76
X126.293Y-104.178
X127.766Y-100.521
X128.12Y-55.55
X129.61Y-55.49
X129.66Y-111.56
X129.67Y-114.0
X129.7Y-103.29
X129.7Y-105.72
T3
X78.455Y-143.831
X78.558Y-51.054
X79.114Y-142.24
X79.114Y-145.422
X79.217Y-49.463
X79.217Y-52.645
X80.705Y-141.581
X80.705Y-146.081
X80.808Y-48.804
X80.808Y-53.304
X82.296Y-142.24
X82.296Y-145.422
X82.399Y-49.463
X82.399Y-52.645
X82.955Y-143.831
X83.058Y-51.054
X127.985Y-51.121
X128.052Y-143.728
X128.644Y-49.53
X128.644Y-52.712
X128.711Y-142.137
X128.711Y-145.319
X130.235Y-48.871
X130.235Y-53.371
X130.302Y-141.478
X130.302Y-145.978
X131.826Y-49.53
X131.826Y-52.712
X131.893Y-142.137
X131.893Y-145.319
X132.485Y-51.121
X132.552Y-143.728
T4
X100.765Y-145.89
X116.54Y-70.92
X117.71Y-85.49
X117.91Y-70.95
X119.454Y-70.914
X121.666Y-90.932
X121.666Y-94.488
X126.0Y-84.5
X126.38Y-83.11
T6
X78.81Y-73.47
X78.92Y-77.44
X78.96Y-61.3
X78.96Y-63.127
X78.96Y-64.955
X78.96Y-66.782
X78.96Y-68.61
X78.98Y-71.93
X80.42Y-77.46
X80.58Y-71.91
X80.64Y-61.297
X80.64Y-63.125
X80.64Y-64.953
X80.64Y-66.78
X80.64Y-68.608
X80.68Y-73.35
X81.48Y-78.73
X82.43Y-64.97
X82.89Y-78.75
X84.11Y-64.968
X85.1Y-72.15
X85.1Y-73.66
X86.75Y-72.15
X86.75Y-73.66
X104.695Y-101.135
X104.695Y-103.175
X104.715Y-105.285
X104.745Y-107.305
X106.665Y-101.155
X106.685Y-103.175
X106.725Y-105.305
X106.725Y-107.275
X108.215Y-61.185
T7
X80.47Y-129.14
X80.47Y-131.64
X83.0Y-76.54
X85.54Y-76.54
X87.34Y-50.27
X87.34Y-52.81
X87.34Y-55.35
X87.34Y-57.89
X90.92Y-50.28
X90.92Y-52.82
X90.92Y-55.36
X90.92Y-57.9
X109.35Y-143.58
X111.89Y-143.58
X114.43Y-143.58
X116.97Y-143.58
X119.31Y-49.41
X119.51Y-143.58
X121.85Y-49.41
T8
X89.621Y-143.622
X92.161Y-143.622
X94.701Y-143.622
X97.241Y-143.622
T9
X80.705Y-143.831
X80.808Y-51.054
X130.235Y-51.121
X130.302Y-143.728
T5
X127.493Y-88.136G85X126.393Y-88.136
G05
X127.493Y-96.776G85X126.393Y-96.776
G05
X131.523Y-88.136G85X130.723Y-88.136
G05
X131.523Y-96.776G85X130.723Y-96.776
G05
M30
