G04 #@! TF.GenerationSoftware,KiCad,Pcbnew,8.0.4*
G04 #@! TF.CreationDate,2024-11-26T00:50:50-06:00*
G04 #@! TF.ProjectId,bitaxeUltra,62697461-7865-4556-9c74-72612e6b6963,rev?*
G04 #@! TF.SameCoordinates,Original*
G04 #@! TF.FileFunction,Soldermask,Top*
G04 #@! TF.FilePolarity,Negative*
%FSLAX46Y46*%
G04 Gerber Fmt 4.6, Leading zero omitted, Abs format (unit mm)*
G04 Created by KiCad (PCBNEW 8.0.4) date 2024-11-26 00:50:50*
%MOMM*%
%LPD*%
G01*
G04 APERTURE LIST*
G04 Aperture macros list*
%AMRoundRect*
0 Rectangle with rounded corners*
0 $1 Rounding radius*
0 $2 $3 $4 $5 $6 $7 $8 $9 X,Y pos of 4 corners*
0 Add a 4 corners polygon primitive as box body*
4,1,4,$2,$3,$4,$5,$6,$7,$8,$9,$2,$3,0*
0 Add four circle primitives for the rounded corners*
1,1,$1+$1,$2,$3*
1,1,$1+$1,$4,$5*
1,1,$1+$1,$6,$7*
1,1,$1+$1,$8,$9*
0 Add four rect primitives between the rounded corners*
20,1,$1+$1,$2,$3,$4,$5,0*
20,1,$1+$1,$4,$5,$6,$7,0*
20,1,$1+$1,$6,$7,$8,$9,0*
20,1,$1+$1,$8,$9,$2,$3,0*%
%AMFreePoly0*
4,1,35,0.005000,-4.560000,0.003536,-4.563536,0.000000,-4.565000,-5.000000,-4.565000,-5.003536,-4.563536,-5.005000,-4.560000,-5.005000,-3.898000,-5.003536,-3.894464,-5.000000,-3.893000,-4.325000,-3.893000,-4.325000,-3.269700,-5.000000,-3.269700,-5.003536,-3.268236,-5.005000,-3.264700,-5.005000,-2.599700,-5.003536,-2.596164,-5.000000,-2.594700,-4.325000,-2.594700,-4.325000,-1.971400,-5.000000,-1.971400,
-5.003536,-1.969936,-5.005000,-1.966400,-5.005000,-1.301400,-5.003536,-1.297864,-5.000000,-1.296400,-4.325000,-1.296400,-4.325000,-0.673100,-5.000000,-0.673100,-5.003536,-0.671636,-5.005000,-0.668100,-5.005000,0.000000,-5.003536,0.003536,-5.000000,0.005000,0.005000,0.005000,0.005000,-4.560000,0.005000,-4.560000,$1*%
%AMFreePoly1*
4,1,45,-0.124646,1.700354,-0.124500,1.700000,-0.124500,1.200500,0.124500,1.200500,0.124500,1.700000,0.124646,1.700354,0.125000,1.700500,0.375000,1.700500,0.375354,1.700354,0.375500,1.700000,0.375500,1.200500,0.825000,1.200500,0.825354,1.200354,0.825500,1.200000,0.825500,-1.200000,0.825354,-1.200354,0.825000,-1.200500,0.375500,-1.200500,0.375500,-1.700000,0.375354,-1.700354,
0.375000,-1.700500,0.125000,-1.700500,0.124646,-1.700354,0.124500,-1.700000,0.124500,-1.200500,-0.124500,-1.200500,-0.124500,-1.700000,-0.124646,-1.700354,-0.125000,-1.700500,-0.375000,-1.700500,-0.375354,-1.700354,-0.375500,-1.700000,-0.375500,-1.200500,-0.825000,-1.200500,-0.825354,-1.200354,-0.825500,-1.200000,-0.825500,1.200000,-0.825354,1.200354,-0.825000,1.200500,-0.375500,1.200500,
-0.375500,1.700000,-0.375354,1.700354,-0.375000,1.700500,-0.125000,1.700500,-0.124646,1.700354,-0.124646,1.700354,$1*%
G04 Aperture macros list end*
%ADD10C,0.120000*%
%ADD11RoundRect,0.250000X0.250000X0.475000X-0.250000X0.475000X-0.250000X-0.475000X0.250000X-0.475000X0*%
%ADD12RoundRect,0.140000X0.140000X0.170000X-0.140000X0.170000X-0.140000X-0.170000X0.140000X-0.170000X0*%
%ADD13RoundRect,0.250000X-1.000000X-0.650000X1.000000X-0.650000X1.000000X0.650000X-1.000000X0.650000X0*%
%ADD14RoundRect,0.100000X-0.637500X-0.100000X0.637500X-0.100000X0.637500X0.100000X-0.637500X0.100000X0*%
%ADD15RoundRect,0.140000X-0.170000X0.140000X-0.170000X-0.140000X0.170000X-0.140000X0.170000X0.140000X0*%
%ADD16RoundRect,0.135000X0.185000X-0.135000X0.185000X0.135000X-0.185000X0.135000X-0.185000X-0.135000X0*%
%ADD17C,2.000000*%
%ADD18RoundRect,0.135000X-0.185000X0.135000X-0.185000X-0.135000X0.185000X-0.135000X0.185000X0.135000X0*%
%ADD19RoundRect,0.135000X0.135000X0.185000X-0.135000X0.185000X-0.135000X-0.185000X0.135000X-0.185000X0*%
%ADD20C,1.500000*%
%ADD21R,0.700000X0.450000*%
%ADD22C,3.000000*%
%ADD23RoundRect,0.250000X-0.250000X-0.475000X0.250000X-0.475000X0.250000X0.475000X-0.250000X0.475000X0*%
%ADD24R,1.168400X1.600200*%
%ADD25RoundRect,0.150000X-0.512500X-0.150000X0.512500X-0.150000X0.512500X0.150000X-0.512500X0.150000X0*%
%ADD26C,3.500000*%
%ADD27RoundRect,0.250000X1.000000X0.650000X-1.000000X0.650000X-1.000000X-0.650000X1.000000X-0.650000X0*%
%ADD28RoundRect,0.140000X0.170000X-0.140000X0.170000X0.140000X-0.170000X0.140000X-0.170000X-0.140000X0*%
%ADD29R,0.400000X1.100000*%
%ADD30RoundRect,0.140000X-0.140000X-0.170000X0.140000X-0.170000X0.140000X0.170000X-0.140000X0.170000X0*%
%ADD31C,0.800000*%
%ADD32C,6.000000*%
%ADD33RoundRect,0.007800X-0.122200X0.442200X-0.122200X-0.442200X0.122200X-0.442200X0.122200X0.442200X0*%
%ADD34RoundRect,0.007800X-0.442200X-0.122200X0.442200X-0.122200X0.442200X0.122200X-0.442200X0.122200X0*%
%ADD35R,2.050000X2.050000*%
%ADD36R,3.100000X2.000000*%
%ADD37R,1.100000X0.400000*%
%ADD38RoundRect,0.250000X-1.025000X0.875000X-1.025000X-0.875000X1.025000X-0.875000X1.025000X0.875000X0*%
%ADD39R,0.700000X0.800000*%
%ADD40FreePoly0,270.000000*%
%ADD41RoundRect,0.135000X-0.135000X-0.185000X0.135000X-0.185000X0.135000X0.185000X-0.135000X0.185000X0*%
%ADD42RoundRect,0.050000X-0.070000X0.250000X-0.070000X-0.250000X0.070000X-0.250000X0.070000X0.250000X0*%
%ADD43C,0.400000*%
%ADD44FreePoly1,270.000000*%
%ADD45R,1.600000X2.700000*%
%ADD46FreePoly0,90.000000*%
%ADD47RoundRect,0.250000X-0.325000X-1.100000X0.325000X-1.100000X0.325000X1.100000X-0.325000X1.100000X0*%
%ADD48R,1.100000X1.300000*%
%ADD49RoundRect,0.218750X0.256250X-0.218750X0.256250X0.218750X-0.256250X0.218750X-0.256250X-0.218750X0*%
%ADD50RoundRect,0.250000X0.325000X0.650000X-0.325000X0.650000X-0.325000X-0.650000X0.325000X-0.650000X0*%
%ADD51R,0.952500X0.558800*%
%ADD52C,1.295400*%
%ADD53C,1.574800*%
%ADD54R,1.700000X1.700000*%
%ADD55O,1.700000X1.700000*%
%ADD56C,0.650000*%
%ADD57O,1.800000X1.000000*%
%ADD58O,2.100000X1.000000*%
%ADD59C,0.990600*%
%ADD60C,1.600000*%
%ADD61C,1.800000*%
%ADD62C,0.900000*%
%ADD63RoundRect,0.250000X-0.750000X0.600000X-0.750000X-0.600000X0.750000X-0.600000X0.750000X0.600000X0*%
%ADD64O,2.000000X1.700000*%
G04 APERTURE END LIST*
D10*
X83550000Y-67350000D02*
G75*
G02*
X81950000Y-67350000I-800000J0D01*
G01*
X81950000Y-67350000D02*
G75*
G02*
X83550000Y-67350000I800000J0D01*
G01*
X88150000Y-67350000D02*
G75*
G02*
X86350000Y-67350000I-900000J0D01*
G01*
X86350000Y-67350000D02*
G75*
G02*
X88150000Y-67350000I900000J0D01*
G01*
D11*
X106814000Y-69487000D03*
X104914000Y-69487000D03*
D12*
X116836000Y-103365000D03*
X115876000Y-103365000D03*
D13*
X117380000Y-88392000D03*
X121380000Y-88392000D03*
D14*
X79777500Y-79495000D03*
X79777500Y-80145000D03*
X79777500Y-80795000D03*
X79777500Y-81445000D03*
X79777500Y-82095000D03*
X79777500Y-82745000D03*
X79777500Y-83395000D03*
X79777500Y-84045000D03*
X85502500Y-84045000D03*
X85502500Y-83395000D03*
X85502500Y-82745000D03*
X85502500Y-82095000D03*
X85502500Y-81445000D03*
X85502500Y-80795000D03*
X85502500Y-80145000D03*
X85502500Y-79495000D03*
D15*
X112268000Y-114175600D03*
X112268000Y-115135600D03*
D16*
X94420000Y-54500000D03*
X94420000Y-53480000D03*
D17*
X125272800Y-50292000D03*
X132257800Y-139065000D03*
D18*
X90649600Y-63569000D03*
X90649600Y-64589000D03*
D17*
X78841600Y-139065000D03*
D19*
X122717000Y-115554000D03*
X121697000Y-115554000D03*
D12*
X115730000Y-127810000D03*
X114770000Y-127810000D03*
D20*
X87045800Y-112699800D03*
D21*
X111370000Y-70430000D03*
X111370000Y-69130000D03*
X109370000Y-69780000D03*
D11*
X98355400Y-63005800D03*
X96455400Y-63005800D03*
D20*
X123610000Y-84120000D03*
D18*
X113770000Y-69930000D03*
X113770000Y-70950000D03*
D12*
X114920000Y-107790000D03*
X113960000Y-107790000D03*
D22*
X84764000Y-94984000D03*
D19*
X127764000Y-98910000D03*
X126744000Y-98910000D03*
D15*
X101750000Y-67930000D03*
X101750000Y-68890000D03*
D20*
X111225000Y-99150000D03*
X111440000Y-130160000D03*
D15*
X105540000Y-129760000D03*
X105540000Y-130720000D03*
D23*
X92522000Y-66420000D03*
X94422000Y-66420000D03*
D24*
X124017400Y-78349000D03*
X121172600Y-78349000D03*
D20*
X94107000Y-141452600D03*
X90855800Y-145948400D03*
D25*
X92615500Y-128358000D03*
X92615500Y-129308000D03*
X92615500Y-130258000D03*
X94890500Y-130258000D03*
X94890500Y-128358000D03*
D26*
X84790000Y-136040000D03*
D23*
X130580000Y-84090000D03*
X132480000Y-84090000D03*
D20*
X119800000Y-119990000D03*
X122556000Y-57528000D03*
D27*
X115540000Y-49630000D03*
X111540000Y-49630000D03*
D25*
X101182500Y-129290000D03*
X101182500Y-130240000D03*
X101182500Y-131190000D03*
X103457500Y-131190000D03*
X103457500Y-129290000D03*
D22*
X125890000Y-135990000D03*
D20*
X89763600Y-114223800D03*
D28*
X108485000Y-122798000D03*
X108485000Y-121838000D03*
D20*
X87147400Y-115316000D03*
D29*
X102371800Y-113877200D03*
X101721800Y-113877200D03*
X101071800Y-113877200D03*
X100421800Y-113877200D03*
X100421800Y-118177200D03*
X101071800Y-118177200D03*
X101721800Y-118177200D03*
X102371800Y-118177200D03*
D12*
X99780000Y-104240000D03*
X98820000Y-104240000D03*
D30*
X131050000Y-85700000D03*
X132010000Y-85700000D03*
D19*
X127347000Y-101658000D03*
X126327000Y-101658000D03*
D31*
X127985010Y-51120990D03*
X128644020Y-49530000D03*
X128644020Y-52711980D03*
X130235010Y-48870990D03*
D32*
X130235010Y-51120990D03*
D31*
X130235010Y-53370990D03*
X131826000Y-49530000D03*
X131826000Y-52711980D03*
X132485010Y-51120990D03*
D28*
X124043000Y-76576000D03*
X124043000Y-75616000D03*
D17*
X78740000Y-55905400D03*
D33*
X115672000Y-97580000D03*
D34*
X114737000Y-98265000D03*
X114737000Y-98765000D03*
X114737000Y-99265000D03*
X114737000Y-99765000D03*
X114737000Y-100265000D03*
D33*
X115672000Y-100950000D03*
X117172000Y-100950000D03*
D34*
X118107000Y-100265000D03*
X118107000Y-99765000D03*
X118107000Y-99265000D03*
X118107000Y-98765000D03*
X118107000Y-98265000D03*
D33*
X117172000Y-97580000D03*
D35*
X116422000Y-99265000D03*
D16*
X93270000Y-54490000D03*
X93270000Y-53470000D03*
D18*
X94828800Y-63573600D03*
X94828800Y-64593600D03*
D20*
X87100000Y-106510000D03*
X125500000Y-70190000D03*
D36*
X106000600Y-77761400D03*
X106000600Y-86081400D03*
D16*
X93465000Y-64589000D03*
X93465000Y-63569000D03*
D12*
X98490000Y-106040000D03*
X97530000Y-106040000D03*
D19*
X94840000Y-102040000D03*
X93820000Y-102040000D03*
D31*
X128052000Y-143728000D03*
X128711010Y-142137010D03*
X128711010Y-145318990D03*
X130302000Y-141478000D03*
D32*
X130302000Y-143728000D03*
D31*
X130302000Y-145978000D03*
X131892990Y-142137010D03*
X131892990Y-145318990D03*
X132552000Y-143728000D03*
D28*
X102646000Y-122798000D03*
X102646000Y-121838000D03*
D12*
X115080000Y-60930000D03*
X114120000Y-60930000D03*
X96139000Y-109681000D03*
X95179000Y-109681000D03*
D20*
X128200000Y-60060000D03*
D11*
X98333000Y-65268000D03*
X96433000Y-65268000D03*
D37*
X90890000Y-98565000D03*
X90890000Y-99215000D03*
X90890000Y-99865000D03*
X90890000Y-100515000D03*
X95190000Y-100515000D03*
X95190000Y-99865000D03*
X95190000Y-99215000D03*
X95190000Y-98565000D03*
D20*
X116870000Y-105550000D03*
D30*
X104650000Y-67450000D03*
X105610000Y-67450000D03*
D20*
X89687400Y-116840000D03*
D31*
X78455010Y-143830990D03*
X79114020Y-142240000D03*
X79114020Y-145421980D03*
X80705010Y-141580990D03*
D32*
X80705010Y-143830990D03*
D31*
X80705010Y-146080990D03*
X82296000Y-142240000D03*
X82296000Y-145421980D03*
X82955010Y-143830990D03*
D28*
X121159000Y-76585000D03*
X121159000Y-75625000D03*
D12*
X82650000Y-87720000D03*
X81690000Y-87720000D03*
D15*
X108712000Y-114201000D03*
X108712000Y-115161000D03*
X111150400Y-114226400D03*
X111150400Y-115186400D03*
D18*
X92057300Y-63569000D03*
X92057300Y-64589000D03*
D12*
X99092000Y-121788000D03*
X98132000Y-121788000D03*
D38*
X105600000Y-111360000D03*
X105600000Y-117760000D03*
D39*
X95751600Y-82862700D03*
X97049900Y-82862700D03*
X98313300Y-82862700D03*
X99611600Y-82862700D03*
D40*
X99961600Y-81957700D03*
D28*
X102133400Y-111046200D03*
X102133400Y-110086200D03*
D41*
X95640000Y-138480000D03*
X96660000Y-138480000D03*
D20*
X114410000Y-140150000D03*
X89500000Y-108130000D03*
D30*
X95450000Y-97140000D03*
X96410000Y-97140000D03*
D42*
X99201691Y-68022200D03*
X98701691Y-68022200D03*
X98201691Y-68022200D03*
X97701691Y-68022200D03*
X97201691Y-68022200D03*
X97201691Y-70822200D03*
X97701691Y-70822200D03*
X98201691Y-70822200D03*
X98701691Y-70822200D03*
X99201691Y-70822200D03*
D43*
X98201691Y-68847200D03*
X99151691Y-69422200D03*
D44*
X98201691Y-69422200D03*
D43*
X97251691Y-69422200D03*
X98201691Y-69997200D03*
D20*
X110075000Y-101700000D03*
X87071200Y-120827800D03*
D31*
X78558000Y-51054000D03*
X79217010Y-49463010D03*
X79217010Y-52644990D03*
X80808000Y-48804000D03*
D32*
X80808000Y-51054000D03*
D31*
X80808000Y-53304000D03*
X82398990Y-49463010D03*
X82398990Y-52644990D03*
X83058000Y-51054000D03*
D30*
X93253000Y-131818000D03*
X94213000Y-131818000D03*
D20*
X119800000Y-123540000D03*
D12*
X124370000Y-101660000D03*
X123410000Y-101660000D03*
X113620000Y-106030000D03*
X112660000Y-106030000D03*
D45*
X103851600Y-89640200D03*
X100851600Y-89640200D03*
D39*
X93649887Y-77313864D03*
X92351587Y-77313864D03*
X91088187Y-77313864D03*
X89789887Y-77313864D03*
D46*
X89439887Y-78218864D03*
D30*
X96189800Y-73128000D03*
X97149800Y-73128000D03*
D20*
X115560000Y-121710000D03*
D47*
X92806600Y-85970200D03*
X95756600Y-85970200D03*
D20*
X87180000Y-109740000D03*
X117040000Y-140190000D03*
D48*
X116140000Y-126170000D03*
X116140000Y-123870000D03*
X114240000Y-123870000D03*
X114240000Y-126170000D03*
D20*
X98473000Y-127736000D03*
D41*
X98650200Y-73123400D03*
X99670200Y-73123400D03*
D19*
X110465000Y-71760000D03*
X109445000Y-71760000D03*
D12*
X116020000Y-109624000D03*
X115060000Y-109624000D03*
D41*
X109340000Y-74410000D03*
X110360000Y-74410000D03*
D49*
X108320000Y-56135000D03*
X108320000Y-54560000D03*
D30*
X101730000Y-132610000D03*
X102690000Y-132610000D03*
D20*
X89560400Y-119507000D03*
D28*
X112160000Y-121800000D03*
X112160000Y-120840000D03*
D20*
X122500000Y-113430000D03*
D16*
X101092000Y-112066800D03*
X101092000Y-111046800D03*
D12*
X97210000Y-107780000D03*
X96250000Y-107780000D03*
X112290000Y-104240000D03*
X111330000Y-104240000D03*
D30*
X95640000Y-137410000D03*
X96600000Y-137410000D03*
D20*
X107830000Y-129200000D03*
X87122000Y-117983000D03*
D19*
X127382000Y-86047000D03*
X126362000Y-86047000D03*
D30*
X111051000Y-65931000D03*
X112011000Y-65931000D03*
D20*
X123640000Y-61510000D03*
X111890000Y-140150000D03*
D12*
X114582000Y-96355000D03*
X113622000Y-96355000D03*
D50*
X103786600Y-92610200D03*
X100836600Y-92610200D03*
D15*
X96763000Y-128638000D03*
X96763000Y-129598000D03*
D47*
X92766600Y-89380200D03*
X95716600Y-89380200D03*
D15*
X109982000Y-114230000D03*
X109982000Y-115190000D03*
D51*
X111185050Y-62440200D03*
X111185050Y-63380000D03*
X111185050Y-64319800D03*
X113940950Y-64319800D03*
X113940950Y-62440200D03*
D47*
X92766600Y-92740200D03*
X95716600Y-92740200D03*
D52*
X94701000Y-145782001D03*
D53*
X89621000Y-143622000D03*
X92161000Y-143622000D03*
X94701000Y-143622000D03*
X97241000Y-143622000D03*
D54*
X87340000Y-50270000D03*
D55*
X87340000Y-52810000D03*
X87340000Y-55350000D03*
X87340000Y-57890000D03*
D54*
X83000000Y-76540000D03*
D55*
X85540000Y-76540000D03*
D54*
X90920000Y-50280000D03*
D55*
X90920000Y-52820000D03*
X90920000Y-55360000D03*
X90920000Y-57900000D03*
D54*
X109350000Y-143580000D03*
D55*
X111890000Y-143580000D03*
X114430000Y-143580000D03*
X116970000Y-143580000D03*
X119510000Y-143580000D03*
D56*
X127443000Y-89566000D03*
X127443000Y-95346000D03*
D57*
X131123000Y-88136000D03*
D58*
X126943000Y-88136000D03*
D57*
X131123000Y-96776000D03*
D58*
X126943000Y-96776000D03*
D59*
X130670000Y-57730000D03*
X125590000Y-58746000D03*
X125590000Y-56714000D03*
D54*
X119310000Y-49410000D03*
D55*
X121850000Y-49410000D03*
D60*
X82750000Y-67350000D03*
D61*
X87250000Y-67350000D03*
D62*
X131910000Y-102445000D03*
X131910000Y-106695000D03*
D63*
X80470000Y-129140000D03*
D64*
X80470000Y-131640000D03*
D62*
X131910000Y-110610000D03*
X131910000Y-114860000D03*
M02*
