%TF.GenerationSoftware,KiCad,Pcbnew,8.0.4*%
%TF.CreationDate,2024-11-26T00:51:47-06:00*%
%TF.ProjectId,bitaxeUltra,62697461-7865-4556-9c74-72612e6b6963,rev?*%
%TF.SameCoordinates,Original*%
%TF.FileFunction,Drillmap*%
%TF.FilePolarity,Positive*%
%FSLAX45Y45*%
G04 Gerber Fmt 4.5, Leading zero omitted, Abs format (unit mm)*
G04 Created by KiCad (PCBNEW 8.0.4) date 2024-11-26 00:51:47*
%MOMM*%
%LPD*%
G01*
G04 APERTURE LIST*
%ADD10C,0.100000*%
%ADD11C,0.200000*%
%ADD12C,0.129540*%
%ADD13C,0.160000*%
%ADD14C,0.180000*%
%ADD15C,0.300000*%
%ADD16C,0.350000*%
G04 APERTURE END LIST*
D10*
X7972900Y-4752200D02*
X13119200Y-4752200D01*
X13373200Y-14474400D02*
G75*
G02*
X13119200Y-14728400I-254000J0D01*
G01*
X13119200Y-4752200D02*
G75*
G02*
X13373200Y-5006200I0J-254000D01*
G01*
X7718900Y-5006200D02*
G75*
G02*
X7972900Y-4752200I254000J0D01*
G01*
X13119200Y-14728400D02*
X7972900Y-14728400D01*
X13373200Y-5006200D02*
X13373200Y-14474400D01*
X7972900Y-14728400D02*
G75*
G02*
X7718900Y-14474400I0J254000D01*
G01*
X7718900Y-14474400D02*
X7718900Y-5006200D01*
D11*
D10*
X12711800Y-8924100D02*
X12776800Y-8989100D01*
X12776800Y-8924100D02*
X12711800Y-8989100D01*
X12711800Y-9502100D02*
X12776800Y-9567100D01*
X12776800Y-9502100D02*
X12711800Y-9567100D01*
X13236000Y-10244500D02*
G75*
G02*
X13146000Y-10244500I-45000J0D01*
G01*
X13146000Y-10244500D02*
G75*
G02*
X13236000Y-10244500I45000J0D01*
G01*
X13236000Y-10669500D02*
G75*
G02*
X13146000Y-10669500I-45000J0D01*
G01*
X13146000Y-10669500D02*
G75*
G02*
X13236000Y-10669500I45000J0D01*
G01*
X13236000Y-11061000D02*
G75*
G02*
X13146000Y-11061000I-45000J0D01*
G01*
X13146000Y-11061000D02*
G75*
G02*
X13236000Y-11061000I45000J0D01*
G01*
X13236000Y-11486000D02*
G75*
G02*
X13146000Y-11486000I-45000J0D01*
G01*
X13146000Y-11486000D02*
G75*
G02*
X13236000Y-11486000I45000J0D01*
G01*
X12559000Y-5621870D02*
X12559000Y-5720930D01*
X12509470Y-5671400D02*
X12608530Y-5671400D01*
X12559000Y-5825070D02*
X12559000Y-5924130D01*
X12509470Y-5874600D02*
X12608530Y-5874600D01*
X13067000Y-5723470D02*
X13067000Y-5822530D01*
X13017470Y-5773000D02*
X13116530Y-5773000D01*
D12*
X9515900Y-14624000D02*
X9515900Y-14532400D01*
X9424300Y-14532400D01*
X9424300Y-14624000D01*
X9515900Y-14624000D01*
D13*
X8275000Y-6815000D02*
X8355000Y-6735000D01*
X8275000Y-6655000D01*
X8195000Y-6735000D01*
X8275000Y-6815000D01*
D14*
X8635000Y-6645000D02*
X8815000Y-6825000D01*
X8815000Y-6645000D02*
X8635000Y-6825000D01*
X8815000Y-6735000D02*
G75*
G02*
X8635000Y-6735000I-90000J0D01*
G01*
X8635000Y-6735000D02*
G75*
G02*
X8815000Y-6735000I90000J0D01*
G01*
D15*
X8326400Y-9348400D02*
X8626400Y-9648400D01*
X8626400Y-9348400D02*
X8326400Y-9648400D01*
X8476400Y-9348400D02*
X8476400Y-9648400D01*
X8326400Y-9498400D02*
X8626400Y-9498400D01*
X12439000Y-13449000D02*
X12739000Y-13749000D01*
X12739000Y-13449000D02*
X12439000Y-13749000D01*
X12589000Y-13449000D02*
X12589000Y-13749000D01*
X12439000Y-13599000D02*
X12739000Y-13599000D01*
D16*
X8304000Y-13429000D02*
X8654000Y-13779000D01*
X8654000Y-13429000D02*
X8304000Y-13779000D01*
X8602745Y-13727745D02*
X8602745Y-13480255D01*
X8355255Y-13480255D01*
X8355255Y-13727745D01*
X8602745Y-13727745D01*
D11*
X7974677Y-15044884D02*
X7974677Y-14844884D01*
X7974677Y-14844884D02*
X8022296Y-14844884D01*
X8022296Y-14844884D02*
X8050867Y-14854408D01*
X8050867Y-14854408D02*
X8069915Y-14873455D01*
X8069915Y-14873455D02*
X8079439Y-14892503D01*
X8079439Y-14892503D02*
X8088962Y-14930598D01*
X8088962Y-14930598D02*
X8088962Y-14959169D01*
X8088962Y-14959169D02*
X8079439Y-14997265D01*
X8079439Y-14997265D02*
X8069915Y-15016312D01*
X8069915Y-15016312D02*
X8050867Y-15035360D01*
X8050867Y-15035360D02*
X8022296Y-15044884D01*
X8022296Y-15044884D02*
X7974677Y-15044884D01*
X8174677Y-15044884D02*
X8174677Y-14911550D01*
X8174677Y-14949646D02*
X8184201Y-14930598D01*
X8184201Y-14930598D02*
X8193724Y-14921074D01*
X8193724Y-14921074D02*
X8212772Y-14911550D01*
X8212772Y-14911550D02*
X8231820Y-14911550D01*
X8298486Y-15044884D02*
X8298486Y-14911550D01*
X8298486Y-14844884D02*
X8288962Y-14854408D01*
X8288962Y-14854408D02*
X8298486Y-14863931D01*
X8298486Y-14863931D02*
X8308010Y-14854408D01*
X8308010Y-14854408D02*
X8298486Y-14844884D01*
X8298486Y-14844884D02*
X8298486Y-14863931D01*
X8422296Y-15044884D02*
X8403248Y-15035360D01*
X8403248Y-15035360D02*
X8393724Y-15016312D01*
X8393724Y-15016312D02*
X8393724Y-14844884D01*
X8527058Y-15044884D02*
X8508010Y-15035360D01*
X8508010Y-15035360D02*
X8498486Y-15016312D01*
X8498486Y-15016312D02*
X8498486Y-14844884D01*
X8755629Y-15044884D02*
X8755629Y-14844884D01*
X8755629Y-14844884D02*
X8822296Y-14987741D01*
X8822296Y-14987741D02*
X8888963Y-14844884D01*
X8888963Y-14844884D02*
X8888963Y-15044884D01*
X9069915Y-15044884D02*
X9069915Y-14940122D01*
X9069915Y-14940122D02*
X9060391Y-14921074D01*
X9060391Y-14921074D02*
X9041344Y-14911550D01*
X9041344Y-14911550D02*
X9003248Y-14911550D01*
X9003248Y-14911550D02*
X8984201Y-14921074D01*
X9069915Y-15035360D02*
X9050867Y-15044884D01*
X9050867Y-15044884D02*
X9003248Y-15044884D01*
X9003248Y-15044884D02*
X8984201Y-15035360D01*
X8984201Y-15035360D02*
X8974677Y-15016312D01*
X8974677Y-15016312D02*
X8974677Y-14997265D01*
X8974677Y-14997265D02*
X8984201Y-14978217D01*
X8984201Y-14978217D02*
X9003248Y-14968693D01*
X9003248Y-14968693D02*
X9050867Y-14968693D01*
X9050867Y-14968693D02*
X9069915Y-14959169D01*
X9165153Y-14911550D02*
X9165153Y-15111550D01*
X9165153Y-14921074D02*
X9184201Y-14911550D01*
X9184201Y-14911550D02*
X9222296Y-14911550D01*
X9222296Y-14911550D02*
X9241344Y-14921074D01*
X9241344Y-14921074D02*
X9250867Y-14930598D01*
X9250867Y-14930598D02*
X9260391Y-14949646D01*
X9260391Y-14949646D02*
X9260391Y-15006788D01*
X9260391Y-15006788D02*
X9250867Y-15025836D01*
X9250867Y-15025836D02*
X9241344Y-15035360D01*
X9241344Y-15035360D02*
X9222296Y-15044884D01*
X9222296Y-15044884D02*
X9184201Y-15044884D01*
X9184201Y-15044884D02*
X9165153Y-15035360D01*
X9346105Y-15025836D02*
X9355629Y-15035360D01*
X9355629Y-15035360D02*
X9346105Y-15044884D01*
X9346105Y-15044884D02*
X9336582Y-15035360D01*
X9336582Y-15035360D02*
X9346105Y-15025836D01*
X9346105Y-15025836D02*
X9346105Y-15044884D01*
X9346105Y-14921074D02*
X9355629Y-14930598D01*
X9355629Y-14930598D02*
X9346105Y-14940122D01*
X9346105Y-14940122D02*
X9336582Y-14930598D01*
X9336582Y-14930598D02*
X9346105Y-14921074D01*
X9346105Y-14921074D02*
X9346105Y-14940122D01*
D10*
X7648900Y-15340900D02*
X7713900Y-15405900D01*
X7713900Y-15340900D02*
X7648900Y-15405900D01*
D11*
X8012772Y-15264884D02*
X8031820Y-15264884D01*
X8031820Y-15264884D02*
X8050867Y-15274408D01*
X8050867Y-15274408D02*
X8060391Y-15283931D01*
X8060391Y-15283931D02*
X8069915Y-15302979D01*
X8069915Y-15302979D02*
X8079439Y-15341074D01*
X8079439Y-15341074D02*
X8079439Y-15388693D01*
X8079439Y-15388693D02*
X8069915Y-15426788D01*
X8069915Y-15426788D02*
X8060391Y-15445836D01*
X8060391Y-15445836D02*
X8050867Y-15455360D01*
X8050867Y-15455360D02*
X8031820Y-15464884D01*
X8031820Y-15464884D02*
X8012772Y-15464884D01*
X8012772Y-15464884D02*
X7993724Y-15455360D01*
X7993724Y-15455360D02*
X7984201Y-15445836D01*
X7984201Y-15445836D02*
X7974677Y-15426788D01*
X7974677Y-15426788D02*
X7965153Y-15388693D01*
X7965153Y-15388693D02*
X7965153Y-15341074D01*
X7965153Y-15341074D02*
X7974677Y-15302979D01*
X7974677Y-15302979D02*
X7984201Y-15283931D01*
X7984201Y-15283931D02*
X7993724Y-15274408D01*
X7993724Y-15274408D02*
X8012772Y-15264884D01*
X8165153Y-15445836D02*
X8174677Y-15455360D01*
X8174677Y-15455360D02*
X8165153Y-15464884D01*
X8165153Y-15464884D02*
X8155629Y-15455360D01*
X8155629Y-15455360D02*
X8165153Y-15445836D01*
X8165153Y-15445836D02*
X8165153Y-15464884D01*
X8346105Y-15264884D02*
X8308010Y-15264884D01*
X8308010Y-15264884D02*
X8288962Y-15274408D01*
X8288962Y-15274408D02*
X8279439Y-15283931D01*
X8279439Y-15283931D02*
X8260391Y-15312503D01*
X8260391Y-15312503D02*
X8250867Y-15350598D01*
X8250867Y-15350598D02*
X8250867Y-15426788D01*
X8250867Y-15426788D02*
X8260391Y-15445836D01*
X8260391Y-15445836D02*
X8269915Y-15455360D01*
X8269915Y-15455360D02*
X8288962Y-15464884D01*
X8288962Y-15464884D02*
X8327058Y-15464884D01*
X8327058Y-15464884D02*
X8346105Y-15455360D01*
X8346105Y-15455360D02*
X8355629Y-15445836D01*
X8355629Y-15445836D02*
X8365153Y-15426788D01*
X8365153Y-15426788D02*
X8365153Y-15379169D01*
X8365153Y-15379169D02*
X8355629Y-15360122D01*
X8355629Y-15360122D02*
X8346105Y-15350598D01*
X8346105Y-15350598D02*
X8327058Y-15341074D01*
X8327058Y-15341074D02*
X8288962Y-15341074D01*
X8288962Y-15341074D02*
X8269915Y-15350598D01*
X8269915Y-15350598D02*
X8260391Y-15360122D01*
X8260391Y-15360122D02*
X8250867Y-15379169D01*
X8546105Y-15264884D02*
X8450867Y-15264884D01*
X8450867Y-15264884D02*
X8441344Y-15360122D01*
X8441344Y-15360122D02*
X8450867Y-15350598D01*
X8450867Y-15350598D02*
X8469915Y-15341074D01*
X8469915Y-15341074D02*
X8517534Y-15341074D01*
X8517534Y-15341074D02*
X8536582Y-15350598D01*
X8536582Y-15350598D02*
X8546105Y-15360122D01*
X8546105Y-15360122D02*
X8555629Y-15379169D01*
X8555629Y-15379169D02*
X8555629Y-15426788D01*
X8555629Y-15426788D02*
X8546105Y-15445836D01*
X8546105Y-15445836D02*
X8536582Y-15455360D01*
X8536582Y-15455360D02*
X8517534Y-15464884D01*
X8517534Y-15464884D02*
X8469915Y-15464884D01*
X8469915Y-15464884D02*
X8450867Y-15455360D01*
X8450867Y-15455360D02*
X8441344Y-15445836D01*
X8679439Y-15264884D02*
X8698486Y-15264884D01*
X8698486Y-15264884D02*
X8717534Y-15274408D01*
X8717534Y-15274408D02*
X8727058Y-15283931D01*
X8727058Y-15283931D02*
X8736582Y-15302979D01*
X8736582Y-15302979D02*
X8746105Y-15341074D01*
X8746105Y-15341074D02*
X8746105Y-15388693D01*
X8746105Y-15388693D02*
X8736582Y-15426788D01*
X8736582Y-15426788D02*
X8727058Y-15445836D01*
X8727058Y-15445836D02*
X8717534Y-15455360D01*
X8717534Y-15455360D02*
X8698486Y-15464884D01*
X8698486Y-15464884D02*
X8679439Y-15464884D01*
X8679439Y-15464884D02*
X8660391Y-15455360D01*
X8660391Y-15455360D02*
X8650867Y-15445836D01*
X8650867Y-15445836D02*
X8641344Y-15426788D01*
X8641344Y-15426788D02*
X8631820Y-15388693D01*
X8631820Y-15388693D02*
X8631820Y-15341074D01*
X8631820Y-15341074D02*
X8641344Y-15302979D01*
X8641344Y-15302979D02*
X8650867Y-15283931D01*
X8650867Y-15283931D02*
X8660391Y-15274408D01*
X8660391Y-15274408D02*
X8679439Y-15264884D01*
X8831820Y-15464884D02*
X8831820Y-15331550D01*
X8831820Y-15350598D02*
X8841344Y-15341074D01*
X8841344Y-15341074D02*
X8860391Y-15331550D01*
X8860391Y-15331550D02*
X8888963Y-15331550D01*
X8888963Y-15331550D02*
X8908010Y-15341074D01*
X8908010Y-15341074D02*
X8917534Y-15360122D01*
X8917534Y-15360122D02*
X8917534Y-15464884D01*
X8917534Y-15360122D02*
X8927058Y-15341074D01*
X8927058Y-15341074D02*
X8946105Y-15331550D01*
X8946105Y-15331550D02*
X8974677Y-15331550D01*
X8974677Y-15331550D02*
X8993725Y-15341074D01*
X8993725Y-15341074D02*
X9003248Y-15360122D01*
X9003248Y-15360122D02*
X9003248Y-15464884D01*
X9098486Y-15464884D02*
X9098486Y-15331550D01*
X9098486Y-15350598D02*
X9108010Y-15341074D01*
X9108010Y-15341074D02*
X9127058Y-15331550D01*
X9127058Y-15331550D02*
X9155629Y-15331550D01*
X9155629Y-15331550D02*
X9174677Y-15341074D01*
X9174677Y-15341074D02*
X9184201Y-15360122D01*
X9184201Y-15360122D02*
X9184201Y-15464884D01*
X9184201Y-15360122D02*
X9193725Y-15341074D01*
X9193725Y-15341074D02*
X9212772Y-15331550D01*
X9212772Y-15331550D02*
X9241344Y-15331550D01*
X9241344Y-15331550D02*
X9260391Y-15341074D01*
X9260391Y-15341074D02*
X9269915Y-15360122D01*
X9269915Y-15360122D02*
X9269915Y-15464884D01*
X9660391Y-15255360D02*
X9488963Y-15512503D01*
X9917534Y-15264884D02*
X9936582Y-15264884D01*
X9936582Y-15264884D02*
X9955629Y-15274408D01*
X9955629Y-15274408D02*
X9965153Y-15283931D01*
X9965153Y-15283931D02*
X9974677Y-15302979D01*
X9974677Y-15302979D02*
X9984201Y-15341074D01*
X9984201Y-15341074D02*
X9984201Y-15388693D01*
X9984201Y-15388693D02*
X9974677Y-15426788D01*
X9974677Y-15426788D02*
X9965153Y-15445836D01*
X9965153Y-15445836D02*
X9955629Y-15455360D01*
X9955629Y-15455360D02*
X9936582Y-15464884D01*
X9936582Y-15464884D02*
X9917534Y-15464884D01*
X9917534Y-15464884D02*
X9898487Y-15455360D01*
X9898487Y-15455360D02*
X9888963Y-15445836D01*
X9888963Y-15445836D02*
X9879439Y-15426788D01*
X9879439Y-15426788D02*
X9869915Y-15388693D01*
X9869915Y-15388693D02*
X9869915Y-15341074D01*
X9869915Y-15341074D02*
X9879439Y-15302979D01*
X9879439Y-15302979D02*
X9888963Y-15283931D01*
X9888963Y-15283931D02*
X9898487Y-15274408D01*
X9898487Y-15274408D02*
X9917534Y-15264884D01*
X10069915Y-15445836D02*
X10079439Y-15455360D01*
X10079439Y-15455360D02*
X10069915Y-15464884D01*
X10069915Y-15464884D02*
X10060391Y-15455360D01*
X10060391Y-15455360D02*
X10069915Y-15445836D01*
X10069915Y-15445836D02*
X10069915Y-15464884D01*
X10203248Y-15264884D02*
X10222296Y-15264884D01*
X10222296Y-15264884D02*
X10241344Y-15274408D01*
X10241344Y-15274408D02*
X10250868Y-15283931D01*
X10250868Y-15283931D02*
X10260391Y-15302979D01*
X10260391Y-15302979D02*
X10269915Y-15341074D01*
X10269915Y-15341074D02*
X10269915Y-15388693D01*
X10269915Y-15388693D02*
X10260391Y-15426788D01*
X10260391Y-15426788D02*
X10250868Y-15445836D01*
X10250868Y-15445836D02*
X10241344Y-15455360D01*
X10241344Y-15455360D02*
X10222296Y-15464884D01*
X10222296Y-15464884D02*
X10203248Y-15464884D01*
X10203248Y-15464884D02*
X10184201Y-15455360D01*
X10184201Y-15455360D02*
X10174677Y-15445836D01*
X10174677Y-15445836D02*
X10165153Y-15426788D01*
X10165153Y-15426788D02*
X10155629Y-15388693D01*
X10155629Y-15388693D02*
X10155629Y-15341074D01*
X10155629Y-15341074D02*
X10165153Y-15302979D01*
X10165153Y-15302979D02*
X10174677Y-15283931D01*
X10174677Y-15283931D02*
X10184201Y-15274408D01*
X10184201Y-15274408D02*
X10203248Y-15264884D01*
X10346106Y-15283931D02*
X10355629Y-15274408D01*
X10355629Y-15274408D02*
X10374677Y-15264884D01*
X10374677Y-15264884D02*
X10422296Y-15264884D01*
X10422296Y-15264884D02*
X10441344Y-15274408D01*
X10441344Y-15274408D02*
X10450868Y-15283931D01*
X10450868Y-15283931D02*
X10460391Y-15302979D01*
X10460391Y-15302979D02*
X10460391Y-15322027D01*
X10460391Y-15322027D02*
X10450868Y-15350598D01*
X10450868Y-15350598D02*
X10336582Y-15464884D01*
X10336582Y-15464884D02*
X10460391Y-15464884D01*
X10641344Y-15264884D02*
X10546106Y-15264884D01*
X10546106Y-15264884D02*
X10536582Y-15360122D01*
X10536582Y-15360122D02*
X10546106Y-15350598D01*
X10546106Y-15350598D02*
X10565153Y-15341074D01*
X10565153Y-15341074D02*
X10612772Y-15341074D01*
X10612772Y-15341074D02*
X10631820Y-15350598D01*
X10631820Y-15350598D02*
X10641344Y-15360122D01*
X10641344Y-15360122D02*
X10650868Y-15379169D01*
X10650868Y-15379169D02*
X10650868Y-15426788D01*
X10650868Y-15426788D02*
X10641344Y-15445836D01*
X10641344Y-15445836D02*
X10631820Y-15455360D01*
X10631820Y-15455360D02*
X10612772Y-15464884D01*
X10612772Y-15464884D02*
X10565153Y-15464884D01*
X10565153Y-15464884D02*
X10546106Y-15455360D01*
X10546106Y-15455360D02*
X10536582Y-15445836D01*
X10822296Y-15264884D02*
X10784201Y-15264884D01*
X10784201Y-15264884D02*
X10765153Y-15274408D01*
X10765153Y-15274408D02*
X10755629Y-15283931D01*
X10755629Y-15283931D02*
X10736582Y-15312503D01*
X10736582Y-15312503D02*
X10727058Y-15350598D01*
X10727058Y-15350598D02*
X10727058Y-15426788D01*
X10727058Y-15426788D02*
X10736582Y-15445836D01*
X10736582Y-15445836D02*
X10746106Y-15455360D01*
X10746106Y-15455360D02*
X10765153Y-15464884D01*
X10765153Y-15464884D02*
X10803249Y-15464884D01*
X10803249Y-15464884D02*
X10822296Y-15455360D01*
X10822296Y-15455360D02*
X10831820Y-15445836D01*
X10831820Y-15445836D02*
X10841344Y-15426788D01*
X10841344Y-15426788D02*
X10841344Y-15379169D01*
X10841344Y-15379169D02*
X10831820Y-15360122D01*
X10831820Y-15360122D02*
X10822296Y-15350598D01*
X10822296Y-15350598D02*
X10803249Y-15341074D01*
X10803249Y-15341074D02*
X10765153Y-15341074D01*
X10765153Y-15341074D02*
X10746106Y-15350598D01*
X10746106Y-15350598D02*
X10736582Y-15360122D01*
X10736582Y-15360122D02*
X10727058Y-15379169D01*
X10917534Y-15264884D02*
X10917534Y-15302979D01*
X10993725Y-15264884D02*
X10993725Y-15302979D01*
X11288963Y-15541074D02*
X11279439Y-15531550D01*
X11279439Y-15531550D02*
X11260391Y-15502979D01*
X11260391Y-15502979D02*
X11250868Y-15483931D01*
X11250868Y-15483931D02*
X11241344Y-15455360D01*
X11241344Y-15455360D02*
X11231820Y-15407741D01*
X11231820Y-15407741D02*
X11231820Y-15369646D01*
X11231820Y-15369646D02*
X11241344Y-15322027D01*
X11241344Y-15322027D02*
X11250868Y-15293455D01*
X11250868Y-15293455D02*
X11260391Y-15274408D01*
X11260391Y-15274408D02*
X11279439Y-15245836D01*
X11279439Y-15245836D02*
X11288963Y-15236312D01*
X11355629Y-15283931D02*
X11365153Y-15274408D01*
X11365153Y-15274408D02*
X11384201Y-15264884D01*
X11384201Y-15264884D02*
X11431820Y-15264884D01*
X11431820Y-15264884D02*
X11450868Y-15274408D01*
X11450868Y-15274408D02*
X11460391Y-15283931D01*
X11460391Y-15283931D02*
X11469915Y-15302979D01*
X11469915Y-15302979D02*
X11469915Y-15322027D01*
X11469915Y-15322027D02*
X11460391Y-15350598D01*
X11460391Y-15350598D02*
X11346106Y-15464884D01*
X11346106Y-15464884D02*
X11469915Y-15464884D01*
X11708010Y-15464884D02*
X11708010Y-15264884D01*
X11793725Y-15464884D02*
X11793725Y-15360122D01*
X11793725Y-15360122D02*
X11784201Y-15341074D01*
X11784201Y-15341074D02*
X11765153Y-15331550D01*
X11765153Y-15331550D02*
X11736582Y-15331550D01*
X11736582Y-15331550D02*
X11717534Y-15341074D01*
X11717534Y-15341074D02*
X11708010Y-15350598D01*
X11917534Y-15464884D02*
X11898487Y-15455360D01*
X11898487Y-15455360D02*
X11888963Y-15445836D01*
X11888963Y-15445836D02*
X11879439Y-15426788D01*
X11879439Y-15426788D02*
X11879439Y-15369646D01*
X11879439Y-15369646D02*
X11888963Y-15350598D01*
X11888963Y-15350598D02*
X11898487Y-15341074D01*
X11898487Y-15341074D02*
X11917534Y-15331550D01*
X11917534Y-15331550D02*
X11946106Y-15331550D01*
X11946106Y-15331550D02*
X11965153Y-15341074D01*
X11965153Y-15341074D02*
X11974677Y-15350598D01*
X11974677Y-15350598D02*
X11984201Y-15369646D01*
X11984201Y-15369646D02*
X11984201Y-15426788D01*
X11984201Y-15426788D02*
X11974677Y-15445836D01*
X11974677Y-15445836D02*
X11965153Y-15455360D01*
X11965153Y-15455360D02*
X11946106Y-15464884D01*
X11946106Y-15464884D02*
X11917534Y-15464884D01*
X12098487Y-15464884D02*
X12079439Y-15455360D01*
X12079439Y-15455360D02*
X12069915Y-15436312D01*
X12069915Y-15436312D02*
X12069915Y-15264884D01*
X12250868Y-15455360D02*
X12231820Y-15464884D01*
X12231820Y-15464884D02*
X12193725Y-15464884D01*
X12193725Y-15464884D02*
X12174677Y-15455360D01*
X12174677Y-15455360D02*
X12165153Y-15436312D01*
X12165153Y-15436312D02*
X12165153Y-15360122D01*
X12165153Y-15360122D02*
X12174677Y-15341074D01*
X12174677Y-15341074D02*
X12193725Y-15331550D01*
X12193725Y-15331550D02*
X12231820Y-15331550D01*
X12231820Y-15331550D02*
X12250868Y-15341074D01*
X12250868Y-15341074D02*
X12260391Y-15360122D01*
X12260391Y-15360122D02*
X12260391Y-15379169D01*
X12260391Y-15379169D02*
X12165153Y-15398217D01*
X12336582Y-15455360D02*
X12355630Y-15464884D01*
X12355630Y-15464884D02*
X12393725Y-15464884D01*
X12393725Y-15464884D02*
X12412772Y-15455360D01*
X12412772Y-15455360D02*
X12422296Y-15436312D01*
X12422296Y-15436312D02*
X12422296Y-15426788D01*
X12422296Y-15426788D02*
X12412772Y-15407741D01*
X12412772Y-15407741D02*
X12393725Y-15398217D01*
X12393725Y-15398217D02*
X12365153Y-15398217D01*
X12365153Y-15398217D02*
X12346106Y-15388693D01*
X12346106Y-15388693D02*
X12336582Y-15369646D01*
X12336582Y-15369646D02*
X12336582Y-15360122D01*
X12336582Y-15360122D02*
X12346106Y-15341074D01*
X12346106Y-15341074D02*
X12365153Y-15331550D01*
X12365153Y-15331550D02*
X12393725Y-15331550D01*
X12393725Y-15331550D02*
X12412772Y-15341074D01*
X12488963Y-15541074D02*
X12498487Y-15531550D01*
X12498487Y-15531550D02*
X12517534Y-15502979D01*
X12517534Y-15502979D02*
X12527058Y-15483931D01*
X12527058Y-15483931D02*
X12536582Y-15455360D01*
X12536582Y-15455360D02*
X12546106Y-15407741D01*
X12546106Y-15407741D02*
X12546106Y-15369646D01*
X12546106Y-15369646D02*
X12536582Y-15322027D01*
X12536582Y-15322027D02*
X12527058Y-15293455D01*
X12527058Y-15293455D02*
X12517534Y-15274408D01*
X12517534Y-15274408D02*
X12498487Y-15245836D01*
X12498487Y-15245836D02*
X12488963Y-15236312D01*
X12850868Y-15541074D02*
X12841344Y-15531550D01*
X12841344Y-15531550D02*
X12822296Y-15502979D01*
X12822296Y-15502979D02*
X12812772Y-15483931D01*
X12812772Y-15483931D02*
X12803249Y-15455360D01*
X12803249Y-15455360D02*
X12793725Y-15407741D01*
X12793725Y-15407741D02*
X12793725Y-15369646D01*
X12793725Y-15369646D02*
X12803249Y-15322027D01*
X12803249Y-15322027D02*
X12812772Y-15293455D01*
X12812772Y-15293455D02*
X12822296Y-15274408D01*
X12822296Y-15274408D02*
X12841344Y-15245836D01*
X12841344Y-15245836D02*
X12850868Y-15236312D01*
X12927058Y-15331550D02*
X12927058Y-15464884D01*
X12927058Y-15350598D02*
X12936582Y-15341074D01*
X12936582Y-15341074D02*
X12955630Y-15331550D01*
X12955630Y-15331550D02*
X12984201Y-15331550D01*
X12984201Y-15331550D02*
X13003249Y-15341074D01*
X13003249Y-15341074D02*
X13012772Y-15360122D01*
X13012772Y-15360122D02*
X13012772Y-15464884D01*
X13136582Y-15464884D02*
X13117534Y-15455360D01*
X13117534Y-15455360D02*
X13108011Y-15445836D01*
X13108011Y-15445836D02*
X13098487Y-15426788D01*
X13098487Y-15426788D02*
X13098487Y-15369646D01*
X13098487Y-15369646D02*
X13108011Y-15350598D01*
X13108011Y-15350598D02*
X13117534Y-15341074D01*
X13117534Y-15341074D02*
X13136582Y-15331550D01*
X13136582Y-15331550D02*
X13165153Y-15331550D01*
X13165153Y-15331550D02*
X13184201Y-15341074D01*
X13184201Y-15341074D02*
X13193725Y-15350598D01*
X13193725Y-15350598D02*
X13203249Y-15369646D01*
X13203249Y-15369646D02*
X13203249Y-15426788D01*
X13203249Y-15426788D02*
X13193725Y-15445836D01*
X13193725Y-15445836D02*
X13184201Y-15455360D01*
X13184201Y-15455360D02*
X13165153Y-15464884D01*
X13165153Y-15464884D02*
X13136582Y-15464884D01*
X13260392Y-15331550D02*
X13336582Y-15331550D01*
X13288963Y-15264884D02*
X13288963Y-15436312D01*
X13288963Y-15436312D02*
X13298487Y-15455360D01*
X13298487Y-15455360D02*
X13317534Y-15464884D01*
X13317534Y-15464884D02*
X13336582Y-15464884D01*
X13555630Y-15331550D02*
X13555630Y-15531550D01*
X13555630Y-15341074D02*
X13574677Y-15331550D01*
X13574677Y-15331550D02*
X13612773Y-15331550D01*
X13612773Y-15331550D02*
X13631820Y-15341074D01*
X13631820Y-15341074D02*
X13641344Y-15350598D01*
X13641344Y-15350598D02*
X13650868Y-15369646D01*
X13650868Y-15369646D02*
X13650868Y-15426788D01*
X13650868Y-15426788D02*
X13641344Y-15445836D01*
X13641344Y-15445836D02*
X13631820Y-15455360D01*
X13631820Y-15455360D02*
X13612773Y-15464884D01*
X13612773Y-15464884D02*
X13574677Y-15464884D01*
X13574677Y-15464884D02*
X13555630Y-15455360D01*
X13765153Y-15464884D02*
X13746106Y-15455360D01*
X13746106Y-15455360D02*
X13736582Y-15436312D01*
X13736582Y-15436312D02*
X13736582Y-15264884D01*
X13927058Y-15464884D02*
X13927058Y-15360122D01*
X13927058Y-15360122D02*
X13917534Y-15341074D01*
X13917534Y-15341074D02*
X13898487Y-15331550D01*
X13898487Y-15331550D02*
X13860392Y-15331550D01*
X13860392Y-15331550D02*
X13841344Y-15341074D01*
X13927058Y-15455360D02*
X13908011Y-15464884D01*
X13908011Y-15464884D02*
X13860392Y-15464884D01*
X13860392Y-15464884D02*
X13841344Y-15455360D01*
X13841344Y-15455360D02*
X13831820Y-15436312D01*
X13831820Y-15436312D02*
X13831820Y-15417265D01*
X13831820Y-15417265D02*
X13841344Y-15398217D01*
X13841344Y-15398217D02*
X13860392Y-15388693D01*
X13860392Y-15388693D02*
X13908011Y-15388693D01*
X13908011Y-15388693D02*
X13927058Y-15379169D01*
X13993725Y-15331550D02*
X14069915Y-15331550D01*
X14022296Y-15264884D02*
X14022296Y-15436312D01*
X14022296Y-15436312D02*
X14031820Y-15455360D01*
X14031820Y-15455360D02*
X14050868Y-15464884D01*
X14050868Y-15464884D02*
X14069915Y-15464884D01*
X14212773Y-15455360D02*
X14193725Y-15464884D01*
X14193725Y-15464884D02*
X14155630Y-15464884D01*
X14155630Y-15464884D02*
X14136582Y-15455360D01*
X14136582Y-15455360D02*
X14127058Y-15436312D01*
X14127058Y-15436312D02*
X14127058Y-15360122D01*
X14127058Y-15360122D02*
X14136582Y-15341074D01*
X14136582Y-15341074D02*
X14155630Y-15331550D01*
X14155630Y-15331550D02*
X14193725Y-15331550D01*
X14193725Y-15331550D02*
X14212773Y-15341074D01*
X14212773Y-15341074D02*
X14222296Y-15360122D01*
X14222296Y-15360122D02*
X14222296Y-15379169D01*
X14222296Y-15379169D02*
X14127058Y-15398217D01*
X14393725Y-15464884D02*
X14393725Y-15264884D01*
X14393725Y-15455360D02*
X14374677Y-15464884D01*
X14374677Y-15464884D02*
X14336582Y-15464884D01*
X14336582Y-15464884D02*
X14317534Y-15455360D01*
X14317534Y-15455360D02*
X14308011Y-15445836D01*
X14308011Y-15445836D02*
X14298487Y-15426788D01*
X14298487Y-15426788D02*
X14298487Y-15369646D01*
X14298487Y-15369646D02*
X14308011Y-15350598D01*
X14308011Y-15350598D02*
X14317534Y-15341074D01*
X14317534Y-15341074D02*
X14336582Y-15331550D01*
X14336582Y-15331550D02*
X14374677Y-15331550D01*
X14374677Y-15331550D02*
X14393725Y-15341074D01*
X14469915Y-15541074D02*
X14479439Y-15531550D01*
X14479439Y-15531550D02*
X14498487Y-15502979D01*
X14498487Y-15502979D02*
X14508011Y-15483931D01*
X14508011Y-15483931D02*
X14517534Y-15455360D01*
X14517534Y-15455360D02*
X14527058Y-15407741D01*
X14527058Y-15407741D02*
X14527058Y-15369646D01*
X14527058Y-15369646D02*
X14517534Y-15322027D01*
X14517534Y-15322027D02*
X14508011Y-15293455D01*
X14508011Y-15293455D02*
X14498487Y-15274408D01*
X14498487Y-15274408D02*
X14479439Y-15245836D01*
X14479439Y-15245836D02*
X14469915Y-15236312D01*
D10*
X7713900Y-15637400D02*
G75*
G02*
X7623900Y-15637400I-45000J0D01*
G01*
X7623900Y-15637400D02*
G75*
G02*
X7713900Y-15637400I45000J0D01*
G01*
D11*
X8012772Y-15528884D02*
X8031820Y-15528884D01*
X8031820Y-15528884D02*
X8050867Y-15538408D01*
X8050867Y-15538408D02*
X8060391Y-15547931D01*
X8060391Y-15547931D02*
X8069915Y-15566979D01*
X8069915Y-15566979D02*
X8079439Y-15605074D01*
X8079439Y-15605074D02*
X8079439Y-15652693D01*
X8079439Y-15652693D02*
X8069915Y-15690788D01*
X8069915Y-15690788D02*
X8060391Y-15709836D01*
X8060391Y-15709836D02*
X8050867Y-15719360D01*
X8050867Y-15719360D02*
X8031820Y-15728884D01*
X8031820Y-15728884D02*
X8012772Y-15728884D01*
X8012772Y-15728884D02*
X7993724Y-15719360D01*
X7993724Y-15719360D02*
X7984201Y-15709836D01*
X7984201Y-15709836D02*
X7974677Y-15690788D01*
X7974677Y-15690788D02*
X7965153Y-15652693D01*
X7965153Y-15652693D02*
X7965153Y-15605074D01*
X7965153Y-15605074D02*
X7974677Y-15566979D01*
X7974677Y-15566979D02*
X7984201Y-15547931D01*
X7984201Y-15547931D02*
X7993724Y-15538408D01*
X7993724Y-15538408D02*
X8012772Y-15528884D01*
X8165153Y-15709836D02*
X8174677Y-15719360D01*
X8174677Y-15719360D02*
X8165153Y-15728884D01*
X8165153Y-15728884D02*
X8155629Y-15719360D01*
X8155629Y-15719360D02*
X8165153Y-15709836D01*
X8165153Y-15709836D02*
X8165153Y-15728884D01*
X8269915Y-15728884D02*
X8308010Y-15728884D01*
X8308010Y-15728884D02*
X8327058Y-15719360D01*
X8327058Y-15719360D02*
X8336582Y-15709836D01*
X8336582Y-15709836D02*
X8355629Y-15681265D01*
X8355629Y-15681265D02*
X8365153Y-15643169D01*
X8365153Y-15643169D02*
X8365153Y-15566979D01*
X8365153Y-15566979D02*
X8355629Y-15547931D01*
X8355629Y-15547931D02*
X8346105Y-15538408D01*
X8346105Y-15538408D02*
X8327058Y-15528884D01*
X8327058Y-15528884D02*
X8288962Y-15528884D01*
X8288962Y-15528884D02*
X8269915Y-15538408D01*
X8269915Y-15538408D02*
X8260391Y-15547931D01*
X8260391Y-15547931D02*
X8250867Y-15566979D01*
X8250867Y-15566979D02*
X8250867Y-15614598D01*
X8250867Y-15614598D02*
X8260391Y-15633646D01*
X8260391Y-15633646D02*
X8269915Y-15643169D01*
X8269915Y-15643169D02*
X8288962Y-15652693D01*
X8288962Y-15652693D02*
X8327058Y-15652693D01*
X8327058Y-15652693D02*
X8346105Y-15643169D01*
X8346105Y-15643169D02*
X8355629Y-15633646D01*
X8355629Y-15633646D02*
X8365153Y-15614598D01*
X8488963Y-15528884D02*
X8508010Y-15528884D01*
X8508010Y-15528884D02*
X8527058Y-15538408D01*
X8527058Y-15538408D02*
X8536582Y-15547931D01*
X8536582Y-15547931D02*
X8546105Y-15566979D01*
X8546105Y-15566979D02*
X8555629Y-15605074D01*
X8555629Y-15605074D02*
X8555629Y-15652693D01*
X8555629Y-15652693D02*
X8546105Y-15690788D01*
X8546105Y-15690788D02*
X8536582Y-15709836D01*
X8536582Y-15709836D02*
X8527058Y-15719360D01*
X8527058Y-15719360D02*
X8508010Y-15728884D01*
X8508010Y-15728884D02*
X8488963Y-15728884D01*
X8488963Y-15728884D02*
X8469915Y-15719360D01*
X8469915Y-15719360D02*
X8460391Y-15709836D01*
X8460391Y-15709836D02*
X8450867Y-15690788D01*
X8450867Y-15690788D02*
X8441344Y-15652693D01*
X8441344Y-15652693D02*
X8441344Y-15605074D01*
X8441344Y-15605074D02*
X8450867Y-15566979D01*
X8450867Y-15566979D02*
X8460391Y-15547931D01*
X8460391Y-15547931D02*
X8469915Y-15538408D01*
X8469915Y-15538408D02*
X8488963Y-15528884D01*
X8679439Y-15528884D02*
X8698486Y-15528884D01*
X8698486Y-15528884D02*
X8717534Y-15538408D01*
X8717534Y-15538408D02*
X8727058Y-15547931D01*
X8727058Y-15547931D02*
X8736582Y-15566979D01*
X8736582Y-15566979D02*
X8746105Y-15605074D01*
X8746105Y-15605074D02*
X8746105Y-15652693D01*
X8746105Y-15652693D02*
X8736582Y-15690788D01*
X8736582Y-15690788D02*
X8727058Y-15709836D01*
X8727058Y-15709836D02*
X8717534Y-15719360D01*
X8717534Y-15719360D02*
X8698486Y-15728884D01*
X8698486Y-15728884D02*
X8679439Y-15728884D01*
X8679439Y-15728884D02*
X8660391Y-15719360D01*
X8660391Y-15719360D02*
X8650867Y-15709836D01*
X8650867Y-15709836D02*
X8641344Y-15690788D01*
X8641344Y-15690788D02*
X8631820Y-15652693D01*
X8631820Y-15652693D02*
X8631820Y-15605074D01*
X8631820Y-15605074D02*
X8641344Y-15566979D01*
X8641344Y-15566979D02*
X8650867Y-15547931D01*
X8650867Y-15547931D02*
X8660391Y-15538408D01*
X8660391Y-15538408D02*
X8679439Y-15528884D01*
X8831820Y-15728884D02*
X8831820Y-15595550D01*
X8831820Y-15614598D02*
X8841344Y-15605074D01*
X8841344Y-15605074D02*
X8860391Y-15595550D01*
X8860391Y-15595550D02*
X8888963Y-15595550D01*
X8888963Y-15595550D02*
X8908010Y-15605074D01*
X8908010Y-15605074D02*
X8917534Y-15624122D01*
X8917534Y-15624122D02*
X8917534Y-15728884D01*
X8917534Y-15624122D02*
X8927058Y-15605074D01*
X8927058Y-15605074D02*
X8946105Y-15595550D01*
X8946105Y-15595550D02*
X8974677Y-15595550D01*
X8974677Y-15595550D02*
X8993725Y-15605074D01*
X8993725Y-15605074D02*
X9003248Y-15624122D01*
X9003248Y-15624122D02*
X9003248Y-15728884D01*
X9098486Y-15728884D02*
X9098486Y-15595550D01*
X9098486Y-15614598D02*
X9108010Y-15605074D01*
X9108010Y-15605074D02*
X9127058Y-15595550D01*
X9127058Y-15595550D02*
X9155629Y-15595550D01*
X9155629Y-15595550D02*
X9174677Y-15605074D01*
X9174677Y-15605074D02*
X9184201Y-15624122D01*
X9184201Y-15624122D02*
X9184201Y-15728884D01*
X9184201Y-15624122D02*
X9193725Y-15605074D01*
X9193725Y-15605074D02*
X9212772Y-15595550D01*
X9212772Y-15595550D02*
X9241344Y-15595550D01*
X9241344Y-15595550D02*
X9260391Y-15605074D01*
X9260391Y-15605074D02*
X9269915Y-15624122D01*
X9269915Y-15624122D02*
X9269915Y-15728884D01*
X9660391Y-15519360D02*
X9488963Y-15776503D01*
X9917534Y-15528884D02*
X9936582Y-15528884D01*
X9936582Y-15528884D02*
X9955629Y-15538408D01*
X9955629Y-15538408D02*
X9965153Y-15547931D01*
X9965153Y-15547931D02*
X9974677Y-15566979D01*
X9974677Y-15566979D02*
X9984201Y-15605074D01*
X9984201Y-15605074D02*
X9984201Y-15652693D01*
X9984201Y-15652693D02*
X9974677Y-15690788D01*
X9974677Y-15690788D02*
X9965153Y-15709836D01*
X9965153Y-15709836D02*
X9955629Y-15719360D01*
X9955629Y-15719360D02*
X9936582Y-15728884D01*
X9936582Y-15728884D02*
X9917534Y-15728884D01*
X9917534Y-15728884D02*
X9898487Y-15719360D01*
X9898487Y-15719360D02*
X9888963Y-15709836D01*
X9888963Y-15709836D02*
X9879439Y-15690788D01*
X9879439Y-15690788D02*
X9869915Y-15652693D01*
X9869915Y-15652693D02*
X9869915Y-15605074D01*
X9869915Y-15605074D02*
X9879439Y-15566979D01*
X9879439Y-15566979D02*
X9888963Y-15547931D01*
X9888963Y-15547931D02*
X9898487Y-15538408D01*
X9898487Y-15538408D02*
X9917534Y-15528884D01*
X10069915Y-15709836D02*
X10079439Y-15719360D01*
X10079439Y-15719360D02*
X10069915Y-15728884D01*
X10069915Y-15728884D02*
X10060391Y-15719360D01*
X10060391Y-15719360D02*
X10069915Y-15709836D01*
X10069915Y-15709836D02*
X10069915Y-15728884D01*
X10203248Y-15528884D02*
X10222296Y-15528884D01*
X10222296Y-15528884D02*
X10241344Y-15538408D01*
X10241344Y-15538408D02*
X10250868Y-15547931D01*
X10250868Y-15547931D02*
X10260391Y-15566979D01*
X10260391Y-15566979D02*
X10269915Y-15605074D01*
X10269915Y-15605074D02*
X10269915Y-15652693D01*
X10269915Y-15652693D02*
X10260391Y-15690788D01*
X10260391Y-15690788D02*
X10250868Y-15709836D01*
X10250868Y-15709836D02*
X10241344Y-15719360D01*
X10241344Y-15719360D02*
X10222296Y-15728884D01*
X10222296Y-15728884D02*
X10203248Y-15728884D01*
X10203248Y-15728884D02*
X10184201Y-15719360D01*
X10184201Y-15719360D02*
X10174677Y-15709836D01*
X10174677Y-15709836D02*
X10165153Y-15690788D01*
X10165153Y-15690788D02*
X10155629Y-15652693D01*
X10155629Y-15652693D02*
X10155629Y-15605074D01*
X10155629Y-15605074D02*
X10165153Y-15566979D01*
X10165153Y-15566979D02*
X10174677Y-15547931D01*
X10174677Y-15547931D02*
X10184201Y-15538408D01*
X10184201Y-15538408D02*
X10203248Y-15528884D01*
X10336582Y-15528884D02*
X10460391Y-15528884D01*
X10460391Y-15528884D02*
X10393725Y-15605074D01*
X10393725Y-15605074D02*
X10422296Y-15605074D01*
X10422296Y-15605074D02*
X10441344Y-15614598D01*
X10441344Y-15614598D02*
X10450868Y-15624122D01*
X10450868Y-15624122D02*
X10460391Y-15643169D01*
X10460391Y-15643169D02*
X10460391Y-15690788D01*
X10460391Y-15690788D02*
X10450868Y-15709836D01*
X10450868Y-15709836D02*
X10441344Y-15719360D01*
X10441344Y-15719360D02*
X10422296Y-15728884D01*
X10422296Y-15728884D02*
X10365153Y-15728884D01*
X10365153Y-15728884D02*
X10346106Y-15719360D01*
X10346106Y-15719360D02*
X10336582Y-15709836D01*
X10641344Y-15528884D02*
X10546106Y-15528884D01*
X10546106Y-15528884D02*
X10536582Y-15624122D01*
X10536582Y-15624122D02*
X10546106Y-15614598D01*
X10546106Y-15614598D02*
X10565153Y-15605074D01*
X10565153Y-15605074D02*
X10612772Y-15605074D01*
X10612772Y-15605074D02*
X10631820Y-15614598D01*
X10631820Y-15614598D02*
X10641344Y-15624122D01*
X10641344Y-15624122D02*
X10650868Y-15643169D01*
X10650868Y-15643169D02*
X10650868Y-15690788D01*
X10650868Y-15690788D02*
X10641344Y-15709836D01*
X10641344Y-15709836D02*
X10631820Y-15719360D01*
X10631820Y-15719360D02*
X10612772Y-15728884D01*
X10612772Y-15728884D02*
X10565153Y-15728884D01*
X10565153Y-15728884D02*
X10546106Y-15719360D01*
X10546106Y-15719360D02*
X10536582Y-15709836D01*
X10822296Y-15595550D02*
X10822296Y-15728884D01*
X10774677Y-15519360D02*
X10727058Y-15662217D01*
X10727058Y-15662217D02*
X10850868Y-15662217D01*
X10917534Y-15528884D02*
X10917534Y-15566979D01*
X10993725Y-15528884D02*
X10993725Y-15566979D01*
X11288963Y-15805074D02*
X11279439Y-15795550D01*
X11279439Y-15795550D02*
X11260391Y-15766979D01*
X11260391Y-15766979D02*
X11250868Y-15747931D01*
X11250868Y-15747931D02*
X11241344Y-15719360D01*
X11241344Y-15719360D02*
X11231820Y-15671741D01*
X11231820Y-15671741D02*
X11231820Y-15633646D01*
X11231820Y-15633646D02*
X11241344Y-15586027D01*
X11241344Y-15586027D02*
X11250868Y-15557455D01*
X11250868Y-15557455D02*
X11260391Y-15538408D01*
X11260391Y-15538408D02*
X11279439Y-15509836D01*
X11279439Y-15509836D02*
X11288963Y-15500312D01*
X11450868Y-15595550D02*
X11450868Y-15728884D01*
X11403248Y-15519360D02*
X11355629Y-15662217D01*
X11355629Y-15662217D02*
X11479439Y-15662217D01*
X11708010Y-15728884D02*
X11708010Y-15528884D01*
X11793725Y-15728884D02*
X11793725Y-15624122D01*
X11793725Y-15624122D02*
X11784201Y-15605074D01*
X11784201Y-15605074D02*
X11765153Y-15595550D01*
X11765153Y-15595550D02*
X11736582Y-15595550D01*
X11736582Y-15595550D02*
X11717534Y-15605074D01*
X11717534Y-15605074D02*
X11708010Y-15614598D01*
X11917534Y-15728884D02*
X11898487Y-15719360D01*
X11898487Y-15719360D02*
X11888963Y-15709836D01*
X11888963Y-15709836D02*
X11879439Y-15690788D01*
X11879439Y-15690788D02*
X11879439Y-15633646D01*
X11879439Y-15633646D02*
X11888963Y-15614598D01*
X11888963Y-15614598D02*
X11898487Y-15605074D01*
X11898487Y-15605074D02*
X11917534Y-15595550D01*
X11917534Y-15595550D02*
X11946106Y-15595550D01*
X11946106Y-15595550D02*
X11965153Y-15605074D01*
X11965153Y-15605074D02*
X11974677Y-15614598D01*
X11974677Y-15614598D02*
X11984201Y-15633646D01*
X11984201Y-15633646D02*
X11984201Y-15690788D01*
X11984201Y-15690788D02*
X11974677Y-15709836D01*
X11974677Y-15709836D02*
X11965153Y-15719360D01*
X11965153Y-15719360D02*
X11946106Y-15728884D01*
X11946106Y-15728884D02*
X11917534Y-15728884D01*
X12098487Y-15728884D02*
X12079439Y-15719360D01*
X12079439Y-15719360D02*
X12069915Y-15700312D01*
X12069915Y-15700312D02*
X12069915Y-15528884D01*
X12250868Y-15719360D02*
X12231820Y-15728884D01*
X12231820Y-15728884D02*
X12193725Y-15728884D01*
X12193725Y-15728884D02*
X12174677Y-15719360D01*
X12174677Y-15719360D02*
X12165153Y-15700312D01*
X12165153Y-15700312D02*
X12165153Y-15624122D01*
X12165153Y-15624122D02*
X12174677Y-15605074D01*
X12174677Y-15605074D02*
X12193725Y-15595550D01*
X12193725Y-15595550D02*
X12231820Y-15595550D01*
X12231820Y-15595550D02*
X12250868Y-15605074D01*
X12250868Y-15605074D02*
X12260391Y-15624122D01*
X12260391Y-15624122D02*
X12260391Y-15643169D01*
X12260391Y-15643169D02*
X12165153Y-15662217D01*
X12336582Y-15719360D02*
X12355630Y-15728884D01*
X12355630Y-15728884D02*
X12393725Y-15728884D01*
X12393725Y-15728884D02*
X12412772Y-15719360D01*
X12412772Y-15719360D02*
X12422296Y-15700312D01*
X12422296Y-15700312D02*
X12422296Y-15690788D01*
X12422296Y-15690788D02*
X12412772Y-15671741D01*
X12412772Y-15671741D02*
X12393725Y-15662217D01*
X12393725Y-15662217D02*
X12365153Y-15662217D01*
X12365153Y-15662217D02*
X12346106Y-15652693D01*
X12346106Y-15652693D02*
X12336582Y-15633646D01*
X12336582Y-15633646D02*
X12336582Y-15624122D01*
X12336582Y-15624122D02*
X12346106Y-15605074D01*
X12346106Y-15605074D02*
X12365153Y-15595550D01*
X12365153Y-15595550D02*
X12393725Y-15595550D01*
X12393725Y-15595550D02*
X12412772Y-15605074D01*
X12488963Y-15805074D02*
X12498487Y-15795550D01*
X12498487Y-15795550D02*
X12517534Y-15766979D01*
X12517534Y-15766979D02*
X12527058Y-15747931D01*
X12527058Y-15747931D02*
X12536582Y-15719360D01*
X12536582Y-15719360D02*
X12546106Y-15671741D01*
X12546106Y-15671741D02*
X12546106Y-15633646D01*
X12546106Y-15633646D02*
X12536582Y-15586027D01*
X12536582Y-15586027D02*
X12527058Y-15557455D01*
X12527058Y-15557455D02*
X12517534Y-15538408D01*
X12517534Y-15538408D02*
X12498487Y-15509836D01*
X12498487Y-15509836D02*
X12488963Y-15500312D01*
X12850868Y-15805074D02*
X12841344Y-15795550D01*
X12841344Y-15795550D02*
X12822296Y-15766979D01*
X12822296Y-15766979D02*
X12812772Y-15747931D01*
X12812772Y-15747931D02*
X12803249Y-15719360D01*
X12803249Y-15719360D02*
X12793725Y-15671741D01*
X12793725Y-15671741D02*
X12793725Y-15633646D01*
X12793725Y-15633646D02*
X12803249Y-15586027D01*
X12803249Y-15586027D02*
X12812772Y-15557455D01*
X12812772Y-15557455D02*
X12822296Y-15538408D01*
X12822296Y-15538408D02*
X12841344Y-15509836D01*
X12841344Y-15509836D02*
X12850868Y-15500312D01*
X12927058Y-15595550D02*
X12927058Y-15728884D01*
X12927058Y-15614598D02*
X12936582Y-15605074D01*
X12936582Y-15605074D02*
X12955630Y-15595550D01*
X12955630Y-15595550D02*
X12984201Y-15595550D01*
X12984201Y-15595550D02*
X13003249Y-15605074D01*
X13003249Y-15605074D02*
X13012772Y-15624122D01*
X13012772Y-15624122D02*
X13012772Y-15728884D01*
X13136582Y-15728884D02*
X13117534Y-15719360D01*
X13117534Y-15719360D02*
X13108011Y-15709836D01*
X13108011Y-15709836D02*
X13098487Y-15690788D01*
X13098487Y-15690788D02*
X13098487Y-15633646D01*
X13098487Y-15633646D02*
X13108011Y-15614598D01*
X13108011Y-15614598D02*
X13117534Y-15605074D01*
X13117534Y-15605074D02*
X13136582Y-15595550D01*
X13136582Y-15595550D02*
X13165153Y-15595550D01*
X13165153Y-15595550D02*
X13184201Y-15605074D01*
X13184201Y-15605074D02*
X13193725Y-15614598D01*
X13193725Y-15614598D02*
X13203249Y-15633646D01*
X13203249Y-15633646D02*
X13203249Y-15690788D01*
X13203249Y-15690788D02*
X13193725Y-15709836D01*
X13193725Y-15709836D02*
X13184201Y-15719360D01*
X13184201Y-15719360D02*
X13165153Y-15728884D01*
X13165153Y-15728884D02*
X13136582Y-15728884D01*
X13260392Y-15595550D02*
X13336582Y-15595550D01*
X13288963Y-15528884D02*
X13288963Y-15700312D01*
X13288963Y-15700312D02*
X13298487Y-15719360D01*
X13298487Y-15719360D02*
X13317534Y-15728884D01*
X13317534Y-15728884D02*
X13336582Y-15728884D01*
X13555630Y-15595550D02*
X13555630Y-15795550D01*
X13555630Y-15605074D02*
X13574677Y-15595550D01*
X13574677Y-15595550D02*
X13612773Y-15595550D01*
X13612773Y-15595550D02*
X13631820Y-15605074D01*
X13631820Y-15605074D02*
X13641344Y-15614598D01*
X13641344Y-15614598D02*
X13650868Y-15633646D01*
X13650868Y-15633646D02*
X13650868Y-15690788D01*
X13650868Y-15690788D02*
X13641344Y-15709836D01*
X13641344Y-15709836D02*
X13631820Y-15719360D01*
X13631820Y-15719360D02*
X13612773Y-15728884D01*
X13612773Y-15728884D02*
X13574677Y-15728884D01*
X13574677Y-15728884D02*
X13555630Y-15719360D01*
X13765153Y-15728884D02*
X13746106Y-15719360D01*
X13746106Y-15719360D02*
X13736582Y-15700312D01*
X13736582Y-15700312D02*
X13736582Y-15528884D01*
X13927058Y-15728884D02*
X13927058Y-15624122D01*
X13927058Y-15624122D02*
X13917534Y-15605074D01*
X13917534Y-15605074D02*
X13898487Y-15595550D01*
X13898487Y-15595550D02*
X13860392Y-15595550D01*
X13860392Y-15595550D02*
X13841344Y-15605074D01*
X13927058Y-15719360D02*
X13908011Y-15728884D01*
X13908011Y-15728884D02*
X13860392Y-15728884D01*
X13860392Y-15728884D02*
X13841344Y-15719360D01*
X13841344Y-15719360D02*
X13831820Y-15700312D01*
X13831820Y-15700312D02*
X13831820Y-15681265D01*
X13831820Y-15681265D02*
X13841344Y-15662217D01*
X13841344Y-15662217D02*
X13860392Y-15652693D01*
X13860392Y-15652693D02*
X13908011Y-15652693D01*
X13908011Y-15652693D02*
X13927058Y-15643169D01*
X13993725Y-15595550D02*
X14069915Y-15595550D01*
X14022296Y-15528884D02*
X14022296Y-15700312D01*
X14022296Y-15700312D02*
X14031820Y-15719360D01*
X14031820Y-15719360D02*
X14050868Y-15728884D01*
X14050868Y-15728884D02*
X14069915Y-15728884D01*
X14212773Y-15719360D02*
X14193725Y-15728884D01*
X14193725Y-15728884D02*
X14155630Y-15728884D01*
X14155630Y-15728884D02*
X14136582Y-15719360D01*
X14136582Y-15719360D02*
X14127058Y-15700312D01*
X14127058Y-15700312D02*
X14127058Y-15624122D01*
X14127058Y-15624122D02*
X14136582Y-15605074D01*
X14136582Y-15605074D02*
X14155630Y-15595550D01*
X14155630Y-15595550D02*
X14193725Y-15595550D01*
X14193725Y-15595550D02*
X14212773Y-15605074D01*
X14212773Y-15605074D02*
X14222296Y-15624122D01*
X14222296Y-15624122D02*
X14222296Y-15643169D01*
X14222296Y-15643169D02*
X14127058Y-15662217D01*
X14393725Y-15728884D02*
X14393725Y-15528884D01*
X14393725Y-15719360D02*
X14374677Y-15728884D01*
X14374677Y-15728884D02*
X14336582Y-15728884D01*
X14336582Y-15728884D02*
X14317534Y-15719360D01*
X14317534Y-15719360D02*
X14308011Y-15709836D01*
X14308011Y-15709836D02*
X14298487Y-15690788D01*
X14298487Y-15690788D02*
X14298487Y-15633646D01*
X14298487Y-15633646D02*
X14308011Y-15614598D01*
X14308011Y-15614598D02*
X14317534Y-15605074D01*
X14317534Y-15605074D02*
X14336582Y-15595550D01*
X14336582Y-15595550D02*
X14374677Y-15595550D01*
X14374677Y-15595550D02*
X14393725Y-15605074D01*
X14469915Y-15805074D02*
X14479439Y-15795550D01*
X14479439Y-15795550D02*
X14498487Y-15766979D01*
X14498487Y-15766979D02*
X14508011Y-15747931D01*
X14508011Y-15747931D02*
X14517534Y-15719360D01*
X14517534Y-15719360D02*
X14527058Y-15671741D01*
X14527058Y-15671741D02*
X14527058Y-15633646D01*
X14527058Y-15633646D02*
X14517534Y-15586027D01*
X14517534Y-15586027D02*
X14508011Y-15557455D01*
X14508011Y-15557455D02*
X14498487Y-15538408D01*
X14498487Y-15538408D02*
X14479439Y-15509836D01*
X14479439Y-15509836D02*
X14469915Y-15500312D01*
D10*
X7664370Y-15851870D02*
X7664370Y-15950930D01*
X7614840Y-15901400D02*
X7713900Y-15901400D01*
D11*
X8012772Y-15792884D02*
X8031820Y-15792884D01*
X8031820Y-15792884D02*
X8050867Y-15802408D01*
X8050867Y-15802408D02*
X8060391Y-15811931D01*
X8060391Y-15811931D02*
X8069915Y-15830979D01*
X8069915Y-15830979D02*
X8079439Y-15869074D01*
X8079439Y-15869074D02*
X8079439Y-15916693D01*
X8079439Y-15916693D02*
X8069915Y-15954788D01*
X8069915Y-15954788D02*
X8060391Y-15973836D01*
X8060391Y-15973836D02*
X8050867Y-15983360D01*
X8050867Y-15983360D02*
X8031820Y-15992884D01*
X8031820Y-15992884D02*
X8012772Y-15992884D01*
X8012772Y-15992884D02*
X7993724Y-15983360D01*
X7993724Y-15983360D02*
X7984201Y-15973836D01*
X7984201Y-15973836D02*
X7974677Y-15954788D01*
X7974677Y-15954788D02*
X7965153Y-15916693D01*
X7965153Y-15916693D02*
X7965153Y-15869074D01*
X7965153Y-15869074D02*
X7974677Y-15830979D01*
X7974677Y-15830979D02*
X7984201Y-15811931D01*
X7984201Y-15811931D02*
X7993724Y-15802408D01*
X7993724Y-15802408D02*
X8012772Y-15792884D01*
X8165153Y-15973836D02*
X8174677Y-15983360D01*
X8174677Y-15983360D02*
X8165153Y-15992884D01*
X8165153Y-15992884D02*
X8155629Y-15983360D01*
X8155629Y-15983360D02*
X8165153Y-15973836D01*
X8165153Y-15973836D02*
X8165153Y-15992884D01*
X8269915Y-15992884D02*
X8308010Y-15992884D01*
X8308010Y-15992884D02*
X8327058Y-15983360D01*
X8327058Y-15983360D02*
X8336582Y-15973836D01*
X8336582Y-15973836D02*
X8355629Y-15945265D01*
X8355629Y-15945265D02*
X8365153Y-15907169D01*
X8365153Y-15907169D02*
X8365153Y-15830979D01*
X8365153Y-15830979D02*
X8355629Y-15811931D01*
X8355629Y-15811931D02*
X8346105Y-15802408D01*
X8346105Y-15802408D02*
X8327058Y-15792884D01*
X8327058Y-15792884D02*
X8288962Y-15792884D01*
X8288962Y-15792884D02*
X8269915Y-15802408D01*
X8269915Y-15802408D02*
X8260391Y-15811931D01*
X8260391Y-15811931D02*
X8250867Y-15830979D01*
X8250867Y-15830979D02*
X8250867Y-15878598D01*
X8250867Y-15878598D02*
X8260391Y-15897646D01*
X8260391Y-15897646D02*
X8269915Y-15907169D01*
X8269915Y-15907169D02*
X8288962Y-15916693D01*
X8288962Y-15916693D02*
X8327058Y-15916693D01*
X8327058Y-15916693D02*
X8346105Y-15907169D01*
X8346105Y-15907169D02*
X8355629Y-15897646D01*
X8355629Y-15897646D02*
X8365153Y-15878598D01*
X8460391Y-15992884D02*
X8498486Y-15992884D01*
X8498486Y-15992884D02*
X8517534Y-15983360D01*
X8517534Y-15983360D02*
X8527058Y-15973836D01*
X8527058Y-15973836D02*
X8546105Y-15945265D01*
X8546105Y-15945265D02*
X8555629Y-15907169D01*
X8555629Y-15907169D02*
X8555629Y-15830979D01*
X8555629Y-15830979D02*
X8546105Y-15811931D01*
X8546105Y-15811931D02*
X8536582Y-15802408D01*
X8536582Y-15802408D02*
X8517534Y-15792884D01*
X8517534Y-15792884D02*
X8479439Y-15792884D01*
X8479439Y-15792884D02*
X8460391Y-15802408D01*
X8460391Y-15802408D02*
X8450867Y-15811931D01*
X8450867Y-15811931D02*
X8441344Y-15830979D01*
X8441344Y-15830979D02*
X8441344Y-15878598D01*
X8441344Y-15878598D02*
X8450867Y-15897646D01*
X8450867Y-15897646D02*
X8460391Y-15907169D01*
X8460391Y-15907169D02*
X8479439Y-15916693D01*
X8479439Y-15916693D02*
X8517534Y-15916693D01*
X8517534Y-15916693D02*
X8536582Y-15907169D01*
X8536582Y-15907169D02*
X8546105Y-15897646D01*
X8546105Y-15897646D02*
X8555629Y-15878598D01*
X8746105Y-15992884D02*
X8631820Y-15992884D01*
X8688963Y-15992884D02*
X8688963Y-15792884D01*
X8688963Y-15792884D02*
X8669915Y-15821455D01*
X8669915Y-15821455D02*
X8650867Y-15840503D01*
X8650867Y-15840503D02*
X8631820Y-15850027D01*
X8831820Y-15992884D02*
X8831820Y-15859550D01*
X8831820Y-15878598D02*
X8841344Y-15869074D01*
X8841344Y-15869074D02*
X8860391Y-15859550D01*
X8860391Y-15859550D02*
X8888963Y-15859550D01*
X8888963Y-15859550D02*
X8908010Y-15869074D01*
X8908010Y-15869074D02*
X8917534Y-15888122D01*
X8917534Y-15888122D02*
X8917534Y-15992884D01*
X8917534Y-15888122D02*
X8927058Y-15869074D01*
X8927058Y-15869074D02*
X8946105Y-15859550D01*
X8946105Y-15859550D02*
X8974677Y-15859550D01*
X8974677Y-15859550D02*
X8993725Y-15869074D01*
X8993725Y-15869074D02*
X9003248Y-15888122D01*
X9003248Y-15888122D02*
X9003248Y-15992884D01*
X9098486Y-15992884D02*
X9098486Y-15859550D01*
X9098486Y-15878598D02*
X9108010Y-15869074D01*
X9108010Y-15869074D02*
X9127058Y-15859550D01*
X9127058Y-15859550D02*
X9155629Y-15859550D01*
X9155629Y-15859550D02*
X9174677Y-15869074D01*
X9174677Y-15869074D02*
X9184201Y-15888122D01*
X9184201Y-15888122D02*
X9184201Y-15992884D01*
X9184201Y-15888122D02*
X9193725Y-15869074D01*
X9193725Y-15869074D02*
X9212772Y-15859550D01*
X9212772Y-15859550D02*
X9241344Y-15859550D01*
X9241344Y-15859550D02*
X9260391Y-15869074D01*
X9260391Y-15869074D02*
X9269915Y-15888122D01*
X9269915Y-15888122D02*
X9269915Y-15992884D01*
X9660391Y-15783360D02*
X9488963Y-16040503D01*
X9917534Y-15792884D02*
X9936582Y-15792884D01*
X9936582Y-15792884D02*
X9955629Y-15802408D01*
X9955629Y-15802408D02*
X9965153Y-15811931D01*
X9965153Y-15811931D02*
X9974677Y-15830979D01*
X9974677Y-15830979D02*
X9984201Y-15869074D01*
X9984201Y-15869074D02*
X9984201Y-15916693D01*
X9984201Y-15916693D02*
X9974677Y-15954788D01*
X9974677Y-15954788D02*
X9965153Y-15973836D01*
X9965153Y-15973836D02*
X9955629Y-15983360D01*
X9955629Y-15983360D02*
X9936582Y-15992884D01*
X9936582Y-15992884D02*
X9917534Y-15992884D01*
X9917534Y-15992884D02*
X9898487Y-15983360D01*
X9898487Y-15983360D02*
X9888963Y-15973836D01*
X9888963Y-15973836D02*
X9879439Y-15954788D01*
X9879439Y-15954788D02*
X9869915Y-15916693D01*
X9869915Y-15916693D02*
X9869915Y-15869074D01*
X9869915Y-15869074D02*
X9879439Y-15830979D01*
X9879439Y-15830979D02*
X9888963Y-15811931D01*
X9888963Y-15811931D02*
X9898487Y-15802408D01*
X9898487Y-15802408D02*
X9917534Y-15792884D01*
X10069915Y-15973836D02*
X10079439Y-15983360D01*
X10079439Y-15983360D02*
X10069915Y-15992884D01*
X10069915Y-15992884D02*
X10060391Y-15983360D01*
X10060391Y-15983360D02*
X10069915Y-15973836D01*
X10069915Y-15973836D02*
X10069915Y-15992884D01*
X10203248Y-15792884D02*
X10222296Y-15792884D01*
X10222296Y-15792884D02*
X10241344Y-15802408D01*
X10241344Y-15802408D02*
X10250868Y-15811931D01*
X10250868Y-15811931D02*
X10260391Y-15830979D01*
X10260391Y-15830979D02*
X10269915Y-15869074D01*
X10269915Y-15869074D02*
X10269915Y-15916693D01*
X10269915Y-15916693D02*
X10260391Y-15954788D01*
X10260391Y-15954788D02*
X10250868Y-15973836D01*
X10250868Y-15973836D02*
X10241344Y-15983360D01*
X10241344Y-15983360D02*
X10222296Y-15992884D01*
X10222296Y-15992884D02*
X10203248Y-15992884D01*
X10203248Y-15992884D02*
X10184201Y-15983360D01*
X10184201Y-15983360D02*
X10174677Y-15973836D01*
X10174677Y-15973836D02*
X10165153Y-15954788D01*
X10165153Y-15954788D02*
X10155629Y-15916693D01*
X10155629Y-15916693D02*
X10155629Y-15869074D01*
X10155629Y-15869074D02*
X10165153Y-15830979D01*
X10165153Y-15830979D02*
X10174677Y-15811931D01*
X10174677Y-15811931D02*
X10184201Y-15802408D01*
X10184201Y-15802408D02*
X10203248Y-15792884D01*
X10336582Y-15792884D02*
X10460391Y-15792884D01*
X10460391Y-15792884D02*
X10393725Y-15869074D01*
X10393725Y-15869074D02*
X10422296Y-15869074D01*
X10422296Y-15869074D02*
X10441344Y-15878598D01*
X10441344Y-15878598D02*
X10450868Y-15888122D01*
X10450868Y-15888122D02*
X10460391Y-15907169D01*
X10460391Y-15907169D02*
X10460391Y-15954788D01*
X10460391Y-15954788D02*
X10450868Y-15973836D01*
X10450868Y-15973836D02*
X10441344Y-15983360D01*
X10441344Y-15983360D02*
X10422296Y-15992884D01*
X10422296Y-15992884D02*
X10365153Y-15992884D01*
X10365153Y-15992884D02*
X10346106Y-15983360D01*
X10346106Y-15983360D02*
X10336582Y-15973836D01*
X10555629Y-15992884D02*
X10593725Y-15992884D01*
X10593725Y-15992884D02*
X10612772Y-15983360D01*
X10612772Y-15983360D02*
X10622296Y-15973836D01*
X10622296Y-15973836D02*
X10641344Y-15945265D01*
X10641344Y-15945265D02*
X10650868Y-15907169D01*
X10650868Y-15907169D02*
X10650868Y-15830979D01*
X10650868Y-15830979D02*
X10641344Y-15811931D01*
X10641344Y-15811931D02*
X10631820Y-15802408D01*
X10631820Y-15802408D02*
X10612772Y-15792884D01*
X10612772Y-15792884D02*
X10574677Y-15792884D01*
X10574677Y-15792884D02*
X10555629Y-15802408D01*
X10555629Y-15802408D02*
X10546106Y-15811931D01*
X10546106Y-15811931D02*
X10536582Y-15830979D01*
X10536582Y-15830979D02*
X10536582Y-15878598D01*
X10536582Y-15878598D02*
X10546106Y-15897646D01*
X10546106Y-15897646D02*
X10555629Y-15907169D01*
X10555629Y-15907169D02*
X10574677Y-15916693D01*
X10574677Y-15916693D02*
X10612772Y-15916693D01*
X10612772Y-15916693D02*
X10631820Y-15907169D01*
X10631820Y-15907169D02*
X10641344Y-15897646D01*
X10641344Y-15897646D02*
X10650868Y-15878598D01*
X10774677Y-15792884D02*
X10793725Y-15792884D01*
X10793725Y-15792884D02*
X10812772Y-15802408D01*
X10812772Y-15802408D02*
X10822296Y-15811931D01*
X10822296Y-15811931D02*
X10831820Y-15830979D01*
X10831820Y-15830979D02*
X10841344Y-15869074D01*
X10841344Y-15869074D02*
X10841344Y-15916693D01*
X10841344Y-15916693D02*
X10831820Y-15954788D01*
X10831820Y-15954788D02*
X10822296Y-15973836D01*
X10822296Y-15973836D02*
X10812772Y-15983360D01*
X10812772Y-15983360D02*
X10793725Y-15992884D01*
X10793725Y-15992884D02*
X10774677Y-15992884D01*
X10774677Y-15992884D02*
X10755629Y-15983360D01*
X10755629Y-15983360D02*
X10746106Y-15973836D01*
X10746106Y-15973836D02*
X10736582Y-15954788D01*
X10736582Y-15954788D02*
X10727058Y-15916693D01*
X10727058Y-15916693D02*
X10727058Y-15869074D01*
X10727058Y-15869074D02*
X10736582Y-15830979D01*
X10736582Y-15830979D02*
X10746106Y-15811931D01*
X10746106Y-15811931D02*
X10755629Y-15802408D01*
X10755629Y-15802408D02*
X10774677Y-15792884D01*
X10917534Y-15792884D02*
X10917534Y-15830979D01*
X10993725Y-15792884D02*
X10993725Y-15830979D01*
X11288963Y-16069074D02*
X11279439Y-16059550D01*
X11279439Y-16059550D02*
X11260391Y-16030979D01*
X11260391Y-16030979D02*
X11250868Y-16011931D01*
X11250868Y-16011931D02*
X11241344Y-15983360D01*
X11241344Y-15983360D02*
X11231820Y-15935741D01*
X11231820Y-15935741D02*
X11231820Y-15897646D01*
X11231820Y-15897646D02*
X11241344Y-15850027D01*
X11241344Y-15850027D02*
X11250868Y-15821455D01*
X11250868Y-15821455D02*
X11260391Y-15802408D01*
X11260391Y-15802408D02*
X11279439Y-15773836D01*
X11279439Y-15773836D02*
X11288963Y-15764312D01*
X11346106Y-15792884D02*
X11469915Y-15792884D01*
X11469915Y-15792884D02*
X11403248Y-15869074D01*
X11403248Y-15869074D02*
X11431820Y-15869074D01*
X11431820Y-15869074D02*
X11450868Y-15878598D01*
X11450868Y-15878598D02*
X11460391Y-15888122D01*
X11460391Y-15888122D02*
X11469915Y-15907169D01*
X11469915Y-15907169D02*
X11469915Y-15954788D01*
X11469915Y-15954788D02*
X11460391Y-15973836D01*
X11460391Y-15973836D02*
X11450868Y-15983360D01*
X11450868Y-15983360D02*
X11431820Y-15992884D01*
X11431820Y-15992884D02*
X11374677Y-15992884D01*
X11374677Y-15992884D02*
X11355629Y-15983360D01*
X11355629Y-15983360D02*
X11346106Y-15973836D01*
X11708010Y-15992884D02*
X11708010Y-15792884D01*
X11793725Y-15992884D02*
X11793725Y-15888122D01*
X11793725Y-15888122D02*
X11784201Y-15869074D01*
X11784201Y-15869074D02*
X11765153Y-15859550D01*
X11765153Y-15859550D02*
X11736582Y-15859550D01*
X11736582Y-15859550D02*
X11717534Y-15869074D01*
X11717534Y-15869074D02*
X11708010Y-15878598D01*
X11917534Y-15992884D02*
X11898487Y-15983360D01*
X11898487Y-15983360D02*
X11888963Y-15973836D01*
X11888963Y-15973836D02*
X11879439Y-15954788D01*
X11879439Y-15954788D02*
X11879439Y-15897646D01*
X11879439Y-15897646D02*
X11888963Y-15878598D01*
X11888963Y-15878598D02*
X11898487Y-15869074D01*
X11898487Y-15869074D02*
X11917534Y-15859550D01*
X11917534Y-15859550D02*
X11946106Y-15859550D01*
X11946106Y-15859550D02*
X11965153Y-15869074D01*
X11965153Y-15869074D02*
X11974677Y-15878598D01*
X11974677Y-15878598D02*
X11984201Y-15897646D01*
X11984201Y-15897646D02*
X11984201Y-15954788D01*
X11984201Y-15954788D02*
X11974677Y-15973836D01*
X11974677Y-15973836D02*
X11965153Y-15983360D01*
X11965153Y-15983360D02*
X11946106Y-15992884D01*
X11946106Y-15992884D02*
X11917534Y-15992884D01*
X12098487Y-15992884D02*
X12079439Y-15983360D01*
X12079439Y-15983360D02*
X12069915Y-15964312D01*
X12069915Y-15964312D02*
X12069915Y-15792884D01*
X12250868Y-15983360D02*
X12231820Y-15992884D01*
X12231820Y-15992884D02*
X12193725Y-15992884D01*
X12193725Y-15992884D02*
X12174677Y-15983360D01*
X12174677Y-15983360D02*
X12165153Y-15964312D01*
X12165153Y-15964312D02*
X12165153Y-15888122D01*
X12165153Y-15888122D02*
X12174677Y-15869074D01*
X12174677Y-15869074D02*
X12193725Y-15859550D01*
X12193725Y-15859550D02*
X12231820Y-15859550D01*
X12231820Y-15859550D02*
X12250868Y-15869074D01*
X12250868Y-15869074D02*
X12260391Y-15888122D01*
X12260391Y-15888122D02*
X12260391Y-15907169D01*
X12260391Y-15907169D02*
X12165153Y-15926217D01*
X12336582Y-15983360D02*
X12355630Y-15992884D01*
X12355630Y-15992884D02*
X12393725Y-15992884D01*
X12393725Y-15992884D02*
X12412772Y-15983360D01*
X12412772Y-15983360D02*
X12422296Y-15964312D01*
X12422296Y-15964312D02*
X12422296Y-15954788D01*
X12422296Y-15954788D02*
X12412772Y-15935741D01*
X12412772Y-15935741D02*
X12393725Y-15926217D01*
X12393725Y-15926217D02*
X12365153Y-15926217D01*
X12365153Y-15926217D02*
X12346106Y-15916693D01*
X12346106Y-15916693D02*
X12336582Y-15897646D01*
X12336582Y-15897646D02*
X12336582Y-15888122D01*
X12336582Y-15888122D02*
X12346106Y-15869074D01*
X12346106Y-15869074D02*
X12365153Y-15859550D01*
X12365153Y-15859550D02*
X12393725Y-15859550D01*
X12393725Y-15859550D02*
X12412772Y-15869074D01*
X12488963Y-16069074D02*
X12498487Y-16059550D01*
X12498487Y-16059550D02*
X12517534Y-16030979D01*
X12517534Y-16030979D02*
X12527058Y-16011931D01*
X12527058Y-16011931D02*
X12536582Y-15983360D01*
X12536582Y-15983360D02*
X12546106Y-15935741D01*
X12546106Y-15935741D02*
X12546106Y-15897646D01*
X12546106Y-15897646D02*
X12536582Y-15850027D01*
X12536582Y-15850027D02*
X12527058Y-15821455D01*
X12527058Y-15821455D02*
X12517534Y-15802408D01*
X12517534Y-15802408D02*
X12498487Y-15773836D01*
X12498487Y-15773836D02*
X12488963Y-15764312D01*
X12850868Y-16069074D02*
X12841344Y-16059550D01*
X12841344Y-16059550D02*
X12822296Y-16030979D01*
X12822296Y-16030979D02*
X12812772Y-16011931D01*
X12812772Y-16011931D02*
X12803249Y-15983360D01*
X12803249Y-15983360D02*
X12793725Y-15935741D01*
X12793725Y-15935741D02*
X12793725Y-15897646D01*
X12793725Y-15897646D02*
X12803249Y-15850027D01*
X12803249Y-15850027D02*
X12812772Y-15821455D01*
X12812772Y-15821455D02*
X12822296Y-15802408D01*
X12822296Y-15802408D02*
X12841344Y-15773836D01*
X12841344Y-15773836D02*
X12850868Y-15764312D01*
X12927058Y-15859550D02*
X12927058Y-15992884D01*
X12927058Y-15878598D02*
X12936582Y-15869074D01*
X12936582Y-15869074D02*
X12955630Y-15859550D01*
X12955630Y-15859550D02*
X12984201Y-15859550D01*
X12984201Y-15859550D02*
X13003249Y-15869074D01*
X13003249Y-15869074D02*
X13012772Y-15888122D01*
X13012772Y-15888122D02*
X13012772Y-15992884D01*
X13136582Y-15992884D02*
X13117534Y-15983360D01*
X13117534Y-15983360D02*
X13108011Y-15973836D01*
X13108011Y-15973836D02*
X13098487Y-15954788D01*
X13098487Y-15954788D02*
X13098487Y-15897646D01*
X13098487Y-15897646D02*
X13108011Y-15878598D01*
X13108011Y-15878598D02*
X13117534Y-15869074D01*
X13117534Y-15869074D02*
X13136582Y-15859550D01*
X13136582Y-15859550D02*
X13165153Y-15859550D01*
X13165153Y-15859550D02*
X13184201Y-15869074D01*
X13184201Y-15869074D02*
X13193725Y-15878598D01*
X13193725Y-15878598D02*
X13203249Y-15897646D01*
X13203249Y-15897646D02*
X13203249Y-15954788D01*
X13203249Y-15954788D02*
X13193725Y-15973836D01*
X13193725Y-15973836D02*
X13184201Y-15983360D01*
X13184201Y-15983360D02*
X13165153Y-15992884D01*
X13165153Y-15992884D02*
X13136582Y-15992884D01*
X13260392Y-15859550D02*
X13336582Y-15859550D01*
X13288963Y-15792884D02*
X13288963Y-15964312D01*
X13288963Y-15964312D02*
X13298487Y-15983360D01*
X13298487Y-15983360D02*
X13317534Y-15992884D01*
X13317534Y-15992884D02*
X13336582Y-15992884D01*
X13555630Y-15859550D02*
X13555630Y-16059550D01*
X13555630Y-15869074D02*
X13574677Y-15859550D01*
X13574677Y-15859550D02*
X13612773Y-15859550D01*
X13612773Y-15859550D02*
X13631820Y-15869074D01*
X13631820Y-15869074D02*
X13641344Y-15878598D01*
X13641344Y-15878598D02*
X13650868Y-15897646D01*
X13650868Y-15897646D02*
X13650868Y-15954788D01*
X13650868Y-15954788D02*
X13641344Y-15973836D01*
X13641344Y-15973836D02*
X13631820Y-15983360D01*
X13631820Y-15983360D02*
X13612773Y-15992884D01*
X13612773Y-15992884D02*
X13574677Y-15992884D01*
X13574677Y-15992884D02*
X13555630Y-15983360D01*
X13765153Y-15992884D02*
X13746106Y-15983360D01*
X13746106Y-15983360D02*
X13736582Y-15964312D01*
X13736582Y-15964312D02*
X13736582Y-15792884D01*
X13927058Y-15992884D02*
X13927058Y-15888122D01*
X13927058Y-15888122D02*
X13917534Y-15869074D01*
X13917534Y-15869074D02*
X13898487Y-15859550D01*
X13898487Y-15859550D02*
X13860392Y-15859550D01*
X13860392Y-15859550D02*
X13841344Y-15869074D01*
X13927058Y-15983360D02*
X13908011Y-15992884D01*
X13908011Y-15992884D02*
X13860392Y-15992884D01*
X13860392Y-15992884D02*
X13841344Y-15983360D01*
X13841344Y-15983360D02*
X13831820Y-15964312D01*
X13831820Y-15964312D02*
X13831820Y-15945265D01*
X13831820Y-15945265D02*
X13841344Y-15926217D01*
X13841344Y-15926217D02*
X13860392Y-15916693D01*
X13860392Y-15916693D02*
X13908011Y-15916693D01*
X13908011Y-15916693D02*
X13927058Y-15907169D01*
X13993725Y-15859550D02*
X14069915Y-15859550D01*
X14022296Y-15792884D02*
X14022296Y-15964312D01*
X14022296Y-15964312D02*
X14031820Y-15983360D01*
X14031820Y-15983360D02*
X14050868Y-15992884D01*
X14050868Y-15992884D02*
X14069915Y-15992884D01*
X14212773Y-15983360D02*
X14193725Y-15992884D01*
X14193725Y-15992884D02*
X14155630Y-15992884D01*
X14155630Y-15992884D02*
X14136582Y-15983360D01*
X14136582Y-15983360D02*
X14127058Y-15964312D01*
X14127058Y-15964312D02*
X14127058Y-15888122D01*
X14127058Y-15888122D02*
X14136582Y-15869074D01*
X14136582Y-15869074D02*
X14155630Y-15859550D01*
X14155630Y-15859550D02*
X14193725Y-15859550D01*
X14193725Y-15859550D02*
X14212773Y-15869074D01*
X14212773Y-15869074D02*
X14222296Y-15888122D01*
X14222296Y-15888122D02*
X14222296Y-15907169D01*
X14222296Y-15907169D02*
X14127058Y-15926217D01*
X14393725Y-15992884D02*
X14393725Y-15792884D01*
X14393725Y-15983360D02*
X14374677Y-15992884D01*
X14374677Y-15992884D02*
X14336582Y-15992884D01*
X14336582Y-15992884D02*
X14317534Y-15983360D01*
X14317534Y-15983360D02*
X14308011Y-15973836D01*
X14308011Y-15973836D02*
X14298487Y-15954788D01*
X14298487Y-15954788D02*
X14298487Y-15897646D01*
X14298487Y-15897646D02*
X14308011Y-15878598D01*
X14308011Y-15878598D02*
X14317534Y-15869074D01*
X14317534Y-15869074D02*
X14336582Y-15859550D01*
X14336582Y-15859550D02*
X14374677Y-15859550D01*
X14374677Y-15859550D02*
X14393725Y-15869074D01*
X14469915Y-16069074D02*
X14479439Y-16059550D01*
X14479439Y-16059550D02*
X14498487Y-16030979D01*
X14498487Y-16030979D02*
X14508011Y-16011931D01*
X14508011Y-16011931D02*
X14517534Y-15983360D01*
X14517534Y-15983360D02*
X14527058Y-15935741D01*
X14527058Y-15935741D02*
X14527058Y-15897646D01*
X14527058Y-15897646D02*
X14517534Y-15850027D01*
X14517534Y-15850027D02*
X14508011Y-15821455D01*
X14508011Y-15821455D02*
X14498487Y-15802408D01*
X14498487Y-15802408D02*
X14479439Y-15773836D01*
X14479439Y-15773836D02*
X14469915Y-15764312D01*
D12*
X7694930Y-16211200D02*
X7694930Y-16119600D01*
X7603330Y-16119600D01*
X7603330Y-16211200D01*
X7694930Y-16211200D01*
D11*
X8079439Y-16256884D02*
X7965153Y-16256884D01*
X8022296Y-16256884D02*
X8022296Y-16056884D01*
X8022296Y-16056884D02*
X8003248Y-16085455D01*
X8003248Y-16085455D02*
X7984201Y-16104503D01*
X7984201Y-16104503D02*
X7965153Y-16114027D01*
X8165153Y-16237836D02*
X8174677Y-16247360D01*
X8174677Y-16247360D02*
X8165153Y-16256884D01*
X8165153Y-16256884D02*
X8155629Y-16247360D01*
X8155629Y-16247360D02*
X8165153Y-16237836D01*
X8165153Y-16237836D02*
X8165153Y-16256884D01*
X8250867Y-16075931D02*
X8260391Y-16066408D01*
X8260391Y-16066408D02*
X8279439Y-16056884D01*
X8279439Y-16056884D02*
X8327058Y-16056884D01*
X8327058Y-16056884D02*
X8346105Y-16066408D01*
X8346105Y-16066408D02*
X8355629Y-16075931D01*
X8355629Y-16075931D02*
X8365153Y-16094979D01*
X8365153Y-16094979D02*
X8365153Y-16114027D01*
X8365153Y-16114027D02*
X8355629Y-16142598D01*
X8355629Y-16142598D02*
X8241343Y-16256884D01*
X8241343Y-16256884D02*
X8365153Y-16256884D01*
X8460391Y-16256884D02*
X8498486Y-16256884D01*
X8498486Y-16256884D02*
X8517534Y-16247360D01*
X8517534Y-16247360D02*
X8527058Y-16237836D01*
X8527058Y-16237836D02*
X8546105Y-16209265D01*
X8546105Y-16209265D02*
X8555629Y-16171169D01*
X8555629Y-16171169D02*
X8555629Y-16094979D01*
X8555629Y-16094979D02*
X8546105Y-16075931D01*
X8546105Y-16075931D02*
X8536582Y-16066408D01*
X8536582Y-16066408D02*
X8517534Y-16056884D01*
X8517534Y-16056884D02*
X8479439Y-16056884D01*
X8479439Y-16056884D02*
X8460391Y-16066408D01*
X8460391Y-16066408D02*
X8450867Y-16075931D01*
X8450867Y-16075931D02*
X8441344Y-16094979D01*
X8441344Y-16094979D02*
X8441344Y-16142598D01*
X8441344Y-16142598D02*
X8450867Y-16161646D01*
X8450867Y-16161646D02*
X8460391Y-16171169D01*
X8460391Y-16171169D02*
X8479439Y-16180693D01*
X8479439Y-16180693D02*
X8517534Y-16180693D01*
X8517534Y-16180693D02*
X8536582Y-16171169D01*
X8536582Y-16171169D02*
X8546105Y-16161646D01*
X8546105Y-16161646D02*
X8555629Y-16142598D01*
X8736582Y-16056884D02*
X8641344Y-16056884D01*
X8641344Y-16056884D02*
X8631820Y-16152122D01*
X8631820Y-16152122D02*
X8641344Y-16142598D01*
X8641344Y-16142598D02*
X8660391Y-16133074D01*
X8660391Y-16133074D02*
X8708010Y-16133074D01*
X8708010Y-16133074D02*
X8727058Y-16142598D01*
X8727058Y-16142598D02*
X8736582Y-16152122D01*
X8736582Y-16152122D02*
X8746105Y-16171169D01*
X8746105Y-16171169D02*
X8746105Y-16218788D01*
X8746105Y-16218788D02*
X8736582Y-16237836D01*
X8736582Y-16237836D02*
X8727058Y-16247360D01*
X8727058Y-16247360D02*
X8708010Y-16256884D01*
X8708010Y-16256884D02*
X8660391Y-16256884D01*
X8660391Y-16256884D02*
X8641344Y-16247360D01*
X8641344Y-16247360D02*
X8631820Y-16237836D01*
X8831820Y-16256884D02*
X8831820Y-16123550D01*
X8831820Y-16142598D02*
X8841344Y-16133074D01*
X8841344Y-16133074D02*
X8860391Y-16123550D01*
X8860391Y-16123550D02*
X8888963Y-16123550D01*
X8888963Y-16123550D02*
X8908010Y-16133074D01*
X8908010Y-16133074D02*
X8917534Y-16152122D01*
X8917534Y-16152122D02*
X8917534Y-16256884D01*
X8917534Y-16152122D02*
X8927058Y-16133074D01*
X8927058Y-16133074D02*
X8946105Y-16123550D01*
X8946105Y-16123550D02*
X8974677Y-16123550D01*
X8974677Y-16123550D02*
X8993725Y-16133074D01*
X8993725Y-16133074D02*
X9003248Y-16152122D01*
X9003248Y-16152122D02*
X9003248Y-16256884D01*
X9098486Y-16256884D02*
X9098486Y-16123550D01*
X9098486Y-16142598D02*
X9108010Y-16133074D01*
X9108010Y-16133074D02*
X9127058Y-16123550D01*
X9127058Y-16123550D02*
X9155629Y-16123550D01*
X9155629Y-16123550D02*
X9174677Y-16133074D01*
X9174677Y-16133074D02*
X9184201Y-16152122D01*
X9184201Y-16152122D02*
X9184201Y-16256884D01*
X9184201Y-16152122D02*
X9193725Y-16133074D01*
X9193725Y-16133074D02*
X9212772Y-16123550D01*
X9212772Y-16123550D02*
X9241344Y-16123550D01*
X9241344Y-16123550D02*
X9260391Y-16133074D01*
X9260391Y-16133074D02*
X9269915Y-16152122D01*
X9269915Y-16152122D02*
X9269915Y-16256884D01*
X9660391Y-16047360D02*
X9488963Y-16304503D01*
X9917534Y-16056884D02*
X9936582Y-16056884D01*
X9936582Y-16056884D02*
X9955629Y-16066408D01*
X9955629Y-16066408D02*
X9965153Y-16075931D01*
X9965153Y-16075931D02*
X9974677Y-16094979D01*
X9974677Y-16094979D02*
X9984201Y-16133074D01*
X9984201Y-16133074D02*
X9984201Y-16180693D01*
X9984201Y-16180693D02*
X9974677Y-16218788D01*
X9974677Y-16218788D02*
X9965153Y-16237836D01*
X9965153Y-16237836D02*
X9955629Y-16247360D01*
X9955629Y-16247360D02*
X9936582Y-16256884D01*
X9936582Y-16256884D02*
X9917534Y-16256884D01*
X9917534Y-16256884D02*
X9898487Y-16247360D01*
X9898487Y-16247360D02*
X9888963Y-16237836D01*
X9888963Y-16237836D02*
X9879439Y-16218788D01*
X9879439Y-16218788D02*
X9869915Y-16180693D01*
X9869915Y-16180693D02*
X9869915Y-16133074D01*
X9869915Y-16133074D02*
X9879439Y-16094979D01*
X9879439Y-16094979D02*
X9888963Y-16075931D01*
X9888963Y-16075931D02*
X9898487Y-16066408D01*
X9898487Y-16066408D02*
X9917534Y-16056884D01*
X10069915Y-16237836D02*
X10079439Y-16247360D01*
X10079439Y-16247360D02*
X10069915Y-16256884D01*
X10069915Y-16256884D02*
X10060391Y-16247360D01*
X10060391Y-16247360D02*
X10069915Y-16237836D01*
X10069915Y-16237836D02*
X10069915Y-16256884D01*
X10203248Y-16056884D02*
X10222296Y-16056884D01*
X10222296Y-16056884D02*
X10241344Y-16066408D01*
X10241344Y-16066408D02*
X10250868Y-16075931D01*
X10250868Y-16075931D02*
X10260391Y-16094979D01*
X10260391Y-16094979D02*
X10269915Y-16133074D01*
X10269915Y-16133074D02*
X10269915Y-16180693D01*
X10269915Y-16180693D02*
X10260391Y-16218788D01*
X10260391Y-16218788D02*
X10250868Y-16237836D01*
X10250868Y-16237836D02*
X10241344Y-16247360D01*
X10241344Y-16247360D02*
X10222296Y-16256884D01*
X10222296Y-16256884D02*
X10203248Y-16256884D01*
X10203248Y-16256884D02*
X10184201Y-16247360D01*
X10184201Y-16247360D02*
X10174677Y-16237836D01*
X10174677Y-16237836D02*
X10165153Y-16218788D01*
X10165153Y-16218788D02*
X10155629Y-16180693D01*
X10155629Y-16180693D02*
X10155629Y-16133074D01*
X10155629Y-16133074D02*
X10165153Y-16094979D01*
X10165153Y-16094979D02*
X10174677Y-16075931D01*
X10174677Y-16075931D02*
X10184201Y-16066408D01*
X10184201Y-16066408D02*
X10203248Y-16056884D01*
X10450868Y-16056884D02*
X10355629Y-16056884D01*
X10355629Y-16056884D02*
X10346106Y-16152122D01*
X10346106Y-16152122D02*
X10355629Y-16142598D01*
X10355629Y-16142598D02*
X10374677Y-16133074D01*
X10374677Y-16133074D02*
X10422296Y-16133074D01*
X10422296Y-16133074D02*
X10441344Y-16142598D01*
X10441344Y-16142598D02*
X10450868Y-16152122D01*
X10450868Y-16152122D02*
X10460391Y-16171169D01*
X10460391Y-16171169D02*
X10460391Y-16218788D01*
X10460391Y-16218788D02*
X10450868Y-16237836D01*
X10450868Y-16237836D02*
X10441344Y-16247360D01*
X10441344Y-16247360D02*
X10422296Y-16256884D01*
X10422296Y-16256884D02*
X10374677Y-16256884D01*
X10374677Y-16256884D02*
X10355629Y-16247360D01*
X10355629Y-16247360D02*
X10346106Y-16237836D01*
X10650868Y-16256884D02*
X10536582Y-16256884D01*
X10593725Y-16256884D02*
X10593725Y-16056884D01*
X10593725Y-16056884D02*
X10574677Y-16085455D01*
X10574677Y-16085455D02*
X10555629Y-16104503D01*
X10555629Y-16104503D02*
X10536582Y-16114027D01*
X10774677Y-16056884D02*
X10793725Y-16056884D01*
X10793725Y-16056884D02*
X10812772Y-16066408D01*
X10812772Y-16066408D02*
X10822296Y-16075931D01*
X10822296Y-16075931D02*
X10831820Y-16094979D01*
X10831820Y-16094979D02*
X10841344Y-16133074D01*
X10841344Y-16133074D02*
X10841344Y-16180693D01*
X10841344Y-16180693D02*
X10831820Y-16218788D01*
X10831820Y-16218788D02*
X10822296Y-16237836D01*
X10822296Y-16237836D02*
X10812772Y-16247360D01*
X10812772Y-16247360D02*
X10793725Y-16256884D01*
X10793725Y-16256884D02*
X10774677Y-16256884D01*
X10774677Y-16256884D02*
X10755629Y-16247360D01*
X10755629Y-16247360D02*
X10746106Y-16237836D01*
X10746106Y-16237836D02*
X10736582Y-16218788D01*
X10736582Y-16218788D02*
X10727058Y-16180693D01*
X10727058Y-16180693D02*
X10727058Y-16133074D01*
X10727058Y-16133074D02*
X10736582Y-16094979D01*
X10736582Y-16094979D02*
X10746106Y-16075931D01*
X10746106Y-16075931D02*
X10755629Y-16066408D01*
X10755629Y-16066408D02*
X10774677Y-16056884D01*
X10917534Y-16056884D02*
X10917534Y-16094979D01*
X10993725Y-16056884D02*
X10993725Y-16094979D01*
X11288963Y-16333074D02*
X11279439Y-16323550D01*
X11279439Y-16323550D02*
X11260391Y-16294979D01*
X11260391Y-16294979D02*
X11250868Y-16275931D01*
X11250868Y-16275931D02*
X11241344Y-16247360D01*
X11241344Y-16247360D02*
X11231820Y-16199741D01*
X11231820Y-16199741D02*
X11231820Y-16161646D01*
X11231820Y-16161646D02*
X11241344Y-16114027D01*
X11241344Y-16114027D02*
X11250868Y-16085455D01*
X11250868Y-16085455D02*
X11260391Y-16066408D01*
X11260391Y-16066408D02*
X11279439Y-16037836D01*
X11279439Y-16037836D02*
X11288963Y-16028312D01*
X11469915Y-16256884D02*
X11355629Y-16256884D01*
X11412772Y-16256884D02*
X11412772Y-16056884D01*
X11412772Y-16056884D02*
X11393725Y-16085455D01*
X11393725Y-16085455D02*
X11374677Y-16104503D01*
X11374677Y-16104503D02*
X11355629Y-16114027D01*
X11708010Y-16256884D02*
X11708010Y-16056884D01*
X11793725Y-16256884D02*
X11793725Y-16152122D01*
X11793725Y-16152122D02*
X11784201Y-16133074D01*
X11784201Y-16133074D02*
X11765153Y-16123550D01*
X11765153Y-16123550D02*
X11736582Y-16123550D01*
X11736582Y-16123550D02*
X11717534Y-16133074D01*
X11717534Y-16133074D02*
X11708010Y-16142598D01*
X11917534Y-16256884D02*
X11898487Y-16247360D01*
X11898487Y-16247360D02*
X11888963Y-16237836D01*
X11888963Y-16237836D02*
X11879439Y-16218788D01*
X11879439Y-16218788D02*
X11879439Y-16161646D01*
X11879439Y-16161646D02*
X11888963Y-16142598D01*
X11888963Y-16142598D02*
X11898487Y-16133074D01*
X11898487Y-16133074D02*
X11917534Y-16123550D01*
X11917534Y-16123550D02*
X11946106Y-16123550D01*
X11946106Y-16123550D02*
X11965153Y-16133074D01*
X11965153Y-16133074D02*
X11974677Y-16142598D01*
X11974677Y-16142598D02*
X11984201Y-16161646D01*
X11984201Y-16161646D02*
X11984201Y-16218788D01*
X11984201Y-16218788D02*
X11974677Y-16237836D01*
X11974677Y-16237836D02*
X11965153Y-16247360D01*
X11965153Y-16247360D02*
X11946106Y-16256884D01*
X11946106Y-16256884D02*
X11917534Y-16256884D01*
X12098487Y-16256884D02*
X12079439Y-16247360D01*
X12079439Y-16247360D02*
X12069915Y-16228312D01*
X12069915Y-16228312D02*
X12069915Y-16056884D01*
X12250868Y-16247360D02*
X12231820Y-16256884D01*
X12231820Y-16256884D02*
X12193725Y-16256884D01*
X12193725Y-16256884D02*
X12174677Y-16247360D01*
X12174677Y-16247360D02*
X12165153Y-16228312D01*
X12165153Y-16228312D02*
X12165153Y-16152122D01*
X12165153Y-16152122D02*
X12174677Y-16133074D01*
X12174677Y-16133074D02*
X12193725Y-16123550D01*
X12193725Y-16123550D02*
X12231820Y-16123550D01*
X12231820Y-16123550D02*
X12250868Y-16133074D01*
X12250868Y-16133074D02*
X12260391Y-16152122D01*
X12260391Y-16152122D02*
X12260391Y-16171169D01*
X12260391Y-16171169D02*
X12165153Y-16190217D01*
X12327058Y-16333074D02*
X12336582Y-16323550D01*
X12336582Y-16323550D02*
X12355630Y-16294979D01*
X12355630Y-16294979D02*
X12365153Y-16275931D01*
X12365153Y-16275931D02*
X12374677Y-16247360D01*
X12374677Y-16247360D02*
X12384201Y-16199741D01*
X12384201Y-16199741D02*
X12384201Y-16161646D01*
X12384201Y-16161646D02*
X12374677Y-16114027D01*
X12374677Y-16114027D02*
X12365153Y-16085455D01*
X12365153Y-16085455D02*
X12355630Y-16066408D01*
X12355630Y-16066408D02*
X12336582Y-16037836D01*
X12336582Y-16037836D02*
X12327058Y-16028312D01*
X12688963Y-16333074D02*
X12679439Y-16323550D01*
X12679439Y-16323550D02*
X12660391Y-16294979D01*
X12660391Y-16294979D02*
X12650868Y-16275931D01*
X12650868Y-16275931D02*
X12641344Y-16247360D01*
X12641344Y-16247360D02*
X12631820Y-16199741D01*
X12631820Y-16199741D02*
X12631820Y-16161646D01*
X12631820Y-16161646D02*
X12641344Y-16114027D01*
X12641344Y-16114027D02*
X12650868Y-16085455D01*
X12650868Y-16085455D02*
X12660391Y-16066408D01*
X12660391Y-16066408D02*
X12679439Y-16037836D01*
X12679439Y-16037836D02*
X12688963Y-16028312D01*
X12765153Y-16123550D02*
X12765153Y-16256884D01*
X12765153Y-16142598D02*
X12774677Y-16133074D01*
X12774677Y-16133074D02*
X12793725Y-16123550D01*
X12793725Y-16123550D02*
X12822296Y-16123550D01*
X12822296Y-16123550D02*
X12841344Y-16133074D01*
X12841344Y-16133074D02*
X12850868Y-16152122D01*
X12850868Y-16152122D02*
X12850868Y-16256884D01*
X12974677Y-16256884D02*
X12955630Y-16247360D01*
X12955630Y-16247360D02*
X12946106Y-16237836D01*
X12946106Y-16237836D02*
X12936582Y-16218788D01*
X12936582Y-16218788D02*
X12936582Y-16161646D01*
X12936582Y-16161646D02*
X12946106Y-16142598D01*
X12946106Y-16142598D02*
X12955630Y-16133074D01*
X12955630Y-16133074D02*
X12974677Y-16123550D01*
X12974677Y-16123550D02*
X13003249Y-16123550D01*
X13003249Y-16123550D02*
X13022296Y-16133074D01*
X13022296Y-16133074D02*
X13031820Y-16142598D01*
X13031820Y-16142598D02*
X13041344Y-16161646D01*
X13041344Y-16161646D02*
X13041344Y-16218788D01*
X13041344Y-16218788D02*
X13031820Y-16237836D01*
X13031820Y-16237836D02*
X13022296Y-16247360D01*
X13022296Y-16247360D02*
X13003249Y-16256884D01*
X13003249Y-16256884D02*
X12974677Y-16256884D01*
X13098487Y-16123550D02*
X13174677Y-16123550D01*
X13127058Y-16056884D02*
X13127058Y-16228312D01*
X13127058Y-16228312D02*
X13136582Y-16247360D01*
X13136582Y-16247360D02*
X13155630Y-16256884D01*
X13155630Y-16256884D02*
X13174677Y-16256884D01*
X13393725Y-16123550D02*
X13393725Y-16323550D01*
X13393725Y-16133074D02*
X13412772Y-16123550D01*
X13412772Y-16123550D02*
X13450868Y-16123550D01*
X13450868Y-16123550D02*
X13469915Y-16133074D01*
X13469915Y-16133074D02*
X13479439Y-16142598D01*
X13479439Y-16142598D02*
X13488963Y-16161646D01*
X13488963Y-16161646D02*
X13488963Y-16218788D01*
X13488963Y-16218788D02*
X13479439Y-16237836D01*
X13479439Y-16237836D02*
X13469915Y-16247360D01*
X13469915Y-16247360D02*
X13450868Y-16256884D01*
X13450868Y-16256884D02*
X13412772Y-16256884D01*
X13412772Y-16256884D02*
X13393725Y-16247360D01*
X13603249Y-16256884D02*
X13584201Y-16247360D01*
X13584201Y-16247360D02*
X13574677Y-16228312D01*
X13574677Y-16228312D02*
X13574677Y-16056884D01*
X13765153Y-16256884D02*
X13765153Y-16152122D01*
X13765153Y-16152122D02*
X13755630Y-16133074D01*
X13755630Y-16133074D02*
X13736582Y-16123550D01*
X13736582Y-16123550D02*
X13698487Y-16123550D01*
X13698487Y-16123550D02*
X13679439Y-16133074D01*
X13765153Y-16247360D02*
X13746106Y-16256884D01*
X13746106Y-16256884D02*
X13698487Y-16256884D01*
X13698487Y-16256884D02*
X13679439Y-16247360D01*
X13679439Y-16247360D02*
X13669915Y-16228312D01*
X13669915Y-16228312D02*
X13669915Y-16209265D01*
X13669915Y-16209265D02*
X13679439Y-16190217D01*
X13679439Y-16190217D02*
X13698487Y-16180693D01*
X13698487Y-16180693D02*
X13746106Y-16180693D01*
X13746106Y-16180693D02*
X13765153Y-16171169D01*
X13831820Y-16123550D02*
X13908011Y-16123550D01*
X13860392Y-16056884D02*
X13860392Y-16228312D01*
X13860392Y-16228312D02*
X13869915Y-16247360D01*
X13869915Y-16247360D02*
X13888963Y-16256884D01*
X13888963Y-16256884D02*
X13908011Y-16256884D01*
X14050868Y-16247360D02*
X14031820Y-16256884D01*
X14031820Y-16256884D02*
X13993725Y-16256884D01*
X13993725Y-16256884D02*
X13974677Y-16247360D01*
X13974677Y-16247360D02*
X13965153Y-16228312D01*
X13965153Y-16228312D02*
X13965153Y-16152122D01*
X13965153Y-16152122D02*
X13974677Y-16133074D01*
X13974677Y-16133074D02*
X13993725Y-16123550D01*
X13993725Y-16123550D02*
X14031820Y-16123550D01*
X14031820Y-16123550D02*
X14050868Y-16133074D01*
X14050868Y-16133074D02*
X14060392Y-16152122D01*
X14060392Y-16152122D02*
X14060392Y-16171169D01*
X14060392Y-16171169D02*
X13965153Y-16190217D01*
X14231820Y-16256884D02*
X14231820Y-16056884D01*
X14231820Y-16247360D02*
X14212773Y-16256884D01*
X14212773Y-16256884D02*
X14174677Y-16256884D01*
X14174677Y-16256884D02*
X14155630Y-16247360D01*
X14155630Y-16247360D02*
X14146106Y-16237836D01*
X14146106Y-16237836D02*
X14136582Y-16218788D01*
X14136582Y-16218788D02*
X14136582Y-16161646D01*
X14136582Y-16161646D02*
X14146106Y-16142598D01*
X14146106Y-16142598D02*
X14155630Y-16133074D01*
X14155630Y-16133074D02*
X14174677Y-16123550D01*
X14174677Y-16123550D02*
X14212773Y-16123550D01*
X14212773Y-16123550D02*
X14231820Y-16133074D01*
X14308011Y-16333074D02*
X14317534Y-16323550D01*
X14317534Y-16323550D02*
X14336582Y-16294979D01*
X14336582Y-16294979D02*
X14346106Y-16275931D01*
X14346106Y-16275931D02*
X14355630Y-16247360D01*
X14355630Y-16247360D02*
X14365153Y-16199741D01*
X14365153Y-16199741D02*
X14365153Y-16161646D01*
X14365153Y-16161646D02*
X14355630Y-16114027D01*
X14355630Y-16114027D02*
X14346106Y-16085455D01*
X14346106Y-16085455D02*
X14336582Y-16066408D01*
X14336582Y-16066408D02*
X14317534Y-16037836D01*
X14317534Y-16037836D02*
X14308011Y-16028312D01*
D13*
X7633900Y-16509400D02*
X7713900Y-16429400D01*
X7633900Y-16349400D01*
X7553900Y-16429400D01*
X7633900Y-16509400D01*
D11*
X8079439Y-16520884D02*
X7965153Y-16520884D01*
X8022296Y-16520884D02*
X8022296Y-16320884D01*
X8022296Y-16320884D02*
X8003248Y-16349455D01*
X8003248Y-16349455D02*
X7984201Y-16368503D01*
X7984201Y-16368503D02*
X7965153Y-16378027D01*
X8165153Y-16501836D02*
X8174677Y-16511360D01*
X8174677Y-16511360D02*
X8165153Y-16520884D01*
X8165153Y-16520884D02*
X8155629Y-16511360D01*
X8155629Y-16511360D02*
X8165153Y-16501836D01*
X8165153Y-16501836D02*
X8165153Y-16520884D01*
X8346105Y-16320884D02*
X8308010Y-16320884D01*
X8308010Y-16320884D02*
X8288962Y-16330408D01*
X8288962Y-16330408D02*
X8279439Y-16339931D01*
X8279439Y-16339931D02*
X8260391Y-16368503D01*
X8260391Y-16368503D02*
X8250867Y-16406598D01*
X8250867Y-16406598D02*
X8250867Y-16482788D01*
X8250867Y-16482788D02*
X8260391Y-16501836D01*
X8260391Y-16501836D02*
X8269915Y-16511360D01*
X8269915Y-16511360D02*
X8288962Y-16520884D01*
X8288962Y-16520884D02*
X8327058Y-16520884D01*
X8327058Y-16520884D02*
X8346105Y-16511360D01*
X8346105Y-16511360D02*
X8355629Y-16501836D01*
X8355629Y-16501836D02*
X8365153Y-16482788D01*
X8365153Y-16482788D02*
X8365153Y-16435169D01*
X8365153Y-16435169D02*
X8355629Y-16416122D01*
X8355629Y-16416122D02*
X8346105Y-16406598D01*
X8346105Y-16406598D02*
X8327058Y-16397074D01*
X8327058Y-16397074D02*
X8288962Y-16397074D01*
X8288962Y-16397074D02*
X8269915Y-16406598D01*
X8269915Y-16406598D02*
X8260391Y-16416122D01*
X8260391Y-16416122D02*
X8250867Y-16435169D01*
X8488963Y-16320884D02*
X8508010Y-16320884D01*
X8508010Y-16320884D02*
X8527058Y-16330408D01*
X8527058Y-16330408D02*
X8536582Y-16339931D01*
X8536582Y-16339931D02*
X8546105Y-16358979D01*
X8546105Y-16358979D02*
X8555629Y-16397074D01*
X8555629Y-16397074D02*
X8555629Y-16444693D01*
X8555629Y-16444693D02*
X8546105Y-16482788D01*
X8546105Y-16482788D02*
X8536582Y-16501836D01*
X8536582Y-16501836D02*
X8527058Y-16511360D01*
X8527058Y-16511360D02*
X8508010Y-16520884D01*
X8508010Y-16520884D02*
X8488963Y-16520884D01*
X8488963Y-16520884D02*
X8469915Y-16511360D01*
X8469915Y-16511360D02*
X8460391Y-16501836D01*
X8460391Y-16501836D02*
X8450867Y-16482788D01*
X8450867Y-16482788D02*
X8441344Y-16444693D01*
X8441344Y-16444693D02*
X8441344Y-16397074D01*
X8441344Y-16397074D02*
X8450867Y-16358979D01*
X8450867Y-16358979D02*
X8460391Y-16339931D01*
X8460391Y-16339931D02*
X8469915Y-16330408D01*
X8469915Y-16330408D02*
X8488963Y-16320884D01*
X8679439Y-16320884D02*
X8698486Y-16320884D01*
X8698486Y-16320884D02*
X8717534Y-16330408D01*
X8717534Y-16330408D02*
X8727058Y-16339931D01*
X8727058Y-16339931D02*
X8736582Y-16358979D01*
X8736582Y-16358979D02*
X8746105Y-16397074D01*
X8746105Y-16397074D02*
X8746105Y-16444693D01*
X8746105Y-16444693D02*
X8736582Y-16482788D01*
X8736582Y-16482788D02*
X8727058Y-16501836D01*
X8727058Y-16501836D02*
X8717534Y-16511360D01*
X8717534Y-16511360D02*
X8698486Y-16520884D01*
X8698486Y-16520884D02*
X8679439Y-16520884D01*
X8679439Y-16520884D02*
X8660391Y-16511360D01*
X8660391Y-16511360D02*
X8650867Y-16501836D01*
X8650867Y-16501836D02*
X8641344Y-16482788D01*
X8641344Y-16482788D02*
X8631820Y-16444693D01*
X8631820Y-16444693D02*
X8631820Y-16397074D01*
X8631820Y-16397074D02*
X8641344Y-16358979D01*
X8641344Y-16358979D02*
X8650867Y-16339931D01*
X8650867Y-16339931D02*
X8660391Y-16330408D01*
X8660391Y-16330408D02*
X8679439Y-16320884D01*
X8831820Y-16520884D02*
X8831820Y-16387550D01*
X8831820Y-16406598D02*
X8841344Y-16397074D01*
X8841344Y-16397074D02*
X8860391Y-16387550D01*
X8860391Y-16387550D02*
X8888963Y-16387550D01*
X8888963Y-16387550D02*
X8908010Y-16397074D01*
X8908010Y-16397074D02*
X8917534Y-16416122D01*
X8917534Y-16416122D02*
X8917534Y-16520884D01*
X8917534Y-16416122D02*
X8927058Y-16397074D01*
X8927058Y-16397074D02*
X8946105Y-16387550D01*
X8946105Y-16387550D02*
X8974677Y-16387550D01*
X8974677Y-16387550D02*
X8993725Y-16397074D01*
X8993725Y-16397074D02*
X9003248Y-16416122D01*
X9003248Y-16416122D02*
X9003248Y-16520884D01*
X9098486Y-16520884D02*
X9098486Y-16387550D01*
X9098486Y-16406598D02*
X9108010Y-16397074D01*
X9108010Y-16397074D02*
X9127058Y-16387550D01*
X9127058Y-16387550D02*
X9155629Y-16387550D01*
X9155629Y-16387550D02*
X9174677Y-16397074D01*
X9174677Y-16397074D02*
X9184201Y-16416122D01*
X9184201Y-16416122D02*
X9184201Y-16520884D01*
X9184201Y-16416122D02*
X9193725Y-16397074D01*
X9193725Y-16397074D02*
X9212772Y-16387550D01*
X9212772Y-16387550D02*
X9241344Y-16387550D01*
X9241344Y-16387550D02*
X9260391Y-16397074D01*
X9260391Y-16397074D02*
X9269915Y-16416122D01*
X9269915Y-16416122D02*
X9269915Y-16520884D01*
X9660391Y-16311360D02*
X9488963Y-16568503D01*
X9917534Y-16320884D02*
X9936582Y-16320884D01*
X9936582Y-16320884D02*
X9955629Y-16330408D01*
X9955629Y-16330408D02*
X9965153Y-16339931D01*
X9965153Y-16339931D02*
X9974677Y-16358979D01*
X9974677Y-16358979D02*
X9984201Y-16397074D01*
X9984201Y-16397074D02*
X9984201Y-16444693D01*
X9984201Y-16444693D02*
X9974677Y-16482788D01*
X9974677Y-16482788D02*
X9965153Y-16501836D01*
X9965153Y-16501836D02*
X9955629Y-16511360D01*
X9955629Y-16511360D02*
X9936582Y-16520884D01*
X9936582Y-16520884D02*
X9917534Y-16520884D01*
X9917534Y-16520884D02*
X9898487Y-16511360D01*
X9898487Y-16511360D02*
X9888963Y-16501836D01*
X9888963Y-16501836D02*
X9879439Y-16482788D01*
X9879439Y-16482788D02*
X9869915Y-16444693D01*
X9869915Y-16444693D02*
X9869915Y-16397074D01*
X9869915Y-16397074D02*
X9879439Y-16358979D01*
X9879439Y-16358979D02*
X9888963Y-16339931D01*
X9888963Y-16339931D02*
X9898487Y-16330408D01*
X9898487Y-16330408D02*
X9917534Y-16320884D01*
X10069915Y-16501836D02*
X10079439Y-16511360D01*
X10079439Y-16511360D02*
X10069915Y-16520884D01*
X10069915Y-16520884D02*
X10060391Y-16511360D01*
X10060391Y-16511360D02*
X10069915Y-16501836D01*
X10069915Y-16501836D02*
X10069915Y-16520884D01*
X10203248Y-16320884D02*
X10222296Y-16320884D01*
X10222296Y-16320884D02*
X10241344Y-16330408D01*
X10241344Y-16330408D02*
X10250868Y-16339931D01*
X10250868Y-16339931D02*
X10260391Y-16358979D01*
X10260391Y-16358979D02*
X10269915Y-16397074D01*
X10269915Y-16397074D02*
X10269915Y-16444693D01*
X10269915Y-16444693D02*
X10260391Y-16482788D01*
X10260391Y-16482788D02*
X10250868Y-16501836D01*
X10250868Y-16501836D02*
X10241344Y-16511360D01*
X10241344Y-16511360D02*
X10222296Y-16520884D01*
X10222296Y-16520884D02*
X10203248Y-16520884D01*
X10203248Y-16520884D02*
X10184201Y-16511360D01*
X10184201Y-16511360D02*
X10174677Y-16501836D01*
X10174677Y-16501836D02*
X10165153Y-16482788D01*
X10165153Y-16482788D02*
X10155629Y-16444693D01*
X10155629Y-16444693D02*
X10155629Y-16397074D01*
X10155629Y-16397074D02*
X10165153Y-16358979D01*
X10165153Y-16358979D02*
X10174677Y-16339931D01*
X10174677Y-16339931D02*
X10184201Y-16330408D01*
X10184201Y-16330408D02*
X10203248Y-16320884D01*
X10441344Y-16320884D02*
X10403248Y-16320884D01*
X10403248Y-16320884D02*
X10384201Y-16330408D01*
X10384201Y-16330408D02*
X10374677Y-16339931D01*
X10374677Y-16339931D02*
X10355629Y-16368503D01*
X10355629Y-16368503D02*
X10346106Y-16406598D01*
X10346106Y-16406598D02*
X10346106Y-16482788D01*
X10346106Y-16482788D02*
X10355629Y-16501836D01*
X10355629Y-16501836D02*
X10365153Y-16511360D01*
X10365153Y-16511360D02*
X10384201Y-16520884D01*
X10384201Y-16520884D02*
X10422296Y-16520884D01*
X10422296Y-16520884D02*
X10441344Y-16511360D01*
X10441344Y-16511360D02*
X10450868Y-16501836D01*
X10450868Y-16501836D02*
X10460391Y-16482788D01*
X10460391Y-16482788D02*
X10460391Y-16435169D01*
X10460391Y-16435169D02*
X10450868Y-16416122D01*
X10450868Y-16416122D02*
X10441344Y-16406598D01*
X10441344Y-16406598D02*
X10422296Y-16397074D01*
X10422296Y-16397074D02*
X10384201Y-16397074D01*
X10384201Y-16397074D02*
X10365153Y-16406598D01*
X10365153Y-16406598D02*
X10355629Y-16416122D01*
X10355629Y-16416122D02*
X10346106Y-16435169D01*
X10527058Y-16320884D02*
X10650868Y-16320884D01*
X10650868Y-16320884D02*
X10584201Y-16397074D01*
X10584201Y-16397074D02*
X10612772Y-16397074D01*
X10612772Y-16397074D02*
X10631820Y-16406598D01*
X10631820Y-16406598D02*
X10641344Y-16416122D01*
X10641344Y-16416122D02*
X10650868Y-16435169D01*
X10650868Y-16435169D02*
X10650868Y-16482788D01*
X10650868Y-16482788D02*
X10641344Y-16501836D01*
X10641344Y-16501836D02*
X10631820Y-16511360D01*
X10631820Y-16511360D02*
X10612772Y-16520884D01*
X10612772Y-16520884D02*
X10555629Y-16520884D01*
X10555629Y-16520884D02*
X10536582Y-16511360D01*
X10536582Y-16511360D02*
X10527058Y-16501836D01*
X10774677Y-16320884D02*
X10793725Y-16320884D01*
X10793725Y-16320884D02*
X10812772Y-16330408D01*
X10812772Y-16330408D02*
X10822296Y-16339931D01*
X10822296Y-16339931D02*
X10831820Y-16358979D01*
X10831820Y-16358979D02*
X10841344Y-16397074D01*
X10841344Y-16397074D02*
X10841344Y-16444693D01*
X10841344Y-16444693D02*
X10831820Y-16482788D01*
X10831820Y-16482788D02*
X10822296Y-16501836D01*
X10822296Y-16501836D02*
X10812772Y-16511360D01*
X10812772Y-16511360D02*
X10793725Y-16520884D01*
X10793725Y-16520884D02*
X10774677Y-16520884D01*
X10774677Y-16520884D02*
X10755629Y-16511360D01*
X10755629Y-16511360D02*
X10746106Y-16501836D01*
X10746106Y-16501836D02*
X10736582Y-16482788D01*
X10736582Y-16482788D02*
X10727058Y-16444693D01*
X10727058Y-16444693D02*
X10727058Y-16397074D01*
X10727058Y-16397074D02*
X10736582Y-16358979D01*
X10736582Y-16358979D02*
X10746106Y-16339931D01*
X10746106Y-16339931D02*
X10755629Y-16330408D01*
X10755629Y-16330408D02*
X10774677Y-16320884D01*
X10917534Y-16320884D02*
X10917534Y-16358979D01*
X10993725Y-16320884D02*
X10993725Y-16358979D01*
X11288963Y-16597074D02*
X11279439Y-16587550D01*
X11279439Y-16587550D02*
X11260391Y-16558979D01*
X11260391Y-16558979D02*
X11250868Y-16539931D01*
X11250868Y-16539931D02*
X11241344Y-16511360D01*
X11241344Y-16511360D02*
X11231820Y-16463741D01*
X11231820Y-16463741D02*
X11231820Y-16425646D01*
X11231820Y-16425646D02*
X11241344Y-16378027D01*
X11241344Y-16378027D02*
X11250868Y-16349455D01*
X11250868Y-16349455D02*
X11260391Y-16330408D01*
X11260391Y-16330408D02*
X11279439Y-16301836D01*
X11279439Y-16301836D02*
X11288963Y-16292312D01*
X11469915Y-16520884D02*
X11355629Y-16520884D01*
X11412772Y-16520884D02*
X11412772Y-16320884D01*
X11412772Y-16320884D02*
X11393725Y-16349455D01*
X11393725Y-16349455D02*
X11374677Y-16368503D01*
X11374677Y-16368503D02*
X11355629Y-16378027D01*
X11708010Y-16520884D02*
X11708010Y-16320884D01*
X11793725Y-16520884D02*
X11793725Y-16416122D01*
X11793725Y-16416122D02*
X11784201Y-16397074D01*
X11784201Y-16397074D02*
X11765153Y-16387550D01*
X11765153Y-16387550D02*
X11736582Y-16387550D01*
X11736582Y-16387550D02*
X11717534Y-16397074D01*
X11717534Y-16397074D02*
X11708010Y-16406598D01*
X11917534Y-16520884D02*
X11898487Y-16511360D01*
X11898487Y-16511360D02*
X11888963Y-16501836D01*
X11888963Y-16501836D02*
X11879439Y-16482788D01*
X11879439Y-16482788D02*
X11879439Y-16425646D01*
X11879439Y-16425646D02*
X11888963Y-16406598D01*
X11888963Y-16406598D02*
X11898487Y-16397074D01*
X11898487Y-16397074D02*
X11917534Y-16387550D01*
X11917534Y-16387550D02*
X11946106Y-16387550D01*
X11946106Y-16387550D02*
X11965153Y-16397074D01*
X11965153Y-16397074D02*
X11974677Y-16406598D01*
X11974677Y-16406598D02*
X11984201Y-16425646D01*
X11984201Y-16425646D02*
X11984201Y-16482788D01*
X11984201Y-16482788D02*
X11974677Y-16501836D01*
X11974677Y-16501836D02*
X11965153Y-16511360D01*
X11965153Y-16511360D02*
X11946106Y-16520884D01*
X11946106Y-16520884D02*
X11917534Y-16520884D01*
X12098487Y-16520884D02*
X12079439Y-16511360D01*
X12079439Y-16511360D02*
X12069915Y-16492312D01*
X12069915Y-16492312D02*
X12069915Y-16320884D01*
X12250868Y-16511360D02*
X12231820Y-16520884D01*
X12231820Y-16520884D02*
X12193725Y-16520884D01*
X12193725Y-16520884D02*
X12174677Y-16511360D01*
X12174677Y-16511360D02*
X12165153Y-16492312D01*
X12165153Y-16492312D02*
X12165153Y-16416122D01*
X12165153Y-16416122D02*
X12174677Y-16397074D01*
X12174677Y-16397074D02*
X12193725Y-16387550D01*
X12193725Y-16387550D02*
X12231820Y-16387550D01*
X12231820Y-16387550D02*
X12250868Y-16397074D01*
X12250868Y-16397074D02*
X12260391Y-16416122D01*
X12260391Y-16416122D02*
X12260391Y-16435169D01*
X12260391Y-16435169D02*
X12165153Y-16454217D01*
X12327058Y-16597074D02*
X12336582Y-16587550D01*
X12336582Y-16587550D02*
X12355630Y-16558979D01*
X12355630Y-16558979D02*
X12365153Y-16539931D01*
X12365153Y-16539931D02*
X12374677Y-16511360D01*
X12374677Y-16511360D02*
X12384201Y-16463741D01*
X12384201Y-16463741D02*
X12384201Y-16425646D01*
X12384201Y-16425646D02*
X12374677Y-16378027D01*
X12374677Y-16378027D02*
X12365153Y-16349455D01*
X12365153Y-16349455D02*
X12355630Y-16330408D01*
X12355630Y-16330408D02*
X12336582Y-16301836D01*
X12336582Y-16301836D02*
X12327058Y-16292312D01*
X12688963Y-16597074D02*
X12679439Y-16587550D01*
X12679439Y-16587550D02*
X12660391Y-16558979D01*
X12660391Y-16558979D02*
X12650868Y-16539931D01*
X12650868Y-16539931D02*
X12641344Y-16511360D01*
X12641344Y-16511360D02*
X12631820Y-16463741D01*
X12631820Y-16463741D02*
X12631820Y-16425646D01*
X12631820Y-16425646D02*
X12641344Y-16378027D01*
X12641344Y-16378027D02*
X12650868Y-16349455D01*
X12650868Y-16349455D02*
X12660391Y-16330408D01*
X12660391Y-16330408D02*
X12679439Y-16301836D01*
X12679439Y-16301836D02*
X12688963Y-16292312D01*
X12765153Y-16387550D02*
X12765153Y-16520884D01*
X12765153Y-16406598D02*
X12774677Y-16397074D01*
X12774677Y-16397074D02*
X12793725Y-16387550D01*
X12793725Y-16387550D02*
X12822296Y-16387550D01*
X12822296Y-16387550D02*
X12841344Y-16397074D01*
X12841344Y-16397074D02*
X12850868Y-16416122D01*
X12850868Y-16416122D02*
X12850868Y-16520884D01*
X12974677Y-16520884D02*
X12955630Y-16511360D01*
X12955630Y-16511360D02*
X12946106Y-16501836D01*
X12946106Y-16501836D02*
X12936582Y-16482788D01*
X12936582Y-16482788D02*
X12936582Y-16425646D01*
X12936582Y-16425646D02*
X12946106Y-16406598D01*
X12946106Y-16406598D02*
X12955630Y-16397074D01*
X12955630Y-16397074D02*
X12974677Y-16387550D01*
X12974677Y-16387550D02*
X13003249Y-16387550D01*
X13003249Y-16387550D02*
X13022296Y-16397074D01*
X13022296Y-16397074D02*
X13031820Y-16406598D01*
X13031820Y-16406598D02*
X13041344Y-16425646D01*
X13041344Y-16425646D02*
X13041344Y-16482788D01*
X13041344Y-16482788D02*
X13031820Y-16501836D01*
X13031820Y-16501836D02*
X13022296Y-16511360D01*
X13022296Y-16511360D02*
X13003249Y-16520884D01*
X13003249Y-16520884D02*
X12974677Y-16520884D01*
X13098487Y-16387550D02*
X13174677Y-16387550D01*
X13127058Y-16320884D02*
X13127058Y-16492312D01*
X13127058Y-16492312D02*
X13136582Y-16511360D01*
X13136582Y-16511360D02*
X13155630Y-16520884D01*
X13155630Y-16520884D02*
X13174677Y-16520884D01*
X13393725Y-16387550D02*
X13393725Y-16587550D01*
X13393725Y-16397074D02*
X13412772Y-16387550D01*
X13412772Y-16387550D02*
X13450868Y-16387550D01*
X13450868Y-16387550D02*
X13469915Y-16397074D01*
X13469915Y-16397074D02*
X13479439Y-16406598D01*
X13479439Y-16406598D02*
X13488963Y-16425646D01*
X13488963Y-16425646D02*
X13488963Y-16482788D01*
X13488963Y-16482788D02*
X13479439Y-16501836D01*
X13479439Y-16501836D02*
X13469915Y-16511360D01*
X13469915Y-16511360D02*
X13450868Y-16520884D01*
X13450868Y-16520884D02*
X13412772Y-16520884D01*
X13412772Y-16520884D02*
X13393725Y-16511360D01*
X13603249Y-16520884D02*
X13584201Y-16511360D01*
X13584201Y-16511360D02*
X13574677Y-16492312D01*
X13574677Y-16492312D02*
X13574677Y-16320884D01*
X13765153Y-16520884D02*
X13765153Y-16416122D01*
X13765153Y-16416122D02*
X13755630Y-16397074D01*
X13755630Y-16397074D02*
X13736582Y-16387550D01*
X13736582Y-16387550D02*
X13698487Y-16387550D01*
X13698487Y-16387550D02*
X13679439Y-16397074D01*
X13765153Y-16511360D02*
X13746106Y-16520884D01*
X13746106Y-16520884D02*
X13698487Y-16520884D01*
X13698487Y-16520884D02*
X13679439Y-16511360D01*
X13679439Y-16511360D02*
X13669915Y-16492312D01*
X13669915Y-16492312D02*
X13669915Y-16473265D01*
X13669915Y-16473265D02*
X13679439Y-16454217D01*
X13679439Y-16454217D02*
X13698487Y-16444693D01*
X13698487Y-16444693D02*
X13746106Y-16444693D01*
X13746106Y-16444693D02*
X13765153Y-16435169D01*
X13831820Y-16387550D02*
X13908011Y-16387550D01*
X13860392Y-16320884D02*
X13860392Y-16492312D01*
X13860392Y-16492312D02*
X13869915Y-16511360D01*
X13869915Y-16511360D02*
X13888963Y-16520884D01*
X13888963Y-16520884D02*
X13908011Y-16520884D01*
X14050868Y-16511360D02*
X14031820Y-16520884D01*
X14031820Y-16520884D02*
X13993725Y-16520884D01*
X13993725Y-16520884D02*
X13974677Y-16511360D01*
X13974677Y-16511360D02*
X13965153Y-16492312D01*
X13965153Y-16492312D02*
X13965153Y-16416122D01*
X13965153Y-16416122D02*
X13974677Y-16397074D01*
X13974677Y-16397074D02*
X13993725Y-16387550D01*
X13993725Y-16387550D02*
X14031820Y-16387550D01*
X14031820Y-16387550D02*
X14050868Y-16397074D01*
X14050868Y-16397074D02*
X14060392Y-16416122D01*
X14060392Y-16416122D02*
X14060392Y-16435169D01*
X14060392Y-16435169D02*
X13965153Y-16454217D01*
X14231820Y-16520884D02*
X14231820Y-16320884D01*
X14231820Y-16511360D02*
X14212773Y-16520884D01*
X14212773Y-16520884D02*
X14174677Y-16520884D01*
X14174677Y-16520884D02*
X14155630Y-16511360D01*
X14155630Y-16511360D02*
X14146106Y-16501836D01*
X14146106Y-16501836D02*
X14136582Y-16482788D01*
X14136582Y-16482788D02*
X14136582Y-16425646D01*
X14136582Y-16425646D02*
X14146106Y-16406598D01*
X14146106Y-16406598D02*
X14155630Y-16397074D01*
X14155630Y-16397074D02*
X14174677Y-16387550D01*
X14174677Y-16387550D02*
X14212773Y-16387550D01*
X14212773Y-16387550D02*
X14231820Y-16397074D01*
X14308011Y-16597074D02*
X14317534Y-16587550D01*
X14317534Y-16587550D02*
X14336582Y-16558979D01*
X14336582Y-16558979D02*
X14346106Y-16539931D01*
X14346106Y-16539931D02*
X14355630Y-16511360D01*
X14355630Y-16511360D02*
X14365153Y-16463741D01*
X14365153Y-16463741D02*
X14365153Y-16425646D01*
X14365153Y-16425646D02*
X14355630Y-16378027D01*
X14355630Y-16378027D02*
X14346106Y-16349455D01*
X14346106Y-16349455D02*
X14336582Y-16330408D01*
X14336582Y-16330408D02*
X14317534Y-16301836D01*
X14317534Y-16301836D02*
X14308011Y-16292312D01*
D14*
X7533900Y-16619400D02*
X7713900Y-16799400D01*
X7713900Y-16619400D02*
X7533900Y-16799400D01*
X7713900Y-16709400D02*
G75*
G02*
X7533900Y-16709400I-90000J0D01*
G01*
X7533900Y-16709400D02*
G75*
G02*
X7713900Y-16709400I90000J0D01*
G01*
D11*
X8079439Y-16800884D02*
X7965153Y-16800884D01*
X8022296Y-16800884D02*
X8022296Y-16600884D01*
X8022296Y-16600884D02*
X8003248Y-16629455D01*
X8003248Y-16629455D02*
X7984201Y-16648503D01*
X7984201Y-16648503D02*
X7965153Y-16658027D01*
X8165153Y-16781836D02*
X8174677Y-16791360D01*
X8174677Y-16791360D02*
X8165153Y-16800884D01*
X8165153Y-16800884D02*
X8155629Y-16791360D01*
X8155629Y-16791360D02*
X8165153Y-16781836D01*
X8165153Y-16781836D02*
X8165153Y-16800884D01*
X8288962Y-16686598D02*
X8269915Y-16677074D01*
X8269915Y-16677074D02*
X8260391Y-16667550D01*
X8260391Y-16667550D02*
X8250867Y-16648503D01*
X8250867Y-16648503D02*
X8250867Y-16638979D01*
X8250867Y-16638979D02*
X8260391Y-16619931D01*
X8260391Y-16619931D02*
X8269915Y-16610408D01*
X8269915Y-16610408D02*
X8288962Y-16600884D01*
X8288962Y-16600884D02*
X8327058Y-16600884D01*
X8327058Y-16600884D02*
X8346105Y-16610408D01*
X8346105Y-16610408D02*
X8355629Y-16619931D01*
X8355629Y-16619931D02*
X8365153Y-16638979D01*
X8365153Y-16638979D02*
X8365153Y-16648503D01*
X8365153Y-16648503D02*
X8355629Y-16667550D01*
X8355629Y-16667550D02*
X8346105Y-16677074D01*
X8346105Y-16677074D02*
X8327058Y-16686598D01*
X8327058Y-16686598D02*
X8288962Y-16686598D01*
X8288962Y-16686598D02*
X8269915Y-16696122D01*
X8269915Y-16696122D02*
X8260391Y-16705646D01*
X8260391Y-16705646D02*
X8250867Y-16724693D01*
X8250867Y-16724693D02*
X8250867Y-16762788D01*
X8250867Y-16762788D02*
X8260391Y-16781836D01*
X8260391Y-16781836D02*
X8269915Y-16791360D01*
X8269915Y-16791360D02*
X8288962Y-16800884D01*
X8288962Y-16800884D02*
X8327058Y-16800884D01*
X8327058Y-16800884D02*
X8346105Y-16791360D01*
X8346105Y-16791360D02*
X8355629Y-16781836D01*
X8355629Y-16781836D02*
X8365153Y-16762788D01*
X8365153Y-16762788D02*
X8365153Y-16724693D01*
X8365153Y-16724693D02*
X8355629Y-16705646D01*
X8355629Y-16705646D02*
X8346105Y-16696122D01*
X8346105Y-16696122D02*
X8327058Y-16686598D01*
X8488963Y-16600884D02*
X8508010Y-16600884D01*
X8508010Y-16600884D02*
X8527058Y-16610408D01*
X8527058Y-16610408D02*
X8536582Y-16619931D01*
X8536582Y-16619931D02*
X8546105Y-16638979D01*
X8546105Y-16638979D02*
X8555629Y-16677074D01*
X8555629Y-16677074D02*
X8555629Y-16724693D01*
X8555629Y-16724693D02*
X8546105Y-16762788D01*
X8546105Y-16762788D02*
X8536582Y-16781836D01*
X8536582Y-16781836D02*
X8527058Y-16791360D01*
X8527058Y-16791360D02*
X8508010Y-16800884D01*
X8508010Y-16800884D02*
X8488963Y-16800884D01*
X8488963Y-16800884D02*
X8469915Y-16791360D01*
X8469915Y-16791360D02*
X8460391Y-16781836D01*
X8460391Y-16781836D02*
X8450867Y-16762788D01*
X8450867Y-16762788D02*
X8441344Y-16724693D01*
X8441344Y-16724693D02*
X8441344Y-16677074D01*
X8441344Y-16677074D02*
X8450867Y-16638979D01*
X8450867Y-16638979D02*
X8460391Y-16619931D01*
X8460391Y-16619931D02*
X8469915Y-16610408D01*
X8469915Y-16610408D02*
X8488963Y-16600884D01*
X8679439Y-16600884D02*
X8698486Y-16600884D01*
X8698486Y-16600884D02*
X8717534Y-16610408D01*
X8717534Y-16610408D02*
X8727058Y-16619931D01*
X8727058Y-16619931D02*
X8736582Y-16638979D01*
X8736582Y-16638979D02*
X8746105Y-16677074D01*
X8746105Y-16677074D02*
X8746105Y-16724693D01*
X8746105Y-16724693D02*
X8736582Y-16762788D01*
X8736582Y-16762788D02*
X8727058Y-16781836D01*
X8727058Y-16781836D02*
X8717534Y-16791360D01*
X8717534Y-16791360D02*
X8698486Y-16800884D01*
X8698486Y-16800884D02*
X8679439Y-16800884D01*
X8679439Y-16800884D02*
X8660391Y-16791360D01*
X8660391Y-16791360D02*
X8650867Y-16781836D01*
X8650867Y-16781836D02*
X8641344Y-16762788D01*
X8641344Y-16762788D02*
X8631820Y-16724693D01*
X8631820Y-16724693D02*
X8631820Y-16677074D01*
X8631820Y-16677074D02*
X8641344Y-16638979D01*
X8641344Y-16638979D02*
X8650867Y-16619931D01*
X8650867Y-16619931D02*
X8660391Y-16610408D01*
X8660391Y-16610408D02*
X8679439Y-16600884D01*
X8831820Y-16800884D02*
X8831820Y-16667550D01*
X8831820Y-16686598D02*
X8841344Y-16677074D01*
X8841344Y-16677074D02*
X8860391Y-16667550D01*
X8860391Y-16667550D02*
X8888963Y-16667550D01*
X8888963Y-16667550D02*
X8908010Y-16677074D01*
X8908010Y-16677074D02*
X8917534Y-16696122D01*
X8917534Y-16696122D02*
X8917534Y-16800884D01*
X8917534Y-16696122D02*
X8927058Y-16677074D01*
X8927058Y-16677074D02*
X8946105Y-16667550D01*
X8946105Y-16667550D02*
X8974677Y-16667550D01*
X8974677Y-16667550D02*
X8993725Y-16677074D01*
X8993725Y-16677074D02*
X9003248Y-16696122D01*
X9003248Y-16696122D02*
X9003248Y-16800884D01*
X9098486Y-16800884D02*
X9098486Y-16667550D01*
X9098486Y-16686598D02*
X9108010Y-16677074D01*
X9108010Y-16677074D02*
X9127058Y-16667550D01*
X9127058Y-16667550D02*
X9155629Y-16667550D01*
X9155629Y-16667550D02*
X9174677Y-16677074D01*
X9174677Y-16677074D02*
X9184201Y-16696122D01*
X9184201Y-16696122D02*
X9184201Y-16800884D01*
X9184201Y-16696122D02*
X9193725Y-16677074D01*
X9193725Y-16677074D02*
X9212772Y-16667550D01*
X9212772Y-16667550D02*
X9241344Y-16667550D01*
X9241344Y-16667550D02*
X9260391Y-16677074D01*
X9260391Y-16677074D02*
X9269915Y-16696122D01*
X9269915Y-16696122D02*
X9269915Y-16800884D01*
X9660391Y-16591360D02*
X9488963Y-16848503D01*
X9917534Y-16600884D02*
X9936582Y-16600884D01*
X9936582Y-16600884D02*
X9955629Y-16610408D01*
X9955629Y-16610408D02*
X9965153Y-16619931D01*
X9965153Y-16619931D02*
X9974677Y-16638979D01*
X9974677Y-16638979D02*
X9984201Y-16677074D01*
X9984201Y-16677074D02*
X9984201Y-16724693D01*
X9984201Y-16724693D02*
X9974677Y-16762788D01*
X9974677Y-16762788D02*
X9965153Y-16781836D01*
X9965153Y-16781836D02*
X9955629Y-16791360D01*
X9955629Y-16791360D02*
X9936582Y-16800884D01*
X9936582Y-16800884D02*
X9917534Y-16800884D01*
X9917534Y-16800884D02*
X9898487Y-16791360D01*
X9898487Y-16791360D02*
X9888963Y-16781836D01*
X9888963Y-16781836D02*
X9879439Y-16762788D01*
X9879439Y-16762788D02*
X9869915Y-16724693D01*
X9869915Y-16724693D02*
X9869915Y-16677074D01*
X9869915Y-16677074D02*
X9879439Y-16638979D01*
X9879439Y-16638979D02*
X9888963Y-16619931D01*
X9888963Y-16619931D02*
X9898487Y-16610408D01*
X9898487Y-16610408D02*
X9917534Y-16600884D01*
X10069915Y-16781836D02*
X10079439Y-16791360D01*
X10079439Y-16791360D02*
X10069915Y-16800884D01*
X10069915Y-16800884D02*
X10060391Y-16791360D01*
X10060391Y-16791360D02*
X10069915Y-16781836D01*
X10069915Y-16781836D02*
X10069915Y-16800884D01*
X10203248Y-16600884D02*
X10222296Y-16600884D01*
X10222296Y-16600884D02*
X10241344Y-16610408D01*
X10241344Y-16610408D02*
X10250868Y-16619931D01*
X10250868Y-16619931D02*
X10260391Y-16638979D01*
X10260391Y-16638979D02*
X10269915Y-16677074D01*
X10269915Y-16677074D02*
X10269915Y-16724693D01*
X10269915Y-16724693D02*
X10260391Y-16762788D01*
X10260391Y-16762788D02*
X10250868Y-16781836D01*
X10250868Y-16781836D02*
X10241344Y-16791360D01*
X10241344Y-16791360D02*
X10222296Y-16800884D01*
X10222296Y-16800884D02*
X10203248Y-16800884D01*
X10203248Y-16800884D02*
X10184201Y-16791360D01*
X10184201Y-16791360D02*
X10174677Y-16781836D01*
X10174677Y-16781836D02*
X10165153Y-16762788D01*
X10165153Y-16762788D02*
X10155629Y-16724693D01*
X10155629Y-16724693D02*
X10155629Y-16677074D01*
X10155629Y-16677074D02*
X10165153Y-16638979D01*
X10165153Y-16638979D02*
X10174677Y-16619931D01*
X10174677Y-16619931D02*
X10184201Y-16610408D01*
X10184201Y-16610408D02*
X10203248Y-16600884D01*
X10336582Y-16600884D02*
X10469915Y-16600884D01*
X10469915Y-16600884D02*
X10384201Y-16800884D01*
X10584201Y-16600884D02*
X10603249Y-16600884D01*
X10603249Y-16600884D02*
X10622296Y-16610408D01*
X10622296Y-16610408D02*
X10631820Y-16619931D01*
X10631820Y-16619931D02*
X10641344Y-16638979D01*
X10641344Y-16638979D02*
X10650868Y-16677074D01*
X10650868Y-16677074D02*
X10650868Y-16724693D01*
X10650868Y-16724693D02*
X10641344Y-16762788D01*
X10641344Y-16762788D02*
X10631820Y-16781836D01*
X10631820Y-16781836D02*
X10622296Y-16791360D01*
X10622296Y-16791360D02*
X10603249Y-16800884D01*
X10603249Y-16800884D02*
X10584201Y-16800884D01*
X10584201Y-16800884D02*
X10565153Y-16791360D01*
X10565153Y-16791360D02*
X10555629Y-16781836D01*
X10555629Y-16781836D02*
X10546106Y-16762788D01*
X10546106Y-16762788D02*
X10536582Y-16724693D01*
X10536582Y-16724693D02*
X10536582Y-16677074D01*
X10536582Y-16677074D02*
X10546106Y-16638979D01*
X10546106Y-16638979D02*
X10555629Y-16619931D01*
X10555629Y-16619931D02*
X10565153Y-16610408D01*
X10565153Y-16610408D02*
X10584201Y-16600884D01*
X10746106Y-16800884D02*
X10784201Y-16800884D01*
X10784201Y-16800884D02*
X10803249Y-16791360D01*
X10803249Y-16791360D02*
X10812772Y-16781836D01*
X10812772Y-16781836D02*
X10831820Y-16753265D01*
X10831820Y-16753265D02*
X10841344Y-16715169D01*
X10841344Y-16715169D02*
X10841344Y-16638979D01*
X10841344Y-16638979D02*
X10831820Y-16619931D01*
X10831820Y-16619931D02*
X10822296Y-16610408D01*
X10822296Y-16610408D02*
X10803249Y-16600884D01*
X10803249Y-16600884D02*
X10765153Y-16600884D01*
X10765153Y-16600884D02*
X10746106Y-16610408D01*
X10746106Y-16610408D02*
X10736582Y-16619931D01*
X10736582Y-16619931D02*
X10727058Y-16638979D01*
X10727058Y-16638979D02*
X10727058Y-16686598D01*
X10727058Y-16686598D02*
X10736582Y-16705646D01*
X10736582Y-16705646D02*
X10746106Y-16715169D01*
X10746106Y-16715169D02*
X10765153Y-16724693D01*
X10765153Y-16724693D02*
X10803249Y-16724693D01*
X10803249Y-16724693D02*
X10822296Y-16715169D01*
X10822296Y-16715169D02*
X10831820Y-16705646D01*
X10831820Y-16705646D02*
X10841344Y-16686598D01*
X10917534Y-16600884D02*
X10917534Y-16638979D01*
X10993725Y-16600884D02*
X10993725Y-16638979D01*
X11288963Y-16877074D02*
X11279439Y-16867550D01*
X11279439Y-16867550D02*
X11260391Y-16838979D01*
X11260391Y-16838979D02*
X11250868Y-16819931D01*
X11250868Y-16819931D02*
X11241344Y-16791360D01*
X11241344Y-16791360D02*
X11231820Y-16743741D01*
X11231820Y-16743741D02*
X11231820Y-16705646D01*
X11231820Y-16705646D02*
X11241344Y-16658027D01*
X11241344Y-16658027D02*
X11250868Y-16629455D01*
X11250868Y-16629455D02*
X11260391Y-16610408D01*
X11260391Y-16610408D02*
X11279439Y-16581836D01*
X11279439Y-16581836D02*
X11288963Y-16572312D01*
X11469915Y-16800884D02*
X11355629Y-16800884D01*
X11412772Y-16800884D02*
X11412772Y-16600884D01*
X11412772Y-16600884D02*
X11393725Y-16629455D01*
X11393725Y-16629455D02*
X11374677Y-16648503D01*
X11374677Y-16648503D02*
X11355629Y-16658027D01*
X11708010Y-16800884D02*
X11708010Y-16600884D01*
X11793725Y-16800884D02*
X11793725Y-16696122D01*
X11793725Y-16696122D02*
X11784201Y-16677074D01*
X11784201Y-16677074D02*
X11765153Y-16667550D01*
X11765153Y-16667550D02*
X11736582Y-16667550D01*
X11736582Y-16667550D02*
X11717534Y-16677074D01*
X11717534Y-16677074D02*
X11708010Y-16686598D01*
X11917534Y-16800884D02*
X11898487Y-16791360D01*
X11898487Y-16791360D02*
X11888963Y-16781836D01*
X11888963Y-16781836D02*
X11879439Y-16762788D01*
X11879439Y-16762788D02*
X11879439Y-16705646D01*
X11879439Y-16705646D02*
X11888963Y-16686598D01*
X11888963Y-16686598D02*
X11898487Y-16677074D01*
X11898487Y-16677074D02*
X11917534Y-16667550D01*
X11917534Y-16667550D02*
X11946106Y-16667550D01*
X11946106Y-16667550D02*
X11965153Y-16677074D01*
X11965153Y-16677074D02*
X11974677Y-16686598D01*
X11974677Y-16686598D02*
X11984201Y-16705646D01*
X11984201Y-16705646D02*
X11984201Y-16762788D01*
X11984201Y-16762788D02*
X11974677Y-16781836D01*
X11974677Y-16781836D02*
X11965153Y-16791360D01*
X11965153Y-16791360D02*
X11946106Y-16800884D01*
X11946106Y-16800884D02*
X11917534Y-16800884D01*
X12098487Y-16800884D02*
X12079439Y-16791360D01*
X12079439Y-16791360D02*
X12069915Y-16772312D01*
X12069915Y-16772312D02*
X12069915Y-16600884D01*
X12250868Y-16791360D02*
X12231820Y-16800884D01*
X12231820Y-16800884D02*
X12193725Y-16800884D01*
X12193725Y-16800884D02*
X12174677Y-16791360D01*
X12174677Y-16791360D02*
X12165153Y-16772312D01*
X12165153Y-16772312D02*
X12165153Y-16696122D01*
X12165153Y-16696122D02*
X12174677Y-16677074D01*
X12174677Y-16677074D02*
X12193725Y-16667550D01*
X12193725Y-16667550D02*
X12231820Y-16667550D01*
X12231820Y-16667550D02*
X12250868Y-16677074D01*
X12250868Y-16677074D02*
X12260391Y-16696122D01*
X12260391Y-16696122D02*
X12260391Y-16715169D01*
X12260391Y-16715169D02*
X12165153Y-16734217D01*
X12327058Y-16877074D02*
X12336582Y-16867550D01*
X12336582Y-16867550D02*
X12355630Y-16838979D01*
X12355630Y-16838979D02*
X12365153Y-16819931D01*
X12365153Y-16819931D02*
X12374677Y-16791360D01*
X12374677Y-16791360D02*
X12384201Y-16743741D01*
X12384201Y-16743741D02*
X12384201Y-16705646D01*
X12384201Y-16705646D02*
X12374677Y-16658027D01*
X12374677Y-16658027D02*
X12365153Y-16629455D01*
X12365153Y-16629455D02*
X12355630Y-16610408D01*
X12355630Y-16610408D02*
X12336582Y-16581836D01*
X12336582Y-16581836D02*
X12327058Y-16572312D01*
X12688963Y-16877074D02*
X12679439Y-16867550D01*
X12679439Y-16867550D02*
X12660391Y-16838979D01*
X12660391Y-16838979D02*
X12650868Y-16819931D01*
X12650868Y-16819931D02*
X12641344Y-16791360D01*
X12641344Y-16791360D02*
X12631820Y-16743741D01*
X12631820Y-16743741D02*
X12631820Y-16705646D01*
X12631820Y-16705646D02*
X12641344Y-16658027D01*
X12641344Y-16658027D02*
X12650868Y-16629455D01*
X12650868Y-16629455D02*
X12660391Y-16610408D01*
X12660391Y-16610408D02*
X12679439Y-16581836D01*
X12679439Y-16581836D02*
X12688963Y-16572312D01*
X12765153Y-16667550D02*
X12765153Y-16800884D01*
X12765153Y-16686598D02*
X12774677Y-16677074D01*
X12774677Y-16677074D02*
X12793725Y-16667550D01*
X12793725Y-16667550D02*
X12822296Y-16667550D01*
X12822296Y-16667550D02*
X12841344Y-16677074D01*
X12841344Y-16677074D02*
X12850868Y-16696122D01*
X12850868Y-16696122D02*
X12850868Y-16800884D01*
X12974677Y-16800884D02*
X12955630Y-16791360D01*
X12955630Y-16791360D02*
X12946106Y-16781836D01*
X12946106Y-16781836D02*
X12936582Y-16762788D01*
X12936582Y-16762788D02*
X12936582Y-16705646D01*
X12936582Y-16705646D02*
X12946106Y-16686598D01*
X12946106Y-16686598D02*
X12955630Y-16677074D01*
X12955630Y-16677074D02*
X12974677Y-16667550D01*
X12974677Y-16667550D02*
X13003249Y-16667550D01*
X13003249Y-16667550D02*
X13022296Y-16677074D01*
X13022296Y-16677074D02*
X13031820Y-16686598D01*
X13031820Y-16686598D02*
X13041344Y-16705646D01*
X13041344Y-16705646D02*
X13041344Y-16762788D01*
X13041344Y-16762788D02*
X13031820Y-16781836D01*
X13031820Y-16781836D02*
X13022296Y-16791360D01*
X13022296Y-16791360D02*
X13003249Y-16800884D01*
X13003249Y-16800884D02*
X12974677Y-16800884D01*
X13098487Y-16667550D02*
X13174677Y-16667550D01*
X13127058Y-16600884D02*
X13127058Y-16772312D01*
X13127058Y-16772312D02*
X13136582Y-16791360D01*
X13136582Y-16791360D02*
X13155630Y-16800884D01*
X13155630Y-16800884D02*
X13174677Y-16800884D01*
X13393725Y-16667550D02*
X13393725Y-16867550D01*
X13393725Y-16677074D02*
X13412772Y-16667550D01*
X13412772Y-16667550D02*
X13450868Y-16667550D01*
X13450868Y-16667550D02*
X13469915Y-16677074D01*
X13469915Y-16677074D02*
X13479439Y-16686598D01*
X13479439Y-16686598D02*
X13488963Y-16705646D01*
X13488963Y-16705646D02*
X13488963Y-16762788D01*
X13488963Y-16762788D02*
X13479439Y-16781836D01*
X13479439Y-16781836D02*
X13469915Y-16791360D01*
X13469915Y-16791360D02*
X13450868Y-16800884D01*
X13450868Y-16800884D02*
X13412772Y-16800884D01*
X13412772Y-16800884D02*
X13393725Y-16791360D01*
X13603249Y-16800884D02*
X13584201Y-16791360D01*
X13584201Y-16791360D02*
X13574677Y-16772312D01*
X13574677Y-16772312D02*
X13574677Y-16600884D01*
X13765153Y-16800884D02*
X13765153Y-16696122D01*
X13765153Y-16696122D02*
X13755630Y-16677074D01*
X13755630Y-16677074D02*
X13736582Y-16667550D01*
X13736582Y-16667550D02*
X13698487Y-16667550D01*
X13698487Y-16667550D02*
X13679439Y-16677074D01*
X13765153Y-16791360D02*
X13746106Y-16800884D01*
X13746106Y-16800884D02*
X13698487Y-16800884D01*
X13698487Y-16800884D02*
X13679439Y-16791360D01*
X13679439Y-16791360D02*
X13669915Y-16772312D01*
X13669915Y-16772312D02*
X13669915Y-16753265D01*
X13669915Y-16753265D02*
X13679439Y-16734217D01*
X13679439Y-16734217D02*
X13698487Y-16724693D01*
X13698487Y-16724693D02*
X13746106Y-16724693D01*
X13746106Y-16724693D02*
X13765153Y-16715169D01*
X13831820Y-16667550D02*
X13908011Y-16667550D01*
X13860392Y-16600884D02*
X13860392Y-16772312D01*
X13860392Y-16772312D02*
X13869915Y-16791360D01*
X13869915Y-16791360D02*
X13888963Y-16800884D01*
X13888963Y-16800884D02*
X13908011Y-16800884D01*
X14050868Y-16791360D02*
X14031820Y-16800884D01*
X14031820Y-16800884D02*
X13993725Y-16800884D01*
X13993725Y-16800884D02*
X13974677Y-16791360D01*
X13974677Y-16791360D02*
X13965153Y-16772312D01*
X13965153Y-16772312D02*
X13965153Y-16696122D01*
X13965153Y-16696122D02*
X13974677Y-16677074D01*
X13974677Y-16677074D02*
X13993725Y-16667550D01*
X13993725Y-16667550D02*
X14031820Y-16667550D01*
X14031820Y-16667550D02*
X14050868Y-16677074D01*
X14050868Y-16677074D02*
X14060392Y-16696122D01*
X14060392Y-16696122D02*
X14060392Y-16715169D01*
X14060392Y-16715169D02*
X13965153Y-16734217D01*
X14231820Y-16800884D02*
X14231820Y-16600884D01*
X14231820Y-16791360D02*
X14212773Y-16800884D01*
X14212773Y-16800884D02*
X14174677Y-16800884D01*
X14174677Y-16800884D02*
X14155630Y-16791360D01*
X14155630Y-16791360D02*
X14146106Y-16781836D01*
X14146106Y-16781836D02*
X14136582Y-16762788D01*
X14136582Y-16762788D02*
X14136582Y-16705646D01*
X14136582Y-16705646D02*
X14146106Y-16686598D01*
X14146106Y-16686598D02*
X14155630Y-16677074D01*
X14155630Y-16677074D02*
X14174677Y-16667550D01*
X14174677Y-16667550D02*
X14212773Y-16667550D01*
X14212773Y-16667550D02*
X14231820Y-16677074D01*
X14308011Y-16877074D02*
X14317534Y-16867550D01*
X14317534Y-16867550D02*
X14336582Y-16838979D01*
X14336582Y-16838979D02*
X14346106Y-16819931D01*
X14346106Y-16819931D02*
X14355630Y-16791360D01*
X14355630Y-16791360D02*
X14365153Y-16743741D01*
X14365153Y-16743741D02*
X14365153Y-16705646D01*
X14365153Y-16705646D02*
X14355630Y-16658027D01*
X14355630Y-16658027D02*
X14346106Y-16629455D01*
X14346106Y-16629455D02*
X14336582Y-16610408D01*
X14336582Y-16610408D02*
X14317534Y-16581836D01*
X14317534Y-16581836D02*
X14308011Y-16572312D01*
X7513900Y-16909400D02*
X7713900Y-17109400D01*
X7713900Y-16909400D02*
X7513900Y-17109400D01*
X7613900Y-16909400D02*
X7613900Y-17109400D01*
X7513900Y-17009400D02*
X7713900Y-17009400D01*
X7955629Y-16900884D02*
X8079439Y-16900884D01*
X8079439Y-16900884D02*
X8012772Y-16977074D01*
X8012772Y-16977074D02*
X8041343Y-16977074D01*
X8041343Y-16977074D02*
X8060391Y-16986598D01*
X8060391Y-16986598D02*
X8069915Y-16996122D01*
X8069915Y-16996122D02*
X8079439Y-17015170D01*
X8079439Y-17015170D02*
X8079439Y-17062789D01*
X8079439Y-17062789D02*
X8069915Y-17081836D01*
X8069915Y-17081836D02*
X8060391Y-17091360D01*
X8060391Y-17091360D02*
X8041343Y-17100884D01*
X8041343Y-17100884D02*
X7984201Y-17100884D01*
X7984201Y-17100884D02*
X7965153Y-17091360D01*
X7965153Y-17091360D02*
X7955629Y-17081836D01*
X8165153Y-17081836D02*
X8174677Y-17091360D01*
X8174677Y-17091360D02*
X8165153Y-17100884D01*
X8165153Y-17100884D02*
X8155629Y-17091360D01*
X8155629Y-17091360D02*
X8165153Y-17081836D01*
X8165153Y-17081836D02*
X8165153Y-17100884D01*
X8298486Y-16900884D02*
X8317534Y-16900884D01*
X8317534Y-16900884D02*
X8336582Y-16910408D01*
X8336582Y-16910408D02*
X8346105Y-16919931D01*
X8346105Y-16919931D02*
X8355629Y-16938979D01*
X8355629Y-16938979D02*
X8365153Y-16977074D01*
X8365153Y-16977074D02*
X8365153Y-17024693D01*
X8365153Y-17024693D02*
X8355629Y-17062789D01*
X8355629Y-17062789D02*
X8346105Y-17081836D01*
X8346105Y-17081836D02*
X8336582Y-17091360D01*
X8336582Y-17091360D02*
X8317534Y-17100884D01*
X8317534Y-17100884D02*
X8298486Y-17100884D01*
X8298486Y-17100884D02*
X8279439Y-17091360D01*
X8279439Y-17091360D02*
X8269915Y-17081836D01*
X8269915Y-17081836D02*
X8260391Y-17062789D01*
X8260391Y-17062789D02*
X8250867Y-17024693D01*
X8250867Y-17024693D02*
X8250867Y-16977074D01*
X8250867Y-16977074D02*
X8260391Y-16938979D01*
X8260391Y-16938979D02*
X8269915Y-16919931D01*
X8269915Y-16919931D02*
X8279439Y-16910408D01*
X8279439Y-16910408D02*
X8298486Y-16900884D01*
X8488963Y-16900884D02*
X8508010Y-16900884D01*
X8508010Y-16900884D02*
X8527058Y-16910408D01*
X8527058Y-16910408D02*
X8536582Y-16919931D01*
X8536582Y-16919931D02*
X8546105Y-16938979D01*
X8546105Y-16938979D02*
X8555629Y-16977074D01*
X8555629Y-16977074D02*
X8555629Y-17024693D01*
X8555629Y-17024693D02*
X8546105Y-17062789D01*
X8546105Y-17062789D02*
X8536582Y-17081836D01*
X8536582Y-17081836D02*
X8527058Y-17091360D01*
X8527058Y-17091360D02*
X8508010Y-17100884D01*
X8508010Y-17100884D02*
X8488963Y-17100884D01*
X8488963Y-17100884D02*
X8469915Y-17091360D01*
X8469915Y-17091360D02*
X8460391Y-17081836D01*
X8460391Y-17081836D02*
X8450867Y-17062789D01*
X8450867Y-17062789D02*
X8441344Y-17024693D01*
X8441344Y-17024693D02*
X8441344Y-16977074D01*
X8441344Y-16977074D02*
X8450867Y-16938979D01*
X8450867Y-16938979D02*
X8460391Y-16919931D01*
X8460391Y-16919931D02*
X8469915Y-16910408D01*
X8469915Y-16910408D02*
X8488963Y-16900884D01*
X8679439Y-16900884D02*
X8698486Y-16900884D01*
X8698486Y-16900884D02*
X8717534Y-16910408D01*
X8717534Y-16910408D02*
X8727058Y-16919931D01*
X8727058Y-16919931D02*
X8736582Y-16938979D01*
X8736582Y-16938979D02*
X8746105Y-16977074D01*
X8746105Y-16977074D02*
X8746105Y-17024693D01*
X8746105Y-17024693D02*
X8736582Y-17062789D01*
X8736582Y-17062789D02*
X8727058Y-17081836D01*
X8727058Y-17081836D02*
X8717534Y-17091360D01*
X8717534Y-17091360D02*
X8698486Y-17100884D01*
X8698486Y-17100884D02*
X8679439Y-17100884D01*
X8679439Y-17100884D02*
X8660391Y-17091360D01*
X8660391Y-17091360D02*
X8650867Y-17081836D01*
X8650867Y-17081836D02*
X8641344Y-17062789D01*
X8641344Y-17062789D02*
X8631820Y-17024693D01*
X8631820Y-17024693D02*
X8631820Y-16977074D01*
X8631820Y-16977074D02*
X8641344Y-16938979D01*
X8641344Y-16938979D02*
X8650867Y-16919931D01*
X8650867Y-16919931D02*
X8660391Y-16910408D01*
X8660391Y-16910408D02*
X8679439Y-16900884D01*
X8831820Y-17100884D02*
X8831820Y-16967550D01*
X8831820Y-16986598D02*
X8841344Y-16977074D01*
X8841344Y-16977074D02*
X8860391Y-16967550D01*
X8860391Y-16967550D02*
X8888963Y-16967550D01*
X8888963Y-16967550D02*
X8908010Y-16977074D01*
X8908010Y-16977074D02*
X8917534Y-16996122D01*
X8917534Y-16996122D02*
X8917534Y-17100884D01*
X8917534Y-16996122D02*
X8927058Y-16977074D01*
X8927058Y-16977074D02*
X8946105Y-16967550D01*
X8946105Y-16967550D02*
X8974677Y-16967550D01*
X8974677Y-16967550D02*
X8993725Y-16977074D01*
X8993725Y-16977074D02*
X9003248Y-16996122D01*
X9003248Y-16996122D02*
X9003248Y-17100884D01*
X9098486Y-17100884D02*
X9098486Y-16967550D01*
X9098486Y-16986598D02*
X9108010Y-16977074D01*
X9108010Y-16977074D02*
X9127058Y-16967550D01*
X9127058Y-16967550D02*
X9155629Y-16967550D01*
X9155629Y-16967550D02*
X9174677Y-16977074D01*
X9174677Y-16977074D02*
X9184201Y-16996122D01*
X9184201Y-16996122D02*
X9184201Y-17100884D01*
X9184201Y-16996122D02*
X9193725Y-16977074D01*
X9193725Y-16977074D02*
X9212772Y-16967550D01*
X9212772Y-16967550D02*
X9241344Y-16967550D01*
X9241344Y-16967550D02*
X9260391Y-16977074D01*
X9260391Y-16977074D02*
X9269915Y-16996122D01*
X9269915Y-16996122D02*
X9269915Y-17100884D01*
X9660391Y-16891360D02*
X9488963Y-17148503D01*
X9917534Y-16900884D02*
X9936582Y-16900884D01*
X9936582Y-16900884D02*
X9955629Y-16910408D01*
X9955629Y-16910408D02*
X9965153Y-16919931D01*
X9965153Y-16919931D02*
X9974677Y-16938979D01*
X9974677Y-16938979D02*
X9984201Y-16977074D01*
X9984201Y-16977074D02*
X9984201Y-17024693D01*
X9984201Y-17024693D02*
X9974677Y-17062789D01*
X9974677Y-17062789D02*
X9965153Y-17081836D01*
X9965153Y-17081836D02*
X9955629Y-17091360D01*
X9955629Y-17091360D02*
X9936582Y-17100884D01*
X9936582Y-17100884D02*
X9917534Y-17100884D01*
X9917534Y-17100884D02*
X9898487Y-17091360D01*
X9898487Y-17091360D02*
X9888963Y-17081836D01*
X9888963Y-17081836D02*
X9879439Y-17062789D01*
X9879439Y-17062789D02*
X9869915Y-17024693D01*
X9869915Y-17024693D02*
X9869915Y-16977074D01*
X9869915Y-16977074D02*
X9879439Y-16938979D01*
X9879439Y-16938979D02*
X9888963Y-16919931D01*
X9888963Y-16919931D02*
X9898487Y-16910408D01*
X9898487Y-16910408D02*
X9917534Y-16900884D01*
X10069915Y-17081836D02*
X10079439Y-17091360D01*
X10079439Y-17091360D02*
X10069915Y-17100884D01*
X10069915Y-17100884D02*
X10060391Y-17091360D01*
X10060391Y-17091360D02*
X10069915Y-17081836D01*
X10069915Y-17081836D02*
X10069915Y-17100884D01*
X10269915Y-17100884D02*
X10155629Y-17100884D01*
X10212772Y-17100884D02*
X10212772Y-16900884D01*
X10212772Y-16900884D02*
X10193725Y-16929455D01*
X10193725Y-16929455D02*
X10174677Y-16948503D01*
X10174677Y-16948503D02*
X10155629Y-16958027D01*
X10460391Y-17100884D02*
X10346106Y-17100884D01*
X10403248Y-17100884D02*
X10403248Y-16900884D01*
X10403248Y-16900884D02*
X10384201Y-16929455D01*
X10384201Y-16929455D02*
X10365153Y-16948503D01*
X10365153Y-16948503D02*
X10346106Y-16958027D01*
X10574677Y-16986598D02*
X10555629Y-16977074D01*
X10555629Y-16977074D02*
X10546106Y-16967550D01*
X10546106Y-16967550D02*
X10536582Y-16948503D01*
X10536582Y-16948503D02*
X10536582Y-16938979D01*
X10536582Y-16938979D02*
X10546106Y-16919931D01*
X10546106Y-16919931D02*
X10555629Y-16910408D01*
X10555629Y-16910408D02*
X10574677Y-16900884D01*
X10574677Y-16900884D02*
X10612772Y-16900884D01*
X10612772Y-16900884D02*
X10631820Y-16910408D01*
X10631820Y-16910408D02*
X10641344Y-16919931D01*
X10641344Y-16919931D02*
X10650868Y-16938979D01*
X10650868Y-16938979D02*
X10650868Y-16948503D01*
X10650868Y-16948503D02*
X10641344Y-16967550D01*
X10641344Y-16967550D02*
X10631820Y-16977074D01*
X10631820Y-16977074D02*
X10612772Y-16986598D01*
X10612772Y-16986598D02*
X10574677Y-16986598D01*
X10574677Y-16986598D02*
X10555629Y-16996122D01*
X10555629Y-16996122D02*
X10546106Y-17005646D01*
X10546106Y-17005646D02*
X10536582Y-17024693D01*
X10536582Y-17024693D02*
X10536582Y-17062789D01*
X10536582Y-17062789D02*
X10546106Y-17081836D01*
X10546106Y-17081836D02*
X10555629Y-17091360D01*
X10555629Y-17091360D02*
X10574677Y-17100884D01*
X10574677Y-17100884D02*
X10612772Y-17100884D01*
X10612772Y-17100884D02*
X10631820Y-17091360D01*
X10631820Y-17091360D02*
X10641344Y-17081836D01*
X10641344Y-17081836D02*
X10650868Y-17062789D01*
X10650868Y-17062789D02*
X10650868Y-17024693D01*
X10650868Y-17024693D02*
X10641344Y-17005646D01*
X10641344Y-17005646D02*
X10631820Y-16996122D01*
X10631820Y-16996122D02*
X10612772Y-16986598D01*
X10841344Y-17100884D02*
X10727058Y-17100884D01*
X10784201Y-17100884D02*
X10784201Y-16900884D01*
X10784201Y-16900884D02*
X10765153Y-16929455D01*
X10765153Y-16929455D02*
X10746106Y-16948503D01*
X10746106Y-16948503D02*
X10727058Y-16958027D01*
X10917534Y-16900884D02*
X10917534Y-16938979D01*
X10993725Y-16900884D02*
X10993725Y-16938979D01*
X11288963Y-17177074D02*
X11279439Y-17167550D01*
X11279439Y-17167550D02*
X11260391Y-17138979D01*
X11260391Y-17138979D02*
X11250868Y-17119931D01*
X11250868Y-17119931D02*
X11241344Y-17091360D01*
X11241344Y-17091360D02*
X11231820Y-17043741D01*
X11231820Y-17043741D02*
X11231820Y-17005646D01*
X11231820Y-17005646D02*
X11241344Y-16958027D01*
X11241344Y-16958027D02*
X11250868Y-16929455D01*
X11250868Y-16929455D02*
X11260391Y-16910408D01*
X11260391Y-16910408D02*
X11279439Y-16881836D01*
X11279439Y-16881836D02*
X11288963Y-16872312D01*
X11355629Y-16919931D02*
X11365153Y-16910408D01*
X11365153Y-16910408D02*
X11384201Y-16900884D01*
X11384201Y-16900884D02*
X11431820Y-16900884D01*
X11431820Y-16900884D02*
X11450868Y-16910408D01*
X11450868Y-16910408D02*
X11460391Y-16919931D01*
X11460391Y-16919931D02*
X11469915Y-16938979D01*
X11469915Y-16938979D02*
X11469915Y-16958027D01*
X11469915Y-16958027D02*
X11460391Y-16986598D01*
X11460391Y-16986598D02*
X11346106Y-17100884D01*
X11346106Y-17100884D02*
X11469915Y-17100884D01*
X11708010Y-17100884D02*
X11708010Y-16900884D01*
X11793725Y-17100884D02*
X11793725Y-16996122D01*
X11793725Y-16996122D02*
X11784201Y-16977074D01*
X11784201Y-16977074D02*
X11765153Y-16967550D01*
X11765153Y-16967550D02*
X11736582Y-16967550D01*
X11736582Y-16967550D02*
X11717534Y-16977074D01*
X11717534Y-16977074D02*
X11708010Y-16986598D01*
X11917534Y-17100884D02*
X11898487Y-17091360D01*
X11898487Y-17091360D02*
X11888963Y-17081836D01*
X11888963Y-17081836D02*
X11879439Y-17062789D01*
X11879439Y-17062789D02*
X11879439Y-17005646D01*
X11879439Y-17005646D02*
X11888963Y-16986598D01*
X11888963Y-16986598D02*
X11898487Y-16977074D01*
X11898487Y-16977074D02*
X11917534Y-16967550D01*
X11917534Y-16967550D02*
X11946106Y-16967550D01*
X11946106Y-16967550D02*
X11965153Y-16977074D01*
X11965153Y-16977074D02*
X11974677Y-16986598D01*
X11974677Y-16986598D02*
X11984201Y-17005646D01*
X11984201Y-17005646D02*
X11984201Y-17062789D01*
X11984201Y-17062789D02*
X11974677Y-17081836D01*
X11974677Y-17081836D02*
X11965153Y-17091360D01*
X11965153Y-17091360D02*
X11946106Y-17100884D01*
X11946106Y-17100884D02*
X11917534Y-17100884D01*
X12098487Y-17100884D02*
X12079439Y-17091360D01*
X12079439Y-17091360D02*
X12069915Y-17072312D01*
X12069915Y-17072312D02*
X12069915Y-16900884D01*
X12250868Y-17091360D02*
X12231820Y-17100884D01*
X12231820Y-17100884D02*
X12193725Y-17100884D01*
X12193725Y-17100884D02*
X12174677Y-17091360D01*
X12174677Y-17091360D02*
X12165153Y-17072312D01*
X12165153Y-17072312D02*
X12165153Y-16996122D01*
X12165153Y-16996122D02*
X12174677Y-16977074D01*
X12174677Y-16977074D02*
X12193725Y-16967550D01*
X12193725Y-16967550D02*
X12231820Y-16967550D01*
X12231820Y-16967550D02*
X12250868Y-16977074D01*
X12250868Y-16977074D02*
X12260391Y-16996122D01*
X12260391Y-16996122D02*
X12260391Y-17015170D01*
X12260391Y-17015170D02*
X12165153Y-17034217D01*
X12336582Y-17091360D02*
X12355630Y-17100884D01*
X12355630Y-17100884D02*
X12393725Y-17100884D01*
X12393725Y-17100884D02*
X12412772Y-17091360D01*
X12412772Y-17091360D02*
X12422296Y-17072312D01*
X12422296Y-17072312D02*
X12422296Y-17062789D01*
X12422296Y-17062789D02*
X12412772Y-17043741D01*
X12412772Y-17043741D02*
X12393725Y-17034217D01*
X12393725Y-17034217D02*
X12365153Y-17034217D01*
X12365153Y-17034217D02*
X12346106Y-17024693D01*
X12346106Y-17024693D02*
X12336582Y-17005646D01*
X12336582Y-17005646D02*
X12336582Y-16996122D01*
X12336582Y-16996122D02*
X12346106Y-16977074D01*
X12346106Y-16977074D02*
X12365153Y-16967550D01*
X12365153Y-16967550D02*
X12393725Y-16967550D01*
X12393725Y-16967550D02*
X12412772Y-16977074D01*
X12488963Y-17177074D02*
X12498487Y-17167550D01*
X12498487Y-17167550D02*
X12517534Y-17138979D01*
X12517534Y-17138979D02*
X12527058Y-17119931D01*
X12527058Y-17119931D02*
X12536582Y-17091360D01*
X12536582Y-17091360D02*
X12546106Y-17043741D01*
X12546106Y-17043741D02*
X12546106Y-17005646D01*
X12546106Y-17005646D02*
X12536582Y-16958027D01*
X12536582Y-16958027D02*
X12527058Y-16929455D01*
X12527058Y-16929455D02*
X12517534Y-16910408D01*
X12517534Y-16910408D02*
X12498487Y-16881836D01*
X12498487Y-16881836D02*
X12488963Y-16872312D01*
X12850868Y-17177074D02*
X12841344Y-17167550D01*
X12841344Y-17167550D02*
X12822296Y-17138979D01*
X12822296Y-17138979D02*
X12812772Y-17119931D01*
X12812772Y-17119931D02*
X12803249Y-17091360D01*
X12803249Y-17091360D02*
X12793725Y-17043741D01*
X12793725Y-17043741D02*
X12793725Y-17005646D01*
X12793725Y-17005646D02*
X12803249Y-16958027D01*
X12803249Y-16958027D02*
X12812772Y-16929455D01*
X12812772Y-16929455D02*
X12822296Y-16910408D01*
X12822296Y-16910408D02*
X12841344Y-16881836D01*
X12841344Y-16881836D02*
X12850868Y-16872312D01*
X12927058Y-16967550D02*
X12927058Y-17100884D01*
X12927058Y-16986598D02*
X12936582Y-16977074D01*
X12936582Y-16977074D02*
X12955630Y-16967550D01*
X12955630Y-16967550D02*
X12984201Y-16967550D01*
X12984201Y-16967550D02*
X13003249Y-16977074D01*
X13003249Y-16977074D02*
X13012772Y-16996122D01*
X13012772Y-16996122D02*
X13012772Y-17100884D01*
X13136582Y-17100884D02*
X13117534Y-17091360D01*
X13117534Y-17091360D02*
X13108011Y-17081836D01*
X13108011Y-17081836D02*
X13098487Y-17062789D01*
X13098487Y-17062789D02*
X13098487Y-17005646D01*
X13098487Y-17005646D02*
X13108011Y-16986598D01*
X13108011Y-16986598D02*
X13117534Y-16977074D01*
X13117534Y-16977074D02*
X13136582Y-16967550D01*
X13136582Y-16967550D02*
X13165153Y-16967550D01*
X13165153Y-16967550D02*
X13184201Y-16977074D01*
X13184201Y-16977074D02*
X13193725Y-16986598D01*
X13193725Y-16986598D02*
X13203249Y-17005646D01*
X13203249Y-17005646D02*
X13203249Y-17062789D01*
X13203249Y-17062789D02*
X13193725Y-17081836D01*
X13193725Y-17081836D02*
X13184201Y-17091360D01*
X13184201Y-17091360D02*
X13165153Y-17100884D01*
X13165153Y-17100884D02*
X13136582Y-17100884D01*
X13260392Y-16967550D02*
X13336582Y-16967550D01*
X13288963Y-16900884D02*
X13288963Y-17072312D01*
X13288963Y-17072312D02*
X13298487Y-17091360D01*
X13298487Y-17091360D02*
X13317534Y-17100884D01*
X13317534Y-17100884D02*
X13336582Y-17100884D01*
X13555630Y-16967550D02*
X13555630Y-17167550D01*
X13555630Y-16977074D02*
X13574677Y-16967550D01*
X13574677Y-16967550D02*
X13612773Y-16967550D01*
X13612773Y-16967550D02*
X13631820Y-16977074D01*
X13631820Y-16977074D02*
X13641344Y-16986598D01*
X13641344Y-16986598D02*
X13650868Y-17005646D01*
X13650868Y-17005646D02*
X13650868Y-17062789D01*
X13650868Y-17062789D02*
X13641344Y-17081836D01*
X13641344Y-17081836D02*
X13631820Y-17091360D01*
X13631820Y-17091360D02*
X13612773Y-17100884D01*
X13612773Y-17100884D02*
X13574677Y-17100884D01*
X13574677Y-17100884D02*
X13555630Y-17091360D01*
X13765153Y-17100884D02*
X13746106Y-17091360D01*
X13746106Y-17091360D02*
X13736582Y-17072312D01*
X13736582Y-17072312D02*
X13736582Y-16900884D01*
X13927058Y-17100884D02*
X13927058Y-16996122D01*
X13927058Y-16996122D02*
X13917534Y-16977074D01*
X13917534Y-16977074D02*
X13898487Y-16967550D01*
X13898487Y-16967550D02*
X13860392Y-16967550D01*
X13860392Y-16967550D02*
X13841344Y-16977074D01*
X13927058Y-17091360D02*
X13908011Y-17100884D01*
X13908011Y-17100884D02*
X13860392Y-17100884D01*
X13860392Y-17100884D02*
X13841344Y-17091360D01*
X13841344Y-17091360D02*
X13831820Y-17072312D01*
X13831820Y-17072312D02*
X13831820Y-17053265D01*
X13831820Y-17053265D02*
X13841344Y-17034217D01*
X13841344Y-17034217D02*
X13860392Y-17024693D01*
X13860392Y-17024693D02*
X13908011Y-17024693D01*
X13908011Y-17024693D02*
X13927058Y-17015170D01*
X13993725Y-16967550D02*
X14069915Y-16967550D01*
X14022296Y-16900884D02*
X14022296Y-17072312D01*
X14022296Y-17072312D02*
X14031820Y-17091360D01*
X14031820Y-17091360D02*
X14050868Y-17100884D01*
X14050868Y-17100884D02*
X14069915Y-17100884D01*
X14212773Y-17091360D02*
X14193725Y-17100884D01*
X14193725Y-17100884D02*
X14155630Y-17100884D01*
X14155630Y-17100884D02*
X14136582Y-17091360D01*
X14136582Y-17091360D02*
X14127058Y-17072312D01*
X14127058Y-17072312D02*
X14127058Y-16996122D01*
X14127058Y-16996122D02*
X14136582Y-16977074D01*
X14136582Y-16977074D02*
X14155630Y-16967550D01*
X14155630Y-16967550D02*
X14193725Y-16967550D01*
X14193725Y-16967550D02*
X14212773Y-16977074D01*
X14212773Y-16977074D02*
X14222296Y-16996122D01*
X14222296Y-16996122D02*
X14222296Y-17015170D01*
X14222296Y-17015170D02*
X14127058Y-17034217D01*
X14393725Y-17100884D02*
X14393725Y-16900884D01*
X14393725Y-17091360D02*
X14374677Y-17100884D01*
X14374677Y-17100884D02*
X14336582Y-17100884D01*
X14336582Y-17100884D02*
X14317534Y-17091360D01*
X14317534Y-17091360D02*
X14308011Y-17081836D01*
X14308011Y-17081836D02*
X14298487Y-17062789D01*
X14298487Y-17062789D02*
X14298487Y-17005646D01*
X14298487Y-17005646D02*
X14308011Y-16986598D01*
X14308011Y-16986598D02*
X14317534Y-16977074D01*
X14317534Y-16977074D02*
X14336582Y-16967550D01*
X14336582Y-16967550D02*
X14374677Y-16967550D01*
X14374677Y-16967550D02*
X14393725Y-16977074D01*
X14469915Y-17177074D02*
X14479439Y-17167550D01*
X14479439Y-17167550D02*
X14498487Y-17138979D01*
X14498487Y-17138979D02*
X14508011Y-17119931D01*
X14508011Y-17119931D02*
X14517534Y-17091360D01*
X14517534Y-17091360D02*
X14527058Y-17043741D01*
X14527058Y-17043741D02*
X14527058Y-17005646D01*
X14527058Y-17005646D02*
X14517534Y-16958027D01*
X14517534Y-16958027D02*
X14508011Y-16929455D01*
X14508011Y-16929455D02*
X14498487Y-16910408D01*
X14498487Y-16910408D02*
X14479439Y-16881836D01*
X14479439Y-16881836D02*
X14469915Y-16872312D01*
X7513900Y-17229400D02*
X7713900Y-17429400D01*
X7713900Y-17229400D02*
X7513900Y-17429400D01*
X7684611Y-17400111D02*
X7684611Y-17258689D01*
X7543189Y-17258689D01*
X7543189Y-17400111D01*
X7684611Y-17400111D01*
X7955629Y-17220884D02*
X8079439Y-17220884D01*
X8079439Y-17220884D02*
X8012772Y-17297074D01*
X8012772Y-17297074D02*
X8041343Y-17297074D01*
X8041343Y-17297074D02*
X8060391Y-17306598D01*
X8060391Y-17306598D02*
X8069915Y-17316122D01*
X8069915Y-17316122D02*
X8079439Y-17335170D01*
X8079439Y-17335170D02*
X8079439Y-17382789D01*
X8079439Y-17382789D02*
X8069915Y-17401836D01*
X8069915Y-17401836D02*
X8060391Y-17411360D01*
X8060391Y-17411360D02*
X8041343Y-17420884D01*
X8041343Y-17420884D02*
X7984201Y-17420884D01*
X7984201Y-17420884D02*
X7965153Y-17411360D01*
X7965153Y-17411360D02*
X7955629Y-17401836D01*
X8165153Y-17401836D02*
X8174677Y-17411360D01*
X8174677Y-17411360D02*
X8165153Y-17420884D01*
X8165153Y-17420884D02*
X8155629Y-17411360D01*
X8155629Y-17411360D02*
X8165153Y-17401836D01*
X8165153Y-17401836D02*
X8165153Y-17420884D01*
X8355629Y-17220884D02*
X8260391Y-17220884D01*
X8260391Y-17220884D02*
X8250867Y-17316122D01*
X8250867Y-17316122D02*
X8260391Y-17306598D01*
X8260391Y-17306598D02*
X8279439Y-17297074D01*
X8279439Y-17297074D02*
X8327058Y-17297074D01*
X8327058Y-17297074D02*
X8346105Y-17306598D01*
X8346105Y-17306598D02*
X8355629Y-17316122D01*
X8355629Y-17316122D02*
X8365153Y-17335170D01*
X8365153Y-17335170D02*
X8365153Y-17382789D01*
X8365153Y-17382789D02*
X8355629Y-17401836D01*
X8355629Y-17401836D02*
X8346105Y-17411360D01*
X8346105Y-17411360D02*
X8327058Y-17420884D01*
X8327058Y-17420884D02*
X8279439Y-17420884D01*
X8279439Y-17420884D02*
X8260391Y-17411360D01*
X8260391Y-17411360D02*
X8250867Y-17401836D01*
X8488963Y-17220884D02*
X8508010Y-17220884D01*
X8508010Y-17220884D02*
X8527058Y-17230408D01*
X8527058Y-17230408D02*
X8536582Y-17239931D01*
X8536582Y-17239931D02*
X8546105Y-17258979D01*
X8546105Y-17258979D02*
X8555629Y-17297074D01*
X8555629Y-17297074D02*
X8555629Y-17344693D01*
X8555629Y-17344693D02*
X8546105Y-17382789D01*
X8546105Y-17382789D02*
X8536582Y-17401836D01*
X8536582Y-17401836D02*
X8527058Y-17411360D01*
X8527058Y-17411360D02*
X8508010Y-17420884D01*
X8508010Y-17420884D02*
X8488963Y-17420884D01*
X8488963Y-17420884D02*
X8469915Y-17411360D01*
X8469915Y-17411360D02*
X8460391Y-17401836D01*
X8460391Y-17401836D02*
X8450867Y-17382789D01*
X8450867Y-17382789D02*
X8441344Y-17344693D01*
X8441344Y-17344693D02*
X8441344Y-17297074D01*
X8441344Y-17297074D02*
X8450867Y-17258979D01*
X8450867Y-17258979D02*
X8460391Y-17239931D01*
X8460391Y-17239931D02*
X8469915Y-17230408D01*
X8469915Y-17230408D02*
X8488963Y-17220884D01*
X8679439Y-17220884D02*
X8698486Y-17220884D01*
X8698486Y-17220884D02*
X8717534Y-17230408D01*
X8717534Y-17230408D02*
X8727058Y-17239931D01*
X8727058Y-17239931D02*
X8736582Y-17258979D01*
X8736582Y-17258979D02*
X8746105Y-17297074D01*
X8746105Y-17297074D02*
X8746105Y-17344693D01*
X8746105Y-17344693D02*
X8736582Y-17382789D01*
X8736582Y-17382789D02*
X8727058Y-17401836D01*
X8727058Y-17401836D02*
X8717534Y-17411360D01*
X8717534Y-17411360D02*
X8698486Y-17420884D01*
X8698486Y-17420884D02*
X8679439Y-17420884D01*
X8679439Y-17420884D02*
X8660391Y-17411360D01*
X8660391Y-17411360D02*
X8650867Y-17401836D01*
X8650867Y-17401836D02*
X8641344Y-17382789D01*
X8641344Y-17382789D02*
X8631820Y-17344693D01*
X8631820Y-17344693D02*
X8631820Y-17297074D01*
X8631820Y-17297074D02*
X8641344Y-17258979D01*
X8641344Y-17258979D02*
X8650867Y-17239931D01*
X8650867Y-17239931D02*
X8660391Y-17230408D01*
X8660391Y-17230408D02*
X8679439Y-17220884D01*
X8831820Y-17420884D02*
X8831820Y-17287550D01*
X8831820Y-17306598D02*
X8841344Y-17297074D01*
X8841344Y-17297074D02*
X8860391Y-17287550D01*
X8860391Y-17287550D02*
X8888963Y-17287550D01*
X8888963Y-17287550D02*
X8908010Y-17297074D01*
X8908010Y-17297074D02*
X8917534Y-17316122D01*
X8917534Y-17316122D02*
X8917534Y-17420884D01*
X8917534Y-17316122D02*
X8927058Y-17297074D01*
X8927058Y-17297074D02*
X8946105Y-17287550D01*
X8946105Y-17287550D02*
X8974677Y-17287550D01*
X8974677Y-17287550D02*
X8993725Y-17297074D01*
X8993725Y-17297074D02*
X9003248Y-17316122D01*
X9003248Y-17316122D02*
X9003248Y-17420884D01*
X9098486Y-17420884D02*
X9098486Y-17287550D01*
X9098486Y-17306598D02*
X9108010Y-17297074D01*
X9108010Y-17297074D02*
X9127058Y-17287550D01*
X9127058Y-17287550D02*
X9155629Y-17287550D01*
X9155629Y-17287550D02*
X9174677Y-17297074D01*
X9174677Y-17297074D02*
X9184201Y-17316122D01*
X9184201Y-17316122D02*
X9184201Y-17420884D01*
X9184201Y-17316122D02*
X9193725Y-17297074D01*
X9193725Y-17297074D02*
X9212772Y-17287550D01*
X9212772Y-17287550D02*
X9241344Y-17287550D01*
X9241344Y-17287550D02*
X9260391Y-17297074D01*
X9260391Y-17297074D02*
X9269915Y-17316122D01*
X9269915Y-17316122D02*
X9269915Y-17420884D01*
X9660391Y-17211360D02*
X9488963Y-17468503D01*
X9917534Y-17220884D02*
X9936582Y-17220884D01*
X9936582Y-17220884D02*
X9955629Y-17230408D01*
X9955629Y-17230408D02*
X9965153Y-17239931D01*
X9965153Y-17239931D02*
X9974677Y-17258979D01*
X9974677Y-17258979D02*
X9984201Y-17297074D01*
X9984201Y-17297074D02*
X9984201Y-17344693D01*
X9984201Y-17344693D02*
X9974677Y-17382789D01*
X9974677Y-17382789D02*
X9965153Y-17401836D01*
X9965153Y-17401836D02*
X9955629Y-17411360D01*
X9955629Y-17411360D02*
X9936582Y-17420884D01*
X9936582Y-17420884D02*
X9917534Y-17420884D01*
X9917534Y-17420884D02*
X9898487Y-17411360D01*
X9898487Y-17411360D02*
X9888963Y-17401836D01*
X9888963Y-17401836D02*
X9879439Y-17382789D01*
X9879439Y-17382789D02*
X9869915Y-17344693D01*
X9869915Y-17344693D02*
X9869915Y-17297074D01*
X9869915Y-17297074D02*
X9879439Y-17258979D01*
X9879439Y-17258979D02*
X9888963Y-17239931D01*
X9888963Y-17239931D02*
X9898487Y-17230408D01*
X9898487Y-17230408D02*
X9917534Y-17220884D01*
X10069915Y-17401836D02*
X10079439Y-17411360D01*
X10079439Y-17411360D02*
X10069915Y-17420884D01*
X10069915Y-17420884D02*
X10060391Y-17411360D01*
X10060391Y-17411360D02*
X10069915Y-17401836D01*
X10069915Y-17401836D02*
X10069915Y-17420884D01*
X10269915Y-17420884D02*
X10155629Y-17420884D01*
X10212772Y-17420884D02*
X10212772Y-17220884D01*
X10212772Y-17220884D02*
X10193725Y-17249455D01*
X10193725Y-17249455D02*
X10174677Y-17268503D01*
X10174677Y-17268503D02*
X10155629Y-17278027D01*
X10336582Y-17220884D02*
X10460391Y-17220884D01*
X10460391Y-17220884D02*
X10393725Y-17297074D01*
X10393725Y-17297074D02*
X10422296Y-17297074D01*
X10422296Y-17297074D02*
X10441344Y-17306598D01*
X10441344Y-17306598D02*
X10450868Y-17316122D01*
X10450868Y-17316122D02*
X10460391Y-17335170D01*
X10460391Y-17335170D02*
X10460391Y-17382789D01*
X10460391Y-17382789D02*
X10450868Y-17401836D01*
X10450868Y-17401836D02*
X10441344Y-17411360D01*
X10441344Y-17411360D02*
X10422296Y-17420884D01*
X10422296Y-17420884D02*
X10365153Y-17420884D01*
X10365153Y-17420884D02*
X10346106Y-17411360D01*
X10346106Y-17411360D02*
X10336582Y-17401836D01*
X10527058Y-17220884D02*
X10660391Y-17220884D01*
X10660391Y-17220884D02*
X10574677Y-17420884D01*
X10765153Y-17306598D02*
X10746106Y-17297074D01*
X10746106Y-17297074D02*
X10736582Y-17287550D01*
X10736582Y-17287550D02*
X10727058Y-17268503D01*
X10727058Y-17268503D02*
X10727058Y-17258979D01*
X10727058Y-17258979D02*
X10736582Y-17239931D01*
X10736582Y-17239931D02*
X10746106Y-17230408D01*
X10746106Y-17230408D02*
X10765153Y-17220884D01*
X10765153Y-17220884D02*
X10803249Y-17220884D01*
X10803249Y-17220884D02*
X10822296Y-17230408D01*
X10822296Y-17230408D02*
X10831820Y-17239931D01*
X10831820Y-17239931D02*
X10841344Y-17258979D01*
X10841344Y-17258979D02*
X10841344Y-17268503D01*
X10841344Y-17268503D02*
X10831820Y-17287550D01*
X10831820Y-17287550D02*
X10822296Y-17297074D01*
X10822296Y-17297074D02*
X10803249Y-17306598D01*
X10803249Y-17306598D02*
X10765153Y-17306598D01*
X10765153Y-17306598D02*
X10746106Y-17316122D01*
X10746106Y-17316122D02*
X10736582Y-17325646D01*
X10736582Y-17325646D02*
X10727058Y-17344693D01*
X10727058Y-17344693D02*
X10727058Y-17382789D01*
X10727058Y-17382789D02*
X10736582Y-17401836D01*
X10736582Y-17401836D02*
X10746106Y-17411360D01*
X10746106Y-17411360D02*
X10765153Y-17420884D01*
X10765153Y-17420884D02*
X10803249Y-17420884D01*
X10803249Y-17420884D02*
X10822296Y-17411360D01*
X10822296Y-17411360D02*
X10831820Y-17401836D01*
X10831820Y-17401836D02*
X10841344Y-17382789D01*
X10841344Y-17382789D02*
X10841344Y-17344693D01*
X10841344Y-17344693D02*
X10831820Y-17325646D01*
X10831820Y-17325646D02*
X10822296Y-17316122D01*
X10822296Y-17316122D02*
X10803249Y-17306598D01*
X10917534Y-17220884D02*
X10917534Y-17258979D01*
X10993725Y-17220884D02*
X10993725Y-17258979D01*
X11288963Y-17497074D02*
X11279439Y-17487550D01*
X11279439Y-17487550D02*
X11260391Y-17458979D01*
X11260391Y-17458979D02*
X11250868Y-17439931D01*
X11250868Y-17439931D02*
X11241344Y-17411360D01*
X11241344Y-17411360D02*
X11231820Y-17363741D01*
X11231820Y-17363741D02*
X11231820Y-17325646D01*
X11231820Y-17325646D02*
X11241344Y-17278027D01*
X11241344Y-17278027D02*
X11250868Y-17249455D01*
X11250868Y-17249455D02*
X11260391Y-17230408D01*
X11260391Y-17230408D02*
X11279439Y-17201836D01*
X11279439Y-17201836D02*
X11288963Y-17192312D01*
X11469915Y-17420884D02*
X11355629Y-17420884D01*
X11412772Y-17420884D02*
X11412772Y-17220884D01*
X11412772Y-17220884D02*
X11393725Y-17249455D01*
X11393725Y-17249455D02*
X11374677Y-17268503D01*
X11374677Y-17268503D02*
X11355629Y-17278027D01*
X11708010Y-17420884D02*
X11708010Y-17220884D01*
X11793725Y-17420884D02*
X11793725Y-17316122D01*
X11793725Y-17316122D02*
X11784201Y-17297074D01*
X11784201Y-17297074D02*
X11765153Y-17287550D01*
X11765153Y-17287550D02*
X11736582Y-17287550D01*
X11736582Y-17287550D02*
X11717534Y-17297074D01*
X11717534Y-17297074D02*
X11708010Y-17306598D01*
X11917534Y-17420884D02*
X11898487Y-17411360D01*
X11898487Y-17411360D02*
X11888963Y-17401836D01*
X11888963Y-17401836D02*
X11879439Y-17382789D01*
X11879439Y-17382789D02*
X11879439Y-17325646D01*
X11879439Y-17325646D02*
X11888963Y-17306598D01*
X11888963Y-17306598D02*
X11898487Y-17297074D01*
X11898487Y-17297074D02*
X11917534Y-17287550D01*
X11917534Y-17287550D02*
X11946106Y-17287550D01*
X11946106Y-17287550D02*
X11965153Y-17297074D01*
X11965153Y-17297074D02*
X11974677Y-17306598D01*
X11974677Y-17306598D02*
X11984201Y-17325646D01*
X11984201Y-17325646D02*
X11984201Y-17382789D01*
X11984201Y-17382789D02*
X11974677Y-17401836D01*
X11974677Y-17401836D02*
X11965153Y-17411360D01*
X11965153Y-17411360D02*
X11946106Y-17420884D01*
X11946106Y-17420884D02*
X11917534Y-17420884D01*
X12098487Y-17420884D02*
X12079439Y-17411360D01*
X12079439Y-17411360D02*
X12069915Y-17392312D01*
X12069915Y-17392312D02*
X12069915Y-17220884D01*
X12250868Y-17411360D02*
X12231820Y-17420884D01*
X12231820Y-17420884D02*
X12193725Y-17420884D01*
X12193725Y-17420884D02*
X12174677Y-17411360D01*
X12174677Y-17411360D02*
X12165153Y-17392312D01*
X12165153Y-17392312D02*
X12165153Y-17316122D01*
X12165153Y-17316122D02*
X12174677Y-17297074D01*
X12174677Y-17297074D02*
X12193725Y-17287550D01*
X12193725Y-17287550D02*
X12231820Y-17287550D01*
X12231820Y-17287550D02*
X12250868Y-17297074D01*
X12250868Y-17297074D02*
X12260391Y-17316122D01*
X12260391Y-17316122D02*
X12260391Y-17335170D01*
X12260391Y-17335170D02*
X12165153Y-17354217D01*
X12327058Y-17497074D02*
X12336582Y-17487550D01*
X12336582Y-17487550D02*
X12355630Y-17458979D01*
X12355630Y-17458979D02*
X12365153Y-17439931D01*
X12365153Y-17439931D02*
X12374677Y-17411360D01*
X12374677Y-17411360D02*
X12384201Y-17363741D01*
X12384201Y-17363741D02*
X12384201Y-17325646D01*
X12384201Y-17325646D02*
X12374677Y-17278027D01*
X12374677Y-17278027D02*
X12365153Y-17249455D01*
X12365153Y-17249455D02*
X12355630Y-17230408D01*
X12355630Y-17230408D02*
X12336582Y-17201836D01*
X12336582Y-17201836D02*
X12327058Y-17192312D01*
X12688963Y-17497074D02*
X12679439Y-17487550D01*
X12679439Y-17487550D02*
X12660391Y-17458979D01*
X12660391Y-17458979D02*
X12650868Y-17439931D01*
X12650868Y-17439931D02*
X12641344Y-17411360D01*
X12641344Y-17411360D02*
X12631820Y-17363741D01*
X12631820Y-17363741D02*
X12631820Y-17325646D01*
X12631820Y-17325646D02*
X12641344Y-17278027D01*
X12641344Y-17278027D02*
X12650868Y-17249455D01*
X12650868Y-17249455D02*
X12660391Y-17230408D01*
X12660391Y-17230408D02*
X12679439Y-17201836D01*
X12679439Y-17201836D02*
X12688963Y-17192312D01*
X12765153Y-17287550D02*
X12765153Y-17420884D01*
X12765153Y-17306598D02*
X12774677Y-17297074D01*
X12774677Y-17297074D02*
X12793725Y-17287550D01*
X12793725Y-17287550D02*
X12822296Y-17287550D01*
X12822296Y-17287550D02*
X12841344Y-17297074D01*
X12841344Y-17297074D02*
X12850868Y-17316122D01*
X12850868Y-17316122D02*
X12850868Y-17420884D01*
X12974677Y-17420884D02*
X12955630Y-17411360D01*
X12955630Y-17411360D02*
X12946106Y-17401836D01*
X12946106Y-17401836D02*
X12936582Y-17382789D01*
X12936582Y-17382789D02*
X12936582Y-17325646D01*
X12936582Y-17325646D02*
X12946106Y-17306598D01*
X12946106Y-17306598D02*
X12955630Y-17297074D01*
X12955630Y-17297074D02*
X12974677Y-17287550D01*
X12974677Y-17287550D02*
X13003249Y-17287550D01*
X13003249Y-17287550D02*
X13022296Y-17297074D01*
X13022296Y-17297074D02*
X13031820Y-17306598D01*
X13031820Y-17306598D02*
X13041344Y-17325646D01*
X13041344Y-17325646D02*
X13041344Y-17382789D01*
X13041344Y-17382789D02*
X13031820Y-17401836D01*
X13031820Y-17401836D02*
X13022296Y-17411360D01*
X13022296Y-17411360D02*
X13003249Y-17420884D01*
X13003249Y-17420884D02*
X12974677Y-17420884D01*
X13098487Y-17287550D02*
X13174677Y-17287550D01*
X13127058Y-17220884D02*
X13127058Y-17392312D01*
X13127058Y-17392312D02*
X13136582Y-17411360D01*
X13136582Y-17411360D02*
X13155630Y-17420884D01*
X13155630Y-17420884D02*
X13174677Y-17420884D01*
X13393725Y-17287550D02*
X13393725Y-17487550D01*
X13393725Y-17297074D02*
X13412772Y-17287550D01*
X13412772Y-17287550D02*
X13450868Y-17287550D01*
X13450868Y-17287550D02*
X13469915Y-17297074D01*
X13469915Y-17297074D02*
X13479439Y-17306598D01*
X13479439Y-17306598D02*
X13488963Y-17325646D01*
X13488963Y-17325646D02*
X13488963Y-17382789D01*
X13488963Y-17382789D02*
X13479439Y-17401836D01*
X13479439Y-17401836D02*
X13469915Y-17411360D01*
X13469915Y-17411360D02*
X13450868Y-17420884D01*
X13450868Y-17420884D02*
X13412772Y-17420884D01*
X13412772Y-17420884D02*
X13393725Y-17411360D01*
X13603249Y-17420884D02*
X13584201Y-17411360D01*
X13584201Y-17411360D02*
X13574677Y-17392312D01*
X13574677Y-17392312D02*
X13574677Y-17220884D01*
X13765153Y-17420884D02*
X13765153Y-17316122D01*
X13765153Y-17316122D02*
X13755630Y-17297074D01*
X13755630Y-17297074D02*
X13736582Y-17287550D01*
X13736582Y-17287550D02*
X13698487Y-17287550D01*
X13698487Y-17287550D02*
X13679439Y-17297074D01*
X13765153Y-17411360D02*
X13746106Y-17420884D01*
X13746106Y-17420884D02*
X13698487Y-17420884D01*
X13698487Y-17420884D02*
X13679439Y-17411360D01*
X13679439Y-17411360D02*
X13669915Y-17392312D01*
X13669915Y-17392312D02*
X13669915Y-17373265D01*
X13669915Y-17373265D02*
X13679439Y-17354217D01*
X13679439Y-17354217D02*
X13698487Y-17344693D01*
X13698487Y-17344693D02*
X13746106Y-17344693D01*
X13746106Y-17344693D02*
X13765153Y-17335170D01*
X13831820Y-17287550D02*
X13908011Y-17287550D01*
X13860392Y-17220884D02*
X13860392Y-17392312D01*
X13860392Y-17392312D02*
X13869915Y-17411360D01*
X13869915Y-17411360D02*
X13888963Y-17420884D01*
X13888963Y-17420884D02*
X13908011Y-17420884D01*
X14050868Y-17411360D02*
X14031820Y-17420884D01*
X14031820Y-17420884D02*
X13993725Y-17420884D01*
X13993725Y-17420884D02*
X13974677Y-17411360D01*
X13974677Y-17411360D02*
X13965153Y-17392312D01*
X13965153Y-17392312D02*
X13965153Y-17316122D01*
X13965153Y-17316122D02*
X13974677Y-17297074D01*
X13974677Y-17297074D02*
X13993725Y-17287550D01*
X13993725Y-17287550D02*
X14031820Y-17287550D01*
X14031820Y-17287550D02*
X14050868Y-17297074D01*
X14050868Y-17297074D02*
X14060392Y-17316122D01*
X14060392Y-17316122D02*
X14060392Y-17335170D01*
X14060392Y-17335170D02*
X13965153Y-17354217D01*
X14231820Y-17420884D02*
X14231820Y-17220884D01*
X14231820Y-17411360D02*
X14212773Y-17420884D01*
X14212773Y-17420884D02*
X14174677Y-17420884D01*
X14174677Y-17420884D02*
X14155630Y-17411360D01*
X14155630Y-17411360D02*
X14146106Y-17401836D01*
X14146106Y-17401836D02*
X14136582Y-17382789D01*
X14136582Y-17382789D02*
X14136582Y-17325646D01*
X14136582Y-17325646D02*
X14146106Y-17306598D01*
X14146106Y-17306598D02*
X14155630Y-17297074D01*
X14155630Y-17297074D02*
X14174677Y-17287550D01*
X14174677Y-17287550D02*
X14212773Y-17287550D01*
X14212773Y-17287550D02*
X14231820Y-17297074D01*
X14308011Y-17497074D02*
X14317534Y-17487550D01*
X14317534Y-17487550D02*
X14336582Y-17458979D01*
X14336582Y-17458979D02*
X14346106Y-17439931D01*
X14346106Y-17439931D02*
X14355630Y-17411360D01*
X14355630Y-17411360D02*
X14365153Y-17363741D01*
X14365153Y-17363741D02*
X14365153Y-17325646D01*
X14365153Y-17325646D02*
X14355630Y-17278027D01*
X14355630Y-17278027D02*
X14346106Y-17249455D01*
X14346106Y-17249455D02*
X14336582Y-17230408D01*
X14336582Y-17230408D02*
X14317534Y-17201836D01*
X14317534Y-17201836D02*
X14308011Y-17192312D01*
M02*
