G04 #@! TF.GenerationSoftware,KiCad,Pcbnew,8.0.4*
G04 #@! TF.CreationDate,2024-11-26T00:50:50-06:00*
G04 #@! TF.ProjectId,bitaxeUltra,62697461-7865-4556-9c74-72612e6b6963,rev?*
G04 #@! TF.SameCoordinates,Original*
G04 #@! TF.FileFunction,Paste,Bot*
G04 #@! TF.FilePolarity,Positive*
%FSLAX46Y46*%
G04 Gerber Fmt 4.6, Leading zero omitted, Abs format (unit mm)*
G04 Created by KiCad (PCBNEW 8.0.4) date 2024-11-26 00:50:50*
%MOMM*%
%LPD*%
G01*
G04 APERTURE LIST*
G04 Aperture macros list*
%AMRoundRect*
0 Rectangle with rounded corners*
0 $1 Rounding radius*
0 $2 $3 $4 $5 $6 $7 $8 $9 X,Y pos of 4 corners*
0 Add a 4 corners polygon primitive as box body*
4,1,4,$2,$3,$4,$5,$6,$7,$8,$9,$2,$3,0*
0 Add four circle primitives for the rounded corners*
1,1,$1+$1,$2,$3*
1,1,$1+$1,$4,$5*
1,1,$1+$1,$6,$7*
1,1,$1+$1,$8,$9*
0 Add four rect primitives between the rounded corners*
20,1,$1+$1,$2,$3,$4,$5,0*
20,1,$1+$1,$4,$5,$6,$7,0*
20,1,$1+$1,$6,$7,$8,$9,0*
20,1,$1+$1,$8,$9,$2,$3,0*%
G04 Aperture macros list end*
%ADD10C,0.001000*%
%ADD11C,0.010000*%
%ADD12R,1.150000X0.600000*%
%ADD13R,1.150000X0.300000*%
%ADD14O,1.800000X1.000000*%
%ADD15O,2.100000X1.000000*%
%ADD16R,0.900000X1.500000*%
%ADD17R,1.500000X0.900000*%
%ADD18R,0.900000X0.900000*%
%ADD19R,0.792000X0.221000*%
%ADD20RoundRect,0.250000X-0.550000X1.500000X-0.550000X-1.500000X0.550000X-1.500000X0.550000X1.500000X0*%
%ADD21RoundRect,0.250000X0.750000X-0.750000X0.750000X0.750000X-0.750000X0.750000X-0.750000X-0.750000X0*%
%ADD22R,1.800000X0.600000*%
%ADD23R,0.900000X1.300000*%
%ADD24RoundRect,0.218750X-0.256250X0.218750X-0.256250X-0.218750X0.256250X-0.218750X0.256250X0.218750X0*%
G04 APERTURE END LIST*
D10*
X105062000Y-113158000D02*
X103862000Y-113158000D01*
X103862000Y-113948000D01*
X105062000Y-113948000D01*
X105062000Y-113158000D01*
G36*
X105062000Y-113158000D02*
G01*
X103862000Y-113158000D01*
X103862000Y-113948000D01*
X105062000Y-113948000D01*
X105062000Y-113158000D01*
G37*
X105092000Y-116828000D02*
X103892000Y-116828000D01*
X103892000Y-117618000D01*
X105092000Y-117618000D01*
X105092000Y-116828000D01*
G36*
X105092000Y-116828000D02*
G01*
X103892000Y-116828000D01*
X103892000Y-117618000D01*
X105092000Y-117618000D01*
X105092000Y-116828000D01*
G37*
X105112000Y-115238000D02*
X103912000Y-115238000D01*
X103912000Y-116028000D01*
X105112000Y-116028000D01*
X105112000Y-115238000D01*
G36*
X105112000Y-115238000D02*
G01*
X103912000Y-115238000D01*
X103912000Y-116028000D01*
X105112000Y-116028000D01*
X105112000Y-115238000D01*
G37*
X105112000Y-118268000D02*
X103912000Y-118268000D01*
X103912000Y-119058000D01*
X105112000Y-119058000D01*
X105112000Y-118268000D01*
G36*
X105112000Y-118268000D02*
G01*
X103912000Y-118268000D01*
X103912000Y-119058000D01*
X105112000Y-119058000D01*
X105112000Y-118268000D01*
G37*
X107192000Y-113163000D02*
X105992000Y-113163000D01*
X105992000Y-113953000D01*
X107192000Y-113953000D01*
X107192000Y-113163000D01*
G36*
X107192000Y-113163000D02*
G01*
X105992000Y-113163000D01*
X105992000Y-113953000D01*
X107192000Y-113953000D01*
X107192000Y-113163000D01*
G37*
X107222000Y-116833000D02*
X106022000Y-116833000D01*
X106022000Y-117623000D01*
X107222000Y-117623000D01*
X107222000Y-116833000D01*
G36*
X107222000Y-116833000D02*
G01*
X106022000Y-116833000D01*
X106022000Y-117623000D01*
X107222000Y-117623000D01*
X107222000Y-116833000D01*
G37*
X107242000Y-115243000D02*
X106042000Y-115243000D01*
X106042000Y-116033000D01*
X107242000Y-116033000D01*
X107242000Y-115243000D01*
G36*
X107242000Y-115243000D02*
G01*
X106042000Y-115243000D01*
X106042000Y-116033000D01*
X107242000Y-116033000D01*
X107242000Y-115243000D01*
G37*
X107242000Y-118273000D02*
X106042000Y-118273000D01*
X106042000Y-119063000D01*
X107242000Y-119063000D01*
X107242000Y-118273000D01*
G36*
X107242000Y-118273000D02*
G01*
X106042000Y-118273000D01*
X106042000Y-119063000D01*
X107242000Y-119063000D01*
X107242000Y-118273000D01*
G37*
D11*
X131627066Y-102974530D02*
X131642463Y-102983010D01*
X131658275Y-102990680D01*
X131674459Y-102997530D01*
X131682684Y-103000630D01*
X131692959Y-103004880D01*
X131713816Y-103012610D01*
X131735025Y-103019300D01*
X131756537Y-103024930D01*
X131767391Y-103027340D01*
X131776128Y-103029700D01*
X131793763Y-103033780D01*
X131811578Y-103036970D01*
X131829528Y-103039280D01*
X131838544Y-103040100D01*
X131838553Y-103040090D01*
X131847412Y-103041480D01*
X131865219Y-103043580D01*
X131883106Y-103044810D01*
X131901037Y-103045160D01*
X131910000Y-103045000D01*
X131910000Y-103720000D01*
X130110000Y-103720000D01*
X130110000Y-102970000D01*
X131610000Y-102970000D01*
X131619537Y-102969990D01*
X131627066Y-102974530D01*
G36*
X131627066Y-102974530D02*
G01*
X131642463Y-102983010D01*
X131658275Y-102990680D01*
X131674459Y-102997530D01*
X131682684Y-103000630D01*
X131692959Y-103004880D01*
X131713816Y-103012610D01*
X131735025Y-103019300D01*
X131756537Y-103024930D01*
X131767391Y-103027340D01*
X131776128Y-103029700D01*
X131793763Y-103033780D01*
X131811578Y-103036970D01*
X131829528Y-103039280D01*
X131838544Y-103040100D01*
X131838553Y-103040090D01*
X131847412Y-103041480D01*
X131865219Y-103043580D01*
X131883106Y-103044810D01*
X131901037Y-103045160D01*
X131910000Y-103045000D01*
X131910000Y-103720000D01*
X130110000Y-103720000D01*
X130110000Y-102970000D01*
X131610000Y-102970000D01*
X131619537Y-102969990D01*
X131627066Y-102974530D01*
G37*
X131910000Y-106095000D02*
X131901037Y-106094840D01*
X131883106Y-106095190D01*
X131865219Y-106096420D01*
X131847412Y-106098520D01*
X131838553Y-106099910D01*
X131838544Y-106099900D01*
X131829528Y-106100720D01*
X131811578Y-106103030D01*
X131793763Y-106106220D01*
X131776128Y-106110300D01*
X131767391Y-106112660D01*
X131756537Y-106115070D01*
X131735025Y-106120700D01*
X131713816Y-106127390D01*
X131692959Y-106135120D01*
X131682684Y-106139370D01*
X131674459Y-106142470D01*
X131658275Y-106149320D01*
X131642463Y-106156990D01*
X131627066Y-106165470D01*
X131619537Y-106170010D01*
X131610000Y-106170000D01*
X130110000Y-106170000D01*
X130110000Y-105420000D01*
X131910000Y-105420000D01*
X131910000Y-106095000D01*
G36*
X131910000Y-106095000D02*
G01*
X131901037Y-106094840D01*
X131883106Y-106095190D01*
X131865219Y-106096420D01*
X131847412Y-106098520D01*
X131838553Y-106099910D01*
X131838544Y-106099900D01*
X131829528Y-106100720D01*
X131811578Y-106103030D01*
X131793763Y-106106220D01*
X131776128Y-106110300D01*
X131767391Y-106112660D01*
X131756537Y-106115070D01*
X131735025Y-106120700D01*
X131713816Y-106127390D01*
X131692959Y-106135120D01*
X131682684Y-106139370D01*
X131674459Y-106142470D01*
X131658275Y-106149320D01*
X131642463Y-106156990D01*
X131627066Y-106165470D01*
X131619537Y-106170010D01*
X131610000Y-106170000D01*
X130110000Y-106170000D01*
X130110000Y-105420000D01*
X131910000Y-105420000D01*
X131910000Y-106095000D01*
G37*
X131627066Y-111139530D02*
X131642463Y-111148010D01*
X131658275Y-111155680D01*
X131674459Y-111162530D01*
X131682684Y-111165630D01*
X131692959Y-111169880D01*
X131713816Y-111177610D01*
X131735025Y-111184300D01*
X131756537Y-111189930D01*
X131767391Y-111192340D01*
X131776128Y-111194700D01*
X131793763Y-111198780D01*
X131811578Y-111201970D01*
X131829528Y-111204280D01*
X131838544Y-111205100D01*
X131838553Y-111205090D01*
X131847412Y-111206480D01*
X131865219Y-111208580D01*
X131883106Y-111209810D01*
X131901037Y-111210160D01*
X131910000Y-111210000D01*
X131910000Y-111885000D01*
X130110000Y-111885000D01*
X130110000Y-111135000D01*
X131610000Y-111135000D01*
X131619537Y-111134990D01*
X131627066Y-111139530D01*
G36*
X131627066Y-111139530D02*
G01*
X131642463Y-111148010D01*
X131658275Y-111155680D01*
X131674459Y-111162530D01*
X131682684Y-111165630D01*
X131692959Y-111169880D01*
X131713816Y-111177610D01*
X131735025Y-111184300D01*
X131756537Y-111189930D01*
X131767391Y-111192340D01*
X131776128Y-111194700D01*
X131793763Y-111198780D01*
X131811578Y-111201970D01*
X131829528Y-111204280D01*
X131838544Y-111205100D01*
X131838553Y-111205090D01*
X131847412Y-111206480D01*
X131865219Y-111208580D01*
X131883106Y-111209810D01*
X131901037Y-111210160D01*
X131910000Y-111210000D01*
X131910000Y-111885000D01*
X130110000Y-111885000D01*
X130110000Y-111135000D01*
X131610000Y-111135000D01*
X131619537Y-111134990D01*
X131627066Y-111139530D01*
G37*
X131910000Y-114260000D02*
X131901037Y-114259840D01*
X131883106Y-114260190D01*
X131865219Y-114261420D01*
X131847412Y-114263520D01*
X131838553Y-114264910D01*
X131838544Y-114264900D01*
X131829528Y-114265720D01*
X131811578Y-114268030D01*
X131793763Y-114271220D01*
X131776128Y-114275300D01*
X131767391Y-114277660D01*
X131756537Y-114280070D01*
X131735025Y-114285700D01*
X131713816Y-114292390D01*
X131692959Y-114300120D01*
X131682684Y-114304370D01*
X131674459Y-114307470D01*
X131658275Y-114314320D01*
X131642463Y-114321990D01*
X131627066Y-114330470D01*
X131619537Y-114335010D01*
X131610000Y-114335000D01*
X130110000Y-114335000D01*
X130110000Y-113585000D01*
X131910000Y-113585000D01*
X131910000Y-114260000D01*
G36*
X131910000Y-114260000D02*
G01*
X131901037Y-114259840D01*
X131883106Y-114260190D01*
X131865219Y-114261420D01*
X131847412Y-114263520D01*
X131838553Y-114264910D01*
X131838544Y-114264900D01*
X131829528Y-114265720D01*
X131811578Y-114268030D01*
X131793763Y-114271220D01*
X131776128Y-114275300D01*
X131767391Y-114277660D01*
X131756537Y-114280070D01*
X131735025Y-114285700D01*
X131713816Y-114292390D01*
X131692959Y-114300120D01*
X131682684Y-114304370D01*
X131674459Y-114307470D01*
X131658275Y-114314320D01*
X131642463Y-114321990D01*
X131627066Y-114330470D01*
X131619537Y-114335010D01*
X131610000Y-114335000D01*
X130110000Y-114335000D01*
X130110000Y-113585000D01*
X131910000Y-113585000D01*
X131910000Y-114260000D01*
G37*
D12*
X126368000Y-89256000D03*
X126368000Y-90056000D03*
D13*
X126368000Y-91206000D03*
X126368000Y-92206000D03*
X126368000Y-92706000D03*
X126368000Y-93706000D03*
D12*
X126368000Y-94856000D03*
X126368000Y-95656000D03*
X126368000Y-95656000D03*
X126368000Y-94856000D03*
D13*
X126368000Y-94206000D03*
X126368000Y-93206000D03*
X126368000Y-91706000D03*
X126368000Y-90706000D03*
D12*
X126368000Y-90056000D03*
X126368000Y-89256000D03*
D14*
X131123000Y-88136000D03*
D15*
X126943000Y-88136000D03*
D14*
X131123000Y-96776000D03*
D15*
X126943000Y-96776000D03*
D16*
X125690000Y-81360000D03*
X124420000Y-81360000D03*
X123150000Y-81360000D03*
X121880000Y-81360000D03*
X120610000Y-81360000D03*
X119340000Y-81360000D03*
X118070000Y-81360000D03*
X116800000Y-81360000D03*
X115530000Y-81360000D03*
X114260000Y-81360000D03*
X112990000Y-81360000D03*
X111720000Y-81360000D03*
X110450000Y-81360000D03*
X109180000Y-81360000D03*
D17*
X107930000Y-79595000D03*
X107930000Y-78325000D03*
X107930000Y-77055000D03*
X107930000Y-75785000D03*
X107930000Y-74515000D03*
X107930000Y-73245000D03*
X107930000Y-71975000D03*
X107930000Y-70705000D03*
X107930000Y-69435000D03*
X107930000Y-68165000D03*
X107930000Y-66895000D03*
X107930000Y-65625000D03*
D16*
X109180000Y-63860000D03*
X110450000Y-63860000D03*
X111720000Y-63860000D03*
X112990000Y-63860000D03*
X114260000Y-63860000D03*
X115530000Y-63860000D03*
X116800000Y-63860000D03*
X118070000Y-63860000D03*
X119340000Y-63860000D03*
X120610000Y-63860000D03*
X121880000Y-63860000D03*
X123150000Y-63860000D03*
X124420000Y-63860000D03*
X125690000Y-63860000D03*
D18*
X116570000Y-75510000D03*
X117970000Y-75510000D03*
X119370000Y-75510000D03*
X116570000Y-74110000D03*
X117970000Y-74110000D03*
X119370000Y-74110000D03*
X116570000Y-72710000D03*
X117970000Y-72710000D03*
X119370000Y-72710000D03*
D19*
X108528000Y-112805000D03*
X108528000Y-113307000D03*
X108528000Y-113809000D03*
X108528000Y-114311000D03*
X108528000Y-114813000D03*
X108528000Y-115315000D03*
X108528000Y-115817000D03*
X108528000Y-116319000D03*
X108528000Y-116821000D03*
X108528000Y-117323000D03*
X108528000Y-117825000D03*
X108528000Y-118327000D03*
X108528000Y-118829000D03*
X108528000Y-119331000D03*
X102696000Y-119318000D03*
X102696000Y-118818000D03*
X102696000Y-118318000D03*
X102696000Y-117818000D03*
X102696000Y-117318000D03*
X102696000Y-116821000D03*
X102696000Y-116318000D03*
X102696000Y-115817000D03*
X102696000Y-115315000D03*
X102696000Y-114813000D03*
X102696000Y-114311000D03*
X102696000Y-113818000D03*
X102696000Y-113307000D03*
X102696000Y-112818000D03*
D20*
X103490000Y-138720000D03*
X103490000Y-144120000D03*
D21*
X82750000Y-72850000D03*
X88900000Y-72850000D03*
X82750000Y-61850000D03*
X88900000Y-61850000D03*
D22*
X131010000Y-104570000D03*
D23*
X132960000Y-102720000D03*
X132960000Y-106420000D03*
D24*
X79700000Y-74325000D03*
X79700000Y-75900000D03*
D22*
X131010000Y-112735000D03*
D23*
X132960000Y-110885000D03*
X132960000Y-114585000D03*
M02*
