G04 #@! TF.GenerationSoftware,KiCad,Pcbnew,8.0.4*
G04 #@! TF.CreationDate,2024-11-26T00:50:50-06:00*
G04 #@! TF.ProjectId,bitaxeUltra,62697461-7865-4556-9c74-72612e6b6963,rev?*
G04 #@! TF.SameCoordinates,Original*
G04 #@! TF.FileFunction,Paste,Top*
G04 #@! TF.FilePolarity,Positive*
%FSLAX46Y46*%
G04 Gerber Fmt 4.6, Leading zero omitted, Abs format (unit mm)*
G04 Created by KiCad (PCBNEW 8.0.4) date 2024-11-26 00:50:50*
%MOMM*%
%LPD*%
G01*
G04 APERTURE LIST*
G04 Aperture macros list*
%AMRoundRect*
0 Rectangle with rounded corners*
0 $1 Rounding radius*
0 $2 $3 $4 $5 $6 $7 $8 $9 X,Y pos of 4 corners*
0 Add a 4 corners polygon primitive as box body*
4,1,4,$2,$3,$4,$5,$6,$7,$8,$9,$2,$3,0*
0 Add four circle primitives for the rounded corners*
1,1,$1+$1,$2,$3*
1,1,$1+$1,$4,$5*
1,1,$1+$1,$6,$7*
1,1,$1+$1,$8,$9*
0 Add four rect primitives between the rounded corners*
20,1,$1+$1,$2,$3,$4,$5,0*
20,1,$1+$1,$4,$5,$6,$7,0*
20,1,$1+$1,$6,$7,$8,$9,0*
20,1,$1+$1,$8,$9,$2,$3,0*%
G04 Aperture macros list end*
%ADD10C,0.010000*%
%ADD11C,0.100000*%
%ADD12C,0.001000*%
%ADD13RoundRect,0.250000X0.250000X0.475000X-0.250000X0.475000X-0.250000X-0.475000X0.250000X-0.475000X0*%
%ADD14RoundRect,0.140000X0.140000X0.170000X-0.140000X0.170000X-0.140000X-0.170000X0.140000X-0.170000X0*%
%ADD15RoundRect,0.250000X-1.000000X-0.650000X1.000000X-0.650000X1.000000X0.650000X-1.000000X0.650000X0*%
%ADD16RoundRect,0.100000X-0.637500X-0.100000X0.637500X-0.100000X0.637500X0.100000X-0.637500X0.100000X0*%
%ADD17RoundRect,0.140000X-0.170000X0.140000X-0.170000X-0.140000X0.170000X-0.140000X0.170000X0.140000X0*%
%ADD18RoundRect,0.135000X0.185000X-0.135000X0.185000X0.135000X-0.185000X0.135000X-0.185000X-0.135000X0*%
%ADD19RoundRect,0.135000X-0.185000X0.135000X-0.185000X-0.135000X0.185000X-0.135000X0.185000X0.135000X0*%
%ADD20RoundRect,0.135000X0.135000X0.185000X-0.135000X0.185000X-0.135000X-0.185000X0.135000X-0.185000X0*%
%ADD21R,0.700000X0.450000*%
%ADD22RoundRect,0.250000X-0.250000X-0.475000X0.250000X-0.475000X0.250000X0.475000X-0.250000X0.475000X0*%
%ADD23R,1.168400X1.600200*%
%ADD24RoundRect,0.150000X-0.512500X-0.150000X0.512500X-0.150000X0.512500X0.150000X-0.512500X0.150000X0*%
%ADD25RoundRect,0.250000X1.000000X0.650000X-1.000000X0.650000X-1.000000X-0.650000X1.000000X-0.650000X0*%
%ADD26RoundRect,0.140000X0.170000X-0.140000X0.170000X0.140000X-0.170000X0.140000X-0.170000X-0.140000X0*%
%ADD27R,0.400000X1.100000*%
%ADD28RoundRect,0.140000X-0.140000X-0.170000X0.140000X-0.170000X0.140000X0.170000X-0.140000X0.170000X0*%
%ADD29RoundRect,0.007800X-0.122200X0.442200X-0.122200X-0.442200X0.122200X-0.442200X0.122200X0.442200X0*%
%ADD30RoundRect,0.007800X-0.442200X-0.122200X0.442200X-0.122200X0.442200X0.122200X-0.442200X0.122200X0*%
%ADD31R,3.100000X2.000000*%
%ADD32R,1.100000X0.400000*%
%ADD33RoundRect,0.250000X-1.025000X0.875000X-1.025000X-0.875000X1.025000X-0.875000X1.025000X0.875000X0*%
%ADD34R,0.700000X0.800000*%
%ADD35RoundRect,0.135000X-0.135000X-0.185000X0.135000X-0.185000X0.135000X0.185000X-0.135000X0.185000X0*%
%ADD36R,1.600000X2.700000*%
%ADD37RoundRect,0.250000X-0.325000X-1.100000X0.325000X-1.100000X0.325000X1.100000X-0.325000X1.100000X0*%
%ADD38R,1.100000X1.300000*%
%ADD39RoundRect,0.218750X0.256250X-0.218750X0.256250X0.218750X-0.256250X0.218750X-0.256250X-0.218750X0*%
%ADD40RoundRect,0.250000X0.325000X0.650000X-0.325000X0.650000X-0.325000X-0.650000X0.325000X-0.650000X0*%
%ADD41R,0.952500X0.558800*%
G04 APERTURE END LIST*
D10*
X117072000Y-99915000D02*
X115772000Y-99915000D01*
X115772000Y-98615000D01*
X117072000Y-98615000D01*
X117072000Y-99915000D01*
G36*
X117072000Y-99915000D02*
G01*
X115772000Y-99915000D01*
X115772000Y-98615000D01*
X117072000Y-98615000D01*
X117072000Y-99915000D01*
G37*
X95991600Y-77610200D02*
X95461600Y-77600200D01*
X95461600Y-77040200D01*
X95991600Y-77040200D01*
X95991600Y-77610200D01*
G36*
X95991600Y-77610200D02*
G01*
X95461600Y-77600200D01*
X95461600Y-77040200D01*
X95991600Y-77040200D01*
X95991600Y-77610200D01*
G37*
X97521600Y-81790200D02*
X95601600Y-81790200D01*
X95601600Y-77810200D01*
X97521600Y-77810200D01*
X97521600Y-81790200D01*
G36*
X97521600Y-81790200D02*
G01*
X95601600Y-81790200D01*
X95601600Y-77810200D01*
X97521600Y-77810200D01*
X97521600Y-81790200D01*
G37*
X97291600Y-77590200D02*
X96761600Y-77580200D01*
X96761600Y-77020200D01*
X97291600Y-77020200D01*
X97291600Y-77590200D01*
G36*
X97291600Y-77590200D02*
G01*
X96761600Y-77580200D01*
X96761600Y-77020200D01*
X97291600Y-77020200D01*
X97291600Y-77590200D01*
G37*
X99801600Y-81800200D02*
X97881600Y-81800200D01*
X97881600Y-77820200D01*
X99801600Y-77820200D01*
X99801600Y-81800200D01*
G36*
X99801600Y-81800200D02*
G01*
X97881600Y-81800200D01*
X97881600Y-77820200D01*
X99801600Y-77820200D01*
X99801600Y-81800200D01*
G37*
X98591600Y-77590200D02*
X98061600Y-77580200D01*
X98061600Y-77020200D01*
X98591600Y-77020200D01*
X98591600Y-77590200D01*
G36*
X98591600Y-77590200D02*
G01*
X98061600Y-77580200D01*
X98061600Y-77020200D01*
X98591600Y-77020200D01*
X98591600Y-77590200D01*
G37*
X99881600Y-77610200D02*
X99351600Y-77600200D01*
X99351600Y-77040200D01*
X99881600Y-77040200D01*
X99881600Y-77610200D01*
G36*
X99881600Y-77610200D02*
G01*
X99351600Y-77600200D01*
X99351600Y-77040200D01*
X99881600Y-77040200D01*
X99881600Y-77610200D01*
G37*
D11*
X97326691Y-67872200D02*
X97076691Y-67872200D01*
X97076691Y-68172200D01*
X97326691Y-68172200D01*
X97326691Y-67872200D01*
G36*
X97326691Y-67872200D02*
G01*
X97076691Y-67872200D01*
X97076691Y-68172200D01*
X97326691Y-68172200D01*
X97326691Y-67872200D01*
G37*
X97326691Y-70672200D02*
X97076691Y-70672200D01*
X97076691Y-70972200D01*
X97326691Y-70972200D01*
X97326691Y-70672200D01*
G36*
X97326691Y-70672200D02*
G01*
X97076691Y-70672200D01*
X97076691Y-70972200D01*
X97326691Y-70972200D01*
X97326691Y-70672200D01*
G37*
X97826691Y-67872200D02*
X97576691Y-67872200D01*
X97576691Y-68172200D01*
X97826691Y-68172200D01*
X97826691Y-67872200D01*
G36*
X97826691Y-67872200D02*
G01*
X97576691Y-67872200D01*
X97576691Y-68172200D01*
X97826691Y-68172200D01*
X97826691Y-67872200D01*
G37*
X97826691Y-70672200D02*
X97576691Y-70672200D01*
X97576691Y-70972200D01*
X97826691Y-70972200D01*
X97826691Y-70672200D01*
G36*
X97826691Y-70672200D02*
G01*
X97576691Y-70672200D01*
X97576691Y-70972200D01*
X97826691Y-70972200D01*
X97826691Y-70672200D01*
G37*
X98326691Y-67872200D02*
X98076691Y-67872200D01*
X98076691Y-68172200D01*
X98326691Y-68172200D01*
X98326691Y-67872200D01*
G36*
X98326691Y-67872200D02*
G01*
X98076691Y-67872200D01*
X98076691Y-68172200D01*
X98326691Y-68172200D01*
X98326691Y-67872200D01*
G37*
X98326691Y-70672200D02*
X98076691Y-70672200D01*
X98076691Y-70972200D01*
X98326691Y-70972200D01*
X98326691Y-70672200D01*
G36*
X98326691Y-70672200D02*
G01*
X98076691Y-70672200D01*
X98076691Y-70972200D01*
X98326691Y-70972200D01*
X98326691Y-70672200D01*
G37*
X98826691Y-67872200D02*
X98576691Y-67872200D01*
X98576691Y-68172200D01*
X98826691Y-68172200D01*
X98826691Y-67872200D01*
G36*
X98826691Y-67872200D02*
G01*
X98576691Y-67872200D01*
X98576691Y-68172200D01*
X98826691Y-68172200D01*
X98826691Y-67872200D01*
G37*
X98826691Y-70672200D02*
X98576691Y-70672200D01*
X98576691Y-70972200D01*
X98826691Y-70972200D01*
X98826691Y-70672200D01*
G36*
X98826691Y-70672200D02*
G01*
X98576691Y-70672200D01*
X98576691Y-70972200D01*
X98826691Y-70972200D01*
X98826691Y-70672200D01*
G37*
X99326691Y-67872200D02*
X99076691Y-67872200D01*
X99076691Y-68172200D01*
X99326691Y-68172200D01*
X99326691Y-67872200D01*
G36*
X99326691Y-67872200D02*
G01*
X99076691Y-67872200D01*
X99076691Y-68172200D01*
X99326691Y-68172200D01*
X99326691Y-67872200D01*
G37*
X99326691Y-70672200D02*
X99076691Y-70672200D01*
X99076691Y-70972200D01*
X99326691Y-70972200D01*
X99326691Y-70672200D01*
G36*
X99326691Y-70672200D02*
G01*
X99076691Y-70672200D01*
X99076691Y-70972200D01*
X99326691Y-70972200D01*
X99326691Y-70672200D01*
G37*
D12*
X96871691Y-69297200D02*
X96501691Y-69297200D01*
X96501691Y-69047200D01*
X96871691Y-69047200D01*
X96871691Y-69297200D01*
G36*
X96871691Y-69297200D02*
G01*
X96501691Y-69297200D01*
X96501691Y-69047200D01*
X96871691Y-69047200D01*
X96871691Y-69297200D01*
G37*
X96871691Y-69797200D02*
X96501691Y-69797200D01*
X96501691Y-69547200D01*
X96871691Y-69547200D01*
X96871691Y-69797200D01*
G36*
X96871691Y-69797200D02*
G01*
X96501691Y-69797200D01*
X96501691Y-69547200D01*
X96871691Y-69547200D01*
X96871691Y-69797200D01*
G37*
X98016691Y-70132200D02*
X97081691Y-70132200D01*
X97081691Y-68682200D01*
X98016691Y-68682200D01*
X98016691Y-70132200D01*
G36*
X98016691Y-70132200D02*
G01*
X97081691Y-70132200D01*
X97081691Y-68682200D01*
X98016691Y-68682200D01*
X98016691Y-70132200D01*
G37*
X99311691Y-70132200D02*
X98376691Y-70132200D01*
X98376691Y-68682200D01*
X99311691Y-68682200D01*
X99311691Y-70132200D01*
G36*
X99311691Y-70132200D02*
G01*
X98376691Y-70132200D01*
X98376691Y-68682200D01*
X99311691Y-68682200D01*
X99311691Y-70132200D01*
G37*
X99901691Y-69297200D02*
X99531691Y-69297200D01*
X99531691Y-69047200D01*
X99901691Y-69047200D01*
X99901691Y-69297200D01*
G36*
X99901691Y-69297200D02*
G01*
X99531691Y-69297200D01*
X99531691Y-69047200D01*
X99901691Y-69047200D01*
X99901691Y-69297200D01*
G37*
X99901691Y-69797200D02*
X99531691Y-69797200D01*
X99531691Y-69547200D01*
X99901691Y-69547200D01*
X99901691Y-69797200D01*
G36*
X99901691Y-69797200D02*
G01*
X99531691Y-69797200D01*
X99531691Y-69547200D01*
X99901691Y-69547200D01*
X99901691Y-69797200D01*
G37*
D10*
X90049887Y-82576364D02*
X90049887Y-83136364D01*
X89519887Y-83136364D01*
X89519887Y-82566364D01*
X90049887Y-82576364D01*
G36*
X90049887Y-82576364D02*
G01*
X90049887Y-83136364D01*
X89519887Y-83136364D01*
X89519887Y-82566364D01*
X90049887Y-82576364D01*
G37*
X91339887Y-82596364D02*
X91339887Y-83156364D01*
X90809887Y-83156364D01*
X90809887Y-82586364D01*
X91339887Y-82596364D01*
G36*
X91339887Y-82596364D02*
G01*
X91339887Y-83156364D01*
X90809887Y-83156364D01*
X90809887Y-82586364D01*
X91339887Y-82596364D01*
G37*
X91519887Y-82356364D02*
X89599887Y-82356364D01*
X89599887Y-78376364D01*
X91519887Y-78376364D01*
X91519887Y-82356364D01*
G36*
X91519887Y-82356364D02*
G01*
X89599887Y-82356364D01*
X89599887Y-78376364D01*
X91519887Y-78376364D01*
X91519887Y-82356364D01*
G37*
X92639887Y-82596364D02*
X92639887Y-83156364D01*
X92109887Y-83156364D01*
X92109887Y-82586364D01*
X92639887Y-82596364D01*
G36*
X92639887Y-82596364D02*
G01*
X92639887Y-83156364D01*
X92109887Y-83156364D01*
X92109887Y-82586364D01*
X92639887Y-82596364D01*
G37*
X93799887Y-82366364D02*
X91879887Y-82366364D01*
X91879887Y-78386364D01*
X93799887Y-78386364D01*
X93799887Y-82366364D01*
G36*
X93799887Y-82366364D02*
G01*
X91879887Y-82366364D01*
X91879887Y-78386364D01*
X93799887Y-78386364D01*
X93799887Y-82366364D01*
G37*
X93939887Y-82576364D02*
X93939887Y-83136364D01*
X93409887Y-83136364D01*
X93409887Y-82566364D01*
X93939887Y-82576364D01*
G36*
X93939887Y-82576364D02*
G01*
X93939887Y-83136364D01*
X93409887Y-83136364D01*
X93409887Y-82566364D01*
X93939887Y-82576364D01*
G37*
D13*
X106814000Y-69487000D03*
X104914000Y-69487000D03*
D14*
X116836000Y-103365000D03*
X115876000Y-103365000D03*
D15*
X117380000Y-88392000D03*
X121380000Y-88392000D03*
D16*
X79777500Y-79495000D03*
X79777500Y-80145000D03*
X79777500Y-80795000D03*
X79777500Y-81445000D03*
X79777500Y-82095000D03*
X79777500Y-82745000D03*
X79777500Y-83395000D03*
X79777500Y-84045000D03*
X85502500Y-84045000D03*
X85502500Y-83395000D03*
X85502500Y-82745000D03*
X85502500Y-82095000D03*
X85502500Y-81445000D03*
X85502500Y-80795000D03*
X85502500Y-80145000D03*
X85502500Y-79495000D03*
D17*
X112268000Y-114175600D03*
X112268000Y-115135600D03*
D18*
X94420000Y-54500000D03*
X94420000Y-53480000D03*
D19*
X90649600Y-63569000D03*
X90649600Y-64589000D03*
D20*
X122717000Y-115554000D03*
X121697000Y-115554000D03*
D14*
X115730000Y-127810000D03*
X114770000Y-127810000D03*
D21*
X111370000Y-70430000D03*
X111370000Y-69130000D03*
X109370000Y-69780000D03*
D13*
X98355400Y-63005800D03*
X96455400Y-63005800D03*
D19*
X113770000Y-69930000D03*
X113770000Y-70950000D03*
D14*
X114920000Y-107790000D03*
X113960000Y-107790000D03*
D20*
X127764000Y-98910000D03*
X126744000Y-98910000D03*
D17*
X101750000Y-67930000D03*
X101750000Y-68890000D03*
X105540000Y-129760000D03*
X105540000Y-130720000D03*
D22*
X92522000Y-66420000D03*
X94422000Y-66420000D03*
D23*
X124017400Y-78349000D03*
X121172600Y-78349000D03*
D24*
X92615500Y-128358000D03*
X92615500Y-129308000D03*
X92615500Y-130258000D03*
X94890500Y-130258000D03*
X94890500Y-128358000D03*
D22*
X130580000Y-84090000D03*
X132480000Y-84090000D03*
D25*
X115540000Y-49630000D03*
X111540000Y-49630000D03*
D24*
X101182500Y-129290000D03*
X101182500Y-130240000D03*
X101182500Y-131190000D03*
X103457500Y-131190000D03*
X103457500Y-129290000D03*
D26*
X108485000Y-122798000D03*
X108485000Y-121838000D03*
D27*
X102371800Y-113877200D03*
X101721800Y-113877200D03*
X101071800Y-113877200D03*
X100421800Y-113877200D03*
X100421800Y-118177200D03*
X101071800Y-118177200D03*
X101721800Y-118177200D03*
X102371800Y-118177200D03*
D14*
X99780000Y-104240000D03*
X98820000Y-104240000D03*
D28*
X131050000Y-85700000D03*
X132010000Y-85700000D03*
D20*
X127347000Y-101658000D03*
X126327000Y-101658000D03*
D26*
X124043000Y-76576000D03*
X124043000Y-75616000D03*
D29*
X115672000Y-97580000D03*
D30*
X114737000Y-98265000D03*
X114737000Y-98765000D03*
X114737000Y-99265000D03*
X114737000Y-99765000D03*
X114737000Y-100265000D03*
D29*
X115672000Y-100950000D03*
X117172000Y-100950000D03*
D30*
X118107000Y-100265000D03*
X118107000Y-99765000D03*
X118107000Y-99265000D03*
X118107000Y-98765000D03*
X118107000Y-98265000D03*
D29*
X117172000Y-97580000D03*
D18*
X93270000Y-54490000D03*
X93270000Y-53470000D03*
D19*
X94828800Y-63573600D03*
X94828800Y-64593600D03*
D31*
X106000600Y-77761400D03*
X106000600Y-86081400D03*
D18*
X93465000Y-64589000D03*
X93465000Y-63569000D03*
D14*
X98490000Y-106040000D03*
X97530000Y-106040000D03*
D20*
X94840000Y-102040000D03*
X93820000Y-102040000D03*
D26*
X102646000Y-122798000D03*
X102646000Y-121838000D03*
D14*
X115080000Y-60930000D03*
X114120000Y-60930000D03*
X96139000Y-109681000D03*
X95179000Y-109681000D03*
D13*
X98333000Y-65268000D03*
X96433000Y-65268000D03*
D32*
X90890000Y-98565000D03*
X90890000Y-99215000D03*
X90890000Y-99865000D03*
X90890000Y-100515000D03*
X95190000Y-100515000D03*
X95190000Y-99865000D03*
X95190000Y-99215000D03*
X95190000Y-98565000D03*
D28*
X104650000Y-67450000D03*
X105610000Y-67450000D03*
D26*
X121159000Y-76585000D03*
X121159000Y-75625000D03*
D14*
X82650000Y-87720000D03*
X81690000Y-87720000D03*
D17*
X108712000Y-114201000D03*
X108712000Y-115161000D03*
X111150400Y-114226400D03*
X111150400Y-115186400D03*
D19*
X92057300Y-63569000D03*
X92057300Y-64589000D03*
D14*
X99092000Y-121788000D03*
X98132000Y-121788000D03*
D33*
X105600000Y-111360000D03*
X105600000Y-117760000D03*
D34*
X95751600Y-82862700D03*
X97049900Y-82862700D03*
X98313300Y-82862700D03*
X99611600Y-82862700D03*
D26*
X102133400Y-111046200D03*
X102133400Y-110086200D03*
D35*
X95640000Y-138480000D03*
X96660000Y-138480000D03*
D28*
X95450000Y-97140000D03*
X96410000Y-97140000D03*
X93253000Y-131818000D03*
X94213000Y-131818000D03*
D14*
X124370000Y-101660000D03*
X123410000Y-101660000D03*
X113620000Y-106030000D03*
X112660000Y-106030000D03*
D36*
X103851600Y-89640200D03*
X100851600Y-89640200D03*
D34*
X93649887Y-77313864D03*
X92351587Y-77313864D03*
X91088187Y-77313864D03*
X89789887Y-77313864D03*
D28*
X96189800Y-73128000D03*
X97149800Y-73128000D03*
D37*
X92806600Y-85970200D03*
X95756600Y-85970200D03*
D38*
X116140000Y-126170000D03*
X116140000Y-123870000D03*
X114240000Y-123870000D03*
X114240000Y-126170000D03*
D35*
X98650200Y-73123400D03*
X99670200Y-73123400D03*
D20*
X110465000Y-71760000D03*
X109445000Y-71760000D03*
D14*
X116020000Y-109624000D03*
X115060000Y-109624000D03*
D35*
X109340000Y-74410000D03*
X110360000Y-74410000D03*
D39*
X108320000Y-56135000D03*
X108320000Y-54560000D03*
D28*
X101730000Y-132610000D03*
X102690000Y-132610000D03*
D26*
X112160000Y-121800000D03*
X112160000Y-120840000D03*
D18*
X101092000Y-112066800D03*
X101092000Y-111046800D03*
D14*
X97210000Y-107780000D03*
X96250000Y-107780000D03*
X112290000Y-104240000D03*
X111330000Y-104240000D03*
D28*
X95640000Y-137410000D03*
X96600000Y-137410000D03*
D20*
X127382000Y-86047000D03*
X126362000Y-86047000D03*
D28*
X111051000Y-65931000D03*
X112011000Y-65931000D03*
D14*
X114582000Y-96355000D03*
X113622000Y-96355000D03*
D40*
X103786600Y-92610200D03*
X100836600Y-92610200D03*
D17*
X96763000Y-128638000D03*
X96763000Y-129598000D03*
D37*
X92766600Y-89380200D03*
X95716600Y-89380200D03*
D17*
X109982000Y-114230000D03*
X109982000Y-115190000D03*
D41*
X111185050Y-62440200D03*
X111185050Y-63380000D03*
X111185050Y-64319800D03*
X113940950Y-64319800D03*
X113940950Y-62440200D03*
D37*
X92766600Y-92740200D03*
X95716600Y-92740200D03*
M02*
